<?xml version="1.0" encoding="UTF-8"?><!DOCTYPE svg PUBLIC "-//W3C//DTD SVG 1.1//EN" "http://www.w3.org/Graphics/SVG/1.1/DTD/svg11.dtd"><svg xmlns="http://www.w3.org/2000/svg" xmlns:xlink="http://www.w3.org/1999/xlink"><defs><linearGradient id="paint0_linear" x1="11.906" y1="5.689" x2="16.456" y2="2.71" gradientUnits="userSpaceOnUse"><stop stop-color="#EA7438" stop-opacity="0"/><stop offset="1" stop-color="#EA8D38"/></linearGradient><linearGradient id="paint1_linear" x1="14.444" y1="25.16" x2="20.493" y2="25.597" gradientUnits="userSpaceOnUse"><stop stop-color="#EAB838"/><stop offset="1" stop-color="#EA7438" stop-opacity="0"/></linearGradient></defs><symbol id="404-img"><path d="M5.283 33.508l6.285-26.224h6.07l6.284 26.224L14.458 41l-9.175-7.492zM17.637 5.689h-6.069l-2.24-3.33C8.705 1.168 10.113.075 11.069 0h7.14c.879 0 1.955 1.477 1.452 2.359l-2.023 3.33zM0 25.632v-5.995L9.943 8.89 6.104 24.166 0 25.632z" fill="#F60"/><path d="M9.329 2.359C8.704 1.168 10.112.075 11.068 0h3.57l-.035 5.689h-3.034l-2.24-3.33z" fill="url(#paint0_linear)"/><path d="M14.444 7.285h3.19l2.862 11.906-6.051 5.969V7.285z" fill="url(#paint1_linear)"/><path fill-rule="evenodd" clip-rule="evenodd" d="M7.295 24.978l-.49 2.046c4.111-3.99 12.383-12.037 12.58-12.312l-.246-1.026L7.295 24.978zm10.31-17.694l.334 1.393-8.719 8.27.392-1.636 7.993-8.027zM20.533 19.5L5.593 33.787l.898.733 14.358-13.7-.316-1.32zm-9.985 18.333l-.876-.742 12.28-11.67.34 1.423-11.744 10.989z" fill="#fff"/></symbol><symbol id="company-polygon-test"><path d="M438.985 714.892c-133.667 50.991-273.011-62.01-250.751-203.346l44.014-279.458C254.497 90.824 421.515 27.195 532.922 117.54l220.281 178.636c111.407 90.345 83.675 266.929-49.923 317.893L438.985 714.892z" fill="#F9F9F9"/></symbol><symbol id="company-Vector"><path d="M51.1 26C51.1 12.165 39.835.9 26 .9S.9 12.165.9 26 12.165 51.1 26 51.1 51.1 39.835 51.1 26zM3.068 26C3.069 13.358 13.358 3.069 26 3.069S48.931 13.358 48.931 26c0 12.642-10.29 22.931-22.931 22.931-12.642 0-22.931-10.29-22.931-22.931zM26.296 3.853c-.54 0-1.084.432-1.084 1.084v2.56c0 .651.544 1.083 1.084 1.083.318 0 .591-.106.784-.3.194-.193.3-.466.3-.784V4.937c0-.318-.106-.59-.3-.784-.193-.194-.466-.3-.784-.3zM3.853 25.705c0 .54.432 1.084 1.084 1.084h2.56c.651 0 1.083-.544 1.083-1.084 0-.318-.106-.591-.3-.785-.193-.193-.466-.3-.784-.3H4.937c-.318 0-.59.107-.784.3-.194.194-.3.467-.3.785zm21.852 22.442c.278 0 .549-.138.747-.337.199-.198.337-.468.337-.747v-2.56c0-.651-.544-1.083-1.084-1.083-.318 0-.591.106-.785.3-.193.193-.3.466-.3.784v2.559c0 .54.432 1.084 1.085 1.084zm22.442-21.852c0-.278-.138-.549-.337-.747-.198-.199-.468-.337-.747-.337h-2.559c-.652 0-1.084.544-1.084 1.084 0 .318.106.591.3.785.193.193.466.3.784.3h2.559c.54 0 1.084-.433 1.084-1.085zm-12.206-1.38h-6.325c-.41-1.25-1.376-2.124-2.532-2.53v-9.77c0-.28-.138-.55-.337-.748-.198-.199-.468-.337-.747-.337-.652 0-1.084.543-1.084 1.084v9.765c-1.582.434-2.658 1.933-2.658 3.621A3.733 3.733 0 0026 29.742c1.695 0 3.093-1.082 3.616-2.658h6.325c.652 0 1.084-.543 1.084-1.084 0-.318-.106-.59-.3-.784-.193-.194-.466-.3-.784-.3zM24.427 26c0-.468.163-.86.438-1.135s.667-.438 1.135-.438c.834 0 1.573.648 1.573 1.573 0 .83-.742 1.573-1.573 1.573A1.559 1.559 0 0124.427 26z" fill="#F60" stroke="#F60" stroke-width=".2"/></symbol><symbol id="company-Vector2"><mask id="path-1-inside-1" fill="#fff"><path d="M6.48 29.366a1.016 1.016 0 01-1.442 0A17.09 17.09 0 010 17.203c0-4.595 1.79-8.914 5.038-12.162 5.85-5.847 15.038-6.71 21.855-2.052a1.018 1.018 0 11-1.151 1.682C19.735.568 11.635 1.328 6.48 6.482a15.063 15.063 0 00-4.442 10.721c0 4.05 1.578 7.858 4.442 10.722a1.019 1.019 0 010 1.441zm46.176-.483c.172.465.261.963.261 1.475a4.229 4.229 0 01-1.246 3.01 4.22 4.22 0 01-3.008 1.246c-.121 0-.238-.025-.358-.035.101 1.206-.29 2.445-1.21 3.365a4.24 4.24 0 01-3.009 1.244c-.12 0-.238-.024-.357-.034.1 1.207-.29 2.447-1.211 3.367a4.24 4.24 0 01-3.008 1.244c-.12 0-.239-.024-.358-.034.101 1.206-.29 2.446-1.211 3.366a4.24 4.24 0 01-3.008 1.245 4.24 4.24 0 01-3.01-1.245l-1.79-1.79a4.211 4.211 0 01-1.116 2.02l-1.43 1.429A4.238 4.238 0 0124.576 50c-1.09 0-2.18-.414-3.009-1.244-.92-.92-1.311-2.16-1.21-3.367-.12.01-.238.034-.357.034-1.09 0-2.18-.414-3.01-1.244-.92-.92-1.31-2.16-1.21-3.366-.119.01-.237.034-.357.034-1.09 0-2.18-.414-3.009-1.245-.92-.92-1.311-2.159-1.21-3.365-.12.01-.236.035-.358.035a4.222 4.222 0 01-3.009-1.246 4.26 4.26 0 010-6.018l1.43-1.43a4.22 4.22 0 013.009-1.247c1.137 0 2.206.443 3.01 1.248a4.225 4.225 0 011.246 3.008c0 .134-.027.263-.039.395 1.22-.098 2.477.281 3.37 1.173a4.22 4.22 0 011.245 3.008c0 .122-.024.238-.034.358 1.206-.101 2.445.29 3.365 1.21.92.921 1.311 2.16 1.21 3.367 1.207-.102 2.446.29 3.367 1.21.048.049.08.106.126.156.028.022.062.032.088.058l4.133 4.134a2.22 2.22 0 003.136 0 2.22 2.22 0 000-3.135L26.374 32.394a1.019 1.019 0 111.441-1.441L37.941 41.08a2.219 2.219 0 003.135 0 2.22 2.22 0 000-3.136L30.952 27.817a1.019 1.019 0 111.44-1.44l10.126 10.126a2.22 2.22 0 003.135 0 2.22 2.22 0 000-3.135L35.528 23.24a1.019 1.019 0 111.442-1.442l10.124 10.127c.832.832 2.296.836 3.136 0 .418-.418.649-.975.649-1.568 0-.592-.231-1.149-.65-1.567L34.343 12.9l-8.21 8.209c-2.795 2.796-7.344 2.795-10.138 0a2.963 2.963 0 010-4.187L27.743 5.175A17.086 17.086 0 0139.906.137c4.594 0 8.912 1.79 12.161 5.038 6.48 6.479 6.69 16.974.59 23.707zm-40.24 4.702l1.43-1.43c.418-.42.648-.975.648-1.568 0-.592-.23-1.15-.649-1.567a2.201 2.201 0 00-1.568-.651c-.591 0-1.148.23-1.566.65L9.28 30.45a2.22 2.22 0 000 3.136c.838.836 2.297.836 3.135 0zm4.576 4.576l1.43-1.43a2.2 2.2 0 00.649-1.568 2.2 2.2 0 00-.649-1.566 2.206 2.206 0 00-1.568-.65c-.592 0-1.148.231-1.567.65l-1.43 1.429a2.22 2.22 0 000 3.135 2.22 2.22 0 003.135 0zm4.576 4.577l1.43-1.43c.42-.42.65-.975.65-1.568 0-.591-.23-1.149-.65-1.567-.431-.432-1-.649-1.567-.649s-1.136.217-1.568.65l-1.43 1.428a2.22 2.22 0 000 3.136 2.22 2.22 0 003.135 0zm6.007.012a2.212 2.212 0 00-3.135 0l-1.43 1.43a2.22 2.22 0 000 3.135 2.22 2.22 0 003.135 0l1.43-1.43a2.22 2.22 0 000-3.135zm23.05-36.134a15.06 15.06 0 00-10.72-4.44c-4.05 0-7.858 1.577-10.721 4.44L17.436 18.365a.923.923 0 000 1.304c2 2 5.253 2.001 7.255 0l8.93-8.93a1.018 1.018 0 011.441 0l16.406 16.408c5.046-5.945 4.754-14.936-.842-20.53z"/></mask><path d="M6.48 29.366a1.016 1.016 0 01-1.442 0A17.09 17.09 0 010 17.203c0-4.595 1.79-8.914 5.038-12.162 5.85-5.847 15.038-6.71 21.855-2.052a1.018 1.018 0 11-1.151 1.682C19.735.568 11.635 1.328 6.48 6.482a15.063 15.063 0 00-4.442 10.721c0 4.05 1.578 7.858 4.442 10.722a1.019 1.019 0 010 1.441zm46.176-.483c.172.465.261.963.261 1.475a4.229 4.229 0 01-1.246 3.01 4.22 4.22 0 01-3.008 1.246c-.121 0-.238-.025-.358-.035.101 1.206-.29 2.445-1.21 3.365a4.24 4.24 0 01-3.009 1.244c-.12 0-.238-.024-.357-.034.1 1.207-.29 2.447-1.211 3.367a4.24 4.24 0 01-3.008 1.244c-.12 0-.239-.024-.358-.034.101 1.206-.29 2.446-1.211 3.366a4.24 4.24 0 01-3.008 1.245 4.24 4.24 0 01-3.01-1.245l-1.79-1.79a4.211 4.211 0 01-1.116 2.02l-1.43 1.429A4.238 4.238 0 0124.576 50c-1.09 0-2.18-.414-3.009-1.244-.92-.92-1.311-2.16-1.21-3.367-.12.01-.238.034-.357.034-1.09 0-2.18-.414-3.01-1.244-.92-.92-1.31-2.16-1.21-3.366-.119.01-.237.034-.357.034-1.09 0-2.18-.414-3.009-1.245-.92-.92-1.311-2.159-1.21-3.365-.12.01-.236.035-.358.035a4.222 4.222 0 01-3.009-1.246 4.26 4.26 0 010-6.018l1.43-1.43a4.22 4.22 0 013.009-1.247s0 0 0 0c1.137 0 2.206.443 3.01 1.248a4.225 4.225 0 011.246 3.008c0 .134-.027.263-.039.395 1.22-.098 2.477.281 3.37 1.173a4.22 4.22 0 011.245 3.008c0 .122-.024.238-.034.358 1.206-.101 2.445.29 3.365 1.21.92.921 1.311 2.16 1.21 3.367 1.207-.102 2.446.29 3.367 1.21.048.049.08.106.126.156.028.022.062.032.088.058l4.133 4.134a2.22 2.22 0 003.136 0 2.22 2.22 0 000-3.135L26.374 32.394a1.019 1.019 0 111.441-1.441L37.941 41.08a2.219 2.219 0 003.135 0 2.22 2.22 0 000-3.136L30.952 27.817a1.019 1.019 0 111.44-1.44l10.126 10.126a2.22 2.22 0 003.135 0 2.22 2.22 0 000-3.135L35.528 23.24a1.019 1.019 0 111.442-1.442l10.124 10.127c.832.832 2.296.836 3.136 0 .418-.418.649-.975.649-1.568 0-.592-.231-1.149-.65-1.567L34.343 12.9l-8.21 8.209c-2.795 2.796-7.344 2.795-10.138 0a2.963 2.963 0 010-4.187L27.743 5.175A17.086 17.086 0 0139.906.137c4.594 0 8.912 1.79 12.161 5.038 6.48 6.479 6.69 16.974.59 23.707zm-40.24 4.702l1.43-1.43c.418-.42.648-.975.648-1.568 0-.592-.23-1.15-.649-1.567a2.201 2.201 0 00-1.568-.651c-.591 0-1.148.23-1.566.65L9.28 30.45a2.22 2.22 0 000 3.136c.838.836 2.297.836 3.135 0zm4.576 4.576l1.43-1.43a2.2 2.2 0 00.649-1.568 2.2 2.2 0 00-.649-1.566 2.206 2.206 0 00-1.568-.65c-.592 0-1.148.231-1.567.65l-1.43 1.429a2.22 2.22 0 000 3.135 2.22 2.22 0 003.135 0zm4.576 4.577l1.43-1.43c.42-.42.65-.975.65-1.568 0-.591-.23-1.149-.65-1.567-.431-.432-1-.649-1.567-.649s-1.136.217-1.568.65l-1.43 1.428a2.22 2.22 0 000 3.136 2.22 2.22 0 003.135 0zm6.007.012a2.212 2.212 0 00-3.135 0l-1.43 1.43a2.22 2.22 0 000 3.135 2.22 2.22 0 003.135 0l1.43-1.43a2.22 2.22 0 000-3.135zm23.05-36.134a15.06 15.06 0 00-10.72-4.44c-4.05 0-7.858 1.577-10.721 4.44L17.436 18.365a.923.923 0 000 1.304c2 2 5.253 2.001 7.255 0l8.93-8.93a1.018 1.018 0 011.441 0l16.406 16.408c5.046-5.945 4.754-14.936-.842-20.53z" fill="#F60" stroke="#F60" stroke-width="2" mask="url(#path-1-inside-1)"/></symbol><symbol id="company-Vector3"><path d="M31.535 21.062l.07-.071-.07-.07-1.259-1.26-.07-.07-.071.07-10.18 10.18-3.482-3.483-.071-.07-.07.07-1.269 1.268-.07.07.07.071 4.822 4.813.07.07.071-.07 11.51-11.518zm11.53-16.348V4.63l-.084-.014L21.705.9l-.018-.003-.017.004L.982 4.616.9 4.63V30.018c0 5.939 2.835 11.21 6.883 14.994 4.048 3.783 9.317 6.088 14.2 6.088 4.881 0 10.15-2.305 14.198-6.088 4.048-3.784 6.883-9.055 6.883-14.994V4.714zm-7.144 6v-.084l-.082-.014-14.116-2.473-.018-.004-.017.004-13.563 2.446-.082.015V30.018c0 3.696 1.953 7.18 4.664 9.738 2.71 2.556 6.194 4.201 9.275 4.201 3.082 0 6.565-1.645 9.275-4.201 2.711-2.558 4.664-6.042 4.664-9.738V10.714zM2.886 30.018V6.298l18.802-3.41 19.39 3.41v23.72c0 5.283-2.608 10.057-6.305 13.513-3.697 3.456-8.473 5.583-12.79 5.583-4.319 0-9.094-2.127-12.792-5.583-3.697-3.456-6.305-8.23-6.305-13.513zm7.143 0V12.262l11.677-2.107 12.23 2.143v17.72c0 3.09-1.68 6.078-4.024 8.298-2.344 2.22-5.334 3.655-7.93 3.655s-5.586-1.446-7.93-3.672c-2.343-2.225-4.023-5.214-4.023-8.281z" fill="#F60" stroke="#F60" stroke-width=".2"/></symbol><symbol id="contacts-Email"><path fill-rule="evenodd" clip-rule="evenodd" d="M17.382 10.164l9.104-8.414v16.722l-9.104-8.308zM.538.584a1.86 1.86 0 01.606-.432c.228-.1.472-.152.718-.152h22.762c.24-.002.48.046.702.141.223.096.425.237.596.415.002.003-12.679 11.466-12.679 11.466S.537.585.538.583zM0 18.47V1.75l9.105 8.417L0 18.47zm13.206-4.48l3.348-3.061s9.314 8.513 9.312 8.515c-.17.178-.372.319-.594.414-.223.096-.46.144-.7.142H1.841c-.247 0-.491-.052-.718-.152a1.855 1.855 0 01-.606-.431l9.414-8.488 3.274 3.06z" fill="#F60"/></symbol><symbol id="contacts-marker"><path fill-rule="evenodd" clip-rule="evenodd" d="M11.351 0c6.27 0 11.352 4.914 11.352 10.974C22.703 17.034 11.35 30 11.35 30S0 17.034 0 10.974C0 4.914 5.082 0 11.351 0zm.006 6.216c1.006 0 1.99.296 2.826.85a5.05 5.05 0 011.873 2.261c.385.921.485 1.935.29 2.912a5.026 5.026 0 01-1.393 2.58 5.1 5.1 0 01-2.603 1.38 5.128 5.128 0 01-2.939-.287 5.076 5.076 0 01-2.282-1.856 5.008 5.008 0 01.632-6.364 5.109 5.109 0 013.596-1.476z" fill="#44403F"/></symbol><symbol id="contacts-Metro"><path fill-rule="evenodd" clip-rule="evenodd" d="M7.095 0l6.03 10 5.912-10 7.213 17.442h-6.858l-1.655-4.419L13.125 20l-4.493-6.977-1.774 4.419H0L7.095 0z" fill="#44403F"/></symbol><symbol id="contacts-Phone"><path fill-rule="evenodd" clip-rule="evenodd" d="M3.692 6.873s-.052-1.363.813-3.126C5.115 2.5 7.49 1.811 7.49 1.811s1.016-.258 3.057 1.713a4.632 4.632 0 011.455 2.866c.074 1.002-2.063 3.14-2.063 3.14a6.502 6.502 0 001.476 3.326c.84.977 2.286 2.5 3.046 3.213.65.61 1.376 1.406 2.341 2.047 1.899 1.258 2.355 1.144 2.355 1.144s2.705-2.266 3.514-2.187c.616.062 1.487.468 2.602 1.418.828.704 1.357 1.237 1.773 1.948.148.245.264.508.347.782 0 0 .109 1.125-1.638 2.915-1.738 1.778-4.134 1.312-4.134 1.312s-1.378-.204-3.632-1.265a24.829 24.829 0 01-6.728-4.814c-1.827-1.887-4.222-4.775-5.387-6.784-1.466-2.526-2.182-5.712-2.182-5.712z" fill="#F60"/></symbol><symbol id="email"><path fill-rule="evenodd" clip-rule="evenodd" d="M8.531 4.574L13 .788v7.524L8.531 4.574zM.264.263A.916.916 0 01.914 0h11.172a.924.924 0 01.637.25C12.724.252 6.5 5.41 6.5 5.41L.264.263zM0 8.31V.788l4.469 3.787L0 8.311zm6.482-2.016l1.643-1.377s4.571 3.831 4.57 3.832a.895.895 0 01-.635.25H.904a.943.943 0 01-.65-.263l4.621-3.819 1.607 1.377z" fill="#44403F"/></symbol><symbol id="Eye"><path fill-rule="evenodd" clip-rule="evenodd" d="M18.322 12.583c-1.904 1.71-3.7 2.516-4.363 2.776a8.192 8.192 0 01-6.095.104l-.03-.005s-2.283-.775-4.801-3.041C1.104 10.68 0 8.62 0 8.02c0-.513.633-2.108 2.822-4.23C5.557 1.142 7.834.542 7.834.542l.031-.004a8.188 8.188 0 016.258.175c.744.316 2.345 1.094 4.03 2.538 2.473 2.118 3.412 4.126 3.412 4.77 0 .625-1.033 2.578-3.243 4.563zm-7.54-9.916a5.433 5.433 0 00-2.995.898A5.346 5.346 0 005.802 5.96a5.28 5.28 0 00-.307 3.081 5.316 5.316 0 001.475 2.731 5.41 5.41 0 002.76 1.46c1.047.206 2.13.1 3.116-.304a5.378 5.378 0 002.42-1.964 5.292 5.292 0 00-.671-6.734 5.42 5.42 0 00-3.812-1.562zm0 8a2.71 2.71 0 01-1.906-.781A2.652 2.652 0 018.087 8v-.002L8.171 8c.693 0 1.357-.272 1.847-.757a2.57 2.57 0 00.765-1.826l-.002-.084h.002c.715 0 1.4.281 1.906.781.505.5.79 1.179.79 1.886 0 .707-.285 1.386-.79 1.886a2.71 2.71 0 01-1.906.78z" fill="silver"/></symbol><symbol id="icon"><path d="M213.169 228.807c-30.946 53.594-108.367 53.59-139.32-.008L11.886 121.503C-19.049 67.934 19.64.996 81.54 1l123.912.008c61.9.004 100.597 66.947 69.668 120.512l-61.95 107.287z" stroke="#F2F2F2" stroke-width="2"/></symbol><symbol id="insta"><path fill-rule="evenodd" clip-rule="evenodd" d="M13.571 19H5.43c-1.44 0-2.821-.564-3.839-1.568A5.314 5.314 0 010 13.648V5.352c0-1.42.572-2.78 1.59-3.784A5.468 5.468 0 015.429 0h8.142c1.44 0 2.821.564 3.839 1.568A5.314 5.314 0 0119 5.352v8.296c0 1.42-.572 2.78-1.59 3.784A5.468 5.468 0 0113.571 19zm3.665-14.05c0-.886-.358-1.737-.994-2.365a3.418 3.418 0 00-2.4-.98h-8.82c-.9 0-1.763.353-2.4.98a3.321 3.321 0 00-.993 2.366v8.697c0 .887.357 1.738.993 2.365.637.627 1.5.98 2.4.98h8.82c.9 0 1.764-.352 2.4-.98a3.322 3.322 0 00.994-2.365V4.95zm-2.715.536c-.241 0-.477-.07-.678-.203-.201-.132-.358-.32-.45-.54a1.187 1.187 0 01.265-1.313 1.227 1.227 0 011.33-.26c.224.09.415.245.549.443a1.192 1.192 0 01-.152 1.52 1.23 1.23 0 01-.864.353zm-5.089 8.83c-.98 0-1.937-.286-2.752-.822a4.9 4.9 0 01-1.824-2.192 4.82 4.82 0 01-.282-2.822 4.863 4.863 0 011.355-2.5 4.976 4.976 0 012.537-1.337 5.02 5.02 0 012.862.278A4.94 4.94 0 0113.55 6.72c.544.803.835 1.747.835 2.713a4.85 4.85 0 01-1.451 3.454 4.99 4.99 0 01-3.503 1.43zm0-8.027c-.63 0-1.247.184-1.772.53a3.154 3.154 0 00-1.174 1.41 3.103 3.103 0 00-.182 1.818c.123.61.427 1.17.873 1.61a3.23 3.23 0 003.476.682 3.18 3.18 0 001.43-1.159 3.112 3.112 0 00-.396-3.97 3.212 3.212 0 00-2.255-.921z" fill="#44403F"/></symbol><symbol id="maps-bg"><path d="M247.219 1070.12c4.434-2.53 6.048 3.58 9.668 9.67.251.42.414.75.597 1.13 4.969-.96 8.752-2.77 13.802-3.53 3.634-.53 8.366.47 12.088 1.57-.664-1.46-1.078-2.79-.691-3.75 1.2-3.05 7.247 1.02 9.274 3.55 2.007 2.55 8.461 3.57 10.474 1.03 2.014-2.54-3.227-5.09-4.434-7.63-.603-1.27.99-3.9 2.739-6.25-3.505-2.46-7.118-5.97-8.386-5.44-1.81.76-1.81-10.68-4.237-10.68-2.413 0-2.413-2.29-4.827-2.29-2.427 0-11.491 0-13.905 2.29-2.42 2.28-5.444-5.34-8.46-5.34-3.031 0-6.658-3.82-8.468-6.87-1.817-3.04-16.921 1.53-21.158-2.29-4.231-3.8-12.095-6.85-16.332-6.09-1.085.2-2.949 1.38-5.105 3 7.939 5.83 19.477 4.31 21.036 14.81 1.817 12.18 7.255 7.35 5.234 17.78-.4 2.05-1.546 4.03-3.145 5.87 6.277.61 12.182.63 14.236-.54zM62.831 940.883c-1.624-6.353-6.865-8.802-9.706-8.802-2.828 0-7.674-7.807-10.903-7.322-1.76.263-6.131 1.545-9.965 3.057 3.515 8.004 7.273 16.173 9.007 18.622 3.697 5.226 11.732 19.418 8.653 23.149-2.42 2.925-1.42 14.907 2.358 18.605 1.76-2.761 7.722-11.834 7.722-14.587 0-2.925.414-8.792 5.247-7.33 4.854 1.471 9.3 3.92 9.3 1.964 0-1.964-1.21-8.3-3.23-10.757-2.018-2.432-6.865-10.247-8.482-16.599v0z" fill="#fff" stroke="#E4E4E4" stroke-width="5" stroke-miterlimit="10"/><path d="M187.354 946.971c2.118-.364 8.5-8.866 10.624-8.866 2.132 0 11.238 2.221 11.238.373s3.037-8.129 2.424-9.976c-.606-1.848-3.643-4.425-3.03-6.281.606-1.848 4.855-1.848 4.855-4.06 0-2.221-3.337-3.331-3.337-4.806s4.25-4.069 3.944-7.019c-.3-2.949-3.944-3.322-7.894-5.908-3.95-2.593-7.9-1.491-11.543-3.695-3.637-2.221-11.231-.746-11.231-2.221 0-1.466-4.856-6.281-6.075-8.866-1.219-2.585-5.162-1.11-7.587.737-2.438 1.848-4.562 2.586-6.987.746-2.424-1.856-4.549-4.806-6.674-3.703-2.132 1.11-6.082.372-5.169-3.323.912-3.696-3.944-11.816-6.068-12.927-2.132-1.11-8.507.73-10.018-2.958-1.526-3.695-4.257-6.654-3.038-9.23 1.206-2.594-.306-9.612-1.825-12.57-1.525-2.95-9.112-2.577-11.23-1.475-2.132 1.102-6.995-1.102-9.113.364-2.131 1.484-3.344 4.069-6.381 4.069-1.689 0-2.819-.282-3.746-1.906-3.282 1.806-8.799 2.163-8.799 2.163s-8.104 7.872-8.104 10.83c0 2.95-.395 7.888-2.425 5.427-2.022-2.469-10.522-2.477-12.544-.994-2.03 1.475-5.272-5.908-8.915-3.439-3.637 2.461-8.5-3.455-8.908-.994-.402 2.469-5.666.497-9.317-1.475-3.637-1.973-10.12.986-12.544-2.47-2.432-3.447-18.218-3.446-23.483-3.446-5.257 0-6.476 3.447-8.908 6.405-2.2 2.693-4.747 2.129-7.32 1.996.224 2.478.619 4.69 1.143 5.635 1.212 2.221 6.988 12.935 5.462 16.257-1.505 3.331-4.25 3.331-6.068 5.908-1.825 2.594-12.456 14.045-12.749 15.885-.306 1.856 1.819 9.976.293 11.459-1.505 1.483-6.068 9.239-6.068 12.189 0 2.958 3.337 7.018 6.068 8.129 1.15.48 1.893 1.135 2.234 1.905 2.118-.348 4.066-.547 5.271-.547 2.023 0 10.937 2.959 13.757 2.959 2.84 0 6.885 1.474 8.097 2.958 1.226 1.475 4.053.489 6.082-1.972 2.016-2.461 4.454-.986 6.879-.986 2.424 0 6.483-2.47 7.696-4.922 1.212-2.461 13.361-6.414 16.596-6.903 3.235-.488 8.091 7.383 10.924 7.383 2.847 0 8.098 2.47 9.725 8.875 1.621 6.405 6.477 14.285 8.5 16.737 2.023 2.478 3.235 8.867 3.235 10.847 0 1.972-4.454-.497-9.317-1.98-4.842-1.475-5.257 4.441-5.257 7.391 0 2.966-6.886 13.307-8.091 15.279-1.22 1.972 2.431 3.447 5.264 3.928 1.206.215 6.075-3.928 7.69-3.928.66 0 2.669 1.89 4.82 4.135-.462-7.706.852-7.275 6.512-12.504 5.87-5.411 6.476-15.519 11.74-16.754 5.265-1.235 7.486-4.193 15.181-2.718 7.696 1.483-3.834 7.391 1.41 10.838 5.278 3.464 21.466-.977 22.284 3.944.803 4.922-18.634 9.861-18.225 12.322.402 2.452 10.324 4.93 13.764 7.623 3.446 2.718-1.008 10.345.613 12.815 1.621 2.46 6.878.48 11.135-3.2 4.249-3.7 7.689-2.47 13.157-6.898 5.462-4.433 16.795-.505 18.218-3.198 1.41-2.718-3.242-5.419-13.77-4.433-10.523.978-11.136-11.086-11.136-13.564 0-2.444 10.938-12.553 17.204-13.283 6.279-.745 11.339-2.966 17.414-6.405 2.445-1.384 6.742-2.792 11.135-3.811-.661-3.481-1.512-7.574.306-7.897v0z" fill="#fff" stroke="#E4E4E4" stroke-width="5" stroke-miterlimit="10"/><path d="M103.549 806.591c-2.44-.748-3.953-7.409-7.905-9.262-3.946-1.852-3.04-7.783-6.379-10.366-3.339-2.6-1.22-7.783-1.52-11.861-.3-4.07.607-10.366-1.212-11.479-1.834-1.113-9.425-6.297-12.757-4.436-3.346 1.852-5.779 3.322-7.305 0-1.513-3.331-3.64-5.191-6.978-4.078-3.346 1.113-5.48-.74-7.299-2.6-.272-.283-.497-.723-.695-1.213-1.342.341-3.12.972-4.259 2.085-2.03 1.977-2.426 5.931-5.267 5.931-2.835 0-6.079-1.479-9.316 1.478-3.25 2.965-4.055 6.429-3.653 8.888.402 2.467.818 6.421-1.621 6.421-2.426 0-2.017 3.463-4.45 4.452-2.433.98-6.48 5.432-6.896 7.882-.396 2.484-.396 7.916-2.025 7.916-1.621 0-7.284.989-8.906 3.456-1.622 2.467-3.64 4.925-6.883 3.945-1.663-.507-6.126-.756-10.044-.864.061.482.06.964-.09 1.479-1.519 5.183-.306 10 2.127 12.592 2.426 2.591 3.34 12.966.607 14.444-2.733 1.479-7.898 5.923-7.898 8.522 0 2.584 5.465 4.81 4.559 8.506-.518 2.126-.532 5.889-.239 9.17 2.576.133 5.125.698 7.326-2.002 2.433-2.965 3.652-6.42 8.913-6.42 5.268 0 21.064-.001 23.497 3.455 2.426 3.463 8.913.498 12.552 2.475 3.653 1.977 8.92 3.954 9.322 1.479.41-2.467 5.275 3.463 8.914.996 3.645-2.475 6.89 4.926 8.92 3.448 2.024-1.487 10.528-1.479 12.552.996 2.031 2.467 2.426-2.483 2.426-5.44 0-2.966 8.11-10.857 8.11-10.857s5.52-.357 8.804-2.168c-.73-1.279-1.35-3.38-2.024-6.977-1.513-8.148-3.952-12.957-2.126-15.557 1.826-2.592 6.985 3.339 9.717 1.852 2.74-1.478 7.599-4.444 6.992-7.774-.606-3.331-5.165-7.783-7.591-8.514zM580.935 1143.39s-8.942-5.4-12.197-4.91c-3.247.49-8.532-8.82-14.227-11.28-5.688-2.45-13.407-6.86-15.841-11.28-2.441-4.42-12.607-8.83-13.824-12.27-1.217-3.44-3.248-9.33-6.099-13.74-2.844-4.42-2.837-10.3-5.681-10.79-2.851-.48-20.333 0-20.333-2.93 0-2.94-1.217-16.69-4.875-17.66-3.657-1-8.539-1.97-10.562-4.43-2.031-2.45-8.546-5.4-9.757-2.93-1.217 2.44-4.471 3.42-5.681 3.42-1.224 0-.821 6.87-4.882 6.38-4.068-.49-9.763 5.4-9.763 8.83 0 3.45.417 8.33-4.867 7.85-2.653-.25-6.42-.86-9.675-2.77-.758.72-5.168 4.4-9.612-2.76-4.882-7.87-12.484-15.73-16.819-15.73-3.904 0-17.379.03-14.2 9.04.943-2.01 2.776-3.35 6.406-2.98 9.75.97 5.278 14.7 10.563 15.2 5.292.48 11.383 10.31 6.502 9.81-4.875-.49-8.943 5.4-13.811 3.44-4.881-1.97-10.98-6.88-12.607 0-1.62 6.86-3.664 14.22 2.844 13.72 6.509-.47 5.285 4.92.814 10.31-4.464 5.41 6.912-.98 7.719 3.93.813 4.91 4.464 5.39 2.858 13.25-1.033 4.96-.274 14.87.013 22.2 4.315-.04 10.119-.48 11.356-2.6 2.038-3.42 8.533-10.29 12.191-10.29 3.664 0 7.725 1.97 9.762-1.47 2.031-3.43 13.818-2.45 15.841.49 2.045 2.95 8.54 5.4 10.167 5.4 1.627 0 2.441 4.4 6.509 3.93 4.061-.49 11.786 1.47 11.786 4.41 0 2.95 2.844 5.88 6.092 5.88 3.254 0 6.098 9.82 9.346 9.32 3.261-.49 9.749-.49 9.749 1.96 0 2.06.595 13.68 2.462 20.31 1.121-.72 2.269-.83 2.912-.33 1.634 1.31 8.697-1.3 9.777 3.29 1.087 4.58 12.477 1.95 11.937-5.25-.547-7.21 17.906-7.21 19.533-13.75 1.634-6.55 3.808-18.35 8.156-16.38 4.328 1.96 7.042-8.52 10.843-7.86 3.48.6 6.058 3.88 10.215 2.94l-1.04-10.92z" fill="#fff" stroke="#E4E4E4" stroke-width="5" stroke-miterlimit="10"/><path d="M738.761 974.351c-11.331 0-36.437-6.873-46.556 6.394-10.119 13.259-2.833 20.145-7.28 21.115-4.787 1.06-7.293-20.14-1.634-27.013 5.672-6.865 23.895-9.814 35.226-6.386 11.338 3.445 31.576-2.932 34.415-1.949 2.833.966-2.826 7.839-14.171 7.839v0zm-229.87 1.76c-1.62 2.701-17.63-2.33-18.964-6.295-1.437-4.238 22.458.52 18.964 6.295zm346.457-71.977c-.395-3.428-2.84-1.966-4.855-.496-2.023 1.463-8.505 2.462-10.929 2.462-2.431 0-6.878-3.932-6.878-6.881 0-2.949-.518-6.254-2.942-6.254-2.424 0-6.074-1.487-8.498-8.484-2.431-6.988-6.075-6.988-8.812-8.83-2.731-1.851-10.316 3.304-13.66 4.774-3.343 1.487-9.111-1.47-13.36-2.577-4.256-1.099-6.68-10.309-10.623-9.203-3.95 1.107-4.862 10.682-7.899 10.682s-8.498-19.149-14.273-29.838c-5.761-10.673-16.084-32.036-25.188-36.092-9.112-4.056-6.388-9.574-3.95-12.524 2.424-2.94-5.468-3.684-9.111-1.106-3.643 2.577-8.192 7.368-12.441 8.475-4.256 1.099-10.33 9.211-14.886 7.361-4.555-1.843-6.68 7.005-10.316 2.949-3.65-4.048 4.855-6.997 4.855-10.673 0-3.693-5.768 1.107-7.287-1.107-1.525-2.214-6.38-4.428-6.38-1.107 0 3.32-3.95 1.47-3.95-1.107 0-2.578-2.723-7.369-5.154-4.048-2.431 3.313-10.63 5.155-12.448 2.577-1.825-2.577 1.205-3.684 1.518-7.005.3-3.312-3.037-7.732-2.431-11.78.613-4.056-5.774-8.104-8.805-6.633-3.037 1.479-7.293 0-10.629-1.834-3.337-1.851-16.391 1.107-17.004 4.783-.606 3.684-16.996 6.633-20.034 8.095-3.037 1.479-15.185 3.693-19.434 4.428-4.256.727-8.505 5.155-13.966 5.155-5.462 0-15.792.735-20.647 5.155-4.855 4.428-12.754.735-16.391 2.214-3.643 1.47-9.717-.744-11.542.735-1.825 1.479-1.212 10.309.613 13.994 1.818 3.692 11.536 5.154 12.142 7.368.606 2.214-9.718 2.214-14.58 2.941-4.848.744-3.636 8.112-2.424 11.788 1.212 3.685-4.855 7.378-8.498 8.84-3.643 1.47 0 8.847 3.643 8.847s6.68 3.676 9.717 3.676c3.037 0 3.636 7.369 3.636 11.797 0 4.411-3.636 5.882-8.498 5.882-4.855 0-7.286-4.412-10.323-5.155-3.031-.727-2.424 6.633-4.862 8.103-2.417 1.479-3.03-5.154-6.667-5.154-3.65 0-7.899-.735-9.111-5.163-1.219-4.411-9.724-5.155-13.36-.727-3.643 4.411-4.862 2.214-7.893-.744-3.044-2.941-12.148 1.471-13.36 5.155-1.212 3.685-7.892 5.163-12.754 1.479-4.862-3.676-7.893-5.163-7.893 0 0 5.155-3.649.735-3.649-2.206 0-2.957-7.893-8.839-11.536-11.788s-15.172-2.949-15.784-5.898c-.613-2.941-7.893-5.155-9.711 0-1.831 5.163-4.862 1.478-7.293 0-2.431-1.471-7.892 2.214-10.323 3.684-2.424 1.479-10.323 8.104-14.572 8.104-4.25 0-1.826 6.625-7.287 8.104-5.468 1.479-4.249 5.89-3.643 8.839.606 2.949 3.643 8.104-1.219 10.318-4.855 2.205-6.68-7.369-10.929-11.054-4.249-3.684-7.892.736-7.892 5.899 0 5.155-4.855 5.155-7.293 10.309-2.418 5.155 4.256 5.89 4.256 8.104 0 2.214-3.644 4.412-4.856 5.155-1.212.744-4.249 8.104-3.037 10.31 1.219 2.214 8.499 1.478 7.893 6.633-.606 5.155-1.213 10.31 2.431 8.839 3.643-1.47 7.286-.743 9.71-.743 2.438 0 4.256 5.898 8.505 11.796 4.256 5.89 6.074 8.831 1.825 10.31-4.256 1.47-2.431 4.419 3.037 7.368 1.444.777 2.955 1.958 4.419 3.206.886-.711 1.73-1.438 2.466-2.223 6.877-7.36 19.434-14.25 28.743-11.292 9.308 2.941 17.003-1.966 21.055 4.907 4.031 6.865-.014 19.644 1.607 24.559 1.621 4.907-7.28 5.403-13.354 4.412-6.081-.975-18.63 2.957-17.003 7.371 1.621 4.42 6.074 14.74-2.029 9.33-8.083-5.4-11.331 5.4-6.878 5.4 4.454 0 10.528 6.39 10.528 10.81 0 4.42.401 14.23 4.453 12.75 4.045-1.46 4.045 7.37 9.71 6.89 5.673-.48 10.93 1.97 6.476 8.35-4.446 6.39 2.826 24.06 4.454 20.14 1.021-2.47.122-7.84 1.723-11.25-3.167-9.02 10.255-9.06 14.143-9.06 4.317 0 11.89 7.87 16.752 15.75 4.862 7.86 9.731 2.62 9.731 2.62l1.62-73.44 34.633-11.205c.334-1.049.702-2.007 1.145-2.8 4.46-7.864 10.452-1.363 12.55.496 1.763 1.537.81-8.344 5.665-7.856 4.855.487-.402 9.805 3.248 9.805 2.833 0 9.316 12.21 7.28 21.8 5.393 5.38 15.144 18.03 16.016 21.22 1.082 3.94 15.138-2.61 17.841-1.31 2.71 1.31 23.786 1.31 27.579 1.31 3.779 0 6.469 8.53 10.799 9.84 4.331 1.31 2.704 9.84 3.242 15.73.544 5.91 7.041 11.82 7.572 17.07.545 5.23 7.566 2.62 11.896 3.93 4.331 1.3 10.8 3.27 11.345 8.52.538 5.25 5.952 1.31 6.49-2.63.538-3.92 5.951-9.16 14.048-13.1 3.656-1.78 6.067-1.77 7.899-.93 1.505-4.71 3.057-8.69 4.133-9.25 2.826-1.47 8.09-6.38 8.505-11.29.402-4.91 11.332-4.91 18.611-.5 7.293 4.42 11.746 4.44 12.155-2.44.395-6.88 10.916-8.85 14.171-6.88 3.227 1.95 13.353 8.84 18.208 6.37 4.862-2.45 29.152.51 35.226 2.47 6.074 1.95 7.688-2.95 12.952 4.41 4.413 6.19 6.571.63 11.467 5.4-.02-1.88-.34-4.25-.34-6.76 0-4.78 6.074-8.83 7.286-12.51 1.212-3.69-5.468-14.74-5.468-18.43 0-3.67 0-12.51-3.037-14.35-3.037-1.85 5.768-6.64 7.865-6.5 4.508.26 10.929-5.432 12.89-3.069 1.961 2.387 5.884 3.069 9.806 3.069 3.916 0 2.24-5.432 0-7.819-2.247-2.387 7-24.469 8.403-31.953 1.396-7.484 4.767-.678 9.248 0 4.487.669 9.805-.347 12.604 1.355 2.806 1.693 10.936-2.033 12.897-5.775 1.961-3.742-2.247-4.766-1.961-13.258.286-8.501 4.488-12.59 8.962-12.59 4.487 0 5.89-5.089 5.89-9.161 0-3.693 3.643-6.022 4.746-10.698-1.45-1.867-2.669-4.337-2.894-6.237v0z" fill="#fff" stroke="#E4E4E4" stroke-width="5" stroke-miterlimit="10"/><path d="M1192.36 248.989c-1.62 3.94-10.43 4.196-8.09 7.864 4.05 6.395 24.28 2.949 24.69-4.915.39-7.848-14.98-6.873-16.6-2.949zm-51.41 576.822c-11.53 12.524-34.6 15.465-34.6 25.783 0 10.31-27.93 15.465-30.36 11.045-2.13-3.866 20.64-5.155 26.11-19.893 5.46-14.729 26.19-22.313 36.42-41.991 7.29-13.987 13.36-35.35 17.61-33.888 4.25 1.479-3.64 46.412-15.18 58.944zM2269.59 503.64c-4.03-1.718-17-11.788-20.23-17.431-3.23-5.651-18.82-8.352-18.82-5.403 0 2.941-5.06-.735-6.27-3.924-1.22-3.189-17.61-3.684-17.81-.256-.21 3.445 3.85 3.685 6.27 7.625 2.43 3.924-3.24 6.13-2.03 10.55 1.21 4.419-6.07-2.214-8.7-4.659-2.62-2.446-1.41-12.045-.61-16.944.83-4.916-4.65-3.941-5.26-8.839-.61-4.916-18.82-14.987-26.5-18.919-7.69-3.924-17.61-7.361-20.25-12.276-2.62-4.907-16.38-5.394-21.64-12.036-5.27-6.626-28.34-18.415-38.25-19.142-9.91-.743-7.7-7.369-12.55-6.394-4.87.983-25.71-.24-32.17-1.479-6.49-1.214-7.91 4.684-12.56 2.462-4.65-2.197-28.74-12.772-31.58-8.831-2.82 3.924-1.6 9.575-4.44 10.549-2.83.975 0 5.899 6.68 13.268 6.68 7.361 2.63 13.02-3.45 16.209-6.06 3.18-15.79-2.958-18.82-8.6-3.03-5.643-11.32-3.198-13.35-10.567-2.02-7.36 2.43-8.591 6.48-4.411 4.05 4.172 9.51.735 10.12-4.659.61-5.403-10.93-9.096-17.21-8.6-6.27.487-9.72 11.053-16.18 15.473-6.48 4.42-31.57-1.718-34.21-4.668-2.63-2.941-37.65 0-41.28 2.949-3.65 2.941-1.01 14.483-2.84 15.474-1.81.967-3.63-13.268-3.63-15.969 0-2.71-4.25-4.659-10.53-4.659-6.28 0-9.92-.265-7.29-3.445 2.63-3.189-2.43-6.395 2.42-10.558 4.87-4.18-8.89-17.192-22.25-23.569-13.35-6.394-43.71-2.71-51.81.239-8.09 2.95-24.28 1.966-31.97 2.206-7.69.256-1.42-3.684-3.64-8.096-2.23-4.42-15.39-9.823-17.21-6.138-1.82 3.684-5.26 0-5.26-2.71 0-2.684-12.35-8.096-17.2-6.873-4.86 1.223-7.08-5.403-1.42-5.403 5.68 0 15.37 1.471 11.12-6.377-4.24-7.865-40.67-10.319-44.1-8.84-3.45 1.47-.2 7.113-8.1 16.208-7.9 9.08-15.58 2.95-14.57-1.478 1.01-4.42 10.72-3.676 10.72-8.096 0-4.428-13.36-1.975-15.37-5.659-2.04-3.676 2.82-6.13 7.68-4.42 4.86 1.727 13.36 2.71 13.76 0 .41-2.685-5.05-3.189-13.15-4.916-8.1-1.71-27.72-7.368-38.05-6.129-10.32 1.222-14.97-4.668-20.63-5.164-5.67-.495-5.67 3.685-3.04 7.609 2.62 3.941-5.46 6.394-12.14 5.163-6.68-1.222-16.4 4.42-12.55 10.31 3.84 5.899 7.68-1.718 10.93.256 3.23 1.966-8.5 6.13-3.65 8.84 4.86 2.701 4.05 8.344 4.26 11.293.19 2.941-8.1 4.42-11.13 0-3.04-4.42-7.29-.496-12.96-.983-5.66-.496-9.92 2.693-3.85 3.684 6.08.975 8.1 5.643 0 6.626-8.08.983-6.07-9.088-10.92-7.857-4.86 1.231-15.38-4.667-21.05-4.419-5.67.24-8.3 5.651-15.79 6.386-7.49.735-17.6-4.668-20.65-9.575-3.03-4.916-4.03-6.386-7.67-.735-3.65 5.651-3.85 16.448-7.5 17.183-3.64.743-5.05 10.31-8.69 12.772-3.66 2.453-3.85-3.693-8.5-3.197-4.66.495-19.63-17.184-20.45-22.339-.8-5.155-10.12-14.985-12.53-16.943-2.44-1.966 2.41-2.949 5.46.239 3.03 3.189 6.87 3.189 9.91 1.231 3.03-1.966 2.63-11.045-2.63-11.301-5.27-.24-3.25-5.643-.61-6.634 2.63-.975-6.07-10.55-2.83-11.533 3.23-.974 1.82-5.155-2.63-5.89-4.45-.735-9.11-5.155-9.32-7.864-.2-2.702-19.02-3.685-18.21.247.81 3.933-6.07 2.702-5.06-.487 1.02-3.189-6.68-2.214-15.59-5.155-8.89-2.949-9.1-10.566-12.14-11.045-3.03-.504-2.02 10.549-6.46 8.096-4.46-2.462-9.32 2.214-6.9 8.591 2.43 6.386.22 7.361-.19 12.524-.41 5.155-2.83 2.95-8.1.736-5.26-2.214-5.26 5.402-16.59 1.966-11.33-3.437-16.39.248-18.42-4.18-2.02-4.42-5.46-4.899-5.87-1.223-.4 3.684-17.81 2.214-19.22-3.197-1.41-5.403 3.03-6.378 5.66-7.848 2.63-1.479-2.83-3.685-12.33-2.95-9.52.736-15.6-5.89-25.3-4.676-9.73 1.24-31.38 3.685-34.41 5.412-3.03 1.718 2.84 8.343-1.82 8.839-4.65.488-1.42-10.805-2.23-16.208-.8-5.403-7.89-6.147-6.88-1.958 1.01 4.172-11.13 5.642-14.16 2.445-3.04-3.189-7.9-7.369-15.79-9.814-7.89-2.454-17.61 7.856-15.38 10.805 2.24 2.95 8.09.736 8.29 2.694.42 4.039-16.79 2.461-16.79 5.89 0 3.445-15.98 8.104-20.85 8.847-13.31 2.024-16.19 1.959-22.46 8.353-6.27 6.378-1.41-5.651 3.44-11.55 4.86-5.89 9.91-3.436 12.75-8.096 2.84-4.667 7.28-4.18 14.98-5.659 7.7-1.47 7.29-6.864 10.94-8.839 3.63-1.949 12.52-6.13 14.15-10.549 1.62-4.428 19.84-11.789 23.48-11.55 3.64.257 4.45-8.839 6.46-8.839 2.04 0 12.56-5.643 16.61-7.848 4.04-2.206 6.07-6.882 6.28-10.071.2-3.188-5.47-2.701-6.08-5.65-.61-2.949 2.63-.984 6.88-2.95 4.25-1.958 0-8.839-3.43-7.608-3.45 1.231 1.82-3.685-1.22-8.105-3.04-4.419-9.11 2.702-8.91-1.966.21-4.667-.4-10.558-2.83-13.507s-6.88 5.155-11.94.496c-5.06-4.659-19.84-7.617-19.84-5.651 0 1.975-7.09-2.949-8.5-.975-1.41 1.967-13.15 1.711-16.8.48-3.63-1.215-8.7 1.726-8.9 6.146-.19 4.428-14.57 2.702-17.19 1.958-2.63-.735 9.92-13.259 9.92-15.473 0-2.206-21.25.496-22.47-1.95-1.21-2.453-11.53-3.205-16.19-2.949-4.67.239-.2-1.479 4.05-1.966 4.25-.496 8.09-4.924 12.75-5.899 4.65-.975 3.64-2.941 1.61-6.386-2.03-3.428-6.89-1.718-11.54-3.428-4.65-1.719-10.32-4.18-14.36-4.42-4.05-.248-8.51 2.454-18.01 4.659-9.53 2.214-10.32 11.054-15.18 13.755-4.86 2.71-13.36 13.499-9.31 14.482 4.05.992 2.02 3.941 2.63 7.121.61 3.197-3.04 3.933-7.69 2.95-4.66-.975-21.05-.736-20.85 3.445.2 4.18 9.52 6.129 8.91 8.343-.61 2.206-7.08-.247-10.32-2.453s-10.528-.992-11.937 3.188c-1.417 4.172-7.088 3.189-8.912 2.215-1.825-.983-5.862 1.958-8.899.735-3.036-1.231 6.073-6.634 3.847-9.335-2.233-2.694-11.942-.248-12.957 4.18-1.014 4.42-6.883-3.189-9.102-1.719-2.233 1.471-4.657 3.189-8.913 5.395-4.248 2.214-11.526-2.453-13.153 1.479-1.614 3.924 8.102 5.155 8.299 6.865.197 1.735-22.052 1.478-22.665 4.18-.606 2.71-8.095 2.71-17.205 2.949-9.103.257-5.46 5.651-12.752 7.369-7.285 1.727-10.519 1.966-12.949 6.386-2.424 4.42-8.102 5.155-10.526 1.719-2.424-3.437-9.11 1.71-5.461 2.205 3.636.496.205 4.916-2.021 3.924-2.227-.974-8.702 4.676-5.059 4.181 3.642-.48 5.46 3.189 3.642 5.898-1.824 2.702-9.715-3.197-11.744-.744-2.022 2.471 3.853 5.651 7.496 5.156 3.642-.48 5.664 2.453 6.066 5.65.409 3.189-8.503-1.966-10.315.744-1.824 2.693 1.417 3.924 5.25 4.419 3.86.488 1.021 2.214 4.459 5.891.266.289.484.553.661.81 2.09 3.04-1.839 4.105-1.464 7.046.395 3.197-3.854 4.411-3.854 1.47 0-2.949-10.716-3.924-12.949-.743-2.233 3.205-3.84 5.659-6.482 2.71-2.621-2.941-10.315.735-20.228 1.231-9.913.487-30.351 1.47-35.417 3.684-5.065 2.206-9.313 10.798-4.657 16.448 4.657 5.659.198 8.105.198 11.789 0 3.685 12.146 11.293 18.628 12.028 6.474.736 11.73 10.311 7.89 16.209-3.846 5.89-15.584-1.718-23.27-9.087-7.694-7.361-25.498-10.311-31.374-9.815-5.868.479-2.43-6.386-9.913-6.146-7.496.248-13.759 8.352-8.708 8.352 5.059 0 8.307-.487 5.672 2.454-2.635 2.949 1.416 2.213 7.489 5.394 6.066 3.205-5.058 7.625-11.336 2.47-6.27-5.155-12.95-.256-14.767 3.685-1.825 3.924 7.278 15.208 18.205 17.183 10.928 1.966 7.292 6.13 12.351 8.344 5.052 2.205 1.423 4.676-2.022 4.915-3.452.248-10.329-6.386-15.789-9.822-5.467-3.437-20.234 1.478-23.264-2.462-3.044-3.924 2.015-7.848-.824-10.789-2.832-2.95-.395-9.583 3.248-16.465 3.642-6.873-.607-18.662-5.876-20.628-5.263-1.95-4.854 4.667-3.636 6.633 1.205 1.967.606 11.302-3.445 17.432-4.051 6.138-16.395 6.138-16.395 10.318 0 4.172-8.292 7.369-5.466 10.31 2.839 2.949 13.97 18.175 15.591 22.842 1.62 4.66-9.92 19.389-8.102 27.989 1.818 8.6-1.621 12.524.599 16.704 2.233 4.181 7.292.48 10.532 2.206 3.241 1.718 8.497-2.453 15.987-4.172 7.489-1.71 21.249 7.865 26.307 10.806 5.059 2.949 2.431 7.848 5.059 12.763 2.635 4.924-6.066 4.924-6.278 12.285-.197 7.369 15.183 10.558 15.789 12.763.613 2.206-10.934.496-15.38-1.47-4.446-1.966-4.854-9.088-6.264-10.558-1.423-1.471 3.03-7.369 3.425-12.037.415-4.667-5.045-7.368-6.87-10.557-1.824-3.189-5.058-7.857-8.701-6.874-3.642.983-17.001 2.454-21.052 6.874-4.057 4.42.607 16.943 2.84 23.082 2.226 6.146-11.738 14.729-11.343 19.645.415 4.915-4.249 7.121-10.322 11.053-6.066 3.916-12.745 6.865-12.547 13.259.211 6.386-8.089 2.95-12.337 0-4.249-2.949-9.723 1.71-15.789 1.471-6.073-.24-6.073-6.386-10.934-4.18-4.848 2.214-8.082-2.685-6.672-7.113 1.416-4.412 6.876-.983 7.285 2.205.415 3.189 3.846 1.719 7.89-.983 4.051-2.693 2.03 3.446 7.905 3.933 5.869.496 2.621-3.685 7.081-3.197 4.446.504 4.643-1.215 3.234-3.933-1.416-2.701 3.241-4.651 6.073-6.13 3.179-1.66 1.62-7.121 4.248-8.831 2.628-1.718.804-5.163 3.636-5.411 2.846-.247 4.058-5.411 6.679-5.411 2.628 0 4.051-5.155 2.431-7.856-1.621-2.693 1.014-10.062 3.642-11.046 2.628-.983 2.839-3.924.415-6.138-2.437-2.214-11.342-9.583-10.737-14.242.606-4.659-1.62-13.259-.408-16.935 1.219-3.693.211-11.31-.198-15.73-.401-4.419 2.234-9.327 3.446-17.431 1.211-8.096-7.088-16.696-11.125-18.91-4.051-2.205-1.423-6.625 4.445-12.524 5.869-5.89 6.271-24.304 5.869-28.237-.401-3.932-12.343-7.36-16.993-6.881-4.657.495-21.862-.479-26.111-1.463-4.248-.983-5.671 4.412-7.693 9.327-2.022 4.916-6.475 12.524-9.109 23.578-2.622 11.045-13.352 14.49-18.206 16.944-4.855 2.462-7.898 10.549-5.678 14.49 2.233 3.924 5.467.735 7.7 2.206 2.226 1.47-.204 11.797-1.627 13.267-1.416 1.463 2.634 5.155-.804 7.848-3.445 2.702-6.679 8.36-4.657 11.301 2.023 2.95 11.936 4.42 16.184 7.369 4.248 2.941 2.628 8.336 5.882 13.499 3.228 5.155 6.673 1.975 8.286 5.155 1.627 3.189-5.862 15.969-8.504 16.448-2.621.496-13.351-13.011-16.585-15.952-3.24-2.941-15.782-7.625-22.052-11.541-6.277-3.932-11.336-3.436-18.219-9.087-6.877-5.651-12.746-8.361-25.3-8.096-12.555.239-20.636-3.445-24.892-2.71-4.248.736-2.628-5.155-10.117-9.079-7.489-3.941-12.35-9.335-16.599-6.625-4.248 2.684-2.628 12.515 3.854 13.738 6.468 1.231 3.234 5.403 10.117 4.915 6.877-.487 8.899 2.454 8.701 7.609-.204 5.155 3.241 10.31 6.278 13.755 3.029 3.445 1.212 9.079-4.256 9.079-5.467 0-11.731.983-9.3 5.651 2.424 4.667-1.627 5.898-7.088 3.444-5.467-2.47-2.233-7.121 0-9.83 2.227-2.693-4.861-6.138-8.306-7.609-3.438-1.479-17.191 10.806-21.037 12.764-3.847 1.966-13.359-2.949-23.074 0-9.709 2.949-9.096 12.284-12.752 11.301-3.643-.967-14.366 1.223-18.424-1.727-4.044-2.94-.796-4.659 3.445-4.411 4.256.256 5.665-1.47 3.241-4.907-2.437-3.445 3.241-8.848 3.036-11.301-.197-2.454-15.992 3.932-18.613 6.625-2.635 2.701.197 7.625-2.635 9.335-2.84 1.718-2.826-2.949-6.08-4.42-3.227-1.479-26.907 5.156-31.353 11.294-4.459 6.146-13.161 6.394-13.161 9.83 0 3.445-10.73 3.181-14.978 5.643-4.255 2.453-1.409 12.524-3.029 17.439-1.621 4.907-18.22 3.437-23.278 3.677-5.052.256-6.884-11.789-10.935-12.525-4.037-.735-1.62-7.608-.395-10.549 1.212-2.949 4.446-.504 9.505-4.42 5.065-3.941 10.124 1.95 12.146-.743 2.022-2.702-7.693-9.823-8.292-15.969-.613-6.13-11.343-7.857-17.416-5.891-6.067 1.975-12.746.248-16.994-2.205-4.255-2.454-3.847 4.42 2.431 6.386 6.27 1.958 3.029 7.856 4.044 11.54 1.021 3.677-1.621 12.037-5.263 18.415-3.643 6.386-1.014 6.138 4.459 5.882 5.461-.232 5.059 8.368 5.059 14.738 0 6.394-4.255 8.112-4.255 12.771 0 4.676-4.453-2.197-5.876-.239-1.409 1.958-3.234-.983-4.037-4.915-.811-3.916-9.11-1.727-13.76-3.189-4.664-1.471-6.482.983-8.701 5.155-2.233 4.172-8.708 5.89-12.146 6.386-3.82.545-9.512 8.599-13.154 11.549-3.649 2.949-4.248 8.591.803 14.473 5.073 5.891 6.067 9.831 5.672 13.02-.402 3.189-14.168 2.214-16.395-1.231-2.226-3.428-11.132-4.651-14.168-3.924-3.037.735-11.329-11.045-15.578-11.293-4.248-.248-6.883 6.138-8.292 9.319-1.416 3.205 2.015 4.188 4.044 9.583 2.022 5.411 9.511 5.65 13.358 5.65 3.847 0 2.424 7.122 1.212 10.071s-8.299 5.155-10.322 1.957c-2.022-3.188-10.532.001-10.73-3.924-.197-3.924-6.27-9.814-12.547-8.591-6.264 1.223-7.483-3.693-7.081-9.591.415-5.882-3.438-9.319-3.241-12.021.204-2.709-2.826-8.103.402-10.805 3.24-2.693.817-6.865 1.021-10.558.197-3.684-5.467-9.335-10.526-9.335-5.058 0-4.044-6.138-8.292-7.361-4.249-1.231-12.752-9.831-13.358-13.507-.613-3.684-7.088-4.188-4.862-5.403 2.234-1.231 7.292.488 10.935 4.916 3.635 4.411 9.504 8.344 19.016 9.822 9.518 1.471 13.358 6.865 23.876 9.079 10.526 2.214 16.797 3.685 31.979 6.395 15.176 2.701 35.417-15.978 39.673-21.133 4.248-5.155-1.219-15.704-1.219-19.645 0-3.924-6.883-4.419-7.884-7.36-1.021-2.95-5.474-8.344-11.343-8.344s-6.672-8.105-11.329-7.609c-4.664.488-7.898-2.47-20.037-12.292-12.146-9.815-28.936-16.936-31.979-15.226-3.03 1.727-5.059 2.701-7.081-.975-2.022-3.684-6.672-3.189-9.913-.24-3.24 2.941-6.475-2.701-12.548-.991-6.073 1.727-9.307-3.189-7.693-5.403 1.62-2.205 10.533-.239 10.117-3.916-.401-3.692-3.636.001-9.103-4.427-5.467-4.42-8.496-1.471-9.715 2.214-1.205 3.676-5.454 2.685-8.3-.496-.258-.306-.592-.545-.925-.793-.933 6.146-3.929 6.766-6.965 5.956-3.65-.991-7.285 6.378-11.33 6.378-4.044 0-8.496 5.394-9.32 9.814-.797 4.428-5.242 1.974-5.242 4.915 0 2.958 0 5.899-2.036 8.84-2.016 2.958 0 4.428 2.035 9.327 2.023 4.924 6.468 4.428 8.497 5.899 2.022 1.47 9.709 9.334 9.709 12.284 0 2.949-6.066 10.318-8.497 12.284-2.43 1.942-5.678 6.865-4.05 9.806 1.62 2.958 8.503 15.234 12.949 25.057 4.459 9.822-1.607 5.402-4.446 9.814-2.832 4.42 1.205 9.839 2.015 12.78.824 2.941-3.642 2.454-3.234 4.899.409 2.47 6.475 3.453 6.883 5.411.402 1.95-4.05 4.42-2.029 8.352 2.036 3.932 6.884 3.916 7.285 8.831.416 4.916-8.905 5.395-8.496 9.344.415 3.924 12.139 8.831 17.409 16.2 5.256 7.361 4.854 9.327 3.642 13.259-2.444 7.906-17 14.746-20.248 23.578-3.227 8.839-15.367 13.738-21.038 20.628-2.315 2.809-4.61 6.584-6.53 10.087 2.404-.744 4.317-1.636 5.713-2.479 3.24-1.974 5.46 7.609 8.708 10.798 3.234 3.197 9.715.248 11.935 3.197 2.233 2.949-1.825 3.189-6.468 2.206-4.657-.975-5.876 2.453-13.16 5.394-5.434 2.206-4.902 4.552-6.72 6.403 3.275 5.783-1.117 6.526-2.792 10.913-1.818 4.783-4.255 5.527-4.554 8.468-.307 2.957.605 5.163.912 9.574.3 4.436.912 5.155 3.036 8.848 2.124 3.684-1.824 3.684-3.649 5.527-1.811 1.834-.606 5.89 1.825 8.839 2.43 2.941 2.43 6.626 1.525 9.203-.913 2.578 2.117 7.006 4.248 9.575 2.117 2.586 1.818 9.591 3.636 11.417 1.818 1.85 3.949 3.693 7.292 2.586 3.336-1.107 5.46.743 6.971 4.056 1.525 3.304 3.956 1.842 7.299 0 3.33-1.851 10.914 3.305 12.745 4.412 1.818 1.107.913 7.368 1.212 11.416.3 4.057-1.818 9.212 1.518 11.797 3.337 2.57 2.43 8.468 6.373 10.311 3.949 1.842 5.46 8.467 7.898 9.211 2.424.727 6.978 5.155 7.584 8.468.606 3.312-4.248 6.261-6.985 7.732-2.73 1.479-7.884-4.42-9.709-1.842-1.824 2.585.613 7.369 2.124 15.473 1.519 8.104 2.737 8.84 5.767 8.84 3.037 0 4.249-2.578 6.38-4.057 2.117-1.462 6.978.735 9.109-.363 2.117-1.099 9.702-1.471 11.227 1.47 1.519 2.949 3.03 9.946 1.825 12.532-1.219 2.569 1.511 5.519 3.036 9.203 1.512 3.677 7.884 1.842 10.015 2.949 2.125 1.107 6.979 9.204 6.067 12.888-.913 3.685 3.036 4.42 5.167 3.313 2.124-1.099 4.249 1.842 6.673 3.693 2.423 1.833 4.547 1.098 6.985-.744 2.424-1.842 6.366-3.313 7.584-.735 1.219 2.577 6.073 7.377 6.073 8.839 0 1.471 7.592.001 11.228 2.215 3.642 2.197 7.591 1.098 11.54 3.684 3.948 2.577 7.591 2.949 7.891 5.89.306 2.941-3.942 5.527-3.942 6.998 0 1.47 3.336 2.577 3.336 4.791 0 2.206-4.249 2.206-4.855 4.048-.612 1.85 2.424 4.42 3.03 6.262.613 1.842-2.424 8.104-2.424 9.946 0 1.843-9.103-.372-11.234-.372-2.124 0-8.503 8.477-10.621 8.84-1.817.322-.966 4.403-.306 7.873 6.543-1.512 13.242-2.131 13.971-.372 1.205 2.941-14.169 10.806-17.001 12.029-2.839 1.222 5.454 6.377 5.256 9.335-.19 2.941-8.912 3.684-8.095 9.566.81 5.899-2.825 7.138-7.489 7.138-4.657 0-5.869 3.428-3.643 3.916 2.233.495 2.023 7.864 10.73 10.554 8.695 2.71 18.008 12.54 25.498 22.35 1.048 1.38 2.267 2.47 3.567 3.4 2.165-1.57 4.038-2.71 5.127-2.9 4.255-.74 12.153 2.2 16.402 5.88 4.255 3.69 19.424-.73 21.248 2.21 1.818 2.94 5.461 6.64 8.504 6.64 3.03 0 6.066 7.36 8.497 5.15 2.424-2.21 11.527-2.21 13.964-2.21 2.424 0 2.424 2.21 4.848 2.21 2.437 0 2.437 11.05 4.255 10.32 1.818-.74 8.504 6.62 12.752 7.36 4.248.73 8.497 9.57 10.315 8.85 1.824-.75 4.861 3.67 6.073 0 1.164-3.5 7.155-1.8 8.83-7.86-7.686-11.42-15.945-24.08-15.707-28.98.409-8.35 3.241-13.75-5.263-22.59-8.497-8.84.817-14.73 6.89-24.069 5.42-8.335 16.96-11.987 24.279-17.935-1.477-1.247-3.009-2.404-4.453-3.18-5.467-2.95-7.291-5.899-3.036-7.369 4.248-1.479 2.43-4.42-1.825-10.31-4.248-5.899-6.066-11.798-8.504-11.798-2.423 0-6.066-.726-9.708.744-3.643 1.471-3.037-3.684-2.431-8.839.606-5.155-6.672-4.42-7.891-6.634-1.212-2.206 1.825-9.566 3.037-10.31 1.212-.743 4.854-2.941 4.854-5.155 0-2.214-6.672-2.949-4.255-8.104 2.437-5.155 7.292-5.155 7.292-10.31 0-5.164 3.642-9.584 7.891-5.899 4.248 3.684 6.073 13.26 10.927 11.054 4.861-2.214 1.825-7.369 1.219-10.319-.606-2.949-1.825-7.36 3.642-8.839 5.46-1.479 3.037-8.104 7.285-8.104 4.249 0 12.146-6.626 14.57-8.105 2.431-1.47 7.891-5.154 10.322-3.684 2.43 1.479 5.46 5.163 7.291 0 1.818-5.155 9.096-2.941 9.709 0 .613 2.949 12.14 2.949 15.782 5.898 3.642 2.949 11.533 8.831 11.533 11.789 0 2.941 3.65 7.361 3.65 2.206 0-5.163 3.03-3.676 7.891 0 4.861 3.685 11.54 2.206 12.752-1.479 1.212-3.684 10.314-8.096 13.358-5.155 3.029 2.958 4.248 5.155 7.891.744 3.635-4.428 12.139-3.685 13.358.727 1.211 4.428 5.46 5.163 9.109 5.163 3.636 0 4.249 6.634 6.666 5.155 2.437-1.471 1.831-8.831 4.861-8.104 3.036.743 5.467 5.155 10.321 5.155 4.862 0 8.497-1.471 8.497-5.882 0-4.428-.599-11.797-3.635-11.797-3.037 0-6.073-3.677-9.716-3.677-3.642 0-7.285-7.377-3.642-8.847 3.642-1.463 9.708-5.155 8.496-8.84-1.212-3.676-2.423-11.045 2.424-11.789 4.861-.727 15.183-.727 14.577-2.941-.606-2.214-10.322-3.676-12.139-7.369-1.825-3.684-2.438-12.515-.613-13.994 1.825-1.479 7.897.735 11.54-.735 3.636-1.479 11.533 2.214 16.388-2.214 4.854-4.42 15.182-5.155 20.643-5.155 5.46 0 9.708-4.428 13.964-5.155 4.248-.735 16.394-2.95 19.431-4.428 3.036-1.463 19.424-4.412 20.03-8.096.613-3.677 13.665-6.634 17.001-4.784 3.336 1.834 7.591 3.313 10.627 1.835 3.03-1.471 9.417 2.577 8.804 6.633-.606 4.048 2.73 8.468 2.43 11.781-.313 3.321-3.343 4.428-1.518 7.005 1.818 2.578 10.015.735 12.446-2.577 2.43-3.321 5.154 1.47 5.154 4.048 0 2.577 3.948 4.428 3.948 1.107 0-3.321 4.855-1.107 6.38 1.107 1.518 2.214 7.285-2.586 7.285 1.107 0 3.676-8.503 6.625-4.854 10.673 3.635 4.056 5.76-4.791 10.314-2.949 4.555 1.851 10.628-6.262 14.883-7.361 4.249-1.107 8.797-5.898 12.439-8.476 3.643-2.577 11.534-1.834 9.11 1.107-2.438 2.949-5.161 8.468 3.949 12.524 9.103 4.057 19.424 25.42 25.184 36.093 5.773 10.69 11.234 29.84 14.27 29.84 3.037 0 3.949-9.575 7.898-10.682 3.942-1.107 6.366 8.105 10.621 9.203 4.249 1.107 10.015 4.064 13.358 2.577 3.343-1.47 10.927-6.625 13.658-4.774 2.737 1.842 6.379 1.842 8.81 8.831 2.424 6.997 6.073 8.484 8.497 8.484 2.424 0 2.941 3.304 2.941 6.254 0 2.949 4.446 6.881 6.876 6.881 2.424 0 8.906-.999 10.928-2.461 2.015-1.471 4.459-2.933 4.854.495.415 3.437 4.058 8.831 6.482 8.831 2.437 0 7.278 2.471 7.686 0 .409-2.445 6.884-3.915 9.314-4.419 2.431-.488 10.935-2.446 12.541-6.874 1.621-4.411 8.497-4.411 10.533-7.36 2.015-2.95 7.68-4.42 8.898-7.369 1.212-2.941 8.497-2.445 9.314-4.916.804-2.453 6.87-2.941 9.709-1.966 2.825.991 17.007 4.42 19.016 3.941 2.029-.496 2.437 8.839 4.453 9.327 2.035.495 9.32 7.361 11.342 5.411 2.015-1.975 6.877-3.949 10.928-1 4.051 2.949 8.102 6.89 9.708 3.453 1.621-3.453 10.118-4.923 11.343-6.881 1.212-1.975 2.424-7.865.395-9.831-2.015-1.95-4.037-9.815-4.854-13.747-.81-3.932 4.854-4.915 5.671-8.352.803-3.428 5.661-3.924 7.281-5.89 1.62-1.966 2.03-6.378 4.87-5.403 2.82.983 8.89 3.437 10.1 4.916 1.22 1.478 5.67 2.453 8.5 2.453s7.29 2.941 10.13 4.916c2.84 1.958 11.74 1.957 13.35 4.907 1.63 2.941-.41 11.293 1.62 14.25 2.02 2.941 6.88 9.319 8.5 7.848 1.62-1.478 9.31 4.916 12.15 4.412 2.82-.479 7.28-5.89 9.71-5.89 2.43 0 10.11-2.454 12.54-1.958 2.42.487 11.33 4.42 12.55 3.436 1.21-.983 9.3.496 10.52 3.445 1.21 2.941 11.33 2.941 11.33 6.386 0 3.429 5.67 5.395 7.29 9.319 1.62 3.94 14.98 1.487 17.41 3.94 2.43 2.454 17.81 1.966 18.21 0 .4-1.966 14.98-2.949 17.81-5.411 2.84-2.453 10.52-1.462 10.93-4.907.4-3.445 7.69-5.89 10.92-8.839 3.24-2.95 16.19-2.462 17 .983.81 3.445 8.5 4.411 11.74 2.941 3.25-1.471 11.75.504 12.96 3.932 1.22 3.437 10.92 5.403 13.36 4.42 2.43-.983 10.11-7.848 12.94-8.352 2.84-.496 6.87-3.924 6.07-7.361-.8-3.445 5.67-13.259 6.48-17.183.81-3.941 6.48-14.738 8.5-15.73 2.02-.975 6.49-5.403 6.07-8.344-.41-2.949-1.62-11.788-4.05-11.788-2.42 0-6.87.495-1.2-8.848 5.65-9.327 15.78-6.865 17.4-6.865 1.61 0 14.57-3.932 20.23-1.966 5.67 1.966 9.3-.975 15.38 2.949 6.07 3.916 14.57 2.445 16.6 5.882 2.02 3.445 10.11 6.403 8.9 12.293-1.22 5.89 4.45 2.453 6.48 15.217 2.02 12.772 6.87 13.755 8.08 19.637 1.22 5.898 7.7 16.712 6.89 20.141-.81 3.436-1.62 8.831 5.26 9.335 6.88.495 11.74 6.873 13.36 5.898 1.63-.983 9.71 2.454 13.76 7.361 4.06 4.916 10.12 2.462 9.72 7.865-.42 5.403 3.24 9.814 2.83 14.234-.41 4.42 7.7 7.377 13.36 6.394 5.66-.992 9.71 2.445 12.14-3.445 2.43-5.89 10.53-3.437 13.36-5.89 2.82-2.454 11.34-5.411 10.93 3.437-.41 8.847 4.45 10.797.4 13.746-4.05 2.941-6.08 15.721-7.28 21.116-1.23 5.402-7.3 6.873-8.1 12.763-.81 5.899-6.48 6.394-6.48 10.814s-8.09 3.45-12.14 0c-4.04-3.445-8.09 6.39-11.33 6.39s-2.84 8.34-2.03 11.78c.82 3.44-1.21 7.85.82 13.75 1.08 3.17.42 9.18.96 15.89 4.93-4.34 9.4-7.54 11.38-7.54 5.06 0 10.12 10.56 15.79 10.8 5.67.26 31.36-20.63 31.56-24.06.22-3.43 15.18-20.87 22.26-29.959 7.08-9.079 16.4-22.347 20.04-32.657 2.23-6.353 12.15-18.662 14.57-23.569 2.42-4.915 4.05-5.403 8.5-16.944 4.44-11.532 4.44-41.752 5.87-43.718 1.42-1.958.6-7.113 2.63-10.31 2.02-3.189 1.01-7.609 5.05-11.789 4.06-4.163 3.24-7.848 2.24-11.053-1.01-3.181.2-10.31-.81-12.516-1.01-2.222-.81-3.189 1.62-4.907 2.43-1.71-1.62-6.146-5.06-8.104-3.44-1.975-7.89-3.685-8.3-8.352-.41-4.676-6.27-10.31-10.74-9.831-4.44.504-12.74-2.933-11.73.504 1.02 3.445-.41 6.369-2.62 5.634-2.23-.727-3.25 1.479-5.88 6.394-2.62 4.924-11.94 5.395-7.69.735 4.25-4.659-1.41-4.915-.61-9.822.82-4.907 4.25-9.823-.4-6.626-4.65 3.181-4.65 10.798-8.5 11.789-3.83.975-2.63-13.259-1.62-16.944 1.03-3.684-7.08.248-15.58-.495-8.5-.736-6.28-7.865.6-12.277 6.9-4.428 5.68-8.591 9.11-10.318 3.45-1.718 12.35-8.848 17.61-12.532 5.26-3.676 6.28-7.84 7.49-12.02s10.93-9.335 19.63-17.919c8.7-8.599 12.95-13.523 14.98-18.678 2.01-5.155 14.97-11.533 15.18-15.465.19-3.924 15.38-13.747 25.69-16.217 10.33-2.445 26.72.744 29.75 4.428 3.05 3.685 5.27 2.214 7.09-.24 1.83-2.461 5.86-1.23 12.75-.247 6.88.983 8.5-3.941 13.15-2.214 4.66 1.726 8.5 2.701 11.33-3.924 2.84-6.634 16.2-5.403 19.23-2.693 3.04 2.709 5.47 6.377 10.32 2.445 4.86-3.924 4.86 5.155 9.51 5.898 4.66.735 1.62 5.643-2.43 5.155-4.05-.495-9.11 2.446-4.45 5.659 4.66 3.181 10.13-2.957 13.77-2.47 3.63.496 9.3.983 14.36-2.941 5.07-3.932 6.48 3.189 9.71-.248 3.24-3.445 10.53-4.42 14.17-4.18 3.65.256.61-5.155-5.45-5.155-6.08 0-5.88-3.924-1.02-14.003 4.85-10.054 14.16-15.465 20.03-21.595 5.87-6.129 10.12-3.188 10.12-7.129 0-3.924 2.83-14.978 7.29-15.209 4.45-.264 15.57 2.198 22.46-2.47 6.88-4.667 6.27 3.445 9.11 4.668 2.83 1.231 6.68-7.121 9.91-4.668 3.25 2.47-4.86 8.36-6.67 15.465-1.83 7.121 4.25 4.428 7.68 6.394 3.44 1.975-4.46 4.916-3.63 6.865.79 1.975 7.68 1.975 16.59-8.831 8.91-10.797 16.99-13.746 22.67-13.011 5.66.743 2.41-6.138 2.83-16.209.4-10.07 17.8-13.011 23.47-10.07 5.66 2.949 5.27 5.651-.21 3.924-5.46-1.71-10.52 4.18-10.32 12.524.22 8.36-4.86 11.045-2.21 14.259 2.63 3.18-3.86 3.924-4.06 7.369-.2 3.436 0 6.129-4.04 7.608-4.04 1.462-17.61 3.181-18.01 9.567-.41 6.394-7.7 7.121-11.14 14.969-3.43 7.865-16.59 12.532-25.29 28.253-8.7 15.713-22.46 15.713-22.46 18.654 0 2.949-9.52 2.71-12.75 3.197-3.23.488 3.03 10.063-4.66 20.133-7.69 10.062-12.75 24.056-12.55 38.067.21 13.987 4.05 54.268 7.49 61.389 3.45 7.13 1.42 24.561 4.25 28.237 2.83 3.685 1.82 9.815 3.64 12.029 1.83 2.214 9.31-9.823 14.36-14.978 5.08-5.155 3.45-6.865 6.89-9.575 3.45-2.709 2.03-14.002 3.04-16.943 1.01-2.95 7.29-4.42 9.31-7.609 2.02-3.189 7.28-1.223 10.12-2.47 2.83-1.206-.21-9.319-1.22-13.986-1.01-4.676 8.3-11.054 13.16-15.226 4.85-4.172 10.92 2.702 16.38-3.436 5.47-6.139-.39-13.259-2.42-16.448-2.02-3.189 5.46-18.679 9.71-20.149 4.25-1.463 6.48 3.692 10.52-.736 4.05-4.42-3.64-11.532-6.47-11.037-2.83.479-3.84-12.532 2.83-18.662 6.69-6.138 4.05-7.377-.4-8.848-4.45-1.462-5.27.496-8.71.736-3.44.247-6.87-8.6-1.61-17.184 5.26-8.599 10.32-7.625 11.53-14.729 1.21-7.122 8.5-17.2 10.32-20.876 1.83-3.693 9.11-.001 11.95-.736 2.82-.743 1.82 6.626 5.25 2.933 3.44-3.676 9.1-15.944 13.77-15.944 4.65 0 1.62 9.079 2.84 14.482 1.21 5.403 3.83-1.471 12.74-8.84 8.89-7.369 28.33-6.642 34.19-3.197 5.89 3.445 6.89 11.549 10.14 10.566 4.92-1.487.8-8.112 5.66-9.831 4.86-1.71 13.36-7.856 19.84-13.498 6.47-5.651 4.64-1.471 8.08-6.626 3.45-5.155 6.88-2.949 7.89-6.386 1.02-3.453 10.32-9.079 23.08-12.532 12.75-3.436 29.34-13.746 28.53-16.935-.8-3.197 4.85-4.668 5.47-1.479.6 3.189 5.46 1.974 12.14 3.684 6.68 1.727 9.72 4.916 14.98-1.47 5.26-6.394-.61-8.6-.41-13.499.19-4.924-9.11-10.079-7.89-15.234 1.21-5.155-6.88-18.918-9.31-16.208-2.43 2.709-8.1-2.206-8.1-6.138 0-3.925-.4-8.592-4.25-5.651-3.84 2.949-10.32 1.479-11.53-2.941-1.22-4.42 7.49-7.617 13.56-4.659 6.08 2.941 4.25 5.89 7.28 8.096 3.04 2.214 11.33 1.231 15.58-1.223 4.25-2.462 16.2-7.129 18.21-11.293 2.04-4.18-.2-6.155 3.86-8.6 4.05-2.454 1-7.609-2.44-9.823-3.43-2.205-2.62-8.095 1.02-8.095 3.63 0 2.63-5.164 5.06-5.42 2.43-.239 2.82 2.214 7.28-.479 4.45-2.701.2 4.164-1.81 8.84-2.03 4.659 4.25 8.583 4.85 11.293.61 2.701 9.31 3.684 14.17.487 4.85-3.189 20.43 3.924 21.44 8.591 1.02 4.668 3.24 10.319 9.72 14.251 6.48 3.924 12.35 2.214 13.56 5.891 1.21 3.692 3.64 5.642 7.29 4.667 3.64-.975 5.66 3.916 8.29.975 2.63-2.941 4.05 1.726 7.5-1.95 3.43-3.693-7.5-6.146-6.08-9.095 1.42-2.95 3.64 2.214 6.67 1.966 3.05-.24-.81-7.361 1.43-8.104 2.22-.736.4-15.466-2.02-16.449-2.44-.975-.41-6.146 4.24-1.974 4.65 4.18 11.93 3.932 15.38 3.932 3.45 0 .2-3.932-3.23-4.659-3.45-.735.61-4.18 3.03-1.478 2.42 2.709 7.07 3.924 7.49.983.4-2.95 2.83-9.327 7.08-9.088 4.25.248 5.66-2.71 1.61-4.42zM330.642 419.896c10.927 12.285 20.248-5.394 25.497-6.369 5.27-.975-3.234-7.864-12.139-10.814-8.899-2.941-21.61 7.923-13.358 17.183zM1620.99 857.484c-4.45-14.234 6.48-27.989-1.62-35.358-8.09-7.369-4.87-22.586-8.9-19.645-4.05 2.949 0 16.217-6.48 17.192-6.49.975-.41 8.344-2.84 18.174-2.43 9.823 1.21 24.057 4.46 32.897 3.24 8.839-4.46 55.986-1.21 63.851 3.23 7.864-5.28 42.619-2.44 46.65 4.86 6.89 1.62-9.326 8.9-10.797 7.29-1.479 7.29 9.823 11.75 12.268 4.45 2.462 1.62-15.713-2.43-14.73-4.05.983-7.28-11.789-9.32-19.645-2.01-7.856 4.06-17.191 4.06-27.006 0-9.822 10.12-9.335 16.19-1.974 6.07 7.369 6.87 2.462 4.45-2.941-2.42-5.395-10.12-44.685-14.57-58.936zm41.28-630.594c9.72.991 14.57 12.293 33.19 13.763 18.63 1.462 32.38-2.949 32.79-7.864.41-4.908-17-12.268-22.26-8.344-5.27 3.915-9.31-6.395-15.79-3.924-6.48 2.445-15.37 1.957-18.62-4.916-3.24-6.873-14.17 10.806-9.31 11.285zm-70.42 30.946c0-7.369-22.06 2.702-12.95 6.386 4.85 1.975 12.95.975 12.95-6.386zm32.38 32.409c7.27-1.958-5.26-18.166-17.81-20.62-12.55-2.453-24.21 10.071-22.67 12.772 3.65 6.386 33.19 9.814 40.48 7.848zm-84.6-62.859c5.67 3.445 7.7 6.873 10.93 10.805 3.23 3.924 15.37-1.958 20.23-3.932 4.86-1.958 5.27 8.839 12.96 2.949 7.7-5.899 15.37-2.949 24.29-2.949 8.91 0-1.62-13.26-1.22-19.15.41-5.898 10.52-1.958 7.29 2.941-3.23 4.916 4.86 16.209 17.8 15.234 12.95-.983 3.24-10.806 9.73-14.242 6.47-3.437 5.65-7.369-3.66-14.251-9.3-6.873-21.44-2.445-29.54-6.873-8.64-4.717-19.02-4.916-19.43 5.898-.4 10.806-17.41-11.788-26.31-15.233-8.91-3.429-36.46 30.674-23.07 38.803zm-522.12-101.167c5.67 3.924 23.88-4.916 36.02-4.42 12.14.496 46.13-11.301 47.36-19.15 1.21-7.864-12.55-7.368-17.81-14.25-5.26-6.873-17-.983-19.84 4.915-2.84 5.89-6.07.496 1.62-8.84 7.7-9.334-7.69-16.703-8.09-10.813-.41 5.899-14.56.991-14.56 6.394 0 5.395-5.27 7.857-4.87 13.26.4 5.402-9.71-2.95-10.12 9.334-.39 12.277-15.68 19.439-9.71 23.57zm1096.46 238.187c8.09 4.915 12.95-5.89 19.43-.487 6.48 5.402 22.27-2.454 28.74-3.924 6.47-1.479 3.23-11.302-14.97-14.243-18.22-2.949-41.9 13.375-33.2 18.654zM922.8 8.356c1.621-7.369-25.252-4.172-18.219 2.941 2.431 2.454 16.592 4.428 18.219-2.941zM752.393 301.547c6.475 3.932 11.336 2.453 10.519-5.403-.803-7.857-15.666 2.288-10.519 5.403zM954.779 56.973c0 5.395-13.038 10.79-9.32 14.739 3.241 3.436 6.073 2.445 10.124 3.428 4.051.991 6.073 13.259 13.351 11.3 7.292-1.965 27.118 9.816 38.866 9.816 11.74 0 12.94-11.781 9.3-12.277-3.64-.487-.39-7.369 6.07-18.662 6.48-11.293-20.23-19.645-20.23-10.806 0 8.84-7.698-1.957-10.122-7.369-2.438-5.394-38.039 4.42-38.039 9.831zm-21.467-13.755c7.694 3.924 4.862 6.386-3.234 6.386-8.088 0-15.046 3.313-9.708 5.899 4.051 1.966 3.636 7.369 12.139 9.814 8.497 2.454 16.994-5.89 16.19-11.789-.817-5.89 29.542-11.284 37.651-13.755 8.081-2.445-5.27-12.763 3.636-13.738 8.905-.983 5.255-5.89-5.672-7.864-10.927-1.967-6.468-13.26-10.11-17.184-3.65-3.924-5.672 4.899-19.84 8.344-14.168 3.445-21.052 7.865-15.38 11.293 5.671 3.437 0 11.789-6.067 11.31-6.073-.504-7.284 7.36.395 11.284zM634.207 294.186c5.263.975 19.424-2.462 21.051-5.899 1.621-3.437-5.664-7.36-14.985-7.36-9.307 0-10.621 12.408-6.066 13.259zM-29.576 777.557c-1.825 1.107-6.686-1.099-8.197-3.684-1.22-2.074-4.991-1.289-8.313-.909.748.545 1.552 1.264 2.13 2.503 1.825 3.941-7.284 4.428-4.445 9.088 2.832 4.675-6.475 4.915-6.475 0 0-4.908-9.722-2.454-9.307.735.15 1.156-.15 2.569-.817 3.932 2.642 1.14 5.712 2.478 6.917 3.065 1.839.884 26.104 3.949 35.588 1.818-.504-2.148.504-8.576.504-11.029 0-2.941-5.774-6.618-7.585-5.519zM300.144 1112.87c0-3.97-8.625-7.45-8.625-12.41 0-4.97-5.758-9.44-4.935-13.41.566-2.74-2.33-6.62-3.816-9.76-3.794-1.07-8.618-2.05-12.323-1.53-5.149.74-9.006 2.51-14.072 3.45 2.717 4.98.795 6.36 3.097 13.3 2.46 7.45 8.625 3.48 10.678 5.46.795.77 1.707 3.34 2.543 6.18.387-.04.761-.1 1.3.02 2.274.49 3.145 1.93 3.663 3.71 2.882.81 5.453 3.14 6.787 3.86 1.783.95 2.965-1.92 6.524 2.87 3.104 4.17 3.339 5.24 2.959 8.95 3.186.03 6.178-.85 8.964-2.29-1.396-3.03-2.744-6.47-2.744-8.4v0z" fill="#fff" stroke="#E4E4E4" stroke-width="5" stroke-miterlimit="10"/><path d="M284.261 1111.59c-1.326-.7-3.882-2.97-6.747-3.75.88 2.86.797 6.62 4.541 8.64 5.991 3.21-2.727 4.5 9.282 6.44.79.13 1.573.14 2.349.15.378-3.6.144-4.64-2.94-8.69-3.538-4.65-4.713-1.87-6.485-2.79v0zm58.078-23.98c-1.684-3.6-6.87-10.91-12.332-18.82-1.69 5.96-7.735 4.29-8.91 7.72-1.223 3.61-4.287-.73-6.128 0-1.834.71-6.121-7.97-10.408-8.69-1.298-.21-2.83-1.05-4.369-2.07-1.773 2.23-3.387 4.73-2.776 5.93 1.223 2.41 6.534 4.83 4.493 7.24-2.04 2.41-8.58 1.44-10.614-.97-2.054-2.41-8.182-6.27-9.398-3.37-1.229 2.89 5.311 9.16 4.493 13.03-.817 3.86 4.905 8.2 4.905 13.02s8.574 8.2 8.574 12.06c0 1.87 1.339 5.21 2.727 8.16 6.705-3.36 12.215-9.55 16.543-12.11 6.54-3.87 3.813 12.25 2.727 14.82-.755 1.78 4.438 6 9.893 8.46-.192-3.5.522-6.91 2.418-9.67 6.939-10.14 12.242-26.05 8.162-34.74v0z" fill="#fff" stroke="#E4E4E4" stroke-width="5" stroke-miterlimit="10"/></symbol><symbol id="Vector-1"><path d="M66.865 17.474l-.945-2.553a.994.994 0 00-.303-.419l-2.641-2.17a.978.978 0 01-.253-1.206l.938-1.837c.1-.197.131-.422.087-.638l-1.48-7.213a.988.988 0 00-.259-.482L61.374.31a1.023 1.023 0 00-1.328-.12L57.11 2.318a.997.997 0 00-.31.368l-2.62 5.298c-.103.212-.28.38-.497.476l-5.578 2.418c-.18.078-.333.206-.44.369l-2.043 3.106a1.005 1.005 0 01-.815.454l-5.29.128a1.026 1.026 0 01-.85-.41.983.983 0 01-.13-.923l.136-.37a.976.976 0 00-.31-1.11 1.016 1.016 0 00-.368-.187l-1.364-.383a1.026 1.026 0 00-.858.149l-5.052 3.546c-.178.125-.394.19-.613.184l-2.612-.056a1.024 1.024 0 00-.511.127 1.001 1.001 0 00-.377.362l-.844 1.419a1.003 1.003 0 01-.385.361 1.025 1.025 0 01-1.026-.037 1 1 0 01-.357-.388l-1.01-2.015a.978.978 0 01-.071-.699.994.994 0 01.417-.57l1.443-.943a1.02 1.02 0 01.246-.114l2.886-.908.325-.553-2.54-.142a1.023 1.023 0 00-.642.185l-3.183 2.227a.978.978 0 00-.31 1.255l.642 1.163a.98.98 0 01-.082 1 1.026 1.026 0 01-.928.419l-3.983-.447a1.022 1.022 0 01-.78-.454l-.721-1.34a.98.98 0 01-.116-.298l-.454-2.128a.988.988 0 00-.253-.476 1.014 1.014 0 00-1.014-.274c-.179.05-.34.148-.465.282l-3.182 3.354a1.016 1.016 0 01-.62.313l-1.834.212a1.022 1.022 0 00-.765.504 1.001 1.001 0 01-.375.376l-1.955 1.12a.997.997 0 00-.455.554l-1.32 4.05a.976.976 0 000 .51l.8 3.88a.978.978 0 01-.108.709l-.808 1.418a1.023 1.023 0 01-.873.497h-.902a1.026 1.026 0 00-.784.372.986.986 0 00-.198.834l.26 1.134c.024.108.065.211.123.305l2.093 3.348c.105.166.257.298.439.38a1.026 1.026 0 001.105-.175.99.99 0 00.296-.496l.072-.298a.989.989 0 01.263-.45c.127-.125.285-.214.458-.259l1.53-.447c.174-.044.332-.134.459-.258a.989.989 0 00.263-.451l.555-2.078a.994.994 0 01.367-.514c.176-.128.389-.197.608-.195h2.02c.219 0 .431.07.606.198l3.226 2.383a1.023 1.023 0 001.37-.149l1.011-1.163a1.005 1.005 0 01.794-.39l4.82.426c.204.018.398.097.556.227l8.11 6.603a1.018 1.018 0 001.054.141l5.975-2.624c.188-.083.396-.108.599-.07l5.34.971c.189.034.384.014.563-.057l4.777-1.893c.201-.085.37-.232.479-.419a.978.978 0 00.127-.617l-.275-1.88a.978.978 0 01.093-.575 1 1 0 01.405-.424l1.941-1.064a1.024 1.024 0 01.975 0l3.976 2.078a1.025 1.025 0 001.017-.036l.361-.227a1.02 1.02 0 011.443.362l.47.851a.977.977 0 01-.145 1.064l-.231.284a.982.982 0 00.072 1.34l.043.043a1.02 1.02 0 001.343.042l.83-.709a.994.994 0 00.36-.865l-.635-6.043a.985.985 0 00-.209-.475l-2.05-2.397a1.007 1.007 0 00-.74-.35 1.027 1.027 0 00-.76.307l-.347.312a1.013 1.013 0 01-.873.298h-.245a1.014 1.014 0 01-.643-.358.982.982 0 01-.223-.692l.31-4.369a.987.987 0 01.332-.666l3.247-2.837a.976.976 0 00.296-1.014l-.656-2.206a.978.978 0 01.101-.72c.126-.218.33-.382.573-.458.243-.077.507-.06.738.047a1 1 0 01.507.528l1.494 4.255a.991.991 0 00.613.61l1.703.603a1.027 1.027 0 001.178-.22.985.985 0 00.135-1.17zm-5.426-6.986a2.414 2.414 0 00-.274.766c-.13-.01-.26-.01-.39 0a2.457 2.457 0 00-1.227.32 2.404 2.404 0 00-.894.886 2.398 2.398 0 00-.231 1.886l.584 1.95-3.038 2.689c-.474.417-.765 1-.808 1.624l-.31 4.369a2.39 2.39 0 00.541 1.68c.39.474.946.785 1.559.873h.238c.383.054.774.017 1.14-.106.366-.123.697-.33.967-.603l1.645 1.929.281 2.638a2.463 2.463 0 00-1.51-.867 2.488 2.488 0 00-1.715.343l-.144.092-3.753-1.965a2.487 2.487 0 00-2.36 0L49.88 30.1c-.43.236-.777.595-.995 1.03a2.355 2.355 0 00-.225 1.402l.239 1.54-4.33 1.702-5.224-.972a2.485 2.485 0 00-1.444.17l-5.722 2.51-7.938-6.432a2.455 2.455 0 00-1.32-.525l-4.85-.425h-.201a2.483 2.483 0 00-1.03.22c-.322.145-.609.358-.84.624l-.72.858-2.887-2.128a2.49 2.49 0 00-1.444-.482h-2.02c-.542 0-1.068.175-1.498.5a2.41 2.41 0 00-.876 1.294l-.49 1.844-1.292.376a2.453 2.453 0 00-1.444 1.149l-1.652-2.525-.13-.574H1.9c.432-.001.856-.114 1.23-.326a2.44 2.44 0 00.898-.887l.809-1.419c.298-.51.395-1.11.274-1.688l-.808-3.737 1.24-3.788 1.776-1.014a2.43 2.43 0 00.808-.752l1.638-.191a2.469 2.469 0 001.515-.76l2.584-2.758.281 1.326c.055.25.15.49.282.71l.786 1.361c.193.323.46.598.78.802.318.204.682.333 1.06.376l3.983.446h.282a2.448 2.448 0 001.681-.66c.247.305.564.546.926.704a2.49 2.49 0 002.267-.145c.339-.201.622-.48.827-.814l.721-1.191 2.36.05c.533 0 1.052-.17 1.48-.483l4.87-3.44.721.192a2.373 2.373 0 00.337 2.187c.23.312.532.565.881.739.35.173.736.262 1.128.259l5.368-.17a2.477 2.477 0 001.127-.311c.344-.192.636-.462.85-.79l1.97-3 5.456-2.368c.53-.23.959-.637 1.212-1.149l2.576-5.199 2.54-1.823.289.298 1.443 6.944-.909 1.702zm3.117 6.383l-.721-1.986.721.617.585 1.596-.585-.227z" fill="#44403F"/></symbol><symbol id="Vector-2"><path d="M26.4 32.8v-9.2c0-.6-.4-1-1-1s-1 .4-1 1v9.2a4.2 4.2 0 00-3.1 4.1c0 .8.2 1.5.6 2.1l-6.3 6c-.4.4-.4 1 0 1.4.4.4 1 .4 1.4 0l6.2-6c.6.4 1.4.7 2.2.7 2.3 0 4.1-1.9 4.1-4.2 0-2-1.3-3.7-3.1-4.1zm-1 6.3c-1.2 0-2.1-1-2.1-2.2 0-1.2 1-2.2 2.1-2.2 1.2 0 2.1 1 2.1 2.2 0 1.2-.9 2.2-2.1 2.2z" fill="#44403F"/><path d="M66 60.4c0-.3-.1-.5-.3-.7l-4.6-4.6c-.4-.4-1-.4-1.4 0-.4.4-.4 1 0 1.4l2.9 2.9H50.9c4.4-2.6 7.4-7.3 7.4-12.8 0-5.6-3.1-10.5-7.7-13C49 21.3 38.8 12 26.4 11.5V8.8h6.2c.6 0 1-.4 1-1V1c0-.6-.4-1-1-1H18.4c-.6 0-1 .4-1 1v6.7c0 .6.4 1 1 1h6v2.7C10.8 12 0 23.2 0 36.9c0 14 11.4 25.4 25.4 25.4 3.9 0 7.7-.9 11.1-2.6 2.1 1.1 4.4 1.7 7 1.7h19.1l-2.9 2.9c-.4.4-.4 1 0 1.4.4.4 1 .4 1.4 0l4.6-4.6c.2-.2.3-.4.3-.7zM19.4 2h12.2v4.7H19.4V2zm36.9 44.6c0 7-5.7 12.8-12.8 12.8-7.1 0-12.8-5.7-12.8-12.8 0-7 5.7-12.8 12.8-12.8 7.1 0 12.8 5.8 12.8 12.8zM25.4 60.2C12.5 60.2 2 49.8 2 36.9s10.5-23.4 23.4-23.4c11.4 0 21 8.2 23 19.2-1.5-.5-3.2-.8-4.9-.8-8.1 0-14.8 6.6-14.8 14.8 0 4.8 2.3 9 5.8 11.7-2.9 1.2-5.9 1.8-9.1 1.8z" fill="#44403F"/><path d="M40.3 47.4c.9-.9 1.5-1.6 1.8-2.2.3-.6.5-1.2.5-1.8 0-1.1-.4-2-1.2-2.7-.8-.7-1.7-1-2.7-1-1 0-1.9.2-2.5.6-.7.4-1.2 1-1.8 1.8l1.7 1c.7-1 1.5-1.6 2.5-1.6.6 0 1.1.2 1.4.5.4.3.6.8.6 1.3s-.2 1-.5 1.5c-.4.5-.9 1.1-1.8 2l-3.7 3.8v1.8H43v-2h-5.6l2.9-3zM49.9 52.4h1.9v-3.1h1.5v-1.9h-1.5v-2.3h-1.9v2.3h-3l4.5-7.3h-2.3l-4.5 7.3v1.9h5.3v3.1z" fill="#44403F"/></symbol><symbol id="Vector-3"><path fill-rule="evenodd" clip-rule="evenodd" d="M49.472 27.658l.062-.112a.624.624 0 00-.142-.776l-2.535-2.147a.616.616 0 00-.886.097l-.376.491v-2.615c2.698-1.905 4.481-5.123 4.501-8.768.73-3.808.317-6.686-1.231-8.557-1.386-1.674-3.254-2.004-3.995-2.068C41.92-.47 38.497-.331 36.125.45c-3.742 1.231-7.347 5.029-7.371 6.013a.627.627 0 00.17.443c.83.88.948 4.06.825 6.26 0 .028-.008.056-.005.083-.01.179-.022.353-.036.517 0 3.804 1.926 7.14 4.805 9.023v2.46l-.405-.53a.617.617 0 00-.887-.097l-2.534 2.147a.623.623 0 00-.143.776l.06.108c-5.321.213-9.594 5.115-9.594 11.125v4.601c0 .344.021.621.617.621.595 0 .616-.62.616-.62v-4.6c0-5.462 3.91-9.905 8.718-9.905h.315l4.247 7.708a.62.62 0 00.54.32c.144 0 .284-.051.397-.145l3.58-3.02 3.58 3.02a.615.615 0 00.936-.175l4.247-7.708h.237c4.807 0 8.718 4.443 8.718 9.904v4.6l.615.621.617-.62v-4.6c0-5.982-4.233-10.864-9.518-11.122zm-1.263-.268l-1.654-1.4-5.403 7.067 2.686 2.265 4.371-7.932zM44.072 4.188c-1.73-2.26-3.828-3.227-6.224-2.878-3.664.535-7.062 4.02-7.762 5.09.628.979.855 2.662.92 4.184 1.214-1.732 3.424-3.648 7.074-2.976 2.92.539 4.29.103 4.925-.358.445-.321.526-.663.526-.667a.622.622 0 01.284-.439.61.61 0 01.517-.064c.16.052 3.21 1.093 4.87 4.642.04-1.997-.38-3.564-1.284-4.655-1.34-1.619-3.28-1.637-3.35-1.637h-.008a.614.614 0 01-.488-.242zm-13.093 9.069c-.016.27-.032.473-.04.564.003 5.135 4.023 9.355 8.964 9.355 4.925 0 8.934-4.195 8.958-9.362-.669-4.085-3.275-5.784-4.398-6.335a2.77 2.77 0 01-.737.777c-1.207.874-3.183 1.068-5.868.572-4.86-.893-6.62 3.663-6.88 4.428zm8.924 11.16a9.758 9.758 0 01-4.156-.934v3.38l4.292 5.614 4.323-5.653v-3.495a9.754 9.754 0 01-4.46 1.088zm-.975 8.64l-5.405-7.067-1.653 1.401 4.371 7.932 2.687-2.265z" fill="#44403F"/><path fill-rule="evenodd" clip-rule="evenodd" d="M72.959 26.108l-.047.083C76.848 26.381 80 30 80 34.43v3.408l-.46.46-.458-.46v-3.408c0-4.045-2.912-7.337-6.492-7.337h-.176l-3.163 5.71a.46.46 0 01-.697.13l-2.666-2.237-2.666 2.237a.46.46 0 01-.697-.13l-3.163-5.71h-.235c-2.046 0-3.874 1.076-5.065 2.753-.243-.185-.734-.544-.758-.512 1.307-1.845 3.306-3.056 5.557-3.146l-.044-.08a.46.46 0 01.106-.574l1.888-1.59a.456.456 0 01.66.071l.302.393v-1.823c-2.145-1.395-3.578-3.865-3.578-6.683.01-.121.019-.25.026-.383-.001-.012 0-.024.002-.036l.002-.025c.091-1.63.004-3.986-.615-4.638a.463.463 0 01-.126-.328c.018-.729 2.703-3.542 5.489-4.454 1.767-.579 4.316-.682 6.512 2.039.552.048 1.943.292 2.975 1.532 1.153 1.386 1.461 3.518.917 6.338-.015 2.701-1.343 5.084-3.352 6.496v1.937l.28-.364a.46.46 0 01.66-.072l1.888 1.59a.46.46 0 01.106.575zm-2.219-1.153l1.232 1.038-3.255 5.875-2-1.678 4.023-5.235zM64.255 6.674c1.785-.26 3.347.456 4.635 2.131.087.113.22.18.364.18h.006c.052 0 1.497.013 2.494 1.212.673.808.986 1.969.956 3.448-1.236-2.628-3.508-3.4-3.626-3.438a.46.46 0 00-.597.372c0 .003-.06.256-.392.495-.472.341-1.492.664-3.667.265-2.718-.498-4.364.921-5.268 2.204-.048-1.128-.217-2.374-.685-3.1.521-.792 3.052-3.373 5.78-3.77zm-5.144 9.266c.005-.067.017-.217.029-.417.193-.568 1.503-3.942 5.123-3.281 2 .368 3.471.224 4.37-.423.261-.19.435-.394.549-.576.836.408 2.776 1.667 3.274 4.692-.018 3.828-3.002 6.935-6.67 6.935-3.68 0-6.673-3.126-6.675-6.93zm3.58 7.158a7.298 7.298 0 003.094.692 7.295 7.295 0 003.32-.806v2.589l-3.218 4.187-3.197-4.158v-2.505zm-1.656 1.857l4.024 5.235-2 1.678-3.256-5.875 1.232-1.038zM7.041 26.108l.047.083C3.152 26.381 0 30 0 34.43v3.408l.46.46.458-.46v-3.408c0-4.045 2.912-7.337 6.492-7.337h.176l3.163 5.71a.46.46 0 00.697.13l2.666-2.237 2.666 2.237a.46.46 0 00.697-.13l3.163-5.71h.235c2.046 0 3.874 1.076 5.065 2.753.243-.185.735-.544.758-.512-1.307-1.845-3.306-3.056-5.558-3.146l.045-.08a.46.46 0 00-.106-.574l-1.888-1.59a.456.456 0 00-.66.071l-.302.393v-1.823c2.145-1.395 3.578-3.865 3.578-6.683-.01-.121-.018-.25-.026-.383.001-.012 0-.024-.002-.036l-.002-.025c-.091-1.63-.004-3.986.615-4.638a.463.463 0 00.126-.328c-.018-.729-2.702-3.542-5.489-4.454-1.767-.579-4.316-.682-6.512 2.039-.552.048-1.943.292-2.975 1.532-1.153 1.386-1.461 3.518-.917 6.338.015 2.701 1.342 5.084 3.352 6.496v1.937l-.28-.364a.46.46 0 00-.66-.072l-1.887 1.59a.46.46 0 00-.107.575zm2.219-1.153l-1.232 1.038 3.255 5.875 2-1.678-4.023-5.235zm6.485-18.281c-1.785-.26-3.347.456-4.635 2.131a.458.458 0 01-.364.18h-.006c-.052 0-1.497.013-2.494 1.212-.673.808-.986 1.969-.956 3.448 1.236-2.628 3.508-3.4 3.626-3.438a.46.46 0 01.597.372c0 .003.06.256.392.495.472.341 1.492.664 3.667.265 2.718-.498 4.364.921 5.268 2.204.048-1.128.217-2.374.685-3.1-.521-.792-3.052-3.373-5.78-3.77zm5.144 9.266a19.591 19.591 0 01-.029-.417c-.193-.568-1.503-3.942-5.123-3.281-2 .368-3.471.224-4.37-.423a2.057 2.057 0 01-.549-.576c-.836.408-2.776 1.667-3.274 4.692.018 3.828 3.003 6.935 6.67 6.935 3.68 0 6.673-3.126 6.675-6.93zm-3.58 7.158a7.298 7.298 0 01-3.094.692 7.295 7.295 0 01-3.32-.806v2.589l3.218 4.187 3.197-4.158v-2.505zm1.656 1.857l-4.024 5.235 2 1.678 3.256-5.875-1.232-1.038z" fill="#44403F"/></symbol><symbol id="Vector-4"><path d="M47.674 5.03l-.02-.021a1.138 1.138 0 00-.982-.317h-3.364v-3.56a1.132 1.132 0 00-1.932-.8l-6.382 6.382a1.133 1.133 0 00-.332.8v4.223l-1.384 1.385a19.884 19.884 0 00-13.29-5.1C8.968 8.023 0 16.99 0 28.012 0 39.032 8.967 48 19.989 48s19.988-8.967 19.988-19.989a19.884 19.884 0 00-5.099-13.29l1.385-1.383h4.223a1.118 1.118 0 00.9-.46l6.116-6.116a1.131 1.131 0 00.172-1.733zm-9.96 22.981c0 9.774-7.951 17.726-17.725 17.726-9.774 0-17.726-7.952-17.726-17.726s7.952-17.725 17.726-17.725a17.632 17.632 0 0111.69 4.435l-2.932 2.932a13.51 13.51 0 00-8.758-3.22c-7.487 0-13.577 6.091-13.577 13.578 0 7.487 6.09 13.578 13.577 13.578 7.486 0 13.577-6.091 13.577-13.578a13.51 13.51 0 00-3.219-8.758l2.932-2.931a17.632 17.632 0 014.435 11.69zm-12.634 0a5.108 5.108 0 11-2.386-4.305l-3.505 3.505a1.13 1.13 0 00.366 1.847 1.13 1.13 0 001.234-.247l3.505-3.505c.513.81.786 1.747.786 2.705zm-.76-5.93a7.382 7.382 0 101.6 1.6l2.824-2.825a11.332 11.332 0 11-1.6-1.6l-2.825 2.824zm15.669-11.007h-3.063V7.982l4.119-4.119v1.96a1.132 1.132 0 001.131 1.132h1.932l-4.12 4.12z" fill="#44403F"/></symbol><symbol id="Vector"><path d="M21.724 18.91a.726.726 0 01-.724-.728c0-.402.324-.727.724-.727h4.345c.4 0 .724.325.724.727a.726.726 0 01-.724.727h-4.345zM9.414 32a.726.726 0 01-.724-.727c0-.402.324-.727.724-.727h23.172c.4 0 .724.325.724.727a.726.726 0 01-.724.727H9.414zM1.448 1.455v45.818A.726.726 0 01.724 48 .726.726 0 010 47.273V.727C0 .326.324 0 .724 0h40.552c.4 0 .724.326.724.727v46.546a.726.726 0 01-.724.727.726.726 0 01-.724-.727V1.455H1.448zM9.414 40a.726.726 0 01-.724-.727c0-.402.324-.728.724-.728h23.172c.4 0 .724.326.724.728a.726.726 0 01-.724.727H9.414zm0 8a.726.726 0 01-.724-.727c0-.402.324-.728.724-.728H21c.4 0 .724.326.724.728A.726.726 0 0121 48H9.414zm5.28-36.577a.73.73 0 010-1.028.722.722 0 011.025 0l3.62 3.636a.73.73 0 010 1.029l-3.62 3.636a.722.722 0 01-1.024 0 .73.73 0 010-1.028l3.108-3.122-3.108-3.123z" fill="#44403F"/></symbol><symbol id="vk"><path fill-rule="evenodd" clip-rule="evenodd" d="M15.453 10.948h-.142c-.967-.156-1.565-.83-2.126-1.457-.322-.353-.84-1.261-1.418-1.166-.821.133-.363 1.584-.709 2.186-.274.481-1.459.38-2.268.292-2.566-.271-3.958-1.592-5.104-3.061C2.456 6.174 1.57 4.454.709 2.64.425 2.045 0 1.467 0 .745.417.409 1.157.453 1.843.453 2.42.453 3.261.385 3.686.6c.252.13.505.877.709 1.312.398.869.873 1.698 1.418 2.478.247.35.693.964 1.134.875.433-.086.406-1.074.425-1.75.023-.768.081-1.776-.142-2.186-.206-.384-.608-.353-.992-.583C6.556.104 7.443.016 8.506.016c.892 0 2.058-.146 2.41.437.35.602.169 1.817.142 2.624-.026.906-.2 1.766.425 2.187.484-.052.715-.51.993-.875.616-.8 1.084-1.45 1.56-2.478.193-.429.356-1.176.708-1.312.538-.2 1.34-.146 2.127-.146.649 0 1.779-.15 1.984.292.167.353-.269 1.348-.425 1.603-.598.97-1.2 1.635-1.843 2.478-.26.341-.743.775-.709 1.312.023.415.39.73.71 1.02.618.58 1.187 1.215 1.7 1.896.21.267.756.818.71 1.166-.132 1.085-3.543.718-3.545.728z" fill="#44403F"/></symbol><symbol id="zoom"><path d="M13.85 13.555L17.457 17m-1.226-8.727c0 4.016-3.41 7.273-7.615 7.273C4.41 15.546 1 12.289 1 8.273 1 4.256 4.41 1 8.616 1c4.206 0 7.616 3.256 7.616 7.273z" stroke="#D4D4D4" stroke-width="2"/></symbol></svg>