<svg width="44" height="52" viewBox="0 0 44 52" fill="none" xmlns="http://www.w3.org/2000/svg">
<path d="M31.5351 21.0617L31.6058 20.991L31.5351 20.9203L30.2761 19.6614L30.2054 19.5907L30.1347 19.6614L19.9554 29.8407L16.4726 26.3578L16.4019 26.2871L16.3311 26.3578L15.0633 27.6257L14.9925 27.6965L15.0634 27.7672L19.8848 32.5797L19.9555 32.6503L20.0262 32.5796L31.5351 21.0617ZM43.0643 4.71429V4.63023L42.9815 4.61578L21.7047 0.90149L21.6873 0.898445L21.6698 0.901574L0.982328 4.61586L0.9 4.63064V4.71429V30.0179C0.9 35.957 3.73484 41.2277 7.78328 45.0117C11.8308 48.7948 17.0998 51.1 21.9821 51.1C26.8645 51.1 32.1335 48.7948 36.181 45.0117C40.2294 41.2277 43.0643 35.957 43.0643 30.0179V4.71429ZM35.9214 10.7143V10.6303L35.8387 10.6158L21.7226 8.14256L21.7051 8.13949L21.6876 8.14265L8.12511 10.5891L8.04286 10.6039V10.6875V30.0178C8.04286 33.7138 9.99586 37.1982 12.7071 39.7558C15.4174 42.3125 18.9006 43.9571 21.9821 43.9571C25.0637 43.9571 28.5469 42.3125 31.2572 39.7558C33.9684 37.1982 35.9214 33.7138 35.9214 30.0178V10.7143ZM2.88571 30.0179V6.29778L21.6878 2.8873L41.0786 6.29823V30.0179C41.0786 35.3011 38.47 40.0752 34.7732 43.5307C31.0756 46.9872 26.2998 49.1143 21.9821 49.1143C17.6644 49.1143 12.8887 46.9872 9.19106 43.5307C5.49432 40.0752 2.88571 35.3011 2.88571 30.0179ZM10.0286 30.0178V12.2621L21.7056 10.1551L33.9357 12.2983V30.0178C33.9357 33.1071 32.2553 36.0959 29.9123 38.3158C27.5684 40.5364 24.5784 41.9714 21.9821 41.9714C19.3861 41.9714 16.3961 40.5254 14.0521 38.2991C11.7089 36.0735 10.0286 33.0846 10.0286 30.0178Z" fill="#FF6600" stroke="#FF6600" stroke-width="0.2"/>
</svg>
