<svg width="52" height="52" viewBox="0 0 52 52" fill="none" xmlns="http://www.w3.org/2000/svg">
<path d="M51.1 26C51.1 12.1652 39.8348 0.9 26 0.9C12.1652 0.9 0.9 12.1652 0.9 26C0.9 39.8348 12.1652 51.1 26 51.1C39.8348 51.1 51.1 39.8348 51.1 26ZM3.0685 26C3.0685 13.3584 13.3584 3.0685 26 3.0685C38.6416 3.0685 48.9315 13.3584 48.9315 26C48.9315 38.6416 38.6416 48.9315 26 48.9315C13.3584 48.9315 3.0685 38.6416 3.0685 26ZM26.2953 3.85276C25.7545 3.85276 25.211 4.28485 25.211 4.93701V7.49607C25.211 8.14823 25.7545 8.58032 26.2953 8.58032C26.6133 8.58032 26.886 8.47388 27.0795 8.28036C27.2731 8.08684 27.3795 7.81407 27.3795 7.49607V4.93701C27.3795 4.61901 27.2731 4.34624 27.0795 4.15272C26.886 3.9592 26.6133 3.85276 26.2953 3.85276ZM3.85279 25.7047C3.85279 26.2455 4.28488 26.789 4.93705 26.789H7.4961C8.14827 26.789 8.58035 26.2455 8.58035 25.7047C8.58035 25.3867 8.47392 25.114 8.28039 24.9204C8.08687 24.7269 7.8141 24.6205 7.4961 24.6205H4.93705C4.61905 24.6205 4.34627 24.7269 4.15275 24.9204C3.95923 25.114 3.85279 25.3867 3.85279 25.7047ZM25.7047 48.1472C25.9833 48.1472 26.2535 48.009 26.4521 47.8104C26.6507 47.6118 26.7889 47.3416 26.7889 47.063V44.5039C26.7889 43.8518 26.2454 43.4197 25.7047 43.4197C25.3867 43.4197 25.1139 43.5261 24.9204 43.7196C24.7269 43.9132 24.6204 44.1859 24.6204 44.5039V47.063C24.6204 47.6037 25.0525 48.1472 25.7047 48.1472ZM48.1473 26.2953C48.1473 26.0167 48.009 25.7465 47.8104 25.5479C47.6118 25.3493 47.3416 25.211 47.063 25.211H44.504C43.8518 25.211 43.4197 25.7545 43.4197 26.2953C43.4197 26.6133 43.5261 26.886 43.7197 27.0796C43.9132 27.2731 44.186 27.3795 44.504 27.3795H47.063C47.6038 27.3795 48.1473 26.9474 48.1473 26.2953ZM35.941 24.9158H29.6165C29.2062 23.6644 28.2403 22.7914 27.0843 22.3852V12.6142C27.0843 12.3356 26.946 12.0654 26.7474 11.8668C26.5488 11.6682 26.2786 11.5299 26 11.5299C25.3479 11.5299 24.9158 12.0734 24.9158 12.6142V22.3795C23.3341 22.813 22.2583 24.3116 22.2583 26C22.2583 28.022 23.8761 29.7417 26 29.7417C27.6946 29.7417 29.0931 28.6603 29.6162 27.0843H35.941C36.5931 27.0843 37.0252 26.5407 37.0252 26C37.0252 25.682 36.9188 25.4092 36.7253 25.2157C36.5317 25.0222 36.259 24.9158 35.941 24.9158ZM24.4268 26C24.4268 25.5318 24.5902 25.1398 24.865 24.865C25.1398 24.5902 25.5319 24.4268 26 24.4268C26.8345 24.4268 27.5733 25.0748 27.5733 26C27.5733 26.8306 26.8306 27.5732 26 27.5732C25.0748 27.5732 24.4268 26.8345 24.4268 26Z" fill="#FF6600" stroke="#FF6600" stroke-width="0.2"/>
</svg>
