<svg width="58" height="50" viewBox="0 0 58 50" fill="none" xmlns="http://www.w3.org/2000/svg">
<mask id="path-1-inside-1" fill="white">
<path d="M6.47977 29.3662C6.2807 29.5653 6.01992 29.6649 5.75914 29.6649C5.49835 29.6649 5.23757 29.5653 5.0385 29.3662C1.78965 26.1174 0 21.7976 0 17.203C0 12.6084 1.78965 8.28856 5.0385 5.04071C10.8872 -0.806015 20.0764 -1.66899 26.8926 2.98928C27.3574 3.3068 27.4768 3.94084 27.1583 4.40568C26.8418 4.86951 26.2078 4.98895 25.7419 4.67144C19.7349 0.567578 11.6347 1.32803 6.47977 6.48199C3.61613 9.34563 2.03849 13.1529 2.03849 17.203C2.03849 21.2531 3.61613 25.0613 6.47977 27.925C6.87792 28.3231 6.87792 28.9681 6.47977 29.3662ZM52.6564 28.8825C52.8276 29.3483 52.9172 29.846 52.9172 30.3576C52.9172 31.4943 52.4752 32.5633 51.671 33.3676C50.8687 34.1718 49.7997 34.6138 48.663 34.6138C48.5416 34.6138 48.4251 34.5889 48.3054 34.5789C48.4063 35.7848 48.0154 37.0243 47.0943 37.9442C46.2642 38.7744 45.1753 39.1884 44.0864 39.1884C43.9665 39.1884 43.8481 39.1643 43.7287 39.1543C43.8299 40.3606 43.439 41.6006 42.5177 42.5209C41.6875 43.351 40.5986 43.7651 39.5097 43.7651C39.3899 43.7651 39.2714 43.7409 39.152 43.731C39.2533 44.9372 38.8624 46.1772 37.941 47.0975C37.1109 47.9277 36.022 48.3417 34.9331 48.3417C33.8421 48.3417 32.7532 47.9277 31.9231 47.0975L30.1322 45.3061C29.956 46.0461 29.5931 46.7507 29.0167 47.3265L27.5863 48.7558C26.7572 49.5859 25.6673 50 24.5774 50C23.4874 50 22.3975 49.5859 21.5684 48.7558C20.6476 47.8355 20.2569 46.5955 20.3582 45.3893C20.2387 45.3992 20.1204 45.4234 20.0007 45.4234C18.9108 45.4234 17.8209 45.0093 16.9917 44.1792C16.0709 43.2588 15.6802 42.0189 15.7815 40.8126C15.6621 40.8226 15.5437 40.8467 15.4241 40.8467C14.3341 40.8467 13.2442 40.4326 12.4151 39.6025C11.4946 38.6825 11.104 37.4431 11.2047 36.2372C11.0852 36.2472 10.9688 36.272 10.8474 36.272C9.70971 36.272 8.64169 35.8301 7.83844 35.0258C6.17918 33.3676 6.17918 30.6662 7.83844 29.0079L9.26877 27.5786C10.071 26.7743 11.14 26.3314 12.2767 26.3314C12.2767 26.3314 12.2767 26.3314 12.2777 26.3314C13.4144 26.3314 14.4834 26.7743 15.2867 27.5786C16.0899 28.3808 16.5329 29.4499 16.5329 30.5866C16.5329 30.7208 16.5065 30.8498 16.4943 30.9818C17.7134 30.8843 18.9713 31.2631 19.8633 32.1552C20.6676 32.9575 21.1095 34.0265 21.1095 35.1632C21.1095 35.2846 21.0847 35.4011 21.0747 35.5208C22.2806 35.4199 23.52 35.8108 24.44 36.7319C25.3606 37.652 25.7513 38.8916 25.6504 40.0976C26.8565 39.9963 28.0964 40.3872 29.0167 41.3085C29.0649 41.3567 29.0979 41.4137 29.1433 41.4636C29.1711 41.486 29.2049 41.4958 29.2307 41.5215L33.3644 45.6563C34.2303 46.5222 35.6378 46.5182 36.4997 45.6563C37.3637 44.7923 37.3637 43.3849 36.4997 42.5209L26.374 32.3941C25.9758 31.996 25.9758 31.351 26.374 30.9528C26.7721 30.5547 27.4171 30.5547 27.8153 30.9528L37.941 41.0796C38.807 41.9456 40.2144 41.9436 41.0764 41.0796C41.9404 40.2156 41.9404 38.8082 41.0764 37.9442L30.9516 27.8175C30.5535 27.4193 30.5535 26.7743 30.9516 26.3762C31.3498 25.9781 31.9948 25.9781 32.3929 26.3762L42.5177 36.503C43.3836 37.3689 44.7911 37.3649 45.6531 36.503C46.517 35.639 46.517 34.2316 45.6531 33.3676L35.5283 23.2408C35.1301 22.8427 35.1301 22.1977 35.5283 21.7995C35.9264 21.4014 36.5714 21.4014 36.9696 21.7995L47.0943 31.9263C47.9264 32.7584 49.3896 32.7624 50.2297 31.9263C50.6478 31.5083 50.8787 30.9509 50.8787 30.3576C50.8787 29.7664 50.6478 29.209 50.2297 28.7909L34.3418 12.901L26.1321 21.1098C23.3371 23.9057 18.7884 23.9047 15.9944 21.1098C14.8398 19.9551 14.8398 18.0779 15.9944 16.9233L27.7426 5.17509C30.9914 1.92624 35.3093 0.136588 39.9059 0.136588C44.5004 0.136588 48.8183 1.92624 52.0671 5.17509C58.5469 11.6539 58.7579 22.1489 52.6564 28.8825ZM12.4151 33.5846L13.8454 32.1552C14.2635 31.7352 14.4944 31.1798 14.4944 30.5866C14.4944 29.9953 14.2635 29.4379 13.8454 29.0199C13.4264 28.5998 12.869 28.3689 12.2767 28.3689C11.6855 28.3689 11.1291 28.5998 10.711 29.0199L9.27971 30.4492C8.41574 31.3132 8.41574 32.7206 9.27971 33.5846C10.1178 34.4207 11.577 34.4207 12.4151 33.5846ZM16.9917 38.1612L18.4221 36.7319C18.8411 36.3138 19.071 35.7564 19.071 35.1632C19.071 34.572 18.8411 34.0146 18.4221 33.5965C18.003 33.1785 17.4466 32.9475 16.8544 32.9475C16.2621 32.9475 15.7057 33.1785 15.2867 33.5965L13.8564 35.0258C12.9924 35.8898 12.9924 37.2973 13.8564 38.1612C14.7203 39.0252 16.1278 39.0252 16.9917 38.1612ZM21.5684 42.7379L22.9987 41.3085C23.4178 40.8885 23.6477 40.3331 23.6477 39.7399C23.6477 39.1486 23.4178 38.5912 22.9987 38.1732C22.5667 37.7412 21.9984 37.5242 21.431 37.5242C20.8637 37.5242 20.2953 37.7412 19.8633 38.1732L18.433 39.6025C17.569 40.4665 17.569 41.8739 18.433 42.7379C19.297 43.6018 20.7044 43.6018 21.5684 42.7379ZM27.5754 42.7498C27.1434 42.3178 26.575 42.1008 26.0077 42.1008C25.4403 42.1008 24.872 42.3178 24.44 42.7498L23.0097 44.1792C22.1457 45.0431 22.1457 46.4506 23.0097 47.3145C23.8736 48.1785 25.2811 48.1785 26.145 47.3145L27.5754 45.8852C28.4393 45.0212 28.4393 43.6138 27.5754 42.7498ZM50.6259 6.61636C47.7632 3.75272 43.955 2.17508 39.9059 2.17508C35.8548 2.17508 32.0465 3.75272 29.1839 6.61636L17.4357 18.3646C17.0763 18.7239 17.0763 19.3092 17.4357 19.6685C19.4353 21.6682 22.6892 21.6701 24.6908 19.6685L33.6212 10.7391C33.8123 10.548 34.0711 10.4405 34.3418 10.4405C34.6125 10.4405 34.8713 10.548 35.0625 10.7391L51.4679 27.1466C56.5144 21.2023 56.2218 12.2113 50.6259 6.61636Z"/>
</mask>
<path d="M6.47977 29.3662C6.2807 29.5653 6.01992 29.6649 5.75914 29.6649C5.49835 29.6649 5.23757 29.5653 5.0385 29.3662C1.78965 26.1174 0 21.7976 0 17.203C0 12.6084 1.78965 8.28856 5.0385 5.04071C10.8872 -0.806015 20.0764 -1.66899 26.8926 2.98928C27.3574 3.3068 27.4768 3.94084 27.1583 4.40568C26.8418 4.86951 26.2078 4.98895 25.7419 4.67144C19.7349 0.567578 11.6347 1.32803 6.47977 6.48199C3.61613 9.34563 2.03849 13.1529 2.03849 17.203C2.03849 21.2531 3.61613 25.0613 6.47977 27.925C6.87792 28.3231 6.87792 28.9681 6.47977 29.3662ZM52.6564 28.8825C52.8276 29.3483 52.9172 29.846 52.9172 30.3576C52.9172 31.4943 52.4752 32.5633 51.671 33.3676C50.8687 34.1718 49.7997 34.6138 48.663 34.6138C48.5416 34.6138 48.4251 34.5889 48.3054 34.5789C48.4063 35.7848 48.0154 37.0243 47.0943 37.9442C46.2642 38.7744 45.1753 39.1884 44.0864 39.1884C43.9665 39.1884 43.8481 39.1643 43.7287 39.1543C43.8299 40.3606 43.439 41.6006 42.5177 42.5209C41.6875 43.351 40.5986 43.7651 39.5097 43.7651C39.3899 43.7651 39.2714 43.7409 39.152 43.731C39.2533 44.9372 38.8624 46.1772 37.941 47.0975C37.1109 47.9277 36.022 48.3417 34.9331 48.3417C33.8421 48.3417 32.7532 47.9277 31.9231 47.0975L30.1322 45.3061C29.956 46.0461 29.5931 46.7507 29.0167 47.3265L27.5863 48.7558C26.7572 49.5859 25.6673 50 24.5774 50C23.4874 50 22.3975 49.5859 21.5684 48.7558C20.6476 47.8355 20.2569 46.5955 20.3582 45.3893C20.2387 45.3992 20.1204 45.4234 20.0007 45.4234C18.9108 45.4234 17.8209 45.0093 16.9917 44.1792C16.0709 43.2588 15.6802 42.0189 15.7815 40.8126C15.6621 40.8226 15.5437 40.8467 15.4241 40.8467C14.3341 40.8467 13.2442 40.4326 12.4151 39.6025C11.4946 38.6825 11.104 37.4431 11.2047 36.2372C11.0852 36.2472 10.9688 36.272 10.8474 36.272C9.70971 36.272 8.64169 35.8301 7.83844 35.0258C6.17918 33.3676 6.17918 30.6662 7.83844 29.0079L9.26877 27.5786C10.071 26.7743 11.14 26.3314 12.2767 26.3314C12.2767 26.3314 12.2767 26.3314 12.2777 26.3314C13.4144 26.3314 14.4834 26.7743 15.2867 27.5786C16.0899 28.3808 16.5329 29.4499 16.5329 30.5866C16.5329 30.7208 16.5065 30.8498 16.4943 30.9818C17.7134 30.8843 18.9713 31.2631 19.8633 32.1552C20.6676 32.9575 21.1095 34.0265 21.1095 35.1632C21.1095 35.2846 21.0847 35.4011 21.0747 35.5208C22.2806 35.4199 23.52 35.8108 24.44 36.7319C25.3606 37.652 25.7513 38.8916 25.6504 40.0976C26.8565 39.9963 28.0964 40.3872 29.0167 41.3085C29.0649 41.3567 29.0979 41.4137 29.1433 41.4636C29.1711 41.486 29.2049 41.4958 29.2307 41.5215L33.3644 45.6563C34.2303 46.5222 35.6378 46.5182 36.4997 45.6563C37.3637 44.7923 37.3637 43.3849 36.4997 42.5209L26.374 32.3941C25.9758 31.996 25.9758 31.351 26.374 30.9528C26.7721 30.5547 27.4171 30.5547 27.8153 30.9528L37.941 41.0796C38.807 41.9456 40.2144 41.9436 41.0764 41.0796C41.9404 40.2156 41.9404 38.8082 41.0764 37.9442L30.9516 27.8175C30.5535 27.4193 30.5535 26.7743 30.9516 26.3762C31.3498 25.9781 31.9948 25.9781 32.3929 26.3762L42.5177 36.503C43.3836 37.3689 44.7911 37.3649 45.6531 36.503C46.517 35.639 46.517 34.2316 45.6531 33.3676L35.5283 23.2408C35.1301 22.8427 35.1301 22.1977 35.5283 21.7995C35.9264 21.4014 36.5714 21.4014 36.9696 21.7995L47.0943 31.9263C47.9264 32.7584 49.3896 32.7624 50.2297 31.9263C50.6478 31.5083 50.8787 30.9509 50.8787 30.3576C50.8787 29.7664 50.6478 29.209 50.2297 28.7909L34.3418 12.901L26.1321 21.1098C23.3371 23.9057 18.7884 23.9047 15.9944 21.1098C14.8398 19.9551 14.8398 18.0779 15.9944 16.9233L27.7426 5.17509C30.9914 1.92624 35.3093 0.136588 39.9059 0.136588C44.5004 0.136588 48.8183 1.92624 52.0671 5.17509C58.5469 11.6539 58.7579 22.1489 52.6564 28.8825ZM12.4151 33.5846L13.8454 32.1552C14.2635 31.7352 14.4944 31.1798 14.4944 30.5866C14.4944 29.9953 14.2635 29.4379 13.8454 29.0199C13.4264 28.5998 12.869 28.3689 12.2767 28.3689C11.6855 28.3689 11.1291 28.5998 10.711 29.0199L9.27971 30.4492C8.41574 31.3132 8.41574 32.7206 9.27971 33.5846C10.1178 34.4207 11.577 34.4207 12.4151 33.5846ZM16.9917 38.1612L18.4221 36.7319C18.8411 36.3138 19.071 35.7564 19.071 35.1632C19.071 34.572 18.8411 34.0146 18.4221 33.5965C18.003 33.1785 17.4466 32.9475 16.8544 32.9475C16.2621 32.9475 15.7057 33.1785 15.2867 33.5965L13.8564 35.0258C12.9924 35.8898 12.9924 37.2973 13.8564 38.1612C14.7203 39.0252 16.1278 39.0252 16.9917 38.1612ZM21.5684 42.7379L22.9987 41.3085C23.4178 40.8885 23.6477 40.3331 23.6477 39.7399C23.6477 39.1486 23.4178 38.5912 22.9987 38.1732C22.5667 37.7412 21.9984 37.5242 21.431 37.5242C20.8637 37.5242 20.2953 37.7412 19.8633 38.1732L18.433 39.6025C17.569 40.4665 17.569 41.8739 18.433 42.7379C19.297 43.6018 20.7044 43.6018 21.5684 42.7379ZM27.5754 42.7498C27.1434 42.3178 26.575 42.1008 26.0077 42.1008C25.4403 42.1008 24.872 42.3178 24.44 42.7498L23.0097 44.1792C22.1457 45.0431 22.1457 46.4506 23.0097 47.3145C23.8736 48.1785 25.2811 48.1785 26.145 47.3145L27.5754 45.8852C28.4393 45.0212 28.4393 43.6138 27.5754 42.7498ZM50.6259 6.61636C47.7632 3.75272 43.955 2.17508 39.9059 2.17508C35.8548 2.17508 32.0465 3.75272 29.1839 6.61636L17.4357 18.3646C17.0763 18.7239 17.0763 19.3092 17.4357 19.6685C19.4353 21.6682 22.6892 21.6701 24.6908 19.6685L33.6212 10.7391C33.8123 10.548 34.0711 10.4405 34.3418 10.4405C34.6125 10.4405 34.8713 10.548 35.0625 10.7391L51.4679 27.1466C56.5144 21.2023 56.2218 12.2113 50.6259 6.61636Z" fill="#FF6600" stroke="#FF6600" stroke-width="2" mask="url(#path-1-inside-1)"/>
</svg>
