<svg width="29" height="29" viewBox="0 0 29 29" fill="none" xmlns="http://www.w3.org/2000/svg">
<path fill-rule="evenodd" clip-rule="evenodd" d="M3.69222 6.8729C3.69222 6.8729 3.64026 5.5103 4.50508 3.74713C5.11515 2.50017 7.49006 1.81134 7.49006 1.81134C7.49006 1.81134 8.50572 1.55323 10.5471 3.52422C11.3585 4.27532 11.8746 5.29188 12.0019 6.39021C12.0757 7.39247 9.93872 9.52939 9.93872 9.52939C10.1041 10.7563 10.6164 11.9105 11.4153 12.8563C12.255 13.8334 13.7014 15.3569 14.4606 16.0692C15.1109 16.6793 15.8366 17.4754 16.802 18.1156C18.7009 19.3743 19.1568 19.2604 19.1568 19.2604C19.1568 19.2604 21.8619 16.9944 22.6714 17.0731C23.2865 17.1352 24.1581 17.5407 25.2726 18.491C26.1006 19.195 26.6302 19.728 27.0458 20.4386C27.1938 20.684 27.3103 20.9469 27.3928 21.2213C27.3928 21.2213 27.5017 22.3459 25.7553 24.1359C24.0172 25.9142 21.6205 25.4482 21.6205 25.4482C21.6205 25.4482 20.2428 25.2438 17.9886 24.1828C15.4927 22.9658 13.2187 21.3387 11.2611 19.3693C9.43422 17.4821 7.03921 14.5943 5.87438 12.5848C4.40786 10.059 3.69222 6.8729 3.69222 6.8729Z" fill="#FF6600"/>
</svg>
