<svg width="23" height="30" viewBox="0 0 23 30" fill="none" xmlns="http://www.w3.org/2000/svg">
<path fill-rule="evenodd" clip-rule="evenodd" d="M11.3514 0C17.6203 0 22.7027 4.91399 22.7027 10.974C22.7027 17.034 11.3514 30 11.3514 30C11.3514 30 0 17.034 0 10.974C0 4.91399 5.08238 0 11.3514 0ZM11.3574 6.21599C12.3632 6.21599 13.3464 6.51158 14.1827 7.06538C15.019 7.61918 15.6708 8.40634 16.0557 9.32728C16.4406 10.2482 16.5413 11.2616 16.3451 12.2392C16.1489 13.2169 15.6645 14.115 14.9533 14.8198C14.2421 15.5247 13.336 16.0047 12.3495 16.1992C11.363 16.3936 10.3405 16.2938 9.41131 15.9123C8.48208 15.5309 7.68783 14.8849 7.12903 14.0561C6.57024 13.2273 6.27199 12.2528 6.27199 11.256C6.27199 9.91932 6.80779 8.63737 7.76149 7.69219C8.71519 6.747 10.0087 6.21599 11.3574 6.21599Z" fill="#44403F"/>
</svg>
