<svg width="27" height="20" viewBox="0 0 27 20" fill="none" xmlns="http://www.w3.org/2000/svg">
<path fill-rule="evenodd" clip-rule="evenodd" d="M17.3818 10.1639L26.4865 1.75005V18.4722L17.3818 10.1639ZM0.537941 0.583391C0.710842 0.399016 0.916949 0.252505 1.14429 0.152366C1.37164 0.0522275 1.61568 0.000456948 1.86227 6.11521e-05H24.6242C24.8648 -0.00195925 25.1034 0.0461033 25.3262 0.141465C25.549 0.236828 25.7515 0.377594 25.9221 0.555614C25.9244 0.558947 13.2432 12.0219 13.2432 12.0219C13.2432 12.0219 0.537411 0.58478 0.537941 0.583391ZM0 18.47V1.75005L9.10473 10.1667L0 18.47ZM13.2062 13.9892L16.5541 10.9289C16.5541 10.9289 25.868 19.4425 25.8659 19.4444C25.6959 19.6222 25.4939 19.7628 25.2717 19.8582C25.0494 19.9536 24.8114 20.0017 24.5713 20H1.84108C1.59473 19.9996 1.35092 19.9478 1.12383 19.8476C0.896744 19.7475 0.69092 19.601 0.518341 19.4166L9.93243 10.9289L13.2062 13.9892Z" fill="#FF6600"/>
</svg>
