<svg width="13" height="9" viewBox="0 0 13 9" fill="none" xmlns="http://www.w3.org/2000/svg">
<path fill-rule="evenodd" clip-rule="evenodd" d="M8.53125 4.57375L13 0.787523V8.31248L8.53125 4.57375ZM0.26403 0.262526C0.348893 0.179557 0.450053 0.113627 0.561637 0.0685648C0.673221 0.0235024 0.793004 0.000205627 0.91403 2.75184e-05H12.086C12.2041 -0.000881664 12.3212 0.0207465 12.4305 0.0636594C12.5399 0.106572 12.6393 0.169917 12.723 0.250026C12.7241 0.251526 6.5 5.40987 6.5 5.40987C6.5 5.40987 0.26377 0.263151 0.26403 0.262526ZM0 8.31148V0.787523L4.46875 4.575L0 8.31148ZM6.4818 6.29512L8.125 4.918C8.125 4.918 12.6964 8.7491 12.6954 8.74998C12.6119 8.82999 12.5128 8.89328 12.4037 8.93619C12.2947 8.9791 12.1778 9.00079 12.06 8.99998H0.90363C0.782719 8.9998 0.663052 8.97651 0.551594 8.93144C0.440136 8.88638 0.339115 8.82044 0.25441 8.73748L4.875 4.918L6.4818 6.29512Z" fill="#44403F"/>
</svg>
