<svg width="22" height="16" viewBox="0 0 22 16" fill="none" xmlns="http://www.w3.org/2000/svg">
<path fill-rule="evenodd" clip-rule="evenodd" d="M18.322 12.5833C16.4182 14.2938 14.6218 15.0988 13.9588 15.359C12.0181 16.1763 9.83173 16.2134 7.86372 15.4625L7.83424 15.4583C7.83424 15.4583 5.55094 14.6828 3.03261 12.4166C1.10395 10.6812 0 8.62007 0 8.02082C0 7.50832 0.633057 5.91341 2.82201 3.79166C5.55683 1.14091 7.83424 0.541666 7.83424 0.541666L7.86541 0.536832C8.8682 0.154454 9.93781 -0.0269288 11.0121 0.00322821C12.0864 0.0333852 13.1439 0.27448 14.1231 0.712499C14.8669 1.02792 16.4679 1.80571 18.1535 3.24999C20.6255 5.36841 21.5652 7.37603 21.5652 8.02082C21.5652 8.64549 20.532 10.5977 18.322 12.5833ZM10.7826 2.66666C9.71631 2.66666 8.67395 2.97946 7.78736 3.56549C6.90076 4.15152 6.20975 4.98447 5.80169 5.95901C5.39364 6.93355 5.28687 8.0059 5.4949 9.04047C5.70292 10.075 6.21639 11.0253 6.97038 11.7712C7.72437 12.5171 8.68501 13.025 9.73082 13.2308C10.7766 13.4366 11.8606 13.331 12.8458 12.9273C13.8309 12.5237 14.6729 11.8401 15.2653 10.963C15.8577 10.086 16.1739 9.05482 16.1739 7.99999C16.1739 6.5855 15.6059 5.22895 14.5948 4.22876C13.5838 3.22856 12.2125 2.66666 10.7826 2.66666ZM10.7826 10.6667C10.0677 10.6667 9.38203 10.3857 8.87649 9.8856C8.37096 9.38551 8.08696 8.70723 8.08696 7.99999V7.99786C8.11518 7.99878 8.14298 7.99999 8.1712 7.99999C8.86379 7.99999 9.52801 7.72782 10.0177 7.24335C10.5075 6.75888 10.7826 6.1018 10.7826 5.41666C10.7826 5.38874 10.7813 5.36107 10.7805 5.33332H10.7826C11.4975 5.33332 12.1832 5.61428 12.6887 6.11437C13.1943 6.61447 13.4783 7.29275 13.4783 7.99999C13.4783 8.70723 13.1943 9.38551 12.6887 9.8856C12.1832 10.3857 11.4975 10.6667 10.7826 10.6667Z" fill="#C0C0C0"/>
</svg>
