<?xml version="1.0" encoding="UTF-8"?><!DOCTYPE svg PUBLIC "-//W3C//DTD SVG 1.1//EN" "http://www.w3.org/Graphics/SVG/1.1/DTD/svg11.dtd"><svg xmlns="http://www.w3.org/2000/svg" xmlns:xlink="http://www.w3.org/1999/xlink"><symbol id="email"><path fill-rule="evenodd" clip-rule="evenodd" d="M8.531 4.574L13 .788v7.524L8.531 4.574zM.264.263A.916.916 0 01.914 0h11.172a.924.924 0 01.637.25C12.724.252 6.5 5.41 6.5 5.41L.264.263zM0 8.31V.788l4.469 3.787L0 8.311zm6.482-2.016l1.643-1.377s4.571 3.831 4.57 3.832a.895.895 0 01-.635.25H.904a.943.943 0 01-.65-.263l4.621-3.819 1.607 1.377z" fill="#44403F"/></symbol><symbol id="insta"><path fill-rule="evenodd" clip-rule="evenodd" d="M13.571 19H5.43c-1.44 0-2.821-.564-3.839-1.568A5.314 5.314 0 010 13.648V5.352c0-1.42.572-2.78 1.59-3.784A5.468 5.468 0 015.429 0h8.142c1.44 0 2.821.564 3.839 1.568A5.314 5.314 0 0119 5.352v8.296c0 1.42-.572 2.78-1.59 3.784A5.468 5.468 0 0113.571 19zm3.665-14.05c0-.886-.358-1.737-.994-2.365a3.418 3.418 0 00-2.4-.98h-8.82c-.9 0-1.763.353-2.4.98a3.321 3.321 0 00-.993 2.366v8.697c0 .887.357 1.738.993 2.365.637.627 1.5.98 2.4.98h8.82c.9 0 1.764-.352 2.4-.98a3.322 3.322 0 00.994-2.365V4.95zm-2.715.536c-.241 0-.477-.07-.678-.203-.201-.132-.358-.32-.45-.54a1.187 1.187 0 01.265-1.313 1.227 1.227 0 011.33-.26c.224.09.415.245.549.443a1.192 1.192 0 01-.152 1.52 1.23 1.23 0 01-.864.353zm-5.089 8.83c-.98 0-1.937-.286-2.752-.822a4.9 4.9 0 01-1.824-2.192 4.82 4.82 0 01-.282-2.822 4.863 4.863 0 011.355-2.5 4.976 4.976 0 012.537-1.337 5.02 5.02 0 012.862.278A4.94 4.94 0 0113.55 6.72c.544.803.835 1.747.835 2.713a4.85 4.85 0 01-1.451 3.454 4.99 4.99 0 01-3.503 1.43zm0-8.027c-.63 0-1.247.184-1.772.53a3.154 3.154 0 00-1.174 1.41 3.103 3.103 0 00-.182 1.818c.123.61.427 1.17.873 1.61a3.23 3.23 0 003.476.682 3.18 3.18 0 001.43-1.159 3.112 3.112 0 00-.396-3.97 3.212 3.212 0 00-2.255-.921z" fill="#44403F"/></symbol><symbol id="vk"><path fill-rule="evenodd" clip-rule="evenodd" d="M15.453 10.948h-.142c-.967-.156-1.565-.83-2.126-1.457-.322-.353-.84-1.261-1.418-1.166-.821.133-.363 1.584-.709 2.186-.274.481-1.459.38-2.268.292-2.566-.271-3.958-1.592-5.104-3.061C2.456 6.174 1.57 4.454.709 2.64.425 2.045 0 1.467 0 .745.417.409 1.157.453 1.843.453 2.42.453 3.261.385 3.686.6c.252.13.505.877.709 1.312.398.869.873 1.698 1.418 2.478.247.35.693.964 1.134.875.433-.086.406-1.074.425-1.75.023-.768.081-1.776-.142-2.186-.206-.384-.608-.353-.992-.583C6.556.104 7.443.016 8.506.016c.892 0 2.058-.146 2.41.437.35.602.169 1.817.142 2.624-.026.906-.2 1.766.425 2.187.484-.052.715-.51.993-.875.616-.8 1.084-1.45 1.56-2.478.193-.429.356-1.176.708-1.312.538-.2 1.34-.146 2.127-.146.649 0 1.779-.15 1.984.292.167.353-.269 1.348-.425 1.603-.598.97-1.2 1.635-1.843 2.478-.26.341-.743.775-.709 1.312.023.415.39.73.71 1.02.618.58 1.187 1.215 1.7 1.896.21.267.756.818.71 1.166-.132 1.085-3.543.718-3.545.728z" fill="#44403F"/></symbol></svg>