<svg width="19" height="19" viewBox="0 0 19 19" fill="none" xmlns="http://www.w3.org/2000/svg">
<path fill-rule="evenodd" clip-rule="evenodd" d="M13.5714 19H5.42857C3.98882 19 2.60804 18.4361 1.58999 17.4324C0.571933 16.4287 0 15.0674 0 13.6479V5.35211C0 3.93264 0.571933 2.57131 1.58999 1.5676C2.60804 0.563882 3.98882 0 5.42857 0H13.5714C15.0112 0 16.392 0.563882 17.41 1.5676C18.4281 2.57131 19 3.93264 19 5.35211V13.6479C19 15.0674 18.4281 16.4287 17.41 17.4324C16.392 18.4361 15.0112 19 13.5714 19ZM17.2357 4.9507C17.2357 4.06354 16.8782 3.2127 16.242 2.58538C15.6057 1.95806 14.7427 1.60563 13.8429 1.60563H5.02143C4.12159 1.60563 3.25861 1.95806 2.62232 2.58538C1.98604 3.2127 1.62857 4.06354 1.62857 4.9507V13.6479C1.62857 14.5351 1.98604 15.3859 2.62232 16.0132C3.25861 16.6405 4.12159 16.993 5.02143 16.993H13.8429C14.7427 16.993 15.6057 16.6405 16.242 16.0132C16.8782 15.3859 17.2357 14.5351 17.2357 13.6479V4.9507ZM14.5214 5.48592C14.2799 5.48592 14.0437 5.41529 13.8428 5.28297C13.642 5.15064 13.4854 4.96257 13.393 4.74253C13.3005 4.52248 13.2763 4.28036 13.3235 4.04676C13.3706 3.81316 13.4869 3.59859 13.6577 3.43018C13.8286 3.26176 14.0462 3.14707 14.2831 3.1006C14.5201 3.05414 14.7657 3.07799 14.9888 3.16913C15.212 3.26028 15.4028 3.41463 15.537 3.61266C15.6712 3.81069 15.7429 4.04352 15.7429 4.28169C15.7429 4.60107 15.6142 4.90737 15.3851 5.1332C15.1561 5.35904 14.8454 5.48592 14.5214 5.48592ZM9.43214 14.3169C8.45242 14.3169 7.4947 14.0305 6.68008 13.4938C5.86547 12.9572 5.23057 12.1944 4.85565 11.302C4.48072 10.4097 4.38261 9.42768 4.57375 8.48032C4.76488 7.53295 5.23666 6.66274 5.92943 5.97973C6.6222 5.29672 7.50484 4.83158 8.46574 4.64313C9.42664 4.45469 10.4226 4.55141 11.3278 4.92105C12.2329 5.2907 13.0066 5.91667 13.5509 6.7198C14.0952 7.52294 14.3857 8.46717 14.3857 9.4331C14.3857 10.7284 13.8638 11.9706 12.9349 12.8865C12.0059 13.8024 10.7459 14.3169 9.43214 14.3169ZM9.43214 6.28873C8.80136 6.28873 8.18474 6.47314 7.66027 6.81865C7.13579 7.16416 6.72701 7.65524 6.48563 8.2298C6.24424 8.80436 6.18108 9.43659 6.30414 10.0465C6.4272 10.6565 6.73094 11.2168 7.17697 11.6565C7.623 12.0962 8.19129 12.3957 8.80995 12.517C9.42861 12.6384 10.0699 12.5761 10.6526 12.3381C11.2354 12.1001 11.7335 11.6971 12.0839 11.18C12.4344 10.6629 12.6214 10.055 12.6214 9.4331C12.6214 8.59916 12.2854 7.79938 11.6873 7.2097C11.0892 6.62001 10.278 6.28873 9.43214 6.28873Z" fill="#44403F"/>
</svg>
