<svg width="1920" height="1197" viewBox="0 0 1920 1197" fill="none" xmlns="http://www.w3.org/2000/svg">
<path d="M247.219 1070.12C251.653 1067.59 253.267 1073.7 256.887 1079.79C257.138 1080.21 257.301 1080.54 257.484 1080.92C262.453 1079.96 266.236 1078.15 271.286 1077.39C274.92 1076.85 279.652 1077.86 283.374 1078.96C282.71 1077.5 282.296 1076.17 282.683 1075.21C283.883 1072.16 289.93 1076.23 291.957 1078.76C293.964 1081.31 300.418 1082.33 302.431 1079.79C304.445 1077.25 299.204 1074.7 297.997 1072.16C297.394 1070.89 298.987 1068.26 300.736 1065.91C297.231 1063.44 293.618 1059.94 292.35 1060.47C290.54 1061.23 290.54 1049.79 288.113 1049.79C285.7 1049.79 285.7 1047.49 283.286 1047.49C280.859 1047.49 271.795 1047.49 269.381 1049.79C266.961 1052.07 263.937 1044.45 260.921 1044.45C257.89 1044.45 254.263 1040.63 252.453 1037.58C250.636 1034.54 235.532 1039.11 231.295 1035.29C227.064 1031.49 219.2 1028.44 214.963 1029.2C213.878 1029.4 212.014 1030.58 209.858 1032.2C217.797 1038.03 229.335 1036.51 230.894 1047.01C232.711 1059.19 238.149 1054.36 236.128 1064.79C235.728 1066.84 234.582 1068.82 232.983 1070.66C239.26 1071.27 245.165 1071.29 247.219 1070.12Z" fill="white"/>
<path d="M62.8315 940.883C61.2069 934.53 55.9664 932.081 53.1251 932.081C50.2974 932.081 45.451 924.274 42.2222 924.759C40.4617 925.022 36.091 926.304 32.2573 927.816C35.7715 935.82 39.5304 943.989 41.2637 946.438C44.9614 951.664 52.9958 965.856 49.9166 969.587C47.4968 972.512 48.4962 984.494 52.2755 988.192C54.0359 985.431 59.9971 976.358 59.9971 973.605C59.9971 970.68 60.4115 964.813 65.2444 966.275C70.0976 967.746 74.5432 970.195 74.5432 968.239C74.5432 966.275 73.3333 959.939 71.3145 957.482C69.2957 955.05 64.4492 947.235 62.8315 940.883V940.883Z" fill="white"/>
<path d="M187.355 946.971C189.473 946.606 195.854 938.105 197.979 938.105C200.11 938.105 209.216 940.326 209.216 938.478C209.216 936.63 212.253 930.349 211.64 928.501C211.034 926.653 207.997 924.076 208.61 922.22C209.216 920.373 213.466 920.373 213.466 918.16C213.466 915.94 210.129 914.829 210.129 913.355C210.129 911.88 214.378 909.286 214.072 906.336C213.772 903.386 210.128 903.013 206.178 900.428C202.228 897.835 198.278 898.937 194.635 896.733C190.998 894.512 183.404 895.987 183.404 894.512C183.404 893.045 178.549 888.231 177.33 885.646C176.111 883.06 172.167 884.535 169.743 886.383C167.305 888.231 165.18 888.968 162.755 887.129C160.331 885.273 158.206 882.323 156.081 883.425C153.949 884.536 149.999 883.798 150.912 880.102C151.825 876.407 146.969 868.286 144.844 867.176C142.712 866.066 136.338 867.905 134.826 864.218C133.3 860.522 130.569 857.564 131.788 854.987C132.994 852.394 131.482 845.376 129.963 842.417C128.438 839.468 120.851 839.841 118.733 840.943C116.601 842.045 111.739 839.841 109.621 841.307C107.489 842.79 106.277 845.376 103.239 845.376C101.55 845.376 100.42 845.094 99.4936 843.47C96.2109 845.276 90.6946 845.632 90.6946 845.632C90.6946 845.632 82.5903 853.504 82.5903 856.462C82.5903 859.412 82.1952 864.351 80.1657 861.89C78.143 859.42 69.6437 859.412 67.621 860.896C65.5915 862.37 62.3496 854.987 58.706 857.457C55.0692 859.917 50.2069 854.001 49.7983 856.462C49.3965 858.932 44.1319 856.959 40.4815 854.987C36.8448 853.015 30.3613 855.973 27.9368 852.518C25.5055 849.071 9.71904 849.071 4.4546 849.071C-0.803021 849.071 -2.02214 852.518 -4.45345 855.476C-6.6532 858.169 -9.20029 857.606 -11.7746 857.473C-11.5499 859.951 -11.1551 862.163 -10.6307 863.108C-9.41844 865.329 -3.64321 876.042 -5.16874 879.365C-6.67384 882.696 -9.4182 882.696 -11.2366 885.273C-13.0618 887.867 -23.6929 899.318 -23.9858 901.157C-24.2923 903.013 -22.1673 911.134 -23.6928 912.617C-25.1979 914.1 -29.761 921.856 -29.761 924.806C-29.761 927.764 -26.4238 931.824 -23.6928 932.934C-22.5419 933.415 -21.7997 934.069 -21.4592 934.84C-19.3411 934.492 -17.3932 934.293 -16.1877 934.293C-14.1651 934.293 -5.25045 937.251 -2.43095 937.251C0.40899 937.251 4.45446 938.726 5.66671 940.209C6.89258 941.684 9.71901 940.698 11.7485 938.237C13.7644 935.776 16.2026 937.251 18.6271 937.251C21.0516 937.251 25.1104 934.782 26.3227 932.33C27.5349 929.869 39.6848 925.916 42.9197 925.427C46.1546 924.938 51.0105 932.81 53.8436 932.81C56.6904 932.81 61.941 935.279 63.5687 941.685C65.1896 948.09 70.0454 955.969 72.0681 958.422C74.0908 960.9 75.303 967.288 75.303 969.269C75.303 971.241 70.8489 968.772 65.9863 967.288C61.1441 965.813 60.7288 971.73 60.7288 974.679C60.7288 977.646 53.8436 987.987 52.6382 989.959C51.4191 991.931 55.0695 993.406 57.9026 993.887C59.108 994.102 63.9775 989.959 65.5915 989.959C66.2522 989.959 68.2609 991.848 70.413 994.094C69.9499 986.388 71.2644 986.818 76.9238 981.59C82.7944 976.179 83.4007 966.07 88.6651 964.836C93.9295 963.601 96.1497 960.643 103.845 962.118C111.541 963.601 100.011 969.509 105.255 972.956C110.533 976.419 126.722 971.978 127.539 976.9C128.343 981.822 108.905 986.76 109.314 989.221C109.716 991.674 119.639 994.152 123.078 996.845C126.524 999.562 122.07 1007.19 123.691 1009.66C125.312 1012.12 130.569 1010.14 134.826 1006.46C139.075 1002.76 142.515 1003.99 147.984 999.562C153.446 995.129 164.778 999.057 166.202 996.364C167.611 993.646 162.96 990.945 152.431 991.931C141.909 992.909 141.296 980.844 141.296 978.367C141.296 975.922 152.233 965.813 158.499 965.084C164.778 964.338 169.838 962.118 175.913 958.679C178.358 957.295 182.655 955.887 187.048 954.867C186.387 951.387 185.536 947.294 187.355 946.971V946.971Z" fill="white"/>
<path d="M103.548 806.591C101.109 805.843 99.5959 799.182 95.6435 797.329C91.6979 795.477 92.6043 789.546 89.2652 786.963C85.926 784.363 88.0454 779.18 87.7455 775.102C87.4457 771.032 88.3518 764.736 86.5324 763.623C84.6993 762.51 77.1081 757.326 73.7758 759.187C70.4298 761.039 67.9969 762.509 66.4704 759.187C64.9576 755.856 62.8316 753.996 59.4925 755.109C56.1466 756.222 54.0137 754.369 52.1942 752.509C51.9216 752.226 51.6967 751.786 51.4991 751.296C50.1566 751.636 48.378 752.268 47.24 753.381C45.2093 755.358 44.8141 759.312 41.9724 759.312C39.1375 759.312 35.8939 757.833 32.657 760.79C29.4065 763.755 28.6021 767.219 29.0042 769.678C29.4062 772.145 29.822 776.099 27.3824 776.099C24.9564 776.099 25.3654 779.562 22.9326 780.551C20.4999 781.531 16.4519 785.983 16.0363 788.433C15.641 790.916 15.6409 796.349 14.0122 796.349C12.3903 796.349 6.72758 797.338 5.10572 799.804C3.48386 802.271 1.4667 804.73 -1.77702 803.75C-3.43977 803.243 -7.90311 802.994 -11.8215 802.886C-11.7601 803.368 -11.7604 803.849 -11.9103 804.364C-13.4299 809.547 -12.2169 814.365 -9.78409 816.957C-7.35812 819.548 -6.44488 829.922 -9.17751 831.401C-11.9101 832.879 -17.0754 837.323 -17.0754 839.923C-17.0754 842.507 -11.6102 844.732 -12.5166 848.429C-13.0345 850.555 -13.0482 854.318 -12.7551 857.599C-10.1792 857.732 -7.63061 858.297 -5.42951 855.597C-2.99673 852.632 -1.77687 849.177 3.48394 849.177C8.75157 849.177 24.5476 849.176 26.9804 852.632C29.4064 856.095 35.8938 853.13 39.5327 855.107C43.1853 857.084 48.4531 859.061 48.8551 856.586C49.264 854.119 54.1293 860.049 57.7683 857.582C61.414 855.107 64.658 862.508 66.6887 861.03C68.7126 859.543 77.2171 859.551 79.241 862.026C81.2717 864.493 81.667 859.543 81.667 856.586C81.667 853.62 89.7763 845.729 89.7763 845.729C89.7763 845.729 95.296 845.372 98.5806 843.561C97.8514 842.282 97.2315 840.181 96.5568 836.584C95.044 828.436 92.6043 823.627 94.4306 821.027C96.2569 818.435 101.415 824.366 104.148 822.879C106.887 821.4 111.746 818.435 111.14 815.104C110.533 811.774 105.974 807.322 103.548 806.591Z" fill="white"/>
<path d="M580.935 1143.39C580.935 1143.39 571.993 1137.99 568.738 1138.48C565.491 1138.97 560.206 1129.66 554.511 1127.2C548.823 1124.75 541.104 1120.34 538.67 1115.92C536.229 1111.5 526.063 1107.09 524.846 1103.65C523.629 1100.21 521.598 1094.32 518.747 1089.91C515.903 1085.49 515.91 1079.61 513.066 1079.12C510.215 1078.64 492.733 1079.12 492.733 1076.19C492.733 1073.25 491.516 1059.5 487.858 1058.53C484.201 1057.53 479.319 1056.56 477.296 1054.1C475.265 1051.65 468.75 1048.7 467.539 1051.17C466.322 1053.61 463.068 1054.59 461.858 1054.59C460.634 1054.59 461.037 1061.46 456.976 1060.97C452.908 1060.48 447.213 1066.37 447.213 1069.8C447.213 1073.25 447.63 1078.13 442.346 1077.65C439.693 1077.4 435.926 1076.79 432.671 1074.88C431.913 1075.6 427.503 1079.28 423.059 1072.12C418.177 1064.25 410.575 1056.39 406.24 1056.39C402.336 1056.39 388.861 1056.42 392.04 1065.43C392.983 1063.42 394.816 1062.08 398.446 1062.45C408.196 1063.42 403.724 1077.15 409.009 1077.65C414.301 1078.13 420.392 1087.96 415.511 1087.46C410.636 1086.97 406.568 1092.86 401.7 1090.9C396.819 1088.93 390.72 1084.02 389.093 1090.9C387.473 1097.76 385.429 1105.12 391.937 1104.62C398.446 1104.15 397.222 1109.54 392.751 1114.93C388.287 1120.34 399.663 1113.95 400.47 1118.86C401.283 1123.77 404.934 1124.25 403.328 1132.11C402.295 1137.07 403.054 1146.98 403.341 1154.31C407.656 1154.27 413.46 1153.83 414.697 1151.71C416.735 1148.29 423.23 1141.42 426.888 1141.42C430.552 1141.42 434.613 1143.39 436.65 1139.95C438.681 1136.52 450.468 1137.5 452.491 1140.44C454.536 1143.39 461.031 1145.84 462.658 1145.84C464.285 1145.84 465.099 1150.24 469.167 1149.77C473.228 1149.28 480.953 1151.24 480.953 1154.18C480.953 1157.13 483.797 1160.06 487.045 1160.06C490.299 1160.06 493.143 1169.88 496.391 1169.38C499.652 1168.89 506.14 1168.89 506.14 1171.34C506.14 1173.4 506.735 1185.02 508.602 1191.65C509.723 1190.93 510.871 1190.82 511.514 1191.32C513.148 1192.63 520.211 1190.02 521.291 1194.61C522.378 1199.19 533.768 1196.56 533.228 1189.36C532.681 1182.15 551.134 1182.15 552.761 1175.61C554.395 1169.06 556.569 1157.26 560.917 1159.23C565.245 1161.19 567.959 1150.71 571.76 1151.37C575.24 1151.97 577.818 1155.25 581.975 1154.31L580.935 1143.39Z" fill="white"/>
<path d="M738.761 974.351C727.43 974.351 702.324 967.478 692.205 980.745C682.086 994.004 689.372 1000.88 684.925 1001.86C680.138 1002.92 677.632 981.72 683.291 974.847C688.963 967.982 707.186 965.033 718.517 968.461C729.855 971.906 750.093 965.528 752.932 966.511C755.765 967.478 750.106 974.351 738.761 974.351V974.351ZM508.891 976.111C507.271 978.812 491.261 973.781 489.927 969.816C488.49 965.578 512.385 970.336 508.891 976.111ZM855.348 904.134C854.953 900.706 852.508 902.168 850.493 903.638C848.47 905.1 841.988 906.1 839.564 906.1C837.133 906.1 832.686 902.168 832.686 899.219C832.686 896.269 832.168 892.965 829.744 892.965C827.32 892.965 823.67 891.478 821.246 884.481C818.815 877.493 815.171 877.493 812.434 875.651C809.703 873.8 802.118 878.955 798.774 880.425C795.431 881.912 789.663 878.955 785.414 877.848C781.158 876.749 778.734 867.538 774.791 868.645C770.841 869.752 769.929 879.327 766.892 879.327C763.855 879.327 758.394 860.178 752.619 849.488C746.858 838.815 736.535 817.453 727.431 813.397C718.319 809.341 721.043 803.822 723.481 800.873C725.905 797.932 718.013 797.189 714.37 799.766C710.727 802.344 706.178 807.135 701.929 808.242C697.673 809.341 691.599 817.453 687.043 815.602C682.488 813.76 680.363 822.608 676.727 818.551C673.077 814.504 681.582 811.555 681.582 807.878C681.582 804.186 675.814 808.986 674.295 806.772C672.77 804.558 667.915 802.344 667.915 805.664C667.915 808.985 663.965 807.135 663.965 804.558C663.965 801.98 661.242 797.189 658.811 800.51C656.38 803.822 648.181 805.665 646.363 803.087C644.538 800.51 647.568 799.403 647.881 796.082C648.181 792.77 644.844 788.35 645.45 784.302C646.063 780.246 639.676 776.198 636.645 777.669C633.608 779.147 629.352 777.669 626.016 775.835C622.679 773.984 609.625 776.942 609.012 780.618C608.406 784.302 592.016 787.251 588.978 788.713C585.941 790.192 573.793 792.406 569.544 793.141C565.288 793.868 561.039 798.296 555.578 798.296C550.116 798.296 539.786 799.031 534.931 803.451C530.076 807.879 522.177 804.186 518.54 805.664C514.897 807.135 508.823 804.921 506.998 806.4C505.173 807.878 505.786 816.709 507.611 820.394C509.429 824.086 519.147 825.548 519.753 827.762C520.359 829.976 510.035 829.976 505.173 830.703C500.325 831.447 501.537 838.815 502.749 842.491C503.961 846.176 497.894 849.868 494.251 851.331C490.608 852.801 494.251 860.178 497.894 860.178C501.537 860.178 504.574 863.854 507.611 863.854C510.648 863.854 511.247 871.223 511.247 875.651C511.247 880.062 507.611 881.532 502.749 881.532C497.894 881.532 495.463 877.121 492.426 876.377C489.395 875.65 490.002 883.011 487.564 884.481C485.147 885.96 484.534 879.327 480.897 879.327C477.247 879.327 472.998 878.592 471.786 874.164C470.567 869.752 462.062 869.009 458.426 873.436C454.783 877.848 453.564 875.65 450.533 872.693C447.489 869.752 438.385 874.164 437.173 877.848C435.961 881.532 429.281 883.011 424.419 879.327C419.557 875.651 416.526 874.164 416.526 879.327C416.526 884.482 412.877 880.062 412.877 877.121C412.877 874.163 404.984 868.282 401.341 865.333C397.698 862.383 386.169 862.384 385.557 859.435C384.944 856.494 377.664 854.28 375.846 859.435C374.015 864.598 370.984 860.913 368.553 859.435C366.122 857.964 360.661 861.648 358.23 863.119C355.806 864.598 347.907 871.223 343.658 871.223C339.408 871.223 341.832 877.848 336.371 879.327C330.903 880.805 332.122 885.217 332.728 888.166C333.334 891.115 336.371 896.27 331.509 898.484C326.654 900.689 324.829 891.115 320.58 887.43C316.331 883.746 312.688 888.166 312.688 893.329C312.688 898.483 307.833 898.483 305.395 903.638C302.977 908.793 309.651 909.528 309.651 911.742C309.651 913.956 306.007 916.154 304.795 916.897C303.583 917.641 300.546 925.001 301.758 927.207C302.977 929.421 310.257 928.685 309.651 933.84C309.045 938.995 308.438 944.15 312.082 942.679C315.725 941.209 319.368 941.935 321.792 941.935C324.23 941.935 326.048 947.834 330.297 953.732C334.553 959.622 336.371 962.563 332.122 964.042C327.866 965.512 329.691 968.461 335.159 971.41C336.603 972.187 338.114 973.368 339.578 974.615C340.464 973.905 341.308 973.178 342.044 972.393C348.921 965.033 361.478 958.143 370.787 961.101C380.095 964.042 387.79 959.135 391.842 966.008C395.873 972.872 391.828 985.652 393.449 990.567C395.07 995.474 386.169 995.97 380.095 994.979C374.014 994.004 361.465 997.936 363.092 1002.35C364.713 1006.77 369.166 1017.09 361.063 1011.68C352.98 1006.28 349.732 1017.08 354.185 1017.08C358.639 1017.08 364.713 1023.47 364.713 1027.89C364.713 1032.31 365.114 1042.12 369.166 1040.64C373.211 1039.18 373.211 1048.01 378.876 1047.53C384.549 1047.05 389.806 1049.5 385.352 1055.88C380.906 1062.27 388.178 1079.94 389.806 1076.02C390.827 1073.55 389.928 1068.18 391.529 1064.77C388.362 1055.75 401.784 1055.71 405.672 1055.71C409.989 1055.71 417.562 1063.58 422.424 1071.46C427.286 1079.32 432.155 1074.08 432.155 1074.08L433.775 1000.64L468.408 989.435C468.742 988.386 469.11 987.428 469.553 986.635C474.013 978.771 480.005 985.272 482.103 987.131C483.866 988.667 482.913 978.787 487.768 979.275C492.623 979.762 487.366 989.08 491.016 989.08C493.849 989.08 500.332 1001.29 498.296 1010.88C503.689 1016.26 513.44 1028.91 514.312 1032.1C515.394 1036.04 529.45 1029.49 532.153 1030.79C534.863 1032.1 555.939 1032.1 559.732 1032.1C563.511 1032.1 566.201 1040.63 570.531 1041.94C574.862 1043.25 573.235 1051.78 573.773 1057.67C574.317 1063.58 580.814 1069.49 581.345 1074.74C581.89 1079.97 588.911 1077.36 593.241 1078.67C597.572 1079.97 604.041 1081.94 604.586 1087.19C605.124 1092.44 610.538 1088.5 611.076 1084.56C611.614 1080.64 617.027 1075.4 625.124 1071.46C628.78 1069.68 631.191 1069.69 633.023 1070.53C634.528 1065.82 636.08 1061.84 637.156 1061.28C639.982 1059.81 645.246 1054.9 645.661 1049.99C646.063 1045.08 656.993 1045.08 664.272 1049.49C671.565 1053.91 676.018 1053.93 676.427 1047.05C676.822 1040.17 687.343 1038.2 690.598 1040.17C693.825 1042.12 703.951 1049.01 708.806 1046.54C713.668 1044.09 737.958 1047.05 744.032 1049.01C750.106 1050.96 751.72 1046.06 756.984 1053.42C761.397 1059.61 763.555 1054.05 768.451 1058.82C768.431 1056.93 768.111 1054.57 768.111 1052.06C768.111 1047.28 774.185 1043.23 775.397 1039.55C776.609 1035.86 769.929 1024.81 769.929 1021.12C769.929 1017.45 769.929 1008.61 766.892 1006.77C763.855 1004.92 772.66 1000.13 774.757 1000.27C779.265 1000.53 785.686 994.838 787.647 997.201C789.608 999.588 793.531 1000.27 797.453 1000.27C801.369 1000.27 799.693 994.838 797.453 992.451C795.206 990.063 804.453 967.982 805.856 960.498C807.252 953.013 810.623 959.82 815.104 960.498C819.591 961.167 824.909 960.151 827.708 961.853C830.514 963.546 838.644 959.82 840.605 956.078C842.566 952.336 838.358 951.312 838.644 942.82C838.93 934.319 843.132 930.23 847.606 930.23C852.093 930.23 853.496 925.141 853.496 921.069C853.496 917.376 857.139 915.046 858.242 910.371C856.792 908.504 855.573 906.034 855.348 904.134V904.134Z" fill="white"/>
<path d="M1192.36 248.989C1190.74 252.929 1181.93 253.185 1184.27 256.853C1188.32 263.247 1208.55 259.802 1208.96 251.938C1209.35 244.089 1193.98 245.064 1192.36 248.989ZM1140.95 825.811C1129.42 838.335 1106.35 841.276 1106.35 851.594C1106.35 861.904 1078.42 867.059 1075.99 862.639C1073.86 858.773 1096.63 857.484 1102.1 842.746C1107.56 828.017 1128.29 820.433 1138.52 800.755C1145.81 786.768 1151.88 765.405 1156.13 766.867C1160.38 768.346 1152.49 813.279 1140.95 825.811ZM2269.59 503.64C2265.56 501.922 2252.59 491.851 2249.36 486.209C2246.13 480.558 2230.54 477.857 2230.54 480.806C2230.54 483.747 2225.48 480.071 2224.27 476.882C2223.05 473.693 2206.66 473.198 2206.46 476.626C2206.25 480.071 2210.31 480.31 2212.73 484.251C2215.16 488.175 2209.49 490.381 2210.7 494.801C2211.91 499.22 2204.63 492.587 2202 490.142C2199.38 487.696 2200.59 478.097 2201.39 473.198C2202.22 468.282 2196.74 469.257 2196.13 464.358C2195.52 459.443 2177.31 449.372 2169.63 445.44C2161.94 441.516 2152.02 438.079 2149.38 433.164C2146.76 428.257 2133 427.769 2127.74 421.127C2122.47 414.502 2099.4 402.713 2089.49 401.986C2079.58 401.243 2081.79 394.617 2076.94 395.592C2072.07 396.575 2051.23 395.352 2044.77 394.113C2038.28 392.899 2036.86 398.797 2032.21 396.575C2027.56 394.377 2003.47 383.803 2000.63 387.744C1997.81 391.668 1999.03 397.319 1996.19 398.293C1993.36 399.268 1996.19 404.192 2002.87 411.561C2009.55 418.922 2005.5 424.581 1999.42 427.769C1993.36 430.95 1983.63 424.812 1980.6 419.169C1977.57 413.527 1969.28 415.972 1967.25 408.603C1965.23 401.243 1969.68 400.012 1973.73 404.192C1977.78 408.364 1983.24 404.927 1983.85 399.533C1984.46 394.13 1972.92 390.437 1966.64 390.932C1960.37 391.42 1956.92 401.986 1950.46 406.406C1943.98 410.825 1918.89 404.687 1916.25 401.738C1913.62 398.797 1878.6 401.738 1874.97 404.687C1871.32 407.628 1873.96 419.17 1872.13 420.161C1870.32 421.127 1868.5 406.893 1868.5 404.192C1868.5 401.482 1864.25 399.533 1857.97 399.533C1851.69 399.533 1848.05 399.268 1850.68 396.088C1853.31 392.899 1848.25 389.693 1853.1 385.53C1857.97 381.349 1844.21 368.338 1830.85 361.961C1817.5 355.566 1787.14 359.251 1779.04 362.2C1770.95 365.149 1754.76 364.166 1747.07 364.406C1739.38 364.662 1745.65 360.722 1743.43 356.31C1741.2 351.89 1728.04 346.487 1726.22 350.172C1724.4 353.856 1720.96 350.172 1720.96 347.462C1720.96 344.777 1708.61 339.366 1703.76 340.589C1698.9 341.811 1696.68 335.186 1702.34 335.186C1708.02 335.186 1717.71 336.657 1713.46 328.808C1709.22 320.944 1672.79 318.49 1669.36 319.969C1665.91 321.439 1669.16 327.082 1661.26 336.177C1653.36 345.256 1645.68 339.127 1646.69 334.699C1647.7 330.279 1657.41 331.022 1657.41 326.603C1657.41 322.175 1644.05 324.628 1642.04 320.944C1640 317.267 1644.86 314.814 1649.72 316.524C1654.58 318.25 1663.08 319.234 1663.48 316.524C1663.89 313.839 1658.43 313.335 1650.33 311.608C1642.23 309.898 1622.61 304.239 1612.28 305.479C1601.96 306.701 1597.31 300.811 1591.65 300.315C1585.98 299.82 1585.98 304 1588.61 307.924C1591.23 311.864 1583.15 314.318 1576.47 313.087C1569.79 311.864 1560.07 317.507 1563.92 323.397C1567.76 329.296 1571.6 321.679 1574.85 323.653C1578.08 325.619 1566.35 329.783 1571.2 332.493C1576.06 335.194 1575.25 340.837 1575.46 343.786C1575.65 346.727 1567.36 348.206 1564.33 343.786C1561.29 339.366 1557.04 343.29 1551.37 342.803C1545.71 342.307 1541.45 345.496 1547.52 346.487C1553.6 347.462 1555.62 352.13 1547.52 353.113C1539.44 354.096 1541.45 344.025 1536.6 345.256C1531.74 346.487 1521.22 340.589 1515.55 340.837C1509.88 341.076 1507.25 346.487 1499.76 347.223C1492.27 347.958 1482.16 342.555 1479.11 337.648C1476.08 332.732 1475.08 331.262 1471.44 336.913C1467.79 342.563 1467.59 353.361 1463.94 354.096C1460.3 354.839 1458.89 364.406 1455.25 366.868C1451.59 369.321 1451.4 363.175 1446.75 363.67C1442.09 364.166 1427.12 346.487 1426.3 341.332C1425.5 336.177 1416.18 326.347 1413.77 324.389C1411.33 322.422 1416.18 321.439 1419.23 324.628C1422.26 327.817 1426.1 327.817 1429.14 325.859C1432.17 323.893 1431.77 314.814 1426.51 314.558C1421.24 314.318 1423.26 308.915 1425.9 307.924C1428.53 306.949 1419.83 297.374 1423.07 296.391C1426.3 295.416 1424.89 291.236 1420.44 290.501C1415.99 289.766 1411.33 285.346 1411.12 282.636C1410.92 279.935 1392.1 278.952 1392.91 282.884C1393.72 286.816 1386.84 285.586 1387.85 282.397C1388.87 279.208 1381.17 280.183 1372.26 277.242C1363.37 274.293 1363.16 266.676 1360.12 266.197C1357.09 265.693 1358.1 276.746 1353.66 274.293C1349.2 271.831 1344.34 276.506 1346.76 282.884C1349.19 289.27 1346.98 290.245 1346.57 295.408C1346.16 300.563 1343.74 298.358 1338.47 296.144C1333.21 293.93 1333.21 301.546 1321.88 298.11C1310.55 294.673 1305.49 298.357 1303.46 293.929C1301.44 289.51 1298 289.031 1297.59 292.707C1297.19 296.391 1279.78 294.921 1278.37 289.51C1276.96 284.107 1281.4 283.132 1284.03 281.661C1286.66 280.183 1281.2 277.977 1271.7 278.712C1262.18 279.448 1256.1 272.822 1246.4 274.036C1236.67 275.276 1215.02 277.721 1211.99 279.448C1208.96 281.166 1214.83 287.791 1210.17 288.287C1205.52 288.774 1208.75 277.482 1207.94 272.079C1207.14 266.676 1200.05 265.932 1201.06 270.121C1202.07 274.293 1189.93 275.763 1186.9 272.566C1183.86 269.377 1179 265.197 1171.11 262.752C1163.22 260.298 1153.5 270.608 1155.73 273.557C1157.97 276.506 1163.82 274.293 1164.02 276.25C1164.44 280.29 1147.23 278.712 1147.23 282.141C1147.23 285.586 1131.25 290.245 1126.38 290.988C1113.07 293.012 1110.19 292.947 1103.92 299.341C1097.65 305.718 1102.51 293.69 1107.36 287.791C1112.22 281.901 1117.27 284.355 1120.11 279.695C1122.95 275.028 1127.39 275.515 1135.09 274.036C1142.79 272.566 1142.38 267.172 1146.03 265.197C1149.66 263.247 1158.55 259.067 1160.18 254.648C1161.8 250.22 1180.02 242.859 1183.66 243.098C1187.3 243.354 1188.11 234.259 1190.12 234.259C1192.16 234.259 1202.68 228.616 1206.73 226.411C1210.77 224.205 1212.8 219.529 1213.01 216.34C1213.21 213.151 1207.54 213.639 1206.93 210.69C1206.32 207.74 1209.56 209.706 1213.81 207.74C1218.06 205.782 1213.81 198.901 1210.38 200.132C1206.93 201.363 1212.2 196.447 1209.16 192.027C1206.12 187.608 1200.05 194.729 1200.25 190.061C1200.46 185.394 1199.85 179.503 1197.42 176.554C1194.99 173.605 1190.54 181.709 1185.48 177.05C1180.42 172.391 1165.64 169.433 1165.64 171.399C1165.64 173.374 1158.55 168.45 1157.14 170.424C1155.73 172.391 1143.99 172.134 1140.34 170.904C1136.71 169.689 1131.64 172.63 1131.44 177.05C1131.25 181.478 1116.87 179.751 1114.25 179.008C1111.62 178.273 1124.17 165.749 1124.17 163.535C1124.17 161.329 1102.92 164.03 1101.7 161.585C1100.49 159.132 1090.17 158.38 1085.51 158.636C1080.84 158.875 1085.31 157.157 1089.56 156.67C1093.81 156.174 1097.65 151.746 1102.31 150.771C1106.96 149.796 1105.95 147.83 1103.92 144.385C1101.89 140.957 1097.03 142.667 1092.38 140.957C1087.73 139.238 1082.06 136.776 1078.02 136.537C1073.97 136.289 1069.51 138.991 1060.01 141.196C1050.48 143.41 1049.69 152.25 1044.83 154.951C1039.97 157.661 1031.47 168.45 1035.52 169.433C1039.57 170.425 1037.54 173.374 1038.15 176.554C1038.76 179.751 1035.11 180.487 1030.46 179.504C1025.8 178.529 1009.41 178.768 1009.61 182.948C1009.81 187.129 1019.13 189.078 1018.52 191.292C1017.91 193.498 1011.44 191.044 1008.2 188.839C1004.96 186.633 997.672 187.847 996.263 192.027C994.846 196.199 989.175 195.216 987.351 194.242C985.526 193.258 981.489 196.2 978.452 194.977C975.416 193.746 984.525 188.343 982.299 185.641C980.066 182.948 970.357 185.394 969.342 189.822C968.328 194.241 962.459 186.633 960.24 188.103C958.007 189.574 955.583 191.292 951.327 193.498C947.079 195.712 939.801 191.045 938.174 194.977C936.56 198.901 946.276 200.132 946.473 201.842C946.67 203.577 924.421 203.32 923.808 206.022C923.202 208.731 915.713 208.732 906.603 208.971C897.5 209.227 901.143 214.622 893.851 216.34C886.566 218.067 883.332 218.306 880.902 222.726C878.478 227.146 872.8 227.881 870.376 224.444C867.952 221.008 861.266 226.155 864.915 226.65C868.551 227.146 865.12 231.566 862.894 230.574C860.667 229.599 854.192 235.25 857.835 234.754C861.477 234.275 863.295 237.943 861.477 240.653C859.653 243.355 851.762 237.456 849.733 239.909C847.711 242.379 853.586 245.56 857.229 245.064C860.871 244.585 862.893 247.518 863.295 250.715C863.704 253.904 854.792 248.749 852.98 251.458C851.156 254.152 854.397 255.383 858.23 255.878C862.09 256.366 859.251 258.092 862.689 261.768C862.955 262.058 863.173 262.322 863.35 262.578C865.44 265.619 861.511 266.684 861.886 269.625C862.281 272.822 858.032 274.036 858.032 271.095C858.032 268.146 847.316 267.171 845.083 270.352C842.85 273.557 841.243 276.011 838.601 273.062C835.98 270.121 828.286 273.797 818.373 274.293C808.46 274.78 788.022 275.763 782.956 277.977C777.891 280.183 773.643 288.775 778.299 294.425C782.956 300.084 778.497 302.529 778.497 306.214C778.497 309.898 790.643 317.507 797.125 318.242C803.599 318.978 808.855 328.552 805.015 334.451C801.169 340.341 789.431 332.733 781.745 325.364C774.051 318.003 756.247 315.053 750.371 315.549C744.503 316.028 747.941 309.163 740.458 309.403C732.962 309.651 726.699 317.755 731.75 317.755C736.809 317.755 740.057 317.267 737.422 320.208C734.787 323.158 738.838 322.422 744.911 325.603C750.977 328.808 739.853 333.228 733.575 328.073C727.305 322.918 720.625 327.817 718.808 331.758C716.983 335.682 726.086 346.966 737.013 348.941C747.941 350.907 744.305 355.071 749.364 357.285C754.416 359.49 750.787 361.961 747.342 362.2C743.89 362.448 737.013 355.814 731.553 352.377C726.086 348.941 711.319 353.856 708.289 349.916C705.245 345.992 710.304 342.067 707.465 339.126C704.633 336.177 707.07 329.544 710.713 322.662C714.355 315.789 710.106 304 704.837 302.034C699.574 300.084 699.983 306.701 701.201 308.667C702.406 310.633 701.807 319.969 697.756 326.099C693.705 332.237 681.361 332.237 681.361 336.417C681.361 340.589 673.069 343.786 675.895 346.727C678.734 349.676 689.865 364.901 691.486 369.569C693.106 374.228 681.566 388.958 683.384 397.558C685.202 406.158 681.763 410.082 683.983 414.262C686.216 418.442 691.275 414.741 694.515 416.468C697.756 418.186 703.012 414.015 710.502 412.296C717.991 410.586 731.751 420.161 736.809 423.102C741.868 426.051 739.24 430.95 741.868 435.865C744.503 440.789 735.802 440.789 735.59 448.15C735.393 455.519 750.773 458.707 751.379 460.913C751.992 463.119 740.445 461.409 735.999 459.443C731.553 457.477 731.145 450.355 729.735 448.885C728.312 447.414 732.765 441.516 733.16 436.848C733.575 432.181 728.115 429.479 726.29 426.291C724.466 423.102 721.232 418.434 717.589 419.417C713.947 420.4 700.588 421.871 696.537 426.291C692.48 430.71 697.144 443.234 699.377 449.372C701.603 455.519 687.639 464.102 688.034 469.017C688.449 473.933 683.785 476.138 677.712 480.071C671.646 483.987 664.967 486.936 665.165 493.33C665.376 499.716 657.076 496.28 652.828 493.33C648.579 490.381 643.105 495.04 637.039 494.801C630.966 494.561 630.966 488.415 626.105 490.62C621.257 492.834 618.023 487.936 619.433 483.508C620.849 479.096 626.309 482.524 626.718 485.713C627.133 488.902 630.564 487.432 634.608 484.73C638.659 482.037 636.638 488.175 642.513 488.663C648.382 489.158 645.134 484.978 649.594 485.466C654.04 485.97 654.237 484.251 652.828 481.533C651.412 478.832 656.069 476.882 658.901 475.403C662.08 473.743 660.521 468.282 663.149 466.572C665.777 464.854 663.953 461.409 666.785 461.161C669.631 460.913 670.843 455.75 673.464 455.75C676.092 455.75 677.515 450.595 675.895 447.894C674.274 445.201 676.909 437.831 679.537 436.848C682.165 435.865 682.376 432.924 679.952 430.71C677.515 428.496 668.61 421.127 669.215 416.468C669.821 411.809 667.595 403.209 668.807 399.533C670.026 395.84 669.018 388.223 668.609 383.803C668.208 379.383 670.843 374.476 672.055 366.372C673.266 358.276 664.967 349.676 660.93 347.462C656.879 345.257 659.507 340.837 665.375 334.938C671.244 329.048 671.646 310.634 671.244 306.701C670.843 302.769 658.901 299.34 654.251 299.82C649.594 300.315 632.389 299.34 628.14 298.357C623.892 297.374 622.469 302.769 620.447 307.684C618.425 312.6 613.972 320.208 611.338 331.262C608.716 342.307 597.986 345.752 593.132 348.206C588.277 350.668 585.234 358.755 587.454 362.696C589.687 366.62 592.921 363.431 595.154 364.902C597.38 366.372 594.95 376.699 593.527 378.169C592.111 379.631 596.161 383.324 592.723 386.017C589.278 388.719 586.044 394.377 588.066 397.318C590.089 400.268 600.002 401.738 604.25 404.687C608.498 407.628 606.878 413.023 610.132 418.186C613.36 423.341 616.805 420.161 618.418 423.341C620.045 426.53 612.556 439.31 609.914 439.789C607.293 440.285 596.563 426.778 593.329 423.837C590.089 420.896 577.547 416.212 571.277 412.296C565 408.364 559.941 408.86 553.058 403.209C546.181 397.558 540.312 394.848 527.758 395.113C515.203 395.352 507.122 391.668 502.866 392.403C498.618 393.138 500.238 387.248 492.749 383.324C485.26 379.383 480.399 373.989 476.15 376.698C471.902 379.383 473.522 389.214 480.004 390.437C486.472 391.668 483.238 395.84 490.121 395.352C496.998 394.865 499.02 397.806 498.822 402.961C498.618 408.116 502.063 413.271 505.1 416.716C508.129 420.161 506.312 425.795 500.844 425.795C495.377 425.795 489.113 426.778 491.544 431.445C493.968 436.113 489.917 437.344 484.456 434.89C478.989 432.42 482.223 427.769 484.456 425.06C486.683 422.366 479.595 418.922 476.15 417.451C472.712 415.972 458.959 428.257 455.113 430.215C451.266 432.181 441.754 427.266 432.039 430.215C422.33 433.164 422.943 442.499 419.287 441.516C415.644 440.549 404.921 442.739 400.863 439.789C396.819 436.848 400.067 435.13 404.308 435.378C408.564 435.634 409.973 433.908 407.549 430.471C405.112 427.026 410.79 421.623 410.585 419.169C410.388 416.716 394.593 423.102 391.972 425.795C389.337 428.496 392.169 433.42 389.337 435.13C386.497 436.848 386.511 432.181 383.257 430.71C380.03 429.231 356.35 435.865 351.904 442.003C347.445 448.15 338.743 448.398 338.743 451.834C338.743 455.279 328.013 455.015 323.765 457.477C319.51 459.93 322.356 470.001 320.736 474.916C319.115 479.823 302.516 478.353 297.458 478.592C292.406 478.849 290.574 466.804 286.523 466.068C282.486 465.333 284.903 458.46 286.128 455.519C287.34 452.569 290.574 455.015 295.633 451.099C300.698 447.158 305.757 453.049 307.779 450.355C309.801 447.654 300.086 440.533 299.487 434.387C298.874 428.257 288.144 426.53 282.071 428.496C276.004 430.471 269.325 428.744 265.077 426.291C260.822 423.837 261.23 430.71 267.508 432.677C273.778 434.634 270.537 440.533 271.552 444.217C272.573 447.893 269.931 456.254 266.289 462.632C262.646 469.017 265.275 468.77 270.748 468.514C276.209 468.282 275.807 476.882 275.807 483.251C275.807 489.646 271.552 491.364 271.552 496.023C271.552 500.699 267.099 493.826 265.676 495.784C264.267 497.742 262.442 494.801 261.639 490.868C260.828 486.953 252.529 489.142 247.879 487.68C243.215 486.209 241.397 488.663 239.178 492.835C236.945 497.006 230.47 498.725 227.032 499.22C223.212 499.766 217.52 507.82 213.878 510.77C210.229 513.719 209.63 519.361 214.681 525.243C219.754 531.133 220.748 535.074 220.353 538.263C219.951 541.452 206.185 540.477 203.958 537.032C201.732 533.604 192.826 532.381 189.79 533.108C186.753 533.843 178.461 522.063 174.212 521.815C169.964 521.567 167.329 527.953 165.92 531.133C164.504 534.339 167.935 535.322 169.964 540.716C171.986 546.128 179.475 546.367 183.322 546.367C187.169 546.367 185.746 553.489 184.534 556.438C183.322 559.387 176.235 561.592 174.212 558.395C172.19 555.207 163.68 558.395 163.482 554.471C163.285 550.547 157.212 544.657 150.935 545.88C144.671 547.102 143.452 542.187 143.854 536.289C144.269 530.407 140.416 526.97 140.613 524.268C140.817 521.559 137.787 516.164 141.015 513.463C144.255 510.77 141.832 506.598 142.036 502.905C142.233 499.22 136.569 493.57 131.51 493.57C126.452 493.57 127.466 487.432 123.218 486.209C118.969 484.978 110.466 476.378 109.86 472.702C109.247 469.017 102.772 468.513 104.998 467.299C107.232 466.068 112.29 467.787 115.933 472.215C119.568 476.626 125.437 480.559 134.949 482.037C144.467 483.508 148.307 488.902 158.825 491.116C169.351 493.33 175.622 494.801 190.804 497.511C205.98 500.212 226.221 481.533 230.477 476.378C234.725 471.223 229.258 460.673 229.258 456.733C229.258 452.809 222.375 452.313 221.374 449.372C220.353 446.423 215.9 441.029 210.031 441.029C204.162 441.029 203.359 432.924 198.702 433.42C194.038 433.907 190.804 430.95 178.665 421.127C166.519 411.313 149.729 404.192 146.686 405.902C143.656 407.628 141.627 408.603 139.605 404.927C137.583 401.242 132.933 401.738 129.692 404.687C126.452 407.628 123.217 401.986 117.144 403.696C111.071 405.423 107.837 400.507 109.451 398.293C111.071 396.088 119.984 398.054 119.568 394.377C119.167 390.685 115.932 394.377 110.465 389.949C104.998 385.53 101.969 388.479 100.75 392.164C99.545 395.84 95.2963 394.848 92.4504 391.668C92.1917 391.362 91.8582 391.123 91.5246 390.875C90.5918 397.021 87.5961 397.641 84.5596 396.831C80.9103 395.84 77.2745 403.209 73.2304 403.209C69.1862 403.209 64.7335 408.603 63.9097 413.023C63.1132 417.451 58.6675 414.997 58.6675 417.938C58.6675 420.896 58.6673 423.837 56.6316 426.778C54.6163 429.735 56.6318 431.206 58.6675 436.105C60.6896 441.029 65.1354 440.533 67.1643 442.003C69.1864 443.474 76.8729 451.338 76.8729 454.288C76.8729 457.237 70.8067 464.606 68.3761 466.572C65.9455 468.514 62.6981 473.437 64.3253 476.378C65.9457 479.336 72.8286 491.612 77.2745 501.435C81.734 511.257 75.6679 506.837 72.8288 511.249C69.9965 515.669 74.0338 521.088 74.844 524.029C75.6678 526.97 71.2015 526.482 71.61 528.928C72.0185 531.398 78.0847 532.381 78.4932 534.339C78.8949 536.289 74.4422 538.759 76.4643 542.691C78.5 546.623 83.3477 546.607 83.7494 551.522C84.1648 556.438 74.8441 556.917 75.2526 560.866C75.6679 564.79 87.3918 569.697 92.6615 577.066C97.9176 584.427 97.5159 586.393 96.304 590.325C93.8598 598.231 79.3037 605.071 76.0561 613.902C72.8289 622.742 60.6893 627.641 55.018 634.531C52.7031 637.34 50.4088 641.115 48.4888 644.618C50.8922 643.874 52.8054 642.982 54.2011 642.139C57.4419 640.165 59.6615 649.748 62.9091 652.937C66.1431 656.134 72.6245 653.185 74.844 656.134C77.0772 659.083 73.0194 659.323 68.3761 658.339C63.7191 657.365 62.5004 660.793 55.2154 663.734C49.7823 665.94 50.3136 668.286 48.4958 670.137C51.7706 675.92 47.3792 676.663 45.7043 681.05C43.8865 685.833 41.4491 686.576 41.1495 689.517C40.8432 692.475 41.7554 694.681 42.0617 699.092C42.3613 703.528 42.9741 704.247 45.0983 707.94C47.2225 711.624 43.2737 711.624 41.4491 713.466C39.638 715.3 40.8429 719.357 43.2735 722.306C45.7041 725.247 45.7042 728.932 44.7987 731.509C43.8864 734.087 46.916 738.515 49.047 741.084C51.1644 743.67 50.8651 750.675 52.6829 752.501C54.5007 754.351 56.6317 756.194 59.9746 755.087C63.3107 753.98 65.4348 755.83 66.9462 759.143C68.4713 762.447 70.9021 760.985 74.245 759.143C77.5743 757.292 85.1586 762.447 86.9901 763.554C88.8079 764.661 87.9026 770.923 88.2021 774.971C88.5017 779.028 86.3843 784.182 89.7204 786.768C93.0565 789.337 92.1509 795.236 96.0929 797.079C100.042 798.921 101.553 805.546 103.991 806.29C106.415 807.017 110.969 811.445 111.575 814.757C112.181 818.07 107.327 821.019 104.59 822.49C101.86 823.969 96.7058 818.07 94.8812 820.648C93.0566 823.233 95.494 828.017 97.0055 836.121C98.5238 844.225 99.7423 844.96 102.772 844.96C105.809 844.96 107.021 842.383 109.152 840.904C111.269 839.442 116.13 841.639 118.261 840.541C120.378 839.442 127.963 839.07 129.488 842.011C131.007 844.96 132.518 851.957 131.313 854.543C130.094 857.112 132.824 860.062 134.349 863.746C135.861 867.422 142.233 865.588 144.364 866.695C146.489 867.802 151.343 875.898 150.431 879.583C149.518 883.267 153.467 884.003 155.598 882.896C157.722 881.797 159.847 884.738 162.271 886.588C164.694 888.422 166.818 887.687 169.256 885.845C171.68 884.003 175.622 882.532 176.84 885.11C178.059 887.687 182.913 892.487 182.913 893.949C182.913 895.42 190.505 893.949 194.141 896.163C197.783 898.361 201.732 897.262 205.681 899.848C209.629 902.425 213.272 902.797 213.572 905.738C213.878 908.679 209.63 911.265 209.63 912.735C209.63 914.206 212.966 915.313 212.966 917.527C212.966 919.733 208.717 919.732 208.111 921.575C207.499 923.425 210.535 925.994 211.141 927.837C211.754 929.679 208.717 935.941 208.717 937.783C208.717 939.626 199.614 937.411 197.483 937.411C195.359 937.411 188.98 945.888 186.862 946.251C185.045 946.573 185.896 950.654 186.556 954.124C193.099 952.612 199.798 951.993 200.527 953.752C201.732 956.693 186.358 964.558 183.526 965.781C180.687 967.003 188.98 972.158 188.782 975.116C188.592 978.057 179.87 978.8 180.687 984.682C181.497 990.581 177.862 991.82 173.198 991.82C168.541 991.82 167.329 995.248 169.555 995.736C171.788 996.231 171.578 1003.6 180.285 1006.29C188.98 1009 198.293 1018.83 205.783 1028.64C206.831 1030.02 208.05 1031.11 209.35 1032.04C211.515 1030.47 213.388 1029.33 214.477 1029.14C218.732 1028.4 226.63 1031.34 230.879 1035.02C235.134 1038.71 250.303 1034.29 252.127 1037.23C253.945 1040.17 257.588 1043.87 260.631 1043.87C263.661 1043.87 266.697 1051.23 269.128 1049.02C271.552 1046.81 280.655 1046.81 283.092 1046.81C285.516 1046.81 285.516 1049.02 287.94 1049.02C290.377 1049.02 290.377 1060.07 292.195 1059.34C294.013 1058.6 300.699 1065.96 304.947 1066.7C309.195 1067.43 313.444 1076.27 315.262 1075.55C317.086 1074.8 320.123 1079.22 321.335 1075.55C322.499 1072.05 328.49 1073.75 330.165 1067.69C322.479 1056.27 314.22 1043.61 314.458 1038.71C314.867 1030.36 317.699 1024.96 309.195 1016.12C300.698 1007.28 310.012 1001.39 316.085 992.051C321.505 983.716 333.045 980.064 340.364 974.116C338.887 972.869 337.355 971.712 335.911 970.935C330.444 967.986 328.62 965.037 332.875 963.566C337.123 962.088 335.305 959.147 331.05 953.256C326.802 947.358 324.984 941.459 322.546 941.459C320.123 941.459 316.48 940.733 312.838 942.203C309.195 943.674 309.801 938.518 310.407 933.363C311.013 928.208 303.735 928.944 302.516 926.73C301.304 924.524 304.341 917.163 305.553 916.42C306.765 915.676 310.407 913.479 310.407 911.265C310.407 909.051 303.735 908.315 306.152 903.16C308.589 898.005 313.444 898.005 313.444 892.85C313.444 887.687 317.086 883.267 321.335 886.952C325.583 890.636 327.408 900.211 332.262 898.006C337.123 895.792 334.087 890.636 333.481 887.687C332.875 884.738 331.656 880.327 337.123 878.848C342.583 877.369 340.16 870.744 344.408 870.744C348.657 870.744 356.554 864.118 358.978 862.639C361.409 861.169 366.869 857.484 369.3 858.955C371.73 860.434 374.76 864.118 376.591 858.955C378.409 853.8 385.687 856.014 386.3 858.955C386.913 861.904 398.44 861.904 402.082 864.853C405.724 867.802 413.615 873.684 413.615 876.642C413.615 879.583 417.265 884.003 417.265 878.848C417.265 873.685 420.295 875.172 425.156 878.848C430.017 882.532 436.696 881.054 437.908 877.369C439.12 873.685 448.222 869.273 451.266 872.214C454.295 875.171 455.514 877.369 459.157 872.957C462.792 868.529 471.296 869.273 472.515 873.685C473.726 878.113 477.975 878.848 481.624 878.848C485.26 878.848 485.873 885.481 488.29 884.003C490.727 882.532 490.121 875.171 493.151 875.898C496.187 876.642 498.618 881.054 503.472 881.054C508.334 881.054 511.969 879.583 511.969 875.172C511.969 870.744 511.37 863.375 508.334 863.375C505.297 863.375 502.261 859.698 498.618 859.698C494.976 859.698 491.333 852.321 494.976 850.851C498.618 849.388 504.684 845.695 503.472 842.011C502.26 838.335 501.049 830.966 505.896 830.222C510.757 829.495 521.079 829.495 520.473 827.281C519.867 825.067 510.151 823.605 508.334 819.912C506.509 816.228 505.896 807.397 507.721 805.918C509.546 804.439 515.618 806.653 519.261 805.182C522.897 803.704 530.794 807.397 535.649 802.969C540.503 798.549 550.831 797.813 556.292 797.813C561.752 797.813 566 793.386 570.256 792.659C574.504 791.923 586.65 789.709 589.687 788.23C592.723 786.768 609.111 783.819 609.717 780.135C610.33 776.458 623.382 773.501 626.718 775.351C630.054 777.185 634.309 778.664 637.345 777.185C640.375 775.715 646.762 779.763 646.149 783.819C645.543 787.867 648.879 792.287 648.579 795.6C648.266 798.921 645.236 800.028 647.061 802.605C648.879 805.183 657.076 803.34 659.507 800.028C661.937 796.707 664.661 801.498 664.661 804.076C664.661 806.653 668.609 808.503 668.609 805.182C668.609 801.861 673.464 804.076 674.989 806.29C676.507 808.504 682.274 803.704 682.274 807.397C682.274 811.073 673.771 814.022 677.42 818.07C681.055 822.126 683.18 813.279 687.734 815.121C692.289 816.971 698.362 808.859 702.617 807.76C706.866 806.653 711.414 801.862 715.056 799.284C718.699 796.707 726.59 797.45 724.166 800.391C721.728 803.34 719.005 808.859 728.115 812.915C737.218 816.971 747.539 838.335 753.299 849.008C759.072 859.698 764.533 878.848 767.569 878.848C770.606 878.848 771.518 869.273 775.467 868.166C779.409 867.059 781.833 876.27 786.088 877.369C790.337 878.476 796.103 881.433 799.446 879.946C802.789 878.476 810.373 873.321 813.104 875.172C815.841 877.014 819.483 877.014 821.914 884.003C824.338 891 827.987 892.487 830.411 892.487C832.835 892.487 833.352 895.791 833.352 898.741C833.352 901.69 837.798 905.622 840.228 905.622C842.652 905.622 849.134 904.623 851.156 903.16C853.171 901.69 855.615 900.228 856.01 903.656C856.425 907.093 860.068 912.487 862.492 912.487C864.929 912.487 869.77 914.957 870.178 912.487C870.587 910.042 877.062 908.571 879.492 908.068C881.923 907.58 890.427 905.622 892.033 901.194C893.654 896.783 900.53 896.783 902.566 893.833C904.581 890.884 910.246 889.414 911.464 886.465C912.676 883.524 919.961 884.019 920.778 881.549C921.582 879.096 927.648 878.608 930.487 879.583C933.312 880.574 947.494 884.003 949.503 883.524C951.532 883.028 951.94 892.363 953.956 892.85C955.991 893.346 963.276 900.211 965.298 898.262C967.313 896.287 972.175 894.313 976.226 897.262C980.277 900.211 984.328 904.152 985.934 900.715C987.555 897.262 996.052 895.791 997.277 893.833C998.489 891.859 999.701 885.969 997.672 884.003C995.657 882.053 993.635 874.188 992.818 870.256C992.008 866.324 997.672 865.341 998.489 861.904C999.292 858.476 1004.15 857.98 1005.77 856.014C1007.39 854.048 1007.8 849.636 1010.64 850.611C1013.46 851.594 1019.53 854.048 1020.74 855.527C1021.96 857.005 1026.41 857.98 1029.24 857.98C1032.07 857.98 1036.53 860.921 1039.37 862.896C1042.21 864.853 1051.11 864.853 1052.72 867.803C1054.35 870.744 1052.31 879.096 1054.34 882.053C1056.36 884.994 1061.22 891.372 1062.84 889.901C1064.46 888.423 1072.15 894.817 1074.99 894.313C1077.81 893.834 1082.27 888.423 1084.7 888.423C1087.13 888.423 1094.81 885.969 1097.24 886.465C1099.66 886.952 1108.57 890.884 1109.79 889.901C1111 888.918 1119.09 890.397 1120.31 893.346C1121.52 896.287 1131.64 896.287 1131.64 899.732C1131.64 903.161 1137.31 905.126 1138.93 909.051C1140.55 912.991 1153.91 910.538 1156.34 912.991C1158.77 915.445 1174.15 914.957 1174.55 912.991C1174.95 911.025 1189.53 910.042 1192.36 907.58C1195.2 905.127 1202.88 906.118 1203.29 902.673C1203.69 899.228 1210.98 896.783 1214.21 893.833C1217.45 890.884 1230.4 891.372 1231.21 894.817C1232.02 898.261 1239.71 899.228 1242.95 897.758C1246.2 896.287 1254.7 898.262 1255.91 901.69C1257.13 905.127 1266.83 907.093 1269.27 906.11C1271.7 905.127 1279.38 898.261 1282.21 897.758C1285.05 897.262 1289.08 893.834 1288.28 890.397C1287.48 886.952 1293.95 877.138 1294.76 873.214C1295.57 869.273 1301.24 858.476 1303.26 857.484C1305.28 856.509 1309.75 852.081 1309.33 849.14C1308.92 846.191 1307.71 837.352 1305.28 837.352C1302.86 837.352 1298.41 837.847 1304.08 828.504C1309.73 819.177 1319.86 821.639 1321.48 821.639C1323.09 821.639 1336.05 817.706 1341.71 819.673C1347.38 821.639 1351.01 818.698 1357.09 822.622C1363.16 826.538 1371.66 825.067 1373.69 828.504C1375.71 831.949 1383.8 834.907 1382.59 840.797C1381.37 846.687 1387.04 843.25 1389.07 856.014C1391.09 868.786 1395.94 869.769 1397.15 875.651C1398.37 881.549 1404.85 892.363 1404.04 895.791C1403.23 899.228 1402.42 904.623 1409.3 905.126C1416.18 905.622 1421.04 912 1422.66 911.025C1424.29 910.042 1432.37 913.479 1436.42 918.386C1440.48 923.301 1446.54 920.848 1446.14 926.251C1445.72 931.653 1449.38 936.065 1448.97 940.485C1448.56 944.904 1456.67 947.862 1462.33 946.879C1467.99 945.887 1472.04 949.324 1474.47 943.434C1476.9 937.544 1485 939.997 1487.83 937.544C1490.65 935.09 1499.17 932.133 1498.76 940.98C1498.35 949.828 1503.21 951.778 1499.16 954.727C1495.11 957.668 1493.08 970.448 1491.88 975.843C1490.65 981.245 1484.58 982.716 1483.78 988.606C1482.97 994.505 1477.3 995 1477.3 999.42C1477.3 1003.84 1469.21 1002.86 1465.16 999.42C1461.12 995.975 1457.07 1005.81 1453.83 1005.81C1450.59 1005.81 1450.99 1014.15 1451.8 1017.59C1452.62 1021.03 1450.59 1025.44 1452.62 1031.34C1453.7 1034.51 1453.04 1040.52 1453.58 1047.23C1458.51 1042.89 1462.98 1039.69 1464.96 1039.69C1470.02 1039.69 1475.08 1050.25 1480.75 1050.49C1486.42 1050.75 1512.11 1029.86 1512.31 1026.43C1512.53 1023 1527.49 1005.56 1534.57 996.471C1541.65 987.392 1550.97 974.124 1554.61 963.814C1556.84 957.461 1566.76 945.152 1569.18 940.245C1571.6 935.33 1573.23 934.842 1577.68 923.301C1582.12 911.769 1582.12 881.549 1583.55 879.583C1584.97 877.625 1584.15 872.47 1586.18 869.273C1588.2 866.084 1587.19 861.664 1591.23 857.484C1595.29 853.321 1594.47 849.636 1593.47 846.431C1592.46 843.25 1593.67 836.121 1592.66 833.915C1591.65 831.693 1591.85 830.726 1594.28 829.008C1596.71 827.298 1592.66 822.862 1589.22 820.904C1585.78 818.929 1581.33 817.219 1580.92 812.552C1580.51 807.876 1574.65 802.241 1570.18 802.721C1565.74 803.225 1557.44 799.788 1558.45 803.225C1559.47 806.67 1558.04 809.594 1555.83 808.859C1553.6 808.132 1552.58 810.338 1549.95 815.253C1547.33 820.177 1538.01 820.647 1542.26 815.988C1546.51 811.329 1540.85 811.073 1541.65 806.166C1542.47 801.259 1545.9 796.343 1541.25 799.54C1536.6 802.721 1536.6 810.338 1532.75 811.329C1528.92 812.304 1530.12 798.07 1531.13 794.385C1532.16 790.701 1524.05 794.633 1515.55 793.889C1507.05 793.154 1509.27 786.025 1516.15 781.613C1523.05 777.185 1521.83 773.022 1525.26 771.295C1528.71 769.577 1537.61 762.447 1542.87 758.763C1548.13 755.086 1549.15 750.923 1550.36 746.743C1551.57 742.563 1561.29 737.408 1569.99 728.824C1578.69 720.224 1582.94 715.3 1584.97 710.145C1586.98 704.99 1599.94 698.613 1600.15 694.681C1600.34 690.757 1615.53 680.934 1625.84 678.464C1636.17 676.019 1652.56 679.207 1655.59 682.892C1658.64 686.576 1660.86 685.106 1662.68 682.652C1664.51 680.19 1668.54 681.422 1675.43 682.405C1682.31 683.388 1683.93 678.464 1688.58 680.19C1693.24 681.917 1697.08 682.892 1699.91 676.266C1702.75 669.633 1716.11 670.864 1719.14 673.573C1722.18 676.283 1724.61 679.951 1729.46 676.019C1734.32 672.095 1734.32 681.173 1738.97 681.917C1743.63 682.652 1740.59 687.56 1736.54 687.072C1732.49 686.576 1727.43 689.518 1732.09 692.731C1736.75 695.912 1742.22 689.773 1745.86 690.261C1749.49 690.757 1755.16 691.244 1760.22 687.32C1765.29 683.387 1766.7 690.509 1769.93 687.072C1773.17 683.627 1780.46 682.652 1784.1 682.892C1787.75 683.148 1784.71 677.737 1778.65 677.737C1772.57 677.737 1772.77 673.813 1777.63 663.734C1782.48 653.68 1791.79 648.269 1797.66 642.139C1803.53 636.01 1807.78 638.951 1807.78 635.01C1807.78 631.086 1810.61 620.032 1815.07 619.801C1819.52 619.537 1830.64 621.999 1837.53 617.331C1844.41 612.664 1843.8 620.776 1846.64 621.999C1849.47 623.23 1853.32 614.878 1856.55 617.331C1859.8 619.801 1851.69 625.691 1849.88 632.796C1848.05 639.917 1854.13 637.224 1857.56 639.19C1861 641.165 1853.1 644.106 1853.93 646.055C1854.72 648.03 1861.61 648.03 1870.52 637.224C1879.43 626.427 1887.51 623.478 1893.19 624.213C1898.85 624.956 1895.6 618.075 1896.02 608.004C1896.42 597.934 1913.82 594.993 1919.49 597.934C1925.15 600.883 1924.76 603.584 1919.28 601.858C1913.82 600.148 1908.76 606.038 1908.96 614.382C1909.18 622.742 1904.1 625.427 1906.75 628.641C1909.38 631.821 1902.89 632.565 1902.69 636.01C1902.49 639.446 1902.69 642.139 1898.65 643.618C1894.61 645.08 1881.04 646.799 1880.64 653.185C1880.23 659.579 1872.94 660.306 1869.5 668.154C1866.07 676.019 1852.91 680.686 1844.21 696.407C1835.51 712.12 1821.75 712.12 1821.75 715.061C1821.75 718.01 1812.23 717.771 1809 718.258C1805.77 718.746 1812.03 728.32 1804.34 738.391C1796.65 748.453 1791.59 762.447 1791.79 776.458C1792 790.444 1795.84 830.726 1799.28 837.847C1802.73 844.977 1800.7 862.408 1803.53 866.084C1806.36 869.769 1805.35 875.899 1807.17 878.113C1809 880.327 1816.48 868.29 1821.53 863.135C1826.61 857.98 1824.98 856.27 1828.42 853.56C1831.87 850.85 1830.45 839.558 1831.46 836.617C1832.47 833.667 1838.75 832.197 1840.77 829.008C1842.79 825.819 1848.05 827.785 1850.89 826.538C1853.72 825.332 1850.68 817.219 1849.67 812.552C1848.66 807.876 1857.97 801.498 1862.83 797.326C1867.68 793.154 1873.75 800.027 1879.21 793.889C1884.68 787.751 1878.82 780.63 1876.79 777.442C1874.77 774.253 1882.25 758.763 1886.5 757.292C1890.75 755.83 1892.98 760.985 1897.02 756.557C1901.07 752.137 1893.38 745.025 1890.55 745.52C1887.72 745.999 1886.71 732.988 1893.38 726.858C1900.07 720.72 1897.43 719.481 1892.98 718.01C1888.53 716.548 1887.71 718.506 1884.27 718.745C1880.83 718.993 1877.4 710.146 1882.66 701.562C1887.92 692.962 1892.98 693.937 1894.19 686.833C1895.4 679.711 1902.69 669.633 1904.51 665.956C1906.34 662.264 1913.62 665.956 1916.46 665.221C1919.28 664.478 1918.28 671.847 1921.71 668.154C1925.15 664.478 1930.81 652.21 1935.48 652.21C1940.13 652.21 1937.1 661.289 1938.32 666.692C1939.53 672.095 1942.15 665.221 1951.06 657.852C1959.95 650.483 1979.39 651.21 1985.25 654.655C1991.14 658.1 1992.14 666.204 1995.39 665.221C2000.31 663.734 1996.19 657.109 2001.05 655.39C2005.91 653.68 2014.41 647.534 2020.89 641.892C2027.36 636.241 2025.53 640.421 2028.97 635.266C2032.42 630.111 2035.85 632.317 2036.86 628.88C2037.88 625.427 2047.18 619.801 2059.94 616.348C2072.69 612.911 2089.28 602.601 2088.47 599.413C2087.67 596.215 2093.32 594.745 2093.94 597.934C2094.54 601.123 2099.4 599.908 2106.08 601.618C2112.76 603.345 2115.8 606.533 2121.06 600.148C2126.32 593.753 2120.45 591.548 2120.65 586.649C2120.84 581.725 2111.54 576.57 2112.76 571.415C2113.97 566.26 2105.88 552.497 2103.45 555.207C2101.02 557.916 2095.35 553.001 2095.35 549.068C2095.35 545.144 2094.95 540.477 2091.1 543.418C2087.26 546.367 2080.78 544.897 2079.57 540.477C2078.35 536.057 2087.06 532.86 2093.13 535.818C2099.21 538.759 2097.38 541.708 2100.41 543.914C2103.45 546.128 2111.74 545.145 2115.99 542.691C2120.24 540.229 2132.19 535.562 2134.2 531.398C2136.24 527.218 2134 525.243 2138.06 522.798C2142.11 520.344 2139.06 515.189 2135.62 512.975C2132.19 510.77 2133 504.879 2136.64 504.879C2140.27 504.879 2139.27 499.716 2141.7 499.46C2144.13 499.22 2144.52 501.674 2148.98 498.981C2153.43 496.279 2149.18 503.145 2147.17 507.82C2145.14 512.48 2151.42 516.404 2152.02 519.114C2152.63 521.815 2161.33 522.798 2166.19 519.601C2171.04 516.412 2186.62 523.525 2187.63 528.192C2188.65 532.86 2190.87 538.511 2197.35 542.443C2203.83 546.367 2209.7 544.657 2210.91 548.333C2212.12 552.026 2214.55 553.976 2218.2 553.001C2221.84 552.026 2223.86 556.917 2226.49 553.976C2229.12 551.035 2230.54 555.702 2233.99 552.026C2237.42 548.333 2226.49 545.88 2227.91 542.931C2229.33 539.981 2231.55 545.145 2234.58 544.897C2237.63 544.657 2233.77 537.536 2236.01 536.792C2238.23 536.057 2236.41 521.327 2233.99 520.344C2231.55 519.369 2233.58 514.198 2238.23 518.37C2242.88 522.55 2250.16 522.302 2253.61 522.302C2257.06 522.302 2253.81 518.37 2250.38 517.643C2246.93 516.908 2250.99 513.463 2253.41 516.164C2255.83 518.874 2260.48 520.088 2260.9 517.147C2261.3 514.198 2263.73 507.821 2267.98 508.06C2272.23 508.308 2273.64 505.35 2269.59 503.64ZM330.642 419.896C341.569 432.181 350.89 414.502 356.139 413.527C361.409 412.552 352.905 405.662 344 402.713C335.101 399.772 322.39 410.635 330.642 419.896ZM1620.99 857.484C1616.54 843.25 1627.47 829.495 1619.37 822.126C1611.28 814.757 1614.5 799.54 1610.47 802.481C1606.42 805.43 1610.47 818.698 1603.99 819.673C1597.5 820.647 1603.58 828.016 1601.15 837.847C1598.72 847.67 1602.36 861.904 1605.61 870.744C1608.85 879.583 1601.15 926.73 1604.4 934.595C1607.63 942.459 1599.12 977.214 1601.96 981.245C1606.82 988.135 1603.58 971.919 1610.86 970.448C1618.15 968.969 1618.15 980.271 1622.61 982.716C1627.06 985.178 1624.23 967.003 1620.18 967.986C1616.13 968.969 1612.9 956.197 1610.86 948.341C1608.85 940.485 1614.92 931.149 1614.92 921.335C1614.92 911.513 1625.04 912 1631.11 919.361C1637.18 926.73 1637.98 921.823 1635.56 916.42C1633.14 911.025 1625.44 871.735 1620.99 857.484ZM1662.27 226.89C1671.99 227.881 1676.84 239.183 1695.46 240.653C1714.09 242.115 1727.84 237.704 1728.25 232.788C1728.66 227.881 1711.25 220.52 1705.99 224.444C1700.72 228.36 1696.68 218.05 1690.2 220.52C1683.72 222.966 1674.83 222.478 1671.58 215.605C1668.34 208.732 1657.41 226.411 1662.27 226.89ZM1591.85 257.836C1591.85 250.467 1569.79 260.538 1578.9 264.222C1583.75 266.197 1591.85 265.197 1591.85 257.836ZM1624.23 290.245C1631.5 288.287 1618.97 272.079 1606.42 269.625C1593.87 267.171 1582.21 279.695 1583.75 282.397C1587.4 288.783 1616.94 292.211 1624.23 290.245ZM1539.63 227.386C1545.3 230.83 1547.33 234.259 1550.56 238.191C1553.79 242.115 1565.93 236.233 1570.79 234.259C1575.65 232.301 1576.06 243.098 1583.75 237.208C1591.45 231.309 1599.12 234.259 1608.04 234.259C1616.95 234.259 1606.42 220.999 1606.82 215.109C1607.23 209.211 1617.34 213.151 1614.11 218.05C1610.88 222.966 1618.97 234.259 1631.91 233.284C1644.86 232.301 1635.15 222.478 1641.64 219.042C1648.11 215.605 1647.29 211.673 1637.98 204.791C1628.68 197.918 1616.54 202.346 1608.44 197.918C1599.8 193.201 1589.42 193.002 1589.01 203.816C1588.61 214.622 1571.6 192.027 1562.7 188.583C1553.79 185.154 1526.24 219.257 1539.63 227.386ZM1017.51 126.219C1023.18 130.143 1041.39 121.303 1053.53 121.799C1065.67 122.295 1099.66 110.498 1100.89 102.649C1102.1 94.7847 1088.34 95.2804 1083.08 88.3988C1077.82 81.5255 1066.08 87.4158 1063.24 93.3143C1060.4 99.2046 1057.17 93.8099 1064.86 84.4747C1072.56 75.1396 1057.17 67.7707 1056.77 73.661C1056.36 79.5595 1042.21 74.6521 1042.21 80.0549C1042.21 85.4495 1036.94 87.9115 1037.34 93.3143C1037.74 98.7172 1027.63 90.3649 1027.22 102.649C1026.83 114.926 1011.54 122.088 1017.51 126.219ZM2113.97 364.406C2122.06 369.321 2126.92 358.516 2133.4 363.919C2139.88 369.321 2155.67 361.465 2162.14 359.994C2168.61 358.516 2165.37 348.693 2147.17 345.752C2128.95 342.803 2105.27 359.127 2113.97 364.406ZM922.8 8.35583C924.421 0.98683 897.548 4.184 904.581 11.2969C907.012 13.7505 921.173 15.7248 922.8 8.35583ZM752.393 301.546C758.868 305.479 763.729 304 762.912 296.144C762.109 288.287 747.246 298.432 752.393 301.546ZM954.779 56.9731C954.779 62.3677 941.741 67.7625 945.459 71.7114C948.7 75.148 951.532 74.1566 955.583 75.1397C959.634 76.1311 961.656 88.3987 968.934 86.4408C976.226 84.4746 996.052 96.2554 1007.8 96.2554C1019.54 96.2554 1020.74 84.4747 1017.1 83.979C1013.46 83.4916 1016.71 76.6101 1023.17 65.317C1029.65 54.0239 1002.94 45.6718 1002.94 54.5113C1002.94 63.3508 995.242 52.5535 992.818 47.1424C990.38 41.7478 954.779 51.562 954.779 56.9731ZM933.312 43.2183C941.006 47.1424 938.174 49.6042 930.078 49.6042C921.99 49.6042 915.032 52.917 920.37 55.5028C924.421 57.469 924.006 62.8717 932.509 65.317C941.006 67.7706 949.503 59.4268 948.699 53.5283C947.882 47.638 978.241 42.2435 986.35 39.7734C994.431 37.3281 981.08 27.0099 989.986 26.0351C998.891 25.052 995.241 20.1449 984.314 18.1705C973.387 16.2043 977.846 4.911 974.204 0.986928C970.554 -2.93715 968.532 5.88585 954.364 9.33078C940.196 12.7757 933.312 17.1954 938.984 20.6238C944.655 24.0605 938.984 32.4125 932.917 31.9334C926.844 31.4295 925.633 39.2942 933.312 43.2183ZM634.207 294.186C639.47 295.16 653.631 291.724 655.258 288.287C656.879 284.85 649.594 280.926 640.273 280.926C630.966 280.926 629.652 293.335 634.207 294.186ZM-29.5762 777.557C-31.4008 778.664 -36.262 776.458 -37.7735 773.873C-38.9922 771.799 -42.764 772.584 -46.0865 772.964C-45.3375 773.509 -44.5339 774.228 -43.9552 775.467C-42.1306 779.408 -51.2403 779.895 -48.4013 784.554C-45.569 789.23 -54.8759 789.47 -54.8759 784.554C-54.8759 779.647 -64.5982 782.101 -64.1829 785.29C-64.0331 786.446 -64.3328 787.859 -65 789.222C-62.3583 790.362 -59.2877 791.7 -58.0826 792.287C-56.2443 793.171 -31.9792 796.236 -22.4952 794.104C-22.999 791.956 -21.9915 785.529 -21.9915 783.076C-21.9915 780.135 -27.7651 776.458 -29.5762 777.557Z" fill="white"/>
<path d="M300.144 1112.87C300.144 1108.9 291.519 1105.42 291.519 1100.46C291.519 1095.49 285.761 1091.02 286.584 1087.05C287.15 1084.31 284.254 1080.43 282.768 1077.29C278.974 1076.22 274.15 1075.24 270.445 1075.76C265.296 1076.5 261.439 1078.27 256.373 1079.21C259.09 1084.19 257.168 1085.57 259.47 1092.51C261.93 1099.96 268.095 1095.99 270.148 1097.97C270.943 1098.74 271.855 1101.31 272.691 1104.15C273.078 1104.11 273.452 1104.05 273.991 1104.17C276.265 1104.66 277.136 1106.1 277.654 1107.88C280.536 1108.69 283.107 1111.02 284.441 1111.74C286.224 1112.69 287.406 1109.82 290.965 1114.61C294.069 1118.78 294.304 1119.85 293.924 1123.56C297.11 1123.59 300.102 1122.71 302.888 1121.27C301.492 1118.24 300.144 1114.8 300.144 1112.87V1112.87Z" fill="white"/>
<path d="M284.261 1111.59C282.935 1110.89 280.379 1108.62 277.514 1107.84C278.394 1110.7 278.311 1114.46 282.055 1116.48C288.046 1119.69 279.328 1120.98 291.337 1122.92C292.127 1123.05 292.91 1123.06 293.686 1123.07C294.064 1119.47 293.83 1118.43 290.746 1114.38C287.208 1109.73 286.033 1112.51 284.261 1111.59V1111.59ZM342.339 1087.61C340.655 1084.01 335.469 1076.7 330.007 1068.79C328.317 1074.75 322.272 1073.08 321.097 1076.51C319.874 1080.12 316.81 1075.78 314.969 1076.51C313.135 1077.22 308.848 1068.54 304.561 1067.82C303.263 1067.61 301.731 1066.77 300.192 1065.75C298.419 1067.98 296.805 1070.48 297.416 1071.68C298.639 1074.09 303.95 1076.51 301.909 1078.92C299.869 1081.33 293.329 1080.36 291.295 1077.95C289.241 1075.54 283.113 1071.68 281.897 1074.58C280.668 1077.47 287.208 1083.74 286.39 1087.61C285.573 1091.47 291.295 1095.81 291.295 1100.63C291.295 1105.45 299.869 1108.83 299.869 1112.69C299.869 1114.56 301.208 1117.9 302.596 1120.85C309.301 1117.49 314.811 1111.3 319.139 1108.74C325.679 1104.87 322.952 1120.99 321.866 1123.56C321.111 1125.34 326.304 1129.56 331.759 1132.02C331.567 1128.52 332.281 1125.11 334.177 1122.35C341.116 1112.21 346.419 1096.3 342.339 1087.61V1087.61Z" fill="white"/>
</svg>
