<svg width="27" height="27" viewBox="0 0 27 27" fill="none" xmlns="http://www.w3.org/2000/svg">
<path fill-rule="evenodd" clip-rule="evenodd" d="M3.44968 5.91663C3.44968 5.91663 3.40113 4.64351 4.20916 2.99613C4.77916 1.83106 6.9981 1.18747 6.9981 1.18747C6.9981 1.18747 7.94707 0.946308 9.85439 2.78786C10.6125 3.48963 11.0947 4.43943 11.2136 5.46563C11.2825 6.40207 9.28595 8.39865 9.28595 8.39865C9.44048 9.54501 9.91912 10.6234 10.6656 11.5071C11.4501 12.42 12.8015 13.8435 13.5109 14.509C14.1185 15.079 14.7965 15.8228 15.6985 16.421C17.4727 17.5971 17.8987 17.4906 17.8987 17.4906C17.8987 17.4906 20.4261 15.3734 21.1825 15.447C21.7572 15.5049 22.5715 15.8839 23.6128 16.7718C24.3864 17.4295 24.8813 17.9275 25.2696 18.5914C25.4078 18.8207 25.5167 19.0664 25.5937 19.3227C25.5937 19.3227 25.6955 20.3735 24.0638 22.0459C22.4399 23.7074 20.2006 23.2721 20.2006 23.2721C20.2006 23.2721 18.9134 23.081 16.8072 22.0898C14.4752 20.9526 12.3505 19.4324 10.5215 17.5924C8.81459 15.8291 6.57686 13.1309 5.48853 11.2534C4.11832 8.89349 3.44968 5.91663 3.44968 5.91663Z" fill="#44403F"/>
</svg>
