<svg width="14" height="14" viewBox="0 0 14 14" fill="none" xmlns="http://www.w3.org/2000/svg">
<path fill-rule="evenodd" clip-rule="evenodd" d="M1.75655 2.98288C1.75655 2.98288 1.73242 2.35019 2.13398 1.5315C2.41725 0.952507 3.51999 0.632664 3.51999 0.632664C3.51999 0.632664 3.99158 0.512816 4.93946 1.428C5.31622 1.77676 5.55582 2.24877 5.61496 2.75876C5.6492 3.22413 4.65696 4.21636 4.65696 4.21636C4.73376 4.78606 4.97162 5.32199 5.34258 5.76113C5.73247 6.21483 6.40406 6.92223 6.7566 7.25297C7.05855 7.53624 7.3955 7.9059 7.84376 8.20318C8.72548 8.78763 8.93717 8.73471 8.93717 8.73471C8.93717 8.73471 10.1932 7.68255 10.5691 7.71913C10.8547 7.74792 11.2594 7.93625 11.7769 8.3775C12.1613 8.70435 12.4073 8.95183 12.6003 9.2818C12.6689 9.39572 12.7231 9.51782 12.7613 9.64523C12.7613 9.64523 12.8119 10.1674 12.001 10.9986C11.194 11.8242 10.0811 11.6079 10.0811 11.6079C10.0811 11.6079 9.44144 11.513 8.39473 11.0203C7.23584 10.4552 6.17994 9.69973 5.27097 8.7853C4.42271 7.90903 3.31064 6.56814 2.76978 5.63505C2.08884 4.46227 1.75655 2.98288 1.75655 2.98288Z" fill="#44403F"/>
</svg>
