<svg width="31" height="42" viewBox="0 0 31 42" fill="none" xmlns="http://www.w3.org/2000/svg">
<path d="M2.14868 21.1747V21.1758V37.4838C2.14868 39.4949 3.66688 41.15 5.55825 41.15H25.2184C27.1096 41.15 28.6303 39.495 28.6303 37.4838L28.6303 21.1758L28.6303 21.1741C28.6253 20.7208 28.7779 20.2799 29.0621 19.9266C29.6223 19.2385 29.9262 18.3775 29.9219 17.4906C29.9219 17.4904 29.9219 17.4903 29.9219 17.4902L29.9219 4.51616C29.9219 2.5051 28.4037 0.85 26.5123 0.85H4.25962C2.36946 0.85 0.850045 2.50506 0.850045 4.51616V17.4906C0.845768 18.3777 1.14975 19.2388 1.71009 19.9269C1.99682 20.2794 2.15187 20.7205 2.14868 21.1747ZM2.72021 17.4754V17.4744V4.49965C2.72021 3.485 3.4325 2.6976 4.26423 2.69753C4.26427 2.69753 4.2643 2.69753 4.26434 2.69753L26.5169 2.71405H26.517C27.3488 2.71405 28.0612 3.50148 28.0612 4.51616L28.0612 17.4909L28.0612 17.4919C28.0642 17.9465 27.9091 18.388 27.6225 18.741C27.0621 19.4286 26.7581 20.2894 26.7625 21.1761C26.7625 21.1763 26.7625 21.1764 26.7625 21.1765L26.7625 37.4838C26.7625 38.4985 26.0502 39.286 25.2184 39.286H5.56297C4.7312 39.286 4.01885 38.4985 4.01885 37.4838V21.1596C4.02326 20.2731 3.71922 19.4127 3.15878 18.7256C2.87223 18.3721 2.71724 17.9302 2.72021 17.4754ZM5.90298 16.426H24.6435L25.4262 15.4928H25.5762V15.4926V5.90918C25.5762 5.39431 25.1585 4.97715 24.6435 4.97715H5.90298C5.38798 4.97715 4.97026 5.39431 4.97026 5.90918V15.494C4.97026 16.0089 5.38798 16.426 5.90298 16.426ZM23.7107 6.84002V14.5608H6.8357V6.84002H23.7107ZM7.7376 23.1634H9.69499C10.21 23.1634 10.6277 22.7463 10.6277 22.2314C10.6277 21.7166 10.21 21.2994 9.69499 21.2994H7.7376C7.2226 21.2994 6.80487 21.7166 6.80487 22.2314C6.80487 22.7463 7.22259 23.1634 7.7376 23.1634ZM13.4138 23.1634H17.1326C17.6476 23.1634 18.0653 22.7463 18.0653 22.2314C18.0653 21.7166 17.6476 21.2994 17.1326 21.2994H13.4138C12.8988 21.2994 12.4811 21.7166 12.4811 22.2314C12.4811 22.7463 12.8988 23.1634 13.4138 23.1634ZM20.8503 23.1634H22.8136C23.3286 23.1634 23.7463 22.7463 23.7463 22.2314C23.7463 21.7166 23.3286 21.2994 22.8136 21.2994H20.8503C20.3353 21.2994 19.9175 21.7166 19.9175 22.2314C19.9175 22.7463 20.3353 23.1634 20.8503 23.1634ZM7.7376 34.8466H9.69499C10.21 34.8466 10.6277 34.4295 10.6277 33.9146C10.6277 33.3997 10.21 32.9826 9.69499 32.9826H7.7376C7.22259 32.9826 6.80487 33.3997 6.80487 33.9146C6.80487 34.4295 7.2226 34.8466 7.7376 34.8466ZM13.4138 34.8466H17.1326C17.6476 34.8466 18.0653 34.4295 18.0653 33.9146C18.0653 33.3997 17.6476 32.9826 17.1326 32.9826H13.4138C12.8988 32.9826 12.4811 33.3997 12.4811 33.9146C12.4811 34.4295 12.8988 34.8466 13.4138 34.8466ZM20.8503 34.8466H22.8136C23.3286 34.8466 23.7463 34.4295 23.7463 33.9146C23.7463 33.3997 23.3286 32.9826 22.8136 32.9826H20.8503C20.3353 32.9826 19.9175 33.3997 19.9175 33.9146C19.9175 34.4295 20.3353 34.8466 20.8503 34.8466ZM7.7376 29.0056H9.69499C10.21 29.0056 10.6277 28.5885 10.6277 28.0736C10.6277 27.5587 10.21 27.1416 9.69499 27.1416H7.7376C7.2226 27.1416 6.80487 27.5587 6.80487 28.0736C6.80487 28.5885 7.2226 29.0056 7.7376 29.0056ZM13.4138 29.0056H17.1326C17.6476 29.0056 18.0653 28.5885 18.0653 28.0736C18.0653 27.5587 17.6476 27.1416 17.1326 27.1416H13.4138C12.8988 27.1416 12.4811 27.5587 12.4811 28.0736C12.4811 28.5885 12.8988 29.0056 13.4138 29.0056ZM20.8503 29.0056H22.8136C23.3286 29.0056 23.7463 28.5885 23.7463 28.0736C23.7463 27.5587 23.3286 27.1416 22.8136 27.1416H20.8503C20.3353 27.1416 19.9175 27.5587 19.9175 28.0736C19.9175 28.5885 20.3353 29.0056 20.8503 29.0056Z" fill="#FF6600" stroke="#FF6600" stroke-width="0.3"/>
</svg>
