<svg width="58" height="42" viewBox="0 0 58 42" fill="none" xmlns="http://www.w3.org/2000/svg">
<mask id="path-1-outside-1" maskUnits="userSpaceOnUse" x="0" y="0" width="58" height="42" fill="black">
<rect fill="white" width="58" height="42"/>
<path d="M36.0697 1H13.5999C10.2582 1 7.05337 2.32749 4.69043 4.69043C2.32749 7.05337 1 10.2582 1 13.5999V34.9177C1 35.0769 1.06321 35.2295 1.17573 35.342C1.28826 35.4545 1.44087 35.5177 1.6 35.5177H8.47594C8.53946 35.5157 8.60224 35.5035 8.66194 35.4817C8.79976 36.9869 9.49396 38.3865 10.6088 39.407C11.7237 40.4275 13.1791 40.9955 14.6905 41C16.2019 41.0045 17.6607 40.4451 18.7816 39.4313C19.9025 38.4174 20.6051 37.022 20.7518 35.5177H40.0297C40.1146 35.5173 40.1984 35.4989 40.2757 35.4637C40.4112 36.9691 41.1033 38.3699 42.2166 39.3921C43.33 40.4143 44.7846 40.9845 46.2961 40.9913C47.8075 40.9981 49.2672 40.4408 50.3896 39.4286C51.5121 38.4163 52.2167 37.0219 52.3656 35.5177H56.3976C56.5567 35.5177 56.7093 35.4545 56.8218 35.342C56.9343 35.2295 56.9976 35.0769 56.9976 34.9177V19.5999C56.9965 19.4942 56.9675 19.3907 56.9136 19.2999L53.0016 12.5979C52.5269 11.7805 51.8459 11.102 51.0267 10.6303C50.2075 10.1586 49.2789 9.91021 48.3336 9.90993H36.6697V1.6C36.6697 1.44087 36.6065 1.28826 36.494 1.17573C36.3815 1.06321 36.2289 1 36.0697 1ZM2.19999 34.3177V13.5999C2.19999 10.5765 3.40105 7.67685 5.53895 5.53895C7.67685 3.40105 10.5765 2.19999 13.5999 2.19999H35.4697V34.1377C35.4724 34.1992 35.4846 34.2599 35.5057 34.3177H20.7578C20.6111 32.8135 19.9085 31.418 18.7876 30.4042C17.6667 29.3903 16.2079 28.831 14.6965 28.8355C13.1851 28.84 11.7297 29.408 10.6148 30.4285C9.49996 31.449 8.80576 32.8486 8.66794 34.3537C8.60824 34.332 8.54546 34.3198 8.48194 34.3177H2.19999ZM14.7099 39.7957C13.7449 39.7957 12.8015 39.5095 11.9992 38.9732C11.1969 38.4369 10.5717 37.6747 10.2027 36.7831C9.83365 35.8914 9.7374 34.9103 9.9261 33.9639C10.1148 33.0175 10.58 32.1483 11.2628 31.4664C11.9456 30.7844 12.8153 30.3203 13.7619 30.1328C14.7086 29.9452 15.6895 30.0427 16.5808 30.4128C17.472 30.7829 18.2334 31.4091 18.7687 32.2121C19.304 33.015 19.589 33.9587 19.5879 34.9237C19.5863 36.2164 19.0716 37.4556 18.157 38.3691C17.2424 39.2826 16.0026 39.7957 14.7099 39.7957ZM36.6337 34.3177C36.6549 34.2599 36.667 34.1992 36.6697 34.1377V20.2719H55.2156C55.3612 20.2733 55.5023 20.2217 55.6127 20.1268C55.7231 20.0319 55.7952 19.9 55.8156 19.7559V34.3177H52.3716C52.2227 32.8136 51.5181 31.4191 50.3956 30.4069C49.2732 29.3946 47.8135 28.8374 46.3021 28.8442C44.7906 28.8509 43.336 29.4212 42.2226 30.4434C41.1093 31.4656 40.4172 32.8664 40.2817 34.3717C40.2044 34.3365 40.1206 34.3181 40.0357 34.3177H36.6337ZM46.3296 39.7957C45.3646 39.7969 44.4209 39.5118 43.618 38.9765C42.815 38.4413 42.1888 37.6798 41.8187 36.7886C41.4486 35.8974 41.3511 34.9164 41.5387 33.9698C41.7262 33.0232 42.1903 32.1534 42.8723 31.4706C43.5542 30.7878 44.4234 30.3227 45.3698 30.1339C46.3162 29.9452 47.2973 30.0415 48.189 30.4105C49.0807 30.7795 49.8428 31.4048 50.3791 32.2071C50.9154 33.0094 51.2016 33.9527 51.2016 34.9177C51.2016 36.2115 50.6877 37.4522 49.7729 38.367C48.8581 39.2818 47.6174 39.7957 46.3236 39.7957H46.3296ZM48.3516 11.0859C49.0888 11.0884 49.8124 11.2849 50.4495 11.6556C51.0867 12.0264 51.6151 12.5583 51.9816 13.1979L55.4016 19.1139C55.3347 19.0874 55.2635 19.0732 55.1916 19.0719H36.6697V11.0859H48.3516Z"/>
<path d="M17.0019 10.3959H29.0018C29.1609 10.3959 29.3135 10.3327 29.426 10.2202C29.5386 10.1077 29.6018 9.95506 29.6018 9.79593C29.6018 9.6368 29.5386 9.48419 29.426 9.37167C29.3135 9.25915 29.1609 9.19594 29.0018 9.19594H17.0019C16.8427 9.19594 16.6901 9.25915 16.5776 9.37167C16.4651 9.48419 16.4019 9.6368 16.4019 9.79593C16.4019 9.95506 16.4651 10.1077 16.5776 10.2202C16.6901 10.3327 16.8427 10.3959 17.0019 10.3959Z"/>
<path d="M8.91994 16.9959H29.0018C29.1609 16.9959 29.3135 16.9327 29.426 16.8201C29.5386 16.7076 29.6018 16.555 29.6018 16.3959C29.6018 16.2368 29.5386 16.0841 29.426 15.9716C29.3135 15.8591 29.1609 15.7959 29.0018 15.7959H8.91994C8.76081 15.7959 8.6082 15.8591 8.49568 15.9716C8.38316 16.0841 8.31994 16.2368 8.31994 16.3959C8.31994 16.555 8.38316 16.7076 8.49568 16.8201C8.6082 16.9327 8.76081 16.9959 8.91994 16.9959Z"/>
<path d="M29.0018 22.3958H22.7198C22.5607 22.3958 22.4081 22.4591 22.2956 22.5716C22.1831 22.6841 22.1198 22.8367 22.1198 22.9958C22.1198 23.155 22.1831 23.3076 22.2956 23.4201C22.4081 23.5326 22.5607 23.5958 22.7198 23.5958H29.0018C29.1609 23.5958 29.3135 23.5326 29.426 23.4201C29.5386 23.3076 29.6018 23.155 29.6018 22.9958C29.6018 22.8367 29.5386 22.6841 29.426 22.5716C29.3135 22.4591 29.1609 22.3958 29.0018 22.3958Z"/>
</mask>
<path d="M36.0697 1H13.5999C10.2582 1 7.05337 2.32749 4.69043 4.69043C2.32749 7.05337 1 10.2582 1 13.5999V34.9177C1 35.0769 1.06321 35.2295 1.17573 35.342C1.28826 35.4545 1.44087 35.5177 1.6 35.5177H8.47594C8.53946 35.5157 8.60224 35.5035 8.66194 35.4817C8.79976 36.9869 9.49396 38.3865 10.6088 39.407C11.7237 40.4275 13.1791 40.9955 14.6905 41C16.2019 41.0045 17.6607 40.4451 18.7816 39.4313C19.9025 38.4174 20.6051 37.022 20.7518 35.5177H40.0297C40.1146 35.5173 40.1984 35.4989 40.2757 35.4637C40.4112 36.9691 41.1033 38.3699 42.2166 39.3921C43.33 40.4143 44.7846 40.9845 46.2961 40.9913C47.8075 40.9981 49.2672 40.4408 50.3896 39.4286C51.5121 38.4163 52.2167 37.0219 52.3656 35.5177H56.3976C56.5567 35.5177 56.7093 35.4545 56.8218 35.342C56.9343 35.2295 56.9976 35.0769 56.9976 34.9177V19.5999C56.9965 19.4942 56.9675 19.3907 56.9136 19.2999L53.0016 12.5979C52.5269 11.7805 51.8459 11.102 51.0267 10.6303C50.2075 10.1586 49.2789 9.91021 48.3336 9.90993H36.6697V1.6C36.6697 1.44087 36.6065 1.28826 36.494 1.17573C36.3815 1.06321 36.2289 1 36.0697 1ZM2.19999 34.3177V13.5999C2.19999 10.5765 3.40105 7.67685 5.53895 5.53895C7.67685 3.40105 10.5765 2.19999 13.5999 2.19999H35.4697V34.1377C35.4724 34.1992 35.4846 34.2599 35.5057 34.3177H20.7578C20.6111 32.8135 19.9085 31.418 18.7876 30.4042C17.6667 29.3903 16.2079 28.831 14.6965 28.8355C13.1851 28.84 11.7297 29.408 10.6148 30.4285C9.49996 31.449 8.80576 32.8486 8.66794 34.3537C8.60824 34.332 8.54546 34.3198 8.48194 34.3177H2.19999ZM14.7099 39.7957C13.7449 39.7957 12.8015 39.5095 11.9992 38.9732C11.1969 38.4369 10.5717 37.6747 10.2027 36.7831C9.83365 35.8914 9.7374 34.9103 9.9261 33.9639C10.1148 33.0175 10.58 32.1483 11.2628 31.4664C11.9456 30.7844 12.8153 30.3203 13.7619 30.1328C14.7086 29.9452 15.6895 30.0427 16.5808 30.4128C17.472 30.7829 18.2334 31.4091 18.7687 32.2121C19.304 33.015 19.589 33.9587 19.5879 34.9237C19.5863 36.2164 19.0716 37.4556 18.157 38.3691C17.2424 39.2826 16.0026 39.7957 14.7099 39.7957ZM36.6337 34.3177C36.6549 34.2599 36.667 34.1992 36.6697 34.1377V20.2719H55.2156C55.3612 20.2733 55.5023 20.2217 55.6127 20.1268C55.7231 20.0319 55.7952 19.9 55.8156 19.7559V34.3177H52.3716C52.2227 32.8136 51.5181 31.4191 50.3956 30.4069C49.2732 29.3946 47.8135 28.8374 46.3021 28.8442C44.7906 28.8509 43.336 29.4212 42.2226 30.4434C41.1093 31.4656 40.4172 32.8664 40.2817 34.3717C40.2044 34.3365 40.1206 34.3181 40.0357 34.3177H36.6337ZM46.3296 39.7957C45.3646 39.7969 44.4209 39.5118 43.618 38.9765C42.815 38.4413 42.1888 37.6798 41.8187 36.7886C41.4486 35.8974 41.3511 34.9164 41.5387 33.9698C41.7262 33.0232 42.1903 32.1534 42.8723 31.4706C43.5542 30.7878 44.4234 30.3227 45.3698 30.1339C46.3162 29.9452 47.2973 30.0415 48.189 30.4105C49.0807 30.7795 49.8428 31.4048 50.3791 32.2071C50.9154 33.0094 51.2016 33.9527 51.2016 34.9177C51.2016 36.2115 50.6877 37.4522 49.7729 38.367C48.8581 39.2818 47.6174 39.7957 46.3236 39.7957H46.3296ZM48.3516 11.0859C49.0888 11.0884 49.8124 11.2849 50.4495 11.6556C51.0867 12.0264 51.6151 12.5583 51.9816 13.1979L55.4016 19.1139C55.3347 19.0874 55.2635 19.0732 55.1916 19.0719H36.6697V11.0859H48.3516Z" fill="#FF6600"/>
<path d="M17.0019 10.3959H29.0018C29.1609 10.3959 29.3135 10.3327 29.426 10.2202C29.5386 10.1077 29.6018 9.95506 29.6018 9.79593C29.6018 9.6368 29.5386 9.48419 29.426 9.37167C29.3135 9.25915 29.1609 9.19594 29.0018 9.19594H17.0019C16.8427 9.19594 16.6901 9.25915 16.5776 9.37167C16.4651 9.48419 16.4019 9.6368 16.4019 9.79593C16.4019 9.95506 16.4651 10.1077 16.5776 10.2202C16.6901 10.3327 16.8427 10.3959 17.0019 10.3959Z" fill="#FF6600"/>
<path d="M8.91994 16.9959H29.0018C29.1609 16.9959 29.3135 16.9327 29.426 16.8201C29.5386 16.7076 29.6018 16.555 29.6018 16.3959C29.6018 16.2368 29.5386 16.0841 29.426 15.9716C29.3135 15.8591 29.1609 15.7959 29.0018 15.7959H8.91994C8.76081 15.7959 8.6082 15.8591 8.49568 15.9716C8.38316 16.0841 8.31994 16.2368 8.31994 16.3959C8.31994 16.555 8.38316 16.7076 8.49568 16.8201C8.6082 16.9327 8.76081 16.9959 8.91994 16.9959Z" fill="#FF6600"/>
<path d="M29.0018 22.3958H22.7198C22.5607 22.3958 22.4081 22.4591 22.2956 22.5716C22.1831 22.6841 22.1198 22.8367 22.1198 22.9958C22.1198 23.155 22.1831 23.3076 22.2956 23.4201C22.4081 23.5326 22.5607 23.5958 22.7198 23.5958H29.0018C29.1609 23.5958 29.3135 23.5326 29.426 23.4201C29.5386 23.3076 29.6018 23.155 29.6018 22.9958C29.6018 22.8367 29.5386 22.6841 29.426 22.5716C29.3135 22.4591 29.1609 22.3958 29.0018 22.3958Z" fill="#FF6600"/>
<path d="M36.0697 1H13.5999C10.2582 1 7.05337 2.32749 4.69043 4.69043C2.32749 7.05337 1 10.2582 1 13.5999V34.9177C1 35.0769 1.06321 35.2295 1.17573 35.342C1.28826 35.4545 1.44087 35.5177 1.6 35.5177H8.47594C8.53946 35.5157 8.60224 35.5035 8.66194 35.4817C8.79976 36.9869 9.49396 38.3865 10.6088 39.407C11.7237 40.4275 13.1791 40.9955 14.6905 41C16.2019 41.0045 17.6607 40.4451 18.7816 39.4313C19.9025 38.4174 20.6051 37.022 20.7518 35.5177H40.0297C40.1146 35.5173 40.1984 35.4989 40.2757 35.4637C40.4112 36.9691 41.1033 38.3699 42.2166 39.3921C43.33 40.4143 44.7846 40.9845 46.2961 40.9913C47.8075 40.9981 49.2672 40.4408 50.3896 39.4286C51.5121 38.4163 52.2167 37.0219 52.3656 35.5177H56.3976C56.5567 35.5177 56.7093 35.4545 56.8218 35.342C56.9343 35.2295 56.9976 35.0769 56.9976 34.9177V19.5999C56.9965 19.4942 56.9675 19.3907 56.9136 19.2999L53.0016 12.5979C52.5269 11.7805 51.8459 11.102 51.0267 10.6303C50.2075 10.1586 49.2789 9.91021 48.3336 9.90993H36.6697V1.6C36.6697 1.44087 36.6065 1.28826 36.494 1.17573C36.3815 1.06321 36.2289 1 36.0697 1ZM2.19999 34.3177V13.5999C2.19999 10.5765 3.40105 7.67685 5.53895 5.53895C7.67685 3.40105 10.5765 2.19999 13.5999 2.19999H35.4697V34.1377C35.4724 34.1992 35.4846 34.2599 35.5057 34.3177H20.7578C20.6111 32.8135 19.9085 31.418 18.7876 30.4042C17.6667 29.3903 16.2079 28.831 14.6965 28.8355C13.1851 28.84 11.7297 29.408 10.6148 30.4285C9.49996 31.449 8.80576 32.8486 8.66794 34.3537C8.60824 34.332 8.54546 34.3198 8.48194 34.3177H2.19999ZM14.7099 39.7957C13.7449 39.7957 12.8015 39.5095 11.9992 38.9732C11.1969 38.4369 10.5717 37.6747 10.2027 36.7831C9.83365 35.8914 9.7374 34.9103 9.9261 33.9639C10.1148 33.0175 10.58 32.1483 11.2628 31.4664C11.9456 30.7844 12.8153 30.3203 13.7619 30.1328C14.7086 29.9452 15.6895 30.0427 16.5808 30.4128C17.472 30.7829 18.2334 31.4091 18.7687 32.2121C19.304 33.015 19.589 33.9587 19.5879 34.9237C19.5863 36.2164 19.0716 37.4556 18.157 38.3691C17.2424 39.2826 16.0026 39.7957 14.7099 39.7957ZM36.6337 34.3177C36.6549 34.2599 36.667 34.1992 36.6697 34.1377V20.2719H55.2156C55.3612 20.2733 55.5023 20.2217 55.6127 20.1268C55.7231 20.0319 55.7952 19.9 55.8156 19.7559V34.3177H52.3716C52.2227 32.8136 51.5181 31.4191 50.3956 30.4069C49.2732 29.3946 47.8135 28.8374 46.3021 28.8442C44.7906 28.8509 43.336 29.4212 42.2226 30.4434C41.1093 31.4656 40.4172 32.8664 40.2817 34.3717C40.2044 34.3365 40.1206 34.3181 40.0357 34.3177H36.6337ZM46.3296 39.7957C45.3646 39.7969 44.4209 39.5118 43.618 38.9765C42.815 38.4413 42.1888 37.6798 41.8187 36.7886C41.4486 35.8974 41.3511 34.9164 41.5387 33.9698C41.7262 33.0232 42.1903 32.1534 42.8723 31.4706C43.5542 30.7878 44.4234 30.3227 45.3698 30.1339C46.3162 29.9452 47.2973 30.0415 48.189 30.4105C49.0807 30.7795 49.8428 31.4048 50.3791 32.2071C50.9154 33.0094 51.2016 33.9527 51.2016 34.9177C51.2016 36.2115 50.6877 37.4522 49.7729 38.367C48.8581 39.2818 47.6174 39.7957 46.3236 39.7957H46.3296ZM48.3516 11.0859C49.0888 11.0884 49.8124 11.2849 50.4495 11.6556C51.0867 12.0264 51.6151 12.5583 51.9816 13.1979L55.4016 19.1139C55.3347 19.0874 55.2635 19.0732 55.1916 19.0719H36.6697V11.0859H48.3516Z" stroke="#FF6600" mask="url(#path-1-outside-1)"/>
<path d="M17.0019 10.3959H29.0018C29.1609 10.3959 29.3135 10.3327 29.426 10.2202C29.5386 10.1077 29.6018 9.95506 29.6018 9.79593C29.6018 9.6368 29.5386 9.48419 29.426 9.37167C29.3135 9.25915 29.1609 9.19594 29.0018 9.19594H17.0019C16.8427 9.19594 16.6901 9.25915 16.5776 9.37167C16.4651 9.48419 16.4019 9.6368 16.4019 9.79593C16.4019 9.95506 16.4651 10.1077 16.5776 10.2202C16.6901 10.3327 16.8427 10.3959 17.0019 10.3959Z" stroke="#FF6600" mask="url(#path-1-outside-1)"/>
<path d="M8.91994 16.9959H29.0018C29.1609 16.9959 29.3135 16.9327 29.426 16.8201C29.5386 16.7076 29.6018 16.555 29.6018 16.3959C29.6018 16.2368 29.5386 16.0841 29.426 15.9716C29.3135 15.8591 29.1609 15.7959 29.0018 15.7959H8.91994C8.76081 15.7959 8.6082 15.8591 8.49568 15.9716C8.38316 16.0841 8.31994 16.2368 8.31994 16.3959C8.31994 16.555 8.38316 16.7076 8.49568 16.8201C8.6082 16.9327 8.76081 16.9959 8.91994 16.9959Z" stroke="#FF6600" mask="url(#path-1-outside-1)"/>
<path d="M29.0018 22.3958H22.7198C22.5607 22.3958 22.4081 22.4591 22.2956 22.5716C22.1831 22.6841 22.1198 22.8367 22.1198 22.9958C22.1198 23.155 22.1831 23.3076 22.2956 23.4201C22.4081 23.5326 22.5607 23.5958 22.7198 23.5958H29.0018C29.1609 23.5958 29.3135 23.5326 29.426 23.4201C29.5386 23.3076 29.6018 23.155 29.6018 22.9958C29.6018 22.8367 29.5386 22.6841 29.426 22.5716C29.3135 22.4591 29.1609 22.3958 29.0018 22.3958Z" stroke="#FF6600" mask="url(#path-1-outside-1)"/>
</svg>
