<svg width="29" height="40" viewBox="0 0 29 40" fill="none" xmlns="http://www.w3.org/2000/svg">
<path d="M0 33.3333V39.0476C0 39.5714 0.428571 40 0.952381 40H27.619C28.1429 40 28.5714 39.5714 28.5714 39.0476V33.3333C28.5714 25.4571 22.1619 19.0476 14.2857 19.0476C6.40952 19.0476 0 25.4571 0 33.3333ZM26.6667 33.3333V38.0952H15.2381V31.6476L19.8476 22.2857C23.8857 24.3333 26.6667 28.5048 26.6667 33.3333ZM14.2857 20.9524C15.6095 20.9524 16.8857 21.1714 18.0857 21.5524L14.2857 29.2762L10.4857 21.5619C11.6857 21.1714 12.9619 20.9524 14.2857 20.9524ZM8.72381 22.2857L13.3333 31.6476V38.0952H1.90476V33.3333C1.90476 28.5048 4.68571 24.3333 8.72381 22.2857Z" fill="#FF6600"/>
<path d="M23.8095 9.52381C23.8095 4.27619 19.5333 0 14.2857 0C9.0381 0 4.7619 4.27619 4.7619 9.52381C4.7619 14.7714 9.0381 19.0476 14.2857 19.0476C19.5333 19.0476 23.8095 14.7714 23.8095 9.52381ZM14.2857 17.1429C10.0857 17.1429 6.66667 13.7238 6.66667 9.52381C6.66667 5.32381 10.0857 1.90476 14.2857 1.90476C18.4857 1.90476 21.9048 5.32381 21.9048 9.52381C21.9048 13.7238 18.4857 17.1429 14.2857 17.1429Z" fill="#FF6600"/>
<path d="M20 36.1905H24.7619C25.2857 36.1905 25.7143 35.7619 25.7143 35.2381C25.7143 34.7143 25.2857 34.2857 24.7619 34.2857H20C19.4762 34.2857 19.0476 34.7143 19.0476 35.2381C19.0476 35.7619 19.4762 36.1905 20 36.1905Z" fill="#FF6600"/>
</svg>
