<svg width="47" height="42" viewBox="0 0 47 42" fill="none" xmlns="http://www.w3.org/2000/svg">
<path d="M16.3384 0.945064V0.950031H16.3448H16.3729H16.4011H16.4293H16.4575H16.4857H16.5138H16.542H16.5702H16.5984H16.6266H16.6547H16.6829H16.7111H16.7393H16.7675H16.7957H16.8238H16.852H16.8802H16.9084H16.9366H16.9648H16.993H17.0212H17.0493H17.0775H17.1057H17.1339H17.1621H17.1903H17.2185H17.2467H17.2749H17.3031H17.3313H17.3595H17.3876H17.4158H17.444H17.4722H17.5004H17.5286H17.5568H17.585H17.6132H17.6414H17.6696H17.6978H17.726H17.7542H17.7824H17.8106H17.8388H17.867H17.8952H17.9234H17.9516H17.9798H18.008H18.0362H18.0644H18.0926H18.1208H18.1491H18.1773H18.2055H18.2337H18.2619H18.2901H18.3183H18.3465H18.3747H18.4029H18.4311H18.4593H18.4875H18.5158H18.544H18.5722H18.6004H18.6286H18.6568H18.685H18.7132H18.7415H18.7697H18.7979H18.8261H18.8543H18.8825H18.9107H18.939H18.9672H18.9954H19.0236H19.0518H19.08H19.1083H19.1365H19.1647H19.1929H19.2211H19.2494H19.2776H19.3058H19.334H19.3622H19.3905H19.4187H19.4469H19.4751H19.5033H19.5316H19.5598H19.588H19.6162H19.6445H19.6727H19.7009H19.7291H19.7574H19.7856H19.8138H19.842H19.8703H19.8985H19.9267H19.9549H19.9832H20.0114H20.0396H20.0678H20.0961H20.1243H20.1525H20.1808H20.209H20.2372H20.2655H20.2937H20.3219H20.3501H20.3784H20.4066H20.4348H20.4631H20.4913H20.5195H20.5478H20.576H20.6042H20.6325H20.6607H20.6889H20.7172H20.7454H20.7736H20.8019H20.8301H20.8583H20.8866H20.9148H20.943H20.9713H20.9995H21.0278H21.056H21.0842H21.1125H21.1407H21.1689H21.1972H21.2254H21.2537H21.2819H21.3101H21.3384H21.3666H21.3949H21.4231H21.4513H21.4796H21.5078H21.5361H21.5643H21.5925H21.6208H21.649H21.6773H21.7055H21.7337H21.762H21.7902H21.8185H21.8467H21.875H21.9032H21.9314H21.9597H21.9879H22.0162H22.0444H22.0727H22.1009H22.1291H22.1574H22.1856H22.2139H22.2421H22.2704H22.2986H22.3269H22.3551H22.3833H22.4116H22.4398H22.4681H22.4963H22.5246H22.5528H22.5811H22.6093H22.6376H22.6658H22.6941H22.7223H22.7505H22.7788H22.807H22.8353H22.8635H22.8918H22.92H22.9483H22.9765H23.0048H23.033H23.0613H23.0895H23.1178H23.146H23.1743H23.2025H23.2308H23.259H23.2873H23.3155H23.3438H23.372H23.4003H23.4285H23.4568H23.485H23.5133H23.5415H23.5698H23.598H23.6263H23.6545H23.6828H23.711H23.7393H23.7675H23.7958H23.824H23.8523H23.8805H23.9088H23.937H23.9653H23.9935H24.0218H24.05H24.0783H24.1065H24.1348H24.163H24.1913H24.2195H24.2478H24.276H24.3043H24.3325H24.3608H24.389H24.4173H24.4455H24.4738H24.5021H24.5303H24.5586H24.5868H24.6151H24.6433H24.6716H24.6998H24.7281H24.7563H24.7846H24.8128H24.8411H24.8693H24.8976H24.9258H24.9541H24.9823H25.0106H25.0388H25.0671H25.0953H25.1236H25.1518H25.1801H25.2083H25.2366H25.2649H25.2931H25.3214H25.3496H25.3779H25.4061H25.4344H25.4626H25.4909H25.5191H25.5474H25.5756H25.6039H25.6321H25.6604H25.6886H25.7169H25.7451H25.7734H25.8016H25.8299H25.8581H25.8864H25.9146H25.9429H25.9711H25.9994H26.0276H26.0559H26.0841H26.1124H26.1406H26.1689H26.1971H26.2254H26.2536H26.2819H26.3101H26.3384H26.3666H26.3949H26.4231H26.4514H26.4796H26.5079H26.5361H26.5644H26.5926H26.6209H26.6491H26.6774H26.7056H26.7339H26.7621H26.7904H26.8186H26.8469H26.8751H26.9034H26.9316H26.9599H26.9881H27.0164H27.0446H27.0729H27.1011H27.1294H27.1576H27.1858H27.2141H27.2423H27.2706H27.2988H27.3271H27.3553H27.3836H27.4118H27.4401H27.4683H27.4966H27.5248H27.553H27.5813H27.6095H27.6378H27.666H27.6943H27.7225H27.7508H27.779H27.8072H27.8355H27.8637H27.892H27.9202H27.9485H27.9767H28.0049H28.0332H28.0614H28.0897H28.1179H28.1462H28.1744H28.2026H28.2309H28.2591H28.2874H28.3156H28.3438H28.3721H28.4003H28.4286H28.4568H28.485H28.5133H28.5415H28.5698H28.598H28.6262H28.6545H28.6827H28.7109H28.7392H28.7674H28.7957H28.8239H28.8521H28.8804H28.9086H28.9368H28.9651H28.9933H29.0215H29.0498H29.078H29.1062H29.1345H29.1627H29.1909H29.2192H29.2474H29.2756H29.3039H29.3321H29.3603H29.3886H29.4168H29.445H29.4733H29.5015H29.5297H29.558H29.5862H29.6144H29.6426H29.6709H29.6991H29.7273H29.7556H29.7838H29.812H29.8402H29.8685H29.8967H29.9249H29.9532H29.9814H30.0096H30.0378H30.0661H30.0943H30.1225H30.1507H30.179H30.2072H30.2354H30.2636H30.2918H30.3201H30.3483H30.3765H30.4047H30.433H30.4612H30.4894H30.5176H30.5458H30.5741H30.6023H30.6305H30.6587H30.6869H30.7151H30.7434C31.308 0.950091 31.8189 1.46105 31.819 2.02567V6.07824H44.0765C44.6905 6.07821 45.1771 6.34082 45.5382 6.70186C45.8988 7.06248 46.1778 7.56512 46.1778 8.17952C46.1778 9.3537 46.1779 10.527 46.178 11.7001C46.1782 14.0455 46.1784 16.3901 46.1778 18.7398C46.178 18.7487 46.1781 18.7577 46.1781 18.7667C46.1781 18.7742 46.178 18.7817 46.1778 18.7891V38.4359C46.1778 39.1281 45.9845 39.8358 45.4741 40.3463C44.9636 40.8568 44.2559 41.05 43.5637 41.05H3.56419C2.87216 41.05 2.16432 40.8599 1.65374 40.3461C1.1433 39.8325 0.950112 39.1161 0.950112 38.4199C0.950112 34.8651 0.950083 31.4132 0.950055 28.0102C0.949999 21.347 0.949945 14.8715 0.950112 8.17949C0.950112 7.56605 1.22883 7.06421 1.58968 6.7019C1.95114 6.33897 2.43752 6.07817 3.05137 6.07821H15.3089L15.3089 2.02586L15.3089 2.02564M16.3384 0.945064L16.2384 1.00613C15.7563 1.07893 15.3568 1.53606 15.3589 2.02564H15.3089M16.3384 0.945064L16.2837 0.950221C15.7538 1.00018 15.3068 1.49343 15.3089 2.02564M16.3384 0.945064L15.3089 2.02564M44.0266 22.0094C43.7728 22.1843 43.5088 22.3436 43.2343 22.4866C41.7921 23.2382 40.0829 23.6265 38.4352 23.6141H27.2037V25.6154C27.2037 26.1705 26.9891 26.6378 26.6793 27.0095C26.3698 27.3809 25.9226 27.7167 25.2787 27.7167H21.8492C21.2054 27.7167 20.7581 27.3809 20.4487 27.0095C20.1388 26.6378 19.9243 26.1705 19.9243 25.6154V23.6141H8.69271C7.04499 23.6265 5.33581 23.2382 3.89364 22.4866C3.61913 22.3436 3.35509 22.1843 3.10137 22.0094V38.4199C3.10137 38.7587 3.16373 38.8145 3.167 38.8174M44.0266 22.0094L3.167 38.8174M44.0266 22.0094V38.4359C44.0266 38.6042 44.0104 38.6993 43.9942 38.7523C43.9861 38.7786 43.9783 38.794 43.9728 38.8027C43.9677 38.8109 43.9641 38.8142 43.9611 38.8172L43.9608 38.8175C43.9576 38.8207 43.9412 38.8399 43.8863 38.859C43.8296 38.8788 43.731 38.8987 43.5637 38.8987H3.56419C3.39685 38.8987 3.2983 38.8788 3.24158 38.859C3.18952 38.8408 3.17207 38.8226 3.1676 38.818L3.16711 38.8175L44.0266 22.0094ZM3.167 38.8174C3.16701 38.8174 3.16701 38.8174 3.16702 38.8174L3.167 38.8174ZM38.4356 21.4628H27.2037V19.4615C27.2037 18.9065 26.9891 18.4391 26.6793 18.0674C26.3698 17.696 25.9226 17.3602 25.2787 17.3603H21.8492C21.2053 17.3602 20.7581 17.696 20.4487 18.0674C20.1388 18.4391 19.9243 18.9065 19.9243 19.4615V21.4628L8.69233 21.4628L8.69196 21.4628C7.40437 21.4725 5.95848 21.1302 4.88535 20.571C3.82884 20.0205 3.21758 19.3185 3.10137 18.6241C3.10189 16.3023 3.10172 13.9849 3.10155 11.6655C3.10146 10.5209 3.10137 9.37583 3.10137 8.22949H3.1315H3.21163H3.29175H3.37188H3.45201H3.53213H3.61226H3.69239H3.77252H3.85264H3.93277H4.0129H4.09303H4.17315H4.25328H4.33341H4.41353H4.49366H4.57379H4.65392H4.73404H4.81417H4.8943H4.97443H5.05455H5.13468H5.21481H5.29494H5.37506H5.45519H5.53532H5.61544H5.69557H5.7757H5.85583H5.93595H6.01608H6.09621H6.17634H6.25646H6.33659H6.41672H6.49684H6.57697H6.6571H6.73723H6.81735H6.89748H6.97761H7.05774H7.13786H7.21799H7.29812H7.37825H7.45837H7.5385H7.61863H7.69875H7.77888H7.85901H7.93914H8.01926H8.09939H8.17952H8.25965H8.33977H8.4199H8.50003H8.58015H8.66028H8.74041H8.82054H8.90066H8.98079H9.06092H9.14105H9.22117H9.3013H9.38143H9.46156H9.54168H9.62181H9.70194H9.78206H9.86219H9.94232H10.0224H10.1026H10.1827H10.2628H10.343H10.4231H10.5032H10.5833H10.6635H10.7436H10.8237H10.9038H10.984H11.0641H11.1442H11.2244H11.3045H11.3846H11.4647H11.5449H11.625H11.7051H11.7852H11.8654H11.9455H12.0256H12.1058H12.1859H12.266H12.3461H12.4263H12.5064H12.5865H12.6666H12.7468H12.8269H12.907H12.9872H13.0673H13.1474H13.2275H13.3077H13.3878H13.4679H13.548H13.6282H13.7083H13.7884H13.8686H13.9487H14.0288H14.1089H14.1891H14.2692H14.3493H14.4294H14.5096H14.5897H14.6698H14.75H14.8301H14.9102H14.9903H15.0705H15.1506H15.2307H15.3108H15.391H15.4711H15.5512H15.6314H15.7115H15.7916H15.8717H15.9519H16.032H16.1121H16.1922H16.2724H16.3525H16.4326H16.5128H16.5929H16.673H16.7531H16.8333H16.9134H16.9935H17.0737H17.1538H17.2339H17.314H17.3942H17.4743H17.5544H17.6345H17.7147H17.7948H17.8749H17.955H18.0352H18.1153H18.1954H18.2756H18.3557H18.4358H18.5159H18.5961H18.6762H18.7563H18.8365H18.9166H18.9967H19.0768H19.157H19.2371H19.3172H19.3973H19.4775H19.5576H19.6377H19.7179H19.798H19.8781H19.9582H20.0384H20.1185H20.1986H20.2787H20.3589H20.439H20.5191H20.5993H20.6794H20.7595H20.8396H20.9198H20.9999H21.08H21.1601H21.2403H21.3204H21.4005H21.4807H21.5608H21.6409H21.721H21.8012H21.8813H21.9614H22.0415H22.1217H22.2018H22.2819H22.3621H22.4422H22.5223H22.6024H22.6826H22.7627H22.8428H22.9229H23.0031H23.0832H23.1633H23.2435H23.3236H23.4037H23.4838H23.564H23.6441H23.7242H23.8043H23.8845H23.9646H24.0447H24.1249H24.205H24.2851H24.3652H24.4454H24.5255H24.6056H24.6857H24.7659H24.846H24.9261H25.0063H25.0864H25.1665H25.2466H25.3268H25.4069H25.487H25.5671H25.6473H25.7274H25.8075H25.8877H25.9678H26.0479H26.128H26.2082H26.2883H26.3684H26.4485H26.5287H26.6088H26.6889H26.7691H26.8492H26.9293H27.0094H27.0896H27.1697H27.2498H27.3299H27.4101H27.4902H27.5703H27.6505H27.7306H27.8107H27.8908H27.971H28.0511H28.1312H28.2113H28.2915H28.3716H28.4517H28.5319H28.612H28.6921H28.7722H28.8524H28.9325H29.0126H29.0927H29.1729H29.253H29.3331H29.4133H29.4934H29.5735H29.6536H29.7338H29.8139H29.894H29.9741H30.0543H30.1344H30.2145H30.2947H30.3748H30.4549H30.535H30.6152H30.6953H30.7754H30.8555H30.9357H31.0158H31.0959H31.1761H31.2562H31.3363H31.4164H31.4966H31.5767H31.6568H31.7369H31.8171H31.8972H31.9773H32.0575H32.1376H32.2177H32.2978H32.378H32.4581H32.5382H32.6183H32.6985H32.7786H32.8587H32.9389H33.019H33.0991H33.1792H33.2594H33.3395H33.4196H33.4997H33.5799H33.66H33.7401H33.8203H33.9004H33.9805H34.0606H34.1408H34.2209H34.301H34.3811H34.4613H34.5414H34.6215H34.7017H34.7818H34.8619H34.942H35.0222H35.1023H35.1824H35.2626H35.3427H35.4228H35.5029H35.5831H35.6632H35.7433H35.8234H35.9036H35.9837H36.0638H36.144H36.2241H36.3042H36.3843H36.4645H36.5446H36.6247H36.7048H36.785H36.8651H36.9452H37.0253H37.1055H37.1856H37.2657H37.3459H37.426H37.5061H37.5862H37.6664H37.7465H37.8266H37.9067H37.9869H38.067H38.1471H38.2273H38.3074H38.3875H38.4676H38.5478H38.6279H38.708H38.7882H38.8683H38.9484H39.0285H39.1087H39.1888H39.2689H39.349H39.4292H39.5093H39.5894H39.6696H39.7497H39.8298H39.9099H39.9901H40.0702H40.1503H40.2304H40.3106H40.3907H40.4708H40.551H40.6311H40.7112H40.7913H40.8715H40.9516H41.0317H41.1118H41.192H41.2721H41.3522H41.4324H41.5125H41.5926H41.6727H41.7529H41.833H41.9131H41.9932H42.0734H42.1535H42.2336H42.3138H42.3939H42.474H42.5541H42.6343H42.7144H42.7945H42.8746H42.9548H43.0349H43.115H43.1952H43.2753H43.3554H43.4355H43.5157H43.5958H43.6759H43.756H43.8362H43.9163H43.9964H44.0265C44.0262 10.5368 44.0263 12.8393 44.0264 15.1434C44.0265 16.303 44.0266 17.463 44.0266 18.6241C43.9104 19.3185 43.2991 20.0205 42.2426 20.571C41.1694 21.1302 39.7236 21.4725 38.436 21.4628H38.4356ZM17.4602 3.10128H29.6677V6.07821H17.4602V3.10128ZM25.0524 19.5115V25.5654H22.0755V19.5115H25.0524Z" fill="#FF6600" stroke="#FF6600" stroke-width="0.1"/>
</svg>
