<svg width="30" height="30" viewBox="0 0 30 30" fill="none" xmlns="http://www.w3.org/2000/svg">
<path d="M5.725 1.875V1.775H5.625H1.875H1.775V1.875V28.125V28.225H1.875H28.125H28.225V28.125V7.01438V6.84074L28.0748 6.92788L15.977 13.9472L15.1028 12.4822L16.9252 11.4243L16.975 11.3954V11.3378V7.01438V6.84088L16.8249 6.92785L4.73707 13.9303L3.88291 12.479L5.67503 11.4436L5.725 11.4148V11.357V1.875ZM18.65 3.9241V10.3125V10.4866L18.8004 10.3989L29.9 3.9241V29.9H0.1V0.1H7.4V10.3125V10.4866L7.55039 10.3989L18.65 3.9241ZM5.725 22.4V18.85H9.275V22.4H5.725ZM13.225 22.4V18.85H16.775V22.4H13.225ZM20.725 22.4V18.85H24.275V22.4H20.725Z" fill="black" stroke="white" stroke-width="0.2"/>
</svg>
