<svg width="22" height="29" viewBox="0 0 22 29" fill="none" xmlns="http://www.w3.org/2000/svg">
<path fill-rule="evenodd" clip-rule="evenodd" d="M5.4625 14.25H0V19.5938H1.82083V21.375H3.64167V24.9375H5.4625V28.5H18.2083V24.9375H20.0292V21.375H21.85V12.4688H20.0292V10.6875H16.3875V8.90625H12.7458V7.125H10.925V1.78125H9.10417V0H7.28334V1.78125H5.4625V14.25ZM7.28334 1.78125V17.8125H5.4625V16.0312H1.82083V17.8125H3.64167V19.5938H5.4625V23.1562H7.28334V26.7188H16.3875V24.9375H18.2083V21.375H20.0292V12.4688H18.2083V14.25H16.3875V10.6875H14.5667V14.25H12.7458V8.90625H10.925V14.25H9.10417V1.78125H7.28334Z" fill="#808080"/>
</svg>
