<svg width="34" height="30" viewBox="0 0 34 30" fill="none" xmlns="http://www.w3.org/2000/svg">
<path d="M27.1395 30H6.2093C5.7907 30 5.51163 29.7209 5.51163 29.3023V12.4884L3.69767 13.186C3.34884 13.3256 3 13.186 2.86047 12.8372L0.0697674 7.25581C-0.0697675 6.97674 1.03962e-07 6.55813 0.27907 6.4186L5.86047 2.23255C6 2.16278 6.13954 2.09302 6.27907 2.09302H10.8837C11.1628 2.09302 11.3721 2.23255 11.5116 2.44185L14.9302 8.09302L16.3953 7.11627C16.6047 6.97674 16.9535 6.97674 17.1628 7.11627L18.6279 8.09302L22.0465 2.44185C22.186 2.23255 22.3953 2.09302 22.6744 2.09302H27.1395C27.2791 2.09302 27.4186 2.16278 27.5581 2.23255L33.1395 6.4186C33.4186 6.6279 33.4884 6.97674 33.3488 7.25581L30.5581 13.5349C30.4884 13.7442 30.3488 13.8837 30.1395 13.8837C29.9302 13.9535 29.7209 13.8837 29.5814 13.8139L27.8372 12.7674V29.3023C27.8372 29.7209 27.5581 30 27.1395 30ZM6.90698 28.6046H26.4419V11.5116C26.4419 11.2326 26.5814 11.0232 26.7907 10.8837C27 10.7442 27.2791 10.7442 27.4884 10.8837L29.5814 12.2093L31.814 7.18604L26.9302 3.48837H22.9535L19.3953 9.4186C19.3256 9.55813 19.1163 9.69767 18.9767 9.76744C18.7674 9.8372 18.6279 9.76744 18.4186 9.69767L16.6744 8.51162L15 9.6279C14.7907 9.76744 14.5814 9.76744 14.4419 9.76744C14.2326 9.69767 14.093 9.6279 14.0233 9.4186L10.3953 3.48837H6.4186L1.46512 7.18604L3.69767 11.6512L5.93023 10.8139C6.13954 10.7442 6.4186 10.7442 6.55814 10.8837C6.76744 11.0232 6.83721 11.2326 6.83721 11.4419V28.6046H6.90698Z" fill="black"/>
<path d="M16.6742 8.37209C16.3952 8.37209 16.1858 8.23256 16.0463 8.02326L11.8603 1.04651C11.7207 0.837209 11.7207 0.55814 11.8603 0.348837C11.9998 0.139535 12.2091 0 12.4882 0H20.8603C21.1393 0 21.3486 0.139535 21.4882 0.348837C21.6277 0.55814 21.6277 0.837209 21.4882 1.04651L17.3021 8.02326C17.1626 8.23256 16.9533 8.37209 16.6742 8.37209ZM13.744 1.39535L16.6742 6.34884L19.6045 1.39535H13.744Z" fill="black"/>
<path d="M18.7673 9.76744C18.6277 9.76744 18.4882 9.69767 18.3487 9.62791L16.2556 8.23256C15.9766 8.02326 15.837 7.60465 16.0463 7.32558L20.2324 0.348837C20.3021 0.209302 20.5114 0.0697674 20.651 0C20.8603 0 21.0696 -1.3515e-07 21.2789 0.139535L23.3719 1.53488C23.651 1.74419 23.7905 2.16279 23.5812 2.44186L19.3952 9.4186C19.3254 9.55814 19.1161 9.69767 18.9766 9.76744C18.837 9.76744 18.837 9.76744 18.7673 9.76744ZM17.5812 7.46512L18.4882 8.09302L21.9766 2.30233L21.0696 1.67442L17.5812 7.46512Z" fill="black"/>
<path d="M14.5813 9.76744C14.5115 9.76744 14.5115 9.76744 14.4418 9.76744C14.2325 9.69767 14.0929 9.62791 14.0231 9.4186L9.8371 2.44186C9.6278 2.09302 9.76734 1.67442 10.0464 1.53488L12.1394 0.139535C12.279 -1.3515e-07 12.4883 0 12.6278 0C12.8371 0.0697674 12.9766 0.139535 13.0464 0.348837L17.2325 7.32558C17.4418 7.67442 17.3022 8.09302 17.0231 8.23256L14.9301 9.62791C14.8604 9.69767 14.7208 9.76744 14.5813 9.76744ZM11.3022 2.30233L14.7906 8.09302L15.6976 7.46512L12.2092 1.67442L11.3022 2.30233Z" fill="black"/>
</svg>
