<svg width="38" height="32" viewBox="0 0 38 32" fill="none" xmlns="http://www.w3.org/2000/svg">
<path d="M23.5429 3.85714H27.2929C27.7716 3.85902 28.2302 4.05002 28.5687 4.38852C28.9072 4.72702 29.0982 5.18558 29.1 5.66428V7.76429C29.0982 8.24299 28.9072 8.70155 28.5687 9.04005C28.2302 9.37855 27.7716 9.56955 27.2929 9.57143H23.5429M29.6143 6.71429H37.4715M3.90004 4.57143H10.3286M3.90004 6.71429H10.3286M1.75718 23.8571H14.2072C14.694 23.8571 15.161 24.0505 15.5052 24.3948C15.8495 24.7391 16.0429 25.206 16.0429 25.6929V29.1643C16.0429 29.6511 15.8495 30.1181 15.5052 30.4623C15.161 30.8066 14.694 31 14.2072 31H3.5929C3.10604 31 2.63912 30.8066 2.29485 30.4623C1.95059 30.1181 1.75718 29.6511 1.75718 29.1643V23.8571ZM1.75718 23.8571L5.32861 12.4286M10.3286 12.4286L6.75718 23.8571M13.1858 12.4286C12.7933 13.3356 12.552 14.3007 12.4715 15.2857C12.4715 15.3429 12.4715 15.4 12.4715 15.4571C12.4531 15.7982 12.3041 16.1191 12.0554 16.3532C11.8066 16.5873 11.4773 16.7166 11.1358 16.7143H8.90004M3.76429 1H20.4571C21.9838 1 23.2214 2.23761 23.2214 3.76429V9.66429C23.2214 11.191 21.9838 12.4286 20.4571 12.4286H3.76429C2.23761 12.4286 1 11.191 1 9.66429V3.76429C1 2.23761 2.23761 1 3.76429 1Z" stroke="black" stroke-width="1.4" stroke-miterlimit="10"/>
</svg>
