<svg width="35" height="32" viewBox="0 0 35 32" fill="none" xmlns="http://www.w3.org/2000/svg">
<path d="M15.9881 11.3886C17.0487 11.3886 17.9259 10.5113 17.9259 9.45077C17.9259 8.39021 17.0487 7.51298 15.9881 7.51298C14.9276 7.51298 14.0503 8.39021 14.0503 9.45077C14.0503 10.5113 14.9276 11.3886 15.9881 11.3886ZM15.9881 8.71716C16.4236 8.71716 16.7574 9.05096 16.7574 9.48638C16.7574 9.92181 16.4236 10.2556 15.9881 10.2556C15.5527 10.2556 15.2189 9.92181 15.2189 9.48638C15.2189 9.05235 15.5869 8.71716 15.9881 8.71716Z" fill="black" stroke="black" stroke-width="0.1"/>
<path d="M19.2794 16.0046C19.2794 14.196 17.7967 12.7133 15.9881 12.7133C14.1796 12.7133 12.6968 14.196 12.6968 16.0046C12.6968 17.8131 14.1796 19.2959 15.9881 19.2959C17.7967 19.2959 19.2794 17.8131 19.2794 16.0046ZM15.9881 18.1273C14.8047 18.1273 13.8654 17.188 13.8654 16.0046C13.8654 14.8212 14.8047 13.8818 15.9881 13.8818C17.1715 13.8818 18.1109 14.8212 18.1109 16.0046C18.1109 17.188 17.1715 18.1273 15.9881 18.1273Z" fill="black" stroke="black" stroke-width="0.1"/>
<path d="M11.6186 14.5606L11.6187 14.5607L11.6192 14.5589C11.7652 14.0845 11.7291 13.5373 11.5096 13.0978C11.2894 12.6213 10.886 12.2918 10.3749 12.1455C9.35137 11.817 8.29084 12.3659 7.96196 13.3891L7.96195 13.3891L7.96177 13.3897C7.8158 13.8641 7.85187 14.4114 8.07134 14.8508C8.29129 15.3268 8.69413 15.6561 9.2044 15.8026C9.38855 15.8758 9.60755 15.9121 9.79049 15.9121C10.5963 15.9121 11.327 15.3991 11.6186 14.5606ZM9.38879 13.3048L9.38882 13.3049L9.3908 13.3036C9.48287 13.2422 9.60905 13.2407 9.71925 13.2407C9.75515 13.2407 9.79726 13.2407 9.83894 13.2449C9.88116 13.2491 9.91862 13.2573 9.94622 13.2711L9.94558 13.2723L9.95734 13.2751C10.3917 13.3753 10.6242 13.8084 10.491 14.2078C10.3581 14.6066 9.92452 14.8102 9.51953 14.7099C9.12194 14.5762 8.91916 14.1434 9.0193 13.739C9.08598 13.5406 9.21841 13.4071 9.38879 13.3048Z" fill="black" stroke="black" stroke-width="0.1"/>
<path d="M11.7095 21.9138L11.7096 21.9138L11.707 21.9119C11.3754 21.6799 11.3062 21.1774 11.5412 20.8418L11.5418 20.8408C11.6732 20.6437 11.9053 20.5425 12.1413 20.5425C12.3112 20.5425 12.4425 20.5761 12.5744 20.675L12.5744 20.675L12.575 20.6754C12.9447 20.9444 13.0103 21.4115 12.778 21.7448C12.643 21.9131 12.476 22.0126 12.2756 22.046C12.0728 22.0798 11.8743 22.0457 11.7095 21.9138ZM13.2741 19.7391C12.8733 19.4479 12.3614 19.3008 11.8476 19.4103C11.3349 19.4841 10.8966 19.7771 10.6049 20.1782C10.3133 20.5791 10.1659 21.0913 10.2755 21.6055C10.3493 22.1179 10.642 22.556 11.0427 22.8477C11.3736 23.1047 11.7765 23.2139 12.177 23.2139H12.1782C12.2308 23.2139 12.2861 23.2139 12.3373 23.2093C12.3857 23.2049 12.4345 23.196 12.4766 23.1767C12.9868 23.1015 13.4228 22.8092 13.7134 22.4097C14.005 22.0087 14.1524 21.4964 14.0427 20.9821C13.9694 20.5083 13.714 20.0328 13.2741 19.7391Z" fill="black" stroke="black" stroke-width="0.1"/>
<path d="M18.2626 22.4448L18.2626 22.4448L18.263 22.4453C18.555 22.8468 18.9939 23.1401 19.5074 23.2134L19.5073 23.2139H19.5144C19.5629 23.2139 19.6123 23.222 19.6613 23.2309C19.6663 23.2318 19.6713 23.2327 19.6763 23.2337C19.7183 23.2414 19.7624 23.2495 19.7994 23.2495C20.1999 23.2495 20.6029 23.1403 20.9338 22.8832C21.7737 22.262 21.9932 21.0567 21.3722 20.1793C20.7852 19.2996 19.5776 19.119 18.7019 19.7394C17.8236 20.3615 17.6417 21.5683 18.2626 22.4448ZM20.305 21.9119L20.3049 21.9118L20.3024 21.9138C20.1376 22.0457 19.9391 22.0798 19.7364 22.046C19.536 22.0126 19.3689 21.9131 19.2339 21.7448C19.0014 21.4111 19.0673 20.9432 19.4026 20.6745C19.5337 20.5765 19.6997 20.5425 19.835 20.5425C20.0711 20.5425 20.3031 20.6437 20.4345 20.8408L20.4344 20.8409L20.4371 20.8443C20.705 21.1792 20.6363 21.68 20.305 21.9119Z" fill="black" stroke="black" stroke-width="0.1"/>
<path d="M23.0998 12.2562L23.0998 12.2561L23.097 12.2549C22.6264 12.0377 22.1139 11.9625 21.635 12.1461C21.1582 12.2934 20.7579 12.659 20.504 13.0943L20.5038 13.0942L20.5018 13.0985C20.2846 13.5691 20.2094 14.0816 20.393 14.5606C20.5403 15.0374 20.9059 15.4377 21.3412 15.6916L21.3411 15.6917L21.344 15.6931C21.6351 15.8387 21.9276 15.9121 22.2212 15.9121C22.4043 15.9121 22.6235 15.8758 22.8078 15.8024C23.2844 15.6551 23.6846 15.2896 23.9385 14.8544L23.9387 14.8545L23.9407 14.8501C24.1579 14.3795 24.233 13.867 24.0494 13.3881C23.9027 12.9127 23.5734 12.5112 23.0998 12.2562ZM21.9877 13.3094L21.9879 13.3099L21.9943 13.3067C22.0219 13.2929 22.0593 13.2848 22.1015 13.2805C22.1432 13.2764 22.1853 13.2763 22.2212 13.2763C22.3526 13.2763 22.4515 13.3083 22.5563 13.3433C22.725 13.4454 22.8559 13.5788 22.9218 13.7764L22.9206 13.7768L22.9263 13.7863C23.0198 13.9421 22.993 14.1348 22.8897 14.342C22.7873 14.5122 22.6535 14.6442 22.4547 14.7105C22.2572 14.7763 22.0577 14.7448 21.8873 14.6774C21.7181 14.5751 21.5867 14.4415 21.5207 14.2435C21.4548 14.046 21.4863 13.8464 21.5538 13.676C21.6561 13.5068 21.7896 13.3754 21.9877 13.3094Z" fill="black" stroke="black" stroke-width="0.1"/>
<path d="M20.8194 6.52119L20.8194 6.52118L20.8186 6.52081C18.2786 5.26868 15.4156 5.01786 12.731 5.91266C7.14847 7.73782 4.10654 13.7143 5.93167 19.297L5.93169 19.2971C7.39893 23.7704 11.5502 26.6333 16.0236 26.6333C17.0976 26.6333 18.207 26.4543 19.2805 26.0965C21.9645 25.2376 24.1832 23.3408 25.4714 20.836L25.4715 20.8357C26.7598 18.2949 26.9745 15.4317 26.08 12.7122C25.221 10.0281 23.3243 7.80942 20.8194 6.52119ZM13.0829 7.04058L13.0831 7.04051C14.0392 6.72183 15.0311 6.58003 16.0236 6.58003C17.476 6.58003 18.9643 6.9343 20.311 7.60763C22.543 8.74138 24.208 10.6898 24.9876 13.0992C25.7671 15.5086 25.5545 18.0595 24.4207 20.2918C23.2869 22.5239 21.3028 24.2246 18.929 25.0041C13.9686 26.5985 8.65398 23.9058 7.02407 18.9455C5.42972 13.985 8.12255 8.67041 13.0829 7.04058Z" fill="black" stroke="black" stroke-width="0.1"/>
<path d="M20.6696 30.2996C23.0125 29.554 25.108 28.2094 26.8164 26.4762L28.7042 28.364C28.8237 28.4835 28.9811 28.5211 29.1313 28.5211C29.2901 28.5211 29.4446 28.4422 29.5585 28.3283L29.5585 28.3284L29.5601 28.3266C30.6319 27.1477 31.5246 25.8263 32.2742 24.4343L32.2748 24.433C35.7751 17.4682 34.4179 9.11 28.8459 3.64502C28.6127 3.41196 28.2606 3.41202 28.0274 3.6452L26.4948 5.17775C22.4933 1.34412 16.6515 -0.0364108 11.3423 1.67394L11.3422 1.67399C3.44425 4.24706 -0.879935 12.7524 1.69304 20.6503C2.90821 24.4744 5.58868 27.5835 9.16204 29.406C11.3065 30.514 13.6296 31.05 15.9881 31.05C17.5606 31.05 19.1331 30.7998 20.6696 30.2996ZM20.2826 29.2071L20.2825 29.2071C16.7688 30.3429 13.007 30.059 9.67069 28.3553C6.40541 26.6872 3.92117 23.8125 2.78553 20.299L2.78548 20.2989C0.407615 13.0233 4.41817 5.14438 11.6935 2.80206L11.6937 2.80201C16.5749 1.21032 21.9854 2.50942 25.6406 6.03197L24.2875 7.38515C24.1679 7.50469 24.1303 7.66213 24.1303 7.81231C24.1303 7.97104 24.2092 8.12559 24.3231 8.23947L24.3236 8.24C27.9051 11.7151 28.7563 17.0696 26.4867 21.5026C26.0611 22.3182 25.529 23.0987 24.9258 23.8083L24.9255 23.8087C24.7337 24.0388 24.7287 24.3906 24.9658 24.59L26.033 25.6572C24.4069 27.2731 22.4669 28.5025 20.2826 29.2071ZM31.1883 23.8891C30.5928 25.045 29.8938 26.0971 29.0572 27.0796L26.1349 24.1573C26.6594 23.4886 27.1151 22.7845 27.5018 22.0112C29.926 17.2696 29.1159 11.6391 25.5321 7.77792L28.4535 4.85651C33.2891 10.0053 34.412 17.5834 31.1883 23.8891Z" fill="black" stroke="black" stroke-width="0.1"/>
</svg>
