<svg width="26" height="30" viewBox="0 0 26 30" fill="none" xmlns="http://www.w3.org/2000/svg">
<path d="M24 0H3C2.1708 0 1.5 0.6708 1.5 1.5V3H0V4.5H1.5V7.5H0V9H1.5V12H0V13.5H1.5V16.5H0V18H1.5V21H0V22.5H1.5V25.5H0V27H1.5V28.5C1.5 29.3292 2.1708 30 3 30H24C24.8292 30 25.5 29.3292 25.5 28.5V1.5C25.5 0.6708 24.8292 0 24 0ZM24 28.5H3V27H4.5V25.5H3V22.5H4.5V21H3V18H4.5V16.5H3V13.5H4.5V12H3V9H4.5V7.5H3V4.5H4.5V3H3V1.5H24V28.5ZM22.5 4.5H7.5V15H22.5V4.5ZM21 13.5H9V6H21V13.5ZM19.5 9H10.5V7.5H19.5V9ZM19.5 12H10.5V10.5H19.5V12Z" fill="black"/>
</svg>
