<svg width="30" height="30" viewBox="0 0 30 30" fill="none" xmlns="http://www.w3.org/2000/svg">
<path d="M15 0C12.0333 0 9.13319 0.879735 6.66645 2.52796C4.19971 4.17618 2.27713 6.51886 1.14181 9.25975C0.00649883 12.0006 -0.290551 15.0166 0.288228 17.9263C0.867006 20.8361 2.29562 23.5088 4.3934 25.6066C6.49119 27.7044 9.16393 29.133 12.0736 29.7118C14.9834 30.2906 17.9994 29.9935 20.7403 28.8582C23.4811 27.7229 25.8238 25.8003 27.472 23.3335C29.1203 20.8668 30 17.9667 30 15C29.9949 11.0233 28.413 7.21094 25.601 4.39899C22.7891 1.58705 18.9767 0.00506747 15 0ZM20.3383 2.17363C23.0955 3.3336 25.4079 5.34733 26.9358 7.91893C27.0029 8.57006 27.0316 9.21162 27.046 9.6473L23.4456 10.2123L19.309 6.99968L18.3227 2.69071L20.3383 2.17363ZM12.8168 1.27833C14.2531 1.64698 16.2017 2.28854 17.188 2.61889L18.1455 6.76508L14.1238 9.18768V9.13501L7.17205 7.74657C7.10023 6.78902 6.95181 4.78774 6.8752 3.74401C8.63416 2.46611 10.6699 1.62132 12.8168 1.27833ZM3.78711 23.1918C2.61837 21.5986 1.8043 19.7736 1.39965 17.8395C0.994996 15.9054 1.00914 13.9071 1.44112 11.9789L2.99713 13.1759L4.94574 20.6735L3.78711 23.1918ZM4.12225 13.0849L6.89436 8.80466L13.6451 10.1548L15.1436 15.5123L10.6001 21.3725L5.93202 20.0559L4.12225 13.0849ZM15 28.8844C13.3851 28.8854 11.7825 28.6035 10.2649 28.0514L12.8934 26.73V26.797L20.9177 26.9167L21.3246 27.3667C19.3674 28.3692 17.199 28.8896 15 28.8844ZM20.9416 25.8011L13.4009 25.6862L11.4571 22.0571L16.015 16.1969L21.5257 16.3597L24.0967 22.1481L20.9416 25.8011ZM25.0543 21.5592L22.4019 15.5985L23.8382 11.2608L27.3763 10.691L28.7408 12.9269C29.1545 15.6746 28.7342 18.4832 27.5343 20.9895L25.0543 21.5592Z" fill="black"/>
</svg>
