<svg width="30" height="30" viewBox="0 0 30 30" fill="none" xmlns="http://www.w3.org/2000/svg">
<path d="M15.1327 15.1327L21.8168 8.44872C23.7533 6.51223 23.7533 3.38886 21.8168 1.45237C19.8803 -0.484123 16.7569 -0.484123 14.8204 1.45237L1.45237 14.8829C-0.484123 16.8194 -0.484123 19.9427 1.45237 21.8792C2.38938 22.8162 3.7012 23.316 4.95055 23.316C6.1999 23.316 7.44924 22.8162 8.44872 21.8792L15.1327 15.1327ZM15.7574 2.32691C16.507 1.5773 17.444 1.26497 18.3811 1.26497C19.3181 1.26497 20.2551 1.63977 21.0047 2.32691C21.6918 3.01405 22.0666 3.95107 22.0666 4.95055C22.0666 5.95003 21.6918 6.88704 21.0047 7.57418L14.7579 13.8209L9.57314 8.63613L15.7574 2.32691ZM7.51171 21.0047C6.82457 21.6918 5.88756 22.0666 4.88808 22.0666C3.8886 22.0666 2.95159 21.6918 2.26444 21.0047C0.827693 19.5679 0.827693 17.2566 2.26444 15.8199L8.51119 9.57314L13.696 14.7579L7.51171 21.0047Z" fill="black"/>
<path d="M21.9417 30C23.9407 30 26.0021 29.2504 27.5013 27.6887C30.5622 24.6278 30.5622 19.6304 27.5013 16.5695C24.4404 13.5086 19.443 13.5086 16.3821 16.5695C13.3212 19.6304 13.3212 24.6278 16.3821 27.6887C17.9438 29.2504 19.9427 30 21.9417 30ZM26.6268 26.8142C24.1905 29.2504 20.3175 29.3753 17.7564 27.2514L27.064 17.9438C29.1879 20.5049 29.063 24.3779 26.6268 26.8142ZM17.2566 17.444C18.5685 16.1322 20.2551 15.5075 21.9417 15.5075C23.4409 15.5075 24.9401 16.0073 26.127 17.0068L16.8194 26.3769C14.6955 23.7533 14.8204 19.8803 17.2566 17.444Z" fill="black"/>
</svg>
