<svg width="29" height="32" viewBox="0 0 29 32" fill="none" xmlns="http://www.w3.org/2000/svg">
<mask id="path-1-outside-1" maskUnits="userSpaceOnUse" x="0" y="0" width="29" height="32" fill="black">
<rect fill="white" width="29" height="32"/>
<path d="M14.5767 20.9497C12.5796 20.9497 11.0305 23.4139 11.0305 25.5336C11.0305 27.5644 12.4226 28.8772 14.5767 28.8772C16.7305 28.8772 18.1222 27.5546 18.1222 25.5087C18.1222 23.1648 16.3992 20.9497 14.5767 20.9497ZM14.5767 27.8657C13.8146 27.8657 12.0417 27.6385 12.0417 25.5333C12.0417 23.7637 13.3208 21.9605 14.5767 21.9605C15.8322 21.9605 17.111 23.7513 17.111 25.5073C17.111 27.6958 15.1713 27.8657 14.5767 27.8657ZM27.852 23.1746C27.4337 22.0134 26.6237 21.1094 25.5725 20.6288C24.8215 20.2705 24.0011 20.1522 23.1763 20.2752C22.8049 19.2509 22.088 17.9711 21.5446 17.0661C23.6108 16.1406 25.3362 14.5679 25.3362 11.8886C25.3362 10.6654 25.0386 9.4028 24.4521 8.12772C24.7561 7.94605 25.0254 7.71078 25.2395 7.43507C26.3093 5.96585 26.1172 3.18244 24.2606 1.79141C23.5498 1.27403 22.6684 1 21.7125 1C20.4519 1 19.2355 1.49581 18.5526 2.27576C16.1019 1.18032 13.3158 1.12134 10.6085 2.28115C9.94453 1.49783 8.73079 1 7.45234 1C6.48971 1 5.6046 1.27403 4.89274 1.79141C4.01538 2.42878 3.44811 3.42208 3.29408 4.58863C3.15454 5.64632 3.38643 6.70973 3.90887 7.42732C4.10942 7.71483 4.36996 7.94908 4.69859 8.13547C4.12088 9.39876 3.81787 10.6867 3.81787 11.8893C3.81787 14.3943 5.44922 16.0003 7.58716 16.9903C7.00203 17.9627 6.32826 19.231 5.97199 20.2483C5.12025 20.1377 4.28401 20.256 3.57889 20.5921C1.17096 21.733 0.302708 24.8265 1.60273 27.6335C2.27718 29.0909 3.46901 30.216 4.87251 30.7189C5.3963 30.9073 5.92986 31 6.45263 31C7.08866 31 7.70985 30.8625 8.2815 30.5864C8.689 30.3835 9.05268 30.1341 9.36682 29.8432C10.8236 30.5133 12.616 30.8662 14.5774 30.8662C16.538 30.8662 18.3291 30.5133 19.7849 29.8439C20.1199 30.1624 20.4762 30.4041 20.883 30.5912C21.9211 31.0836 23.1271 31.1271 24.2772 30.7135C25.6746 30.2113 26.8678 29.0896 27.5469 27.6412C28.2446 26.2023 28.3559 24.5747 27.852 23.1746ZM4.82836 11.8886C4.82836 10.6958 5.17384 9.3937 5.82773 8.123C5.89413 7.99391 5.90222 7.84257 5.84896 7.70775C5.79638 7.57327 5.68751 7.46676 5.55134 7.41721C5.1698 7.27834 4.91127 7.09734 4.73129 6.84051C4.35817 6.32784 4.19065 5.51486 4.29581 4.72143C4.41344 3.83228 4.83645 3.08233 5.48629 2.60911C6.16613 2.11464 6.9299 2.01184 7.45133 2.01184C8.46553 2.01184 9.43861 2.40755 9.88791 2.99942C9.90914 3.0375 9.93071 3.07053 9.95195 3.10289C9.96004 3.11536 9.96914 3.12716 9.97723 3.14368C10.1003 3.38905 10.3975 3.49118 10.6443 3.37456C13.3441 2.1015 16.1046 2.17262 18.4967 3.36883C18.6166 3.42916 18.7558 3.43927 18.8829 3.39647C19.01 3.35366 19.1151 3.26266 19.1751 3.14233C19.1829 3.12649 19.1917 3.11469 19.1994 3.10357C19.2206 3.07121 19.2409 3.0402 19.2621 3.00279C19.734 2.40889 20.7118 2.01252 21.7118 2.01252C22.2279 2.01252 22.9862 2.11599 23.659 2.60573C25.0376 3.63847 25.2027 5.76766 24.4305 6.82871C24.2293 7.08757 23.935 7.29688 23.601 7.41788C23.4649 7.46709 23.356 7.57327 23.3031 7.70775C23.2502 7.84325 23.2576 7.99526 23.3243 8.12368C23.9876 9.41325 24.324 10.6799 24.324 11.8893C24.324 17.2114 15.6876 17.3735 14.7024 17.3738C14.7024 17.3738 4.82836 17.3111 4.82836 11.8886ZM26.6342 27.2048C26.0652 28.4175 25.0817 29.3494 23.9347 29.7617C23.0402 30.0822 22.1096 30.0525 21.3101 29.6747C20.912 29.491 20.5908 29.2493 20.2682 28.8914C20.1149 28.7202 19.8658 28.6747 19.6615 28.7795C18.291 29.4826 16.5326 29.8543 14.5767 29.8543C12.6211 29.8543 10.8627 29.4819 9.49153 28.7795C9.2866 28.6747 9.03751 28.7208 8.88449 28.8914C8.60069 29.2079 8.24543 29.4741 7.83557 29.6781C7.04652 30.0593 6.11524 30.0903 5.21361 29.7664C4.06324 29.3542 3.0814 28.4215 2.51986 27.2074C1.45645 24.9101 2.11169 22.4057 4.01302 21.5051C4.64264 21.2048 5.42394 21.1377 6.20995 21.315C6.47454 21.3757 6.73778 21.2156 6.8089 20.9537C7.06607 20.0046 7.83793 18.5178 8.53429 17.3792C10.5765 18.1177 12.9002 18.385 14.6805 18.385H14.7051C15.2606 18.3843 18.0224 18.3324 20.5915 17.4429C21.128 18.3284 22.0667 19.9638 22.3452 20.9931C22.4176 21.2611 22.693 21.4205 22.961 21.3501C23.7112 21.1546 24.4639 21.221 25.14 21.5429C25.1424 21.5442 25.1447 21.5449 25.1471 21.5463L25.1498 21.5476C25.9537 21.9143 26.5752 22.6134 26.9005 23.5187C27.3127 24.6623 27.217 26.0048 26.6342 27.2048ZM12.9329 8.31142C12.9329 7.15936 11.9965 6.22234 10.8451 6.22234C9.69309 6.22234 8.75573 7.15936 8.75573 8.31142C8.75573 9.4628 9.69309 10.3995 10.8451 10.3995C11.9965 10.4002 12.9329 9.4628 12.9329 8.31142ZM10.8451 9.38899C10.2607 9.38899 9.7669 8.89587 9.7669 8.31209C9.7669 7.72797 10.2607 7.23419 10.8451 7.23419C11.4286 7.23419 11.9217 7.72797 11.9217 8.31209C11.9217 8.89587 11.4289 9.38899 10.8451 9.38899ZM17.2694 12.4909C17.2694 11.8097 16.9192 10.6661 14.5774 10.6661C12.791 10.6661 11.8856 11.2802 11.8856 12.4909C11.8856 13.7785 13.0866 15.3343 14.5774 15.3343C16.0682 15.3343 17.2694 13.7785 17.2694 12.4909ZM14.5767 14.3225C13.6488 14.3225 12.8961 13.2139 12.8961 12.4902C12.8961 12.2263 12.8961 11.6766 14.5767 11.6766C16.2573 11.6766 16.2573 12.2678 16.2573 12.4902C16.2583 13.2139 15.5043 14.3225 14.5767 14.3225ZM18.3089 10.3621C19.4809 10.3621 20.398 9.44426 20.398 8.27367C20.398 7.12161 19.461 6.18426 18.3089 6.18426C17.1569 6.18426 16.2202 7.12161 16.2202 8.27367C16.2192 9.42505 17.1569 10.3621 18.3089 10.3621ZM18.3089 7.19543C18.893 7.19543 19.3868 7.68921 19.3868 8.27367C19.3868 8.87801 18.9133 9.3509 18.3089 9.3509C17.7248 9.3509 17.2313 8.85711 17.2313 8.27367C17.2303 7.68921 17.7241 7.19543 18.3089 7.19543Z"/>
</mask>
<path d="M14.5767 20.9497C12.5796 20.9497 11.0305 23.4139 11.0305 25.5336C11.0305 27.5644 12.4226 28.8772 14.5767 28.8772C16.7305 28.8772 18.1222 27.5546 18.1222 25.5087C18.1222 23.1648 16.3992 20.9497 14.5767 20.9497ZM14.5767 27.8657C13.8146 27.8657 12.0417 27.6385 12.0417 25.5333C12.0417 23.7637 13.3208 21.9605 14.5767 21.9605C15.8322 21.9605 17.111 23.7513 17.111 25.5073C17.111 27.6958 15.1713 27.8657 14.5767 27.8657ZM27.852 23.1746C27.4337 22.0134 26.6237 21.1094 25.5725 20.6288C24.8215 20.2705 24.0011 20.1522 23.1763 20.2752C22.8049 19.2509 22.088 17.9711 21.5446 17.0661C23.6108 16.1406 25.3362 14.5679 25.3362 11.8886C25.3362 10.6654 25.0386 9.4028 24.4521 8.12772C24.7561 7.94605 25.0254 7.71078 25.2395 7.43507C26.3093 5.96585 26.1172 3.18244 24.2606 1.79141C23.5498 1.27403 22.6684 1 21.7125 1C20.4519 1 19.2355 1.49581 18.5526 2.27576C16.1019 1.18032 13.3158 1.12134 10.6085 2.28115C9.94453 1.49783 8.73079 1 7.45234 1C6.48971 1 5.6046 1.27403 4.89274 1.79141C4.01538 2.42878 3.44811 3.42208 3.29408 4.58863C3.15454 5.64632 3.38643 6.70973 3.90887 7.42732C4.10942 7.71483 4.36996 7.94908 4.69859 8.13547C4.12088 9.39876 3.81787 10.6867 3.81787 11.8893C3.81787 14.3943 5.44922 16.0003 7.58716 16.9903C7.00203 17.9627 6.32826 19.231 5.97199 20.2483C5.12025 20.1377 4.28401 20.256 3.57889 20.5921C1.17096 21.733 0.302708 24.8265 1.60273 27.6335C2.27718 29.0909 3.46901 30.216 4.87251 30.7189C5.3963 30.9073 5.92986 31 6.45263 31C7.08866 31 7.70985 30.8625 8.2815 30.5864C8.689 30.3835 9.05268 30.1341 9.36682 29.8432C10.8236 30.5133 12.616 30.8662 14.5774 30.8662C16.538 30.8662 18.3291 30.5133 19.7849 29.8439C20.1199 30.1624 20.4762 30.4041 20.883 30.5912C21.9211 31.0836 23.1271 31.1271 24.2772 30.7135C25.6746 30.2113 26.8678 29.0896 27.5469 27.6412C28.2446 26.2023 28.3559 24.5747 27.852 23.1746ZM4.82836 11.8886C4.82836 10.6958 5.17384 9.3937 5.82773 8.123C5.89413 7.99391 5.90222 7.84257 5.84896 7.70775C5.79638 7.57327 5.68751 7.46676 5.55134 7.41721C5.1698 7.27834 4.91127 7.09734 4.73129 6.84051C4.35817 6.32784 4.19065 5.51486 4.29581 4.72143C4.41344 3.83228 4.83645 3.08233 5.48629 2.60911C6.16613 2.11464 6.9299 2.01184 7.45133 2.01184C8.46553 2.01184 9.43861 2.40755 9.88791 2.99942C9.90914 3.0375 9.93071 3.07053 9.95195 3.10289C9.96004 3.11536 9.96914 3.12716 9.97723 3.14368C10.1003 3.38905 10.3975 3.49118 10.6443 3.37456C13.3441 2.1015 16.1046 2.17262 18.4967 3.36883C18.6166 3.42916 18.7558 3.43927 18.8829 3.39647C19.01 3.35366 19.1151 3.26266 19.1751 3.14233C19.1829 3.12649 19.1917 3.11469 19.1994 3.10357C19.2206 3.07121 19.2409 3.0402 19.2621 3.00279C19.734 2.40889 20.7118 2.01252 21.7118 2.01252C22.2279 2.01252 22.9862 2.11599 23.659 2.60573C25.0376 3.63847 25.2027 5.76766 24.4305 6.82871C24.2293 7.08757 23.935 7.29688 23.601 7.41788C23.4649 7.46709 23.356 7.57327 23.3031 7.70775C23.2502 7.84325 23.2576 7.99526 23.3243 8.12368C23.9876 9.41325 24.324 10.6799 24.324 11.8893C24.324 17.2114 15.6876 17.3735 14.7024 17.3738C14.7024 17.3738 4.82836 17.3111 4.82836 11.8886ZM26.6342 27.2048C26.0652 28.4175 25.0817 29.3494 23.9347 29.7617C23.0402 30.0822 22.1096 30.0525 21.3101 29.6747C20.912 29.491 20.5908 29.2493 20.2682 28.8914C20.1149 28.7202 19.8658 28.6747 19.6615 28.7795C18.291 29.4826 16.5326 29.8543 14.5767 29.8543C12.6211 29.8543 10.8627 29.4819 9.49153 28.7795C9.2866 28.6747 9.03751 28.7208 8.88449 28.8914C8.60069 29.2079 8.24543 29.4741 7.83557 29.6781C7.04652 30.0593 6.11524 30.0903 5.21361 29.7664C4.06324 29.3542 3.0814 28.4215 2.51986 27.2074C1.45645 24.9101 2.11169 22.4057 4.01302 21.5051C4.64264 21.2048 5.42394 21.1377 6.20995 21.315C6.47454 21.3757 6.73778 21.2156 6.8089 20.9537C7.06607 20.0046 7.83793 18.5178 8.53429 17.3792C10.5765 18.1177 12.9002 18.385 14.6805 18.385H14.7051C15.2606 18.3843 18.0224 18.3324 20.5915 17.4429C21.128 18.3284 22.0667 19.9638 22.3452 20.9931C22.4176 21.2611 22.693 21.4205 22.961 21.3501C23.7112 21.1546 24.4639 21.221 25.14 21.5429C25.1424 21.5442 25.1447 21.5449 25.1471 21.5463L25.1498 21.5476C25.9537 21.9143 26.5752 22.6134 26.9005 23.5187C27.3127 24.6623 27.217 26.0048 26.6342 27.2048ZM12.9329 8.31142C12.9329 7.15936 11.9965 6.22234 10.8451 6.22234C9.69309 6.22234 8.75573 7.15936 8.75573 8.31142C8.75573 9.4628 9.69309 10.3995 10.8451 10.3995C11.9965 10.4002 12.9329 9.4628 12.9329 8.31142ZM10.8451 9.38899C10.2607 9.38899 9.7669 8.89587 9.7669 8.31209C9.7669 7.72797 10.2607 7.23419 10.8451 7.23419C11.4286 7.23419 11.9217 7.72797 11.9217 8.31209C11.9217 8.89587 11.4289 9.38899 10.8451 9.38899ZM17.2694 12.4909C17.2694 11.8097 16.9192 10.6661 14.5774 10.6661C12.791 10.6661 11.8856 11.2802 11.8856 12.4909C11.8856 13.7785 13.0866 15.3343 14.5774 15.3343C16.0682 15.3343 17.2694 13.7785 17.2694 12.4909ZM14.5767 14.3225C13.6488 14.3225 12.8961 13.2139 12.8961 12.4902C12.8961 12.2263 12.8961 11.6766 14.5767 11.6766C16.2573 11.6766 16.2573 12.2678 16.2573 12.4902C16.2583 13.2139 15.5043 14.3225 14.5767 14.3225ZM18.3089 10.3621C19.4809 10.3621 20.398 9.44426 20.398 8.27367C20.398 7.12161 19.461 6.18426 18.3089 6.18426C17.1569 6.18426 16.2202 7.12161 16.2202 8.27367C16.2192 9.42505 17.1569 10.3621 18.3089 10.3621ZM18.3089 7.19543C18.893 7.19543 19.3868 7.68921 19.3868 8.27367C19.3868 8.87801 18.9133 9.3509 18.3089 9.3509C17.7248 9.3509 17.2313 8.85711 17.2313 8.27367C17.2303 7.68921 17.7241 7.19543 18.3089 7.19543Z" fill="black"/>
<path d="M14.5767 20.9497C12.5796 20.9497 11.0305 23.4139 11.0305 25.5336C11.0305 27.5644 12.4226 28.8772 14.5767 28.8772C16.7305 28.8772 18.1222 27.5546 18.1222 25.5087C18.1222 23.1648 16.3992 20.9497 14.5767 20.9497ZM14.5767 27.8657C13.8146 27.8657 12.0417 27.6385 12.0417 25.5333C12.0417 23.7637 13.3208 21.9605 14.5767 21.9605C15.8322 21.9605 17.111 23.7513 17.111 25.5073C17.111 27.6958 15.1713 27.8657 14.5767 27.8657ZM27.852 23.1746C27.4337 22.0134 26.6237 21.1094 25.5725 20.6288C24.8215 20.2705 24.0011 20.1522 23.1763 20.2752C22.8049 19.2509 22.088 17.9711 21.5446 17.0661C23.6108 16.1406 25.3362 14.5679 25.3362 11.8886C25.3362 10.6654 25.0386 9.4028 24.4521 8.12772C24.7561 7.94605 25.0254 7.71078 25.2395 7.43507C26.3093 5.96585 26.1172 3.18244 24.2606 1.79141C23.5498 1.27403 22.6684 1 21.7125 1C20.4519 1 19.2355 1.49581 18.5526 2.27576C16.1019 1.18032 13.3158 1.12134 10.6085 2.28115C9.94453 1.49783 8.73079 1 7.45234 1C6.48971 1 5.6046 1.27403 4.89274 1.79141C4.01538 2.42878 3.44811 3.42208 3.29408 4.58863C3.15454 5.64632 3.38643 6.70973 3.90887 7.42732C4.10942 7.71483 4.36996 7.94908 4.69859 8.13547C4.12088 9.39876 3.81787 10.6867 3.81787 11.8893C3.81787 14.3943 5.44922 16.0003 7.58716 16.9903C7.00203 17.9627 6.32826 19.231 5.97199 20.2483C5.12025 20.1377 4.28401 20.256 3.57889 20.5921C1.17096 21.733 0.302708 24.8265 1.60273 27.6335C2.27718 29.0909 3.46901 30.216 4.87251 30.7189C5.3963 30.9073 5.92986 31 6.45263 31C7.08866 31 7.70985 30.8625 8.2815 30.5864C8.689 30.3835 9.05268 30.1341 9.36682 29.8432C10.8236 30.5133 12.616 30.8662 14.5774 30.8662C16.538 30.8662 18.3291 30.5133 19.7849 29.8439C20.1199 30.1624 20.4762 30.4041 20.883 30.5912C21.9211 31.0836 23.1271 31.1271 24.2772 30.7135C25.6746 30.2113 26.8678 29.0896 27.5469 27.6412C28.2446 26.2023 28.3559 24.5747 27.852 23.1746ZM4.82836 11.8886C4.82836 10.6958 5.17384 9.3937 5.82773 8.123C5.89413 7.99391 5.90222 7.84257 5.84896 7.70775C5.79638 7.57327 5.68751 7.46676 5.55134 7.41721C5.1698 7.27834 4.91127 7.09734 4.73129 6.84051C4.35817 6.32784 4.19065 5.51486 4.29581 4.72143C4.41344 3.83228 4.83645 3.08233 5.48629 2.60911C6.16613 2.11464 6.9299 2.01184 7.45133 2.01184C8.46553 2.01184 9.43861 2.40755 9.88791 2.99942C9.90914 3.0375 9.93071 3.07053 9.95195 3.10289C9.96004 3.11536 9.96914 3.12716 9.97723 3.14368C10.1003 3.38905 10.3975 3.49118 10.6443 3.37456C13.3441 2.1015 16.1046 2.17262 18.4967 3.36883C18.6166 3.42916 18.7558 3.43927 18.8829 3.39647C19.01 3.35366 19.1151 3.26266 19.1751 3.14233C19.1829 3.12649 19.1917 3.11469 19.1994 3.10357C19.2206 3.07121 19.2409 3.0402 19.2621 3.00279C19.734 2.40889 20.7118 2.01252 21.7118 2.01252C22.2279 2.01252 22.9862 2.11599 23.659 2.60573C25.0376 3.63847 25.2027 5.76766 24.4305 6.82871C24.2293 7.08757 23.935 7.29688 23.601 7.41788C23.4649 7.46709 23.356 7.57327 23.3031 7.70775C23.2502 7.84325 23.2576 7.99526 23.3243 8.12368C23.9876 9.41325 24.324 10.6799 24.324 11.8893C24.324 17.2114 15.6876 17.3735 14.7024 17.3738C14.7024 17.3738 4.82836 17.3111 4.82836 11.8886ZM26.6342 27.2048C26.0652 28.4175 25.0817 29.3494 23.9347 29.7617C23.0402 30.0822 22.1096 30.0525 21.3101 29.6747C20.912 29.491 20.5908 29.2493 20.2682 28.8914C20.1149 28.7202 19.8658 28.6747 19.6615 28.7795C18.291 29.4826 16.5326 29.8543 14.5767 29.8543C12.6211 29.8543 10.8627 29.4819 9.49153 28.7795C9.2866 28.6747 9.03751 28.7208 8.88449 28.8914C8.60069 29.2079 8.24543 29.4741 7.83557 29.6781C7.04652 30.0593 6.11524 30.0903 5.21361 29.7664C4.06324 29.3542 3.0814 28.4215 2.51986 27.2074C1.45645 24.9101 2.11169 22.4057 4.01302 21.5051C4.64264 21.2048 5.42394 21.1377 6.20995 21.315C6.47454 21.3757 6.73778 21.2156 6.8089 20.9537C7.06607 20.0046 7.83793 18.5178 8.53429 17.3792C10.5765 18.1177 12.9002 18.385 14.6805 18.385H14.7051C15.2606 18.3843 18.0224 18.3324 20.5915 17.4429C21.128 18.3284 22.0667 19.9638 22.3452 20.9931C22.4176 21.2611 22.693 21.4205 22.961 21.3501C23.7112 21.1546 24.4639 21.221 25.14 21.5429C25.1424 21.5442 25.1447 21.5449 25.1471 21.5463L25.1498 21.5476C25.9537 21.9143 26.5752 22.6134 26.9005 23.5187C27.3127 24.6623 27.217 26.0048 26.6342 27.2048ZM12.9329 8.31142C12.9329 7.15936 11.9965 6.22234 10.8451 6.22234C9.69309 6.22234 8.75573 7.15936 8.75573 8.31142C8.75573 9.4628 9.69309 10.3995 10.8451 10.3995C11.9965 10.4002 12.9329 9.4628 12.9329 8.31142ZM10.8451 9.38899C10.2607 9.38899 9.7669 8.89587 9.7669 8.31209C9.7669 7.72797 10.2607 7.23419 10.8451 7.23419C11.4286 7.23419 11.9217 7.72797 11.9217 8.31209C11.9217 8.89587 11.4289 9.38899 10.8451 9.38899ZM17.2694 12.4909C17.2694 11.8097 16.9192 10.6661 14.5774 10.6661C12.791 10.6661 11.8856 11.2802 11.8856 12.4909C11.8856 13.7785 13.0866 15.3343 14.5774 15.3343C16.0682 15.3343 17.2694 13.7785 17.2694 12.4909ZM14.5767 14.3225C13.6488 14.3225 12.8961 13.2139 12.8961 12.4902C12.8961 12.2263 12.8961 11.6766 14.5767 11.6766C16.2573 11.6766 16.2573 12.2678 16.2573 12.4902C16.2583 13.2139 15.5043 14.3225 14.5767 14.3225ZM18.3089 10.3621C19.4809 10.3621 20.398 9.44426 20.398 8.27367C20.398 7.12161 19.461 6.18426 18.3089 6.18426C17.1569 6.18426 16.2202 7.12161 16.2202 8.27367C16.2192 9.42505 17.1569 10.3621 18.3089 10.3621ZM18.3089 7.19543C18.893 7.19543 19.3868 7.68921 19.3868 8.27367C19.3868 8.87801 18.9133 9.3509 18.3089 9.3509C17.7248 9.3509 17.2313 8.85711 17.2313 8.27367C17.2303 7.68921 17.7241 7.19543 18.3089 7.19543Z" stroke="black" stroke-width="0.3" mask="url(#path-1-outside-1)"/>
</svg>
