<svg width="33" height="28" viewBox="0 0 33 28" fill="none" xmlns="http://www.w3.org/2000/svg">
<path d="M24.1427 2.46448L24.1426 2.46431C23.7072 1.52548 22.7617 0.92 21.7274 0.92H11.9477C10.9132 0.92 9.9744 1.5257 9.5391 2.46431L9.53909 2.46434L8.26717 5.20934H3.6C2.1381 5.20934 0.92 6.39892 0.92 7.86294V24.4264C0.92 25.8904 2.1381 27.08 3.6 27.08H30.0751C31.537 27.08 32.7551 25.8904 32.7551 24.4264V7.86294C32.7551 6.39892 31.537 5.20934 30.0751 5.20934H25.4081L24.1427 2.46448ZM31.4271 24.3464H31.4073V24.4264C31.4073 25.1457 30.7984 25.7322 30.0751 25.7322H3.6C2.87673 25.7322 2.26782 25.1457 2.26782 24.4264V7.86294C2.26782 7.14359 2.87673 6.55716 3.6 6.55716H8.70101C8.96384 6.55716 9.20232 6.39995 9.31415 6.16886L9.31472 6.16763L10.7665 3.03311L10.7666 3.03289C10.9778 2.57313 11.4443 2.27442 11.9543 2.27442H21.7406C22.25 2.27442 22.7105 2.57254 22.9286 3.03342C22.9286 3.03351 22.9286 3.0336 22.9287 3.0337L24.3802 6.16763L24.3804 6.16796C24.492 6.40613 24.7307 6.56376 24.9939 6.56376H30.0949C30.8182 6.56376 31.4271 7.15019 31.4271 7.86954V24.3464ZM16.8376 7.28802C12.2599 7.28802 8.53523 11.0127 8.53523 15.5904C8.53523 20.168 12.2599 23.8927 16.8376 23.8927C21.4153 23.8927 25.1399 20.1614 25.1399 15.5838C25.1399 11.006 21.4152 7.28802 16.8376 7.28802ZM16.8376 22.5383C13.0015 22.5383 9.88305 19.4198 9.88305 15.5838C9.88305 11.7477 13.0015 8.62924 16.8376 8.62924C20.6735 8.62924 23.7921 11.7543 23.7921 15.5838C23.7921 19.4198 20.6736 22.5383 16.8376 22.5383ZM7.20305 9.10274H4.69543C4.3213 9.10274 4.02152 9.40252 4.02152 9.77665C4.02152 10.1508 4.3213 10.4506 4.69543 10.4506H7.20305C7.57718 10.4506 7.87695 10.1508 7.87695 9.77665C7.87695 9.40252 7.57718 9.10274 7.20305 9.10274Z" fill="black" stroke="black" stroke-width="0.16"/>
</svg>
