<svg width="38" height="30" viewBox="0 0 38 30" fill="none" xmlns="http://www.w3.org/2000/svg">
<path d="M8.23967 20.1528H11.6681C12.2086 20.1561 12.7315 19.9615 13.1384 19.6058C13.5453 19.25 13.8079 18.7577 13.8768 18.2216C13.9457 17.6856 13.816 17.1429 13.5123 16.6958C13.2086 16.2488 12.7518 15.9283 12.2281 15.7949L8.79965 14.8997C8.47208 14.8134 8.12907 14.8034 7.79704 14.8706C7.46502 14.9377 7.15284 15.0802 6.88456 15.287C6.61628 15.4939 6.39906 15.7595 6.24962 16.0635C6.10018 16.3675 6.02252 16.7018 6.02262 17.0405V17.9357C6.02262 18.5237 6.2562 19.0876 6.67198 19.5034C7.08776 19.9192 7.65167 20.1528 8.23967 20.1528ZM7.55017 17.0405C7.55021 16.9351 7.57443 16.831 7.62098 16.7364C7.66754 16.6418 7.73517 16.5591 7.8187 16.4947C7.90222 16.4303 7.9994 16.3859 8.10276 16.365C8.20612 16.344 8.3129 16.3471 8.4149 16.3739L11.8433 17.2691C12.0089 17.3086 12.1539 17.408 12.2506 17.5481C12.3472 17.6882 12.3887 17.859 12.3669 18.0278C12.3452 18.1966 12.2618 18.3514 12.1328 18.4624C12.0037 18.5734 11.8382 18.6327 11.6681 18.629H8.23967C8.05711 18.628 7.88232 18.5551 7.75323 18.426C7.62414 18.2969 7.55117 18.1221 7.55017 17.9395V17.0405ZM28.5322 14.8997L25.1038 15.7949C24.5797 15.9284 24.1226 16.2491 23.8189 16.6966C23.5152 17.144 23.3858 17.6872 23.4552 18.2236C23.5246 18.7599 23.7879 19.2523 24.1955 19.6077C24.6031 19.9631 25.1268 20.157 25.6675 20.1528H29.096C29.6827 20.1518 30.245 19.9183 30.6599 19.5034C31.0747 19.0886 31.3082 18.5262 31.3092 17.9395V17.0405C31.3093 16.7018 31.2317 16.3675 31.0822 16.0635C30.9328 15.7595 30.7156 15.4939 30.4473 15.287C30.179 15.0802 29.8668 14.9377 29.5348 14.8706C29.2028 14.8034 28.8598 14.8134 28.5322 14.8997ZM29.515 16.4958C29.5995 16.56 29.6679 16.643 29.7148 16.7382C29.7617 16.8334 29.7859 16.9382 29.7855 17.0443V17.9395C29.7845 18.1221 29.7115 18.2969 29.5824 18.426C29.4533 18.5551 29.2785 18.628 29.096 18.629H25.6675C25.4974 18.6327 25.3319 18.5734 25.2029 18.4624C25.0739 18.3514 24.9905 18.1966 24.9687 18.0278C24.947 17.859 24.9884 17.6882 25.0851 17.5481C25.1817 17.408 25.3268 17.3086 25.4923 17.2691L28.9207 16.3739C28.9779 16.3588 29.0368 16.3511 29.096 16.351C29.2478 16.3515 29.3952 16.4025 29.515 16.4958ZM8.76155 12.0541H28.5703C28.6948 12.0542 28.8174 12.0238 28.9274 11.9656C29.0374 11.9074 29.1315 11.8231 29.2014 11.7201C29.2713 11.6171 29.3149 11.4986 29.3284 11.3748C29.3419 11.2511 29.3249 11.1259 29.2788 11.0103C28.635 9.38368 27.3741 6.3819 26.7266 5.45622C26.2618 4.78958 25.5837 4.43531 24.4181 4.2296C22.5146 3.94406 20.5901 3.82299 18.6659 3.86771C16.7469 3.82282 14.8276 3.94262 12.929 4.22579C11.7519 4.4315 11.0853 4.78577 10.6205 5.45622C9.97674 6.3819 8.71584 9.38368 8.06825 11.0103C8.02264 11.1247 8.00547 11.2485 8.01821 11.3711C8.03094 11.4936 8.0732 11.6112 8.14137 11.7139C8.20954 11.8165 8.30157 11.901 8.40959 11.9603C8.5176 12.0195 8.63838 12.0517 8.76155 12.0541ZM11.8586 6.33999C11.9729 6.17238 12.1481 5.92096 13.1804 5.74192C14.9956 5.46943 16.8308 5.35218 18.6659 5.39146C20.4969 5.34876 22.3282 5.46218 24.14 5.73049C25.1685 5.90954 25.3438 6.16095 25.458 6.32476C26.212 7.67302 26.8689 9.07334 27.4237 10.5151H9.90437C10.4598 9.07485 11.1166 7.67584 11.87 6.32857L11.8586 6.33999ZM2.21324 14.2444C1.54346 15.5376 1.21067 16.9788 1.24566 18.4347V27.3715C1.24667 28.0683 1.52392 28.7363 2.01664 29.229C2.50935 29.7217 3.17733 29.999 3.87413 30H6.28546C6.98227 29.999 7.65024 29.7217 8.14296 29.229C8.63567 28.7363 8.91292 28.0683 8.91393 27.3715V26.7316H28.4179V27.3715C28.4189 28.0683 28.6962 28.7363 29.1889 29.229C29.6816 29.7217 30.3496 29.999 31.0464 30H33.4615C34.1583 29.999 34.8263 29.7217 35.319 29.229C35.8117 28.7363 36.089 28.0683 36.09 27.3715V18.4576C36.124 17.0018 35.7913 15.5608 35.1224 14.2673C35.7355 14.1607 36.292 13.8429 36.6955 13.3692C37.0991 12.8954 37.3242 12.2954 37.3318 11.6731C37.3318 11.1398 37.3318 10.7055 37.3318 10.3017C37.3155 9.62927 37.0416 8.98874 36.5666 8.51238C36.0917 8.03602 35.452 7.76019 34.7796 7.74184C34.5434 7.74184 34.3034 7.74184 34.0558 7.74184C33.4408 7.75442 32.8397 7.92636 32.3111 8.24087C31.6635 6.68284 30.6312 4.33246 29.8921 3.26583C28.4827 1.24306 26.4637 0.683078 25.0809 0.439279C22.9592 0.108848 20.8127 -0.0351886 18.6659 0.00881955C16.5245 -0.0380792 14.3832 0.10213 12.2662 0.42785C10.8758 0.67165 8.8606 1.22782 7.45113 3.2544C6.71211 4.32103 5.67977 6.68284 5.03218 8.22944C4.50101 7.91447 3.89728 7.74254 3.27987 7.73041C3.03988 7.73041 2.8037 7.73041 2.56752 7.73041C1.8905 7.74502 1.24532 8.02073 0.766839 8.49992C0.288358 8.97912 0.0136022 9.6247 0 10.3017C0 10.6827 0 11.136 0 11.6731C0.0131211 12.292 0.241139 12.887 0.644955 13.3562C1.04877 13.8253 1.60323 14.1393 2.21324 14.2444ZM1.52375 10.3589C1.52374 10.0712 1.63748 9.79528 1.84015 9.59118C2.04282 9.38708 2.31798 9.27141 2.60561 9.2694H3.26082C3.85994 9.30244 4.42393 9.56264 4.8379 9.99699C4.92821 10.0815 5.03771 10.1427 5.15697 10.1754C5.27622 10.208 5.40164 10.2112 5.52239 10.1846C5.64314 10.158 5.7556 10.1023 5.85005 10.0225C5.9445 9.94273 6.01811 9.84114 6.06452 9.72653C7.12733 7.08663 8.13682 4.94576 8.6968 4.14199C9.76723 2.61824 11.3024 2.16111 12.5062 1.94779C14.5369 1.64343 16.5903 1.51597 18.6431 1.56685C20.6959 1.51595 22.7492 1.64341 24.78 1.94779C25.999 2.16111 27.5341 2.603 28.5893 4.14199C29.1493 4.94957 30.1588 7.08663 31.2216 9.72653C31.268 9.84114 31.3416 9.94273 31.4361 10.0225C31.5305 10.1023 31.643 10.158 31.7637 10.1846C31.8845 10.2112 32.0099 10.208 32.1292 10.1754C32.2484 10.1427 32.3579 10.0815 32.4482 9.99699C32.8591 9.56494 33.4187 9.30491 34.0139 9.2694H34.6805C34.8268 9.26428 34.9725 9.28868 35.1092 9.34114C35.2458 9.39359 35.3704 9.47303 35.4756 9.57472C35.5809 9.6764 35.6646 9.79824 35.7217 9.93296C35.7788 10.0677 35.8082 10.2125 35.8081 10.3589C35.8081 10.7398 35.8081 11.1208 35.8081 11.6388C35.8081 11.9419 35.6877 12.2326 35.4734 12.4469C35.2591 12.6612 34.9684 12.7816 34.6653 12.7816H33.7663C33.6248 12.7816 33.4861 12.821 33.3657 12.8954C33.2454 12.9698 33.1481 13.0762 33.0848 13.2028C33.0216 13.3293 32.9948 13.471 33.0075 13.6119C33.0202 13.7529 33.0719 13.8874 33.1568 14.0006C33.2431 14.1149 33.3257 14.2305 33.4044 14.3473C34.1979 15.5635 34.5969 16.9949 34.5472 18.4462V27.3715C34.5472 27.6645 34.4308 27.9455 34.2236 28.1527C34.0164 28.3599 33.7355 28.4763 33.4425 28.4763H31.0464C30.7534 28.4763 30.4724 28.3599 30.2652 28.1527C30.058 27.9455 29.9417 27.6645 29.9417 27.3715V25.9697C29.9417 25.7676 29.8614 25.5738 29.7185 25.431C29.5756 25.2881 29.3818 25.2078 29.1798 25.2078H8.15205C7.94999 25.2078 7.75621 25.2881 7.61333 25.431C7.47045 25.5738 7.39018 25.7676 7.39018 25.9697V27.3715C7.39018 27.5166 7.36161 27.6603 7.30609 27.7943C7.25057 27.9283 7.1692 28.0501 7.06662 28.1527C6.96403 28.2553 6.84225 28.3366 6.70822 28.3922C6.57419 28.4477 6.43054 28.4763 6.28546 28.4763H3.86651C3.72144 28.4763 3.57779 28.4477 3.44376 28.3922C3.30972 28.3366 3.18794 28.2553 3.08536 28.1527C2.98278 28.0501 2.9014 27.9283 2.84589 27.7943C2.79037 27.6603 2.76179 27.5166 2.76179 27.3715V18.4347C2.71445 16.9885 3.11345 15.5627 3.90461 14.3511C3.98333 14.2343 4.06587 14.1187 4.15222 14.0044C4.23711 13.8913 4.28881 13.7567 4.30151 13.6157C4.31422 13.4748 4.28743 13.3332 4.22416 13.2066C4.16088 13.0801 4.06361 12.9736 3.94326 12.8992C3.8229 12.8248 3.6842 12.7854 3.54272 12.7854H3.43605L2.66656 12.774C2.36347 12.774 2.07279 12.6536 1.85847 12.4393C1.64415 12.225 1.52375 11.9343 1.52375 11.6312C1.52375 11.1322 1.52375 10.7246 1.52375 10.3589Z" fill="#FF6600"/>
</svg>
