<svg width="30" height="30" viewBox="0 0 30 30" fill="none" xmlns="http://www.w3.org/2000/svg">
<path d="M15.381 23.6422C13.8924 23.6422 12.4607 23.3438 11.1773 22.7234C10.3216 22.3091 9.55464 21.7658 8.8973 21.1082C8.2355 20.4464 7.69015 19.6774 7.27614 18.8222C5.22549 14.5622 6.70369 8.67742 10.8705 4.51059C13.3298 2.05101 16.3937 0.482564 19.4972 0.0938791C22.6565 -0.303146 25.4872 0.567747 27.4625 2.54274C29.4351 4.51536 30.303 7.34219 29.9063 10.5032C29.5167 13.6064 27.9476 16.6697 25.4886 19.1287C22.5751 22.0425 18.8262 23.6422 15.381 23.6422ZM20.9629 1.22062C20.534 1.22062 20.0953 1.24832 19.6488 1.30431C16.8128 1.65964 14.0017 3.10448 11.7331 5.37315C7.92663 9.17958 6.54583 14.4919 8.37489 18.2921C8.72872 19.0227 9.19485 19.6803 9.75986 20.2456C10.3207 20.8065 10.9762 21.2705 11.7086 21.6252C15.502 23.4591 20.8149 22.0777 24.6261 18.2662C26.8945 15.9978 28.3396 13.1868 28.6958 10.351C29.0446 7.57242 28.3003 5.10568 26.5999 3.4053C25.1706 1.97595 23.2018 1.22062 20.9629 1.22062Z" fill="black"/>
<path d="M15.535 20.9295C14.4926 20.9295 13.4975 20.7332 12.6049 20.3246C11.9517 20.0252 11.37 19.6229 10.8753 19.1287C10.3779 18.6313 9.97401 18.0479 9.67497 17.3947C8.21316 14.1863 9.4775 9.66179 12.749 6.39028C14.6749 4.46413 17.0394 3.198 19.407 2.8248C21.846 2.44088 24.0039 3.04253 25.4827 4.52102C26.9591 5.99743 27.5601 8.15381 27.175 10.5928C26.8009 12.9604 25.5348 15.3247 23.609 17.2502C21.2459 19.6133 18.2329 20.9295 15.535 20.9295ZM20.8063 3.93218C20.4158 3.93218 20.0119 3.96465 19.597 4.02987C17.482 4.36316 15.3566 5.50777 13.6116 7.25283C10.6924 10.172 9.52992 14.1339 10.7847 16.8878C11.0227 17.4075 11.3435 17.8715 11.7378 18.2659C12.1295 18.6572 12.592 18.9768 13.113 19.2154C15.8615 20.4729 19.8231 19.3104 22.7464 16.3877C24.4912 14.6429 25.6361 12.5175 25.97 10.4025C26.2925 8.35902 25.8133 6.57673 24.6201 5.38357C23.6676 4.43107 22.3404 3.93218 20.8063 3.93218Z" fill="black"/>
<path d="M21.4463 8.48799C21.4341 8.48799 21.4219 8.48769 21.4097 8.4868L17.2149 8.23869C16.8786 8.21904 16.6222 7.93013 16.6421 7.59386C16.6621 7.2573 16.9549 6.99222 17.2869 7.02111L21.4818 7.26921C21.818 7.28887 22.0745 7.57778 22.0545 7.91404C22.0355 8.2381 21.7668 8.48799 21.4463 8.48799Z" fill="black"/>
<path d="M22.5927 11.1587C22.5743 11.1587 22.5552 11.1579 22.5364 11.1561L16.3455 10.5875C16.0098 10.5568 15.7629 10.2599 15.7939 9.92449C15.8248 9.58941 16.1218 9.3425 16.4569 9.37288L22.6478 9.94146C22.9835 9.97214 23.2304 10.2691 23.1994 10.6045C23.1705 10.9211 22.9046 11.1587 22.5927 11.1587Z" fill="black"/>
<path d="M0.954128 30C0.726874 30 0.590164 29.9881 0.563656 29.9857C0.272663 29.958 0.0421324 29.7278 0.0138373 29.4371C0.00966754 29.3912 -0.0895142 28.2999 0.310787 26.7383C0.561273 25.7891 0.940725 24.8676 1.43961 23.9946C1.9793 23.0504 2.65451 22.1697 3.44707 21.3771C3.45124 21.3727 3.49175 21.334 3.49622 21.3298C3.50873 21.3149 3.5403 21.2839 3.554 21.2705C4.86689 19.9758 6.22952 18.8604 7.49446 18.0449C7.6407 17.9502 7.8206 17.9231 7.98888 17.9698C8.15687 18.0166 8.29685 18.133 8.3731 18.2897C8.73349 19.0278 9.19902 19.6848 9.75688 20.2427C10.1003 20.5861 10.5009 20.9051 10.9477 21.191C11.2095 21.3578 11.468 21.5052 11.7152 21.6288C11.8701 21.7063 11.9847 21.846 12.0306 22.013C12.0765 22.1801 12.0491 22.3585 11.9556 22.5045C11.5171 23.1859 10.9682 23.921 10.3237 24.6892C9.80066 25.3194 9.22761 25.947 8.62269 26.5525C8.33736 26.8378 8.03386 27.1106 7.72082 27.3638C4.83889 29.7611 1.97841 30 0.954128 30ZM7.60705 19.4391C6.56936 20.1658 5.47538 21.0891 4.4106 22.139C4.41417 22.1393 4.37456 22.1786 4.33226 22.2183C3.59391 22.9557 2.98452 23.7498 2.49874 24.5998C2.05287 25.3805 1.71393 26.2034 1.49144 27.0454C1.30737 27.7641 1.24512 28.366 1.22695 28.7702C2.26017 28.7184 4.6036 28.3699 6.94703 26.4208C7.23355 26.1888 7.50489 25.9449 7.75984 25.6899C8.33825 25.1112 8.88569 24.5113 9.38696 23.9076C9.83074 23.379 10.2245 22.8699 10.5637 22.3874C10.4732 22.3335 10.3823 22.2772 10.2912 22.2191C9.76939 21.8853 9.29969 21.5109 8.89432 21.1052C8.4008 20.6117 7.96952 20.0532 7.60705 19.4391Z" fill="black"/>
</svg>
