<svg width="23" height="32" viewBox="0 0 23 32" fill="none" xmlns="http://www.w3.org/2000/svg">
<path d="M15.7175 12.8271H15.8242H21.3507H21.4574L21.4924 12.9279C22.2739 15.1791 22.6715 17.5457 22.6685 19.9286M15.7175 12.8271L22.5185 19.9284M15.7175 12.8271L15.6825 12.9279M15.7175 12.8271L15.6825 12.9279M22.6685 19.9286L22.5185 19.9284M22.6685 19.9286C22.6685 19.9286 22.6685 19.9286 22.6685 19.9286L22.5185 19.9284M22.6685 19.9286C22.6679 20.6603 22.5057 21.3828 22.1934 22.0446L22.1934 22.0446C21.4933 23.5271 20.4022 24.7901 19.0383 25.6981M22.5185 19.9284C22.5179 20.6381 22.3606 21.3388 22.0578 21.9805C21.3579 23.4625 20.2608 24.7214 18.8883 25.6173M19.0383 25.6981V25.6173H18.8883M19.0383 25.6981V30.1988M19.0383 25.6981C19.0158 25.7132 18.9931 25.7281 18.9703 25.7429L18.8883 25.6173M18.8883 25.6173V30.1988H19.0383M19.0383 30.1988V30.3488M19.0383 30.1988V30.3488M19.0383 30.3488H21.8886C21.9661 30.3522 22.0393 30.3854 22.0929 30.4415C22.1465 30.4975 22.1764 30.5722 22.1764 30.6497C22.1764 30.7273 22.1465 30.8019 22.0929 30.858C22.0393 30.914 21.9661 30.9472 21.8886 30.9507L19.0383 30.3488ZM15.6825 12.9279C14.9005 15.179 14.5024 17.5455 14.5049 19.9286V19.9287M15.6825 12.9279L14.5049 19.9287M14.5049 19.9287C14.5059 20.6605 14.6687 21.383 14.9815 22.0447L14.5049 19.9287ZM0.85 29.1943V29.1942V13.1116C0.85 13.1116 0.85 13.1116 0.85 13.1116C0.8499 12.2412 1.11931 11.3922 1.62121 10.6811C2.10266 9.999 2.77536 9.47598 3.55327 9.17726V4.50188L3.26279 4.50188C3.26273 4.50188 3.26268 4.50188 3.26263 4.50188H3.26254V4.35188L0.85 29.1943ZM0.85 29.1943C0.850065 29.4512 0.900745 29.7056 0.999142 29.9429C1.09754 30.1803 1.24172 30.3959 1.42347 30.5776C1.60523 30.7592 1.82097 30.9032 2.05838 31.0014C2.29575 31.0996 2.55017 31.1501 2.80709 31.15C2.80711 31.15 2.80714 31.15 2.80716 31.15H9.18582H9.18586M0.85 29.1943L9.18586 31.15M9.18586 31.15C9.70452 31.1499 10.2019 30.9437 10.5686 30.577C10.9353 30.2102 11.1414 29.7129 11.1415 29.1943V29.1942M9.18586 31.15L11.1415 29.1942M11.1415 29.1942V13.1116C11.1415 13.1116 11.1415 13.1116 11.1415 13.1116C11.1416 12.2412 10.8722 11.3922 10.3703 10.6811C9.88889 9.999 9.21618 9.47598 8.43828 9.17726V4.50188L8.72876 4.50188L8.72901 4.35188V4.50188H8.72892C8.86847 4.50207 9.00231 4.44678 9.10109 4.34836C9.19994 4.24986 9.25563 4.11614 9.25591 3.97659V3.97629M11.1415 29.1942L9.25591 3.97629M9.25591 3.97629V1.37717V3.97629ZM5.06561 9.80055H5.06559C4.18729 9.80044 3.34492 10.1492 2.72375 10.7702C2.10259 11.3911 1.7535 12.2333 1.75327 13.1116C1.75327 13.1116 1.75327 13.1116 1.75327 13.1116L1.75327 15.5104H5.6129H5.7629V15.6604V27.0116V27.1616H5.6129H1.75327L1.75327 29.1942C1.75327 29.1942 1.75327 29.1942 1.75327 29.1942C1.75336 29.4737 1.86441 29.7417 2.06202 29.9393C2.25964 30.1369 2.52763 30.248 2.80709 30.2481C2.8071 30.2481 2.80711 30.2481 2.80713 30.2481H9.18561C9.46488 30.2477 9.73258 30.1365 9.92995 29.9389C10.1273 29.7413 10.2382 29.4735 10.2383 29.1942L5.06561 9.80055ZM5.06561 9.80055H6.92727M5.06561 9.80055H6.92727M6.92727 9.80055C6.92728 9.80055 6.92729 9.80055 6.9273 9.80055C7.80536 9.8008 8.64738 10.1497 9.26826 10.7706M6.92727 9.80055L9.26826 10.7706M9.26826 10.7706C9.88914 11.3915 10.238 12.2335 10.2383 13.1116M9.26826 10.7706L10.2383 13.1116M10.2383 13.1116C10.2383 13.1116 10.2383 13.1116 10.2383 13.1116M10.2383 13.1116V13.1116M10.2383 13.1116V29.1942V13.1116ZM18.2864 30.3488H18.1364V30.1988H18.2864V30.3488ZM18.1364 25.6981C18.159 25.7132 18.1817 25.7281 18.2044 25.7429L18.2864 25.6173H18.1364V25.6981ZM15.7974 21.6582L15.7973 21.6581C15.5414 21.1172 15.4081 20.5265 15.4069 19.9281C15.406 19.2102 15.4431 18.4926 15.518 17.7786H21.6554C21.7299 18.4927 21.7666 19.2102 21.7653 19.9282V19.9283C21.7648 20.5265 21.6324 21.1172 21.3774 21.6582C20.7559 22.9745 19.792 24.0987 18.5874 24.9136C17.3827 24.0987 16.4188 22.9745 15.7974 21.6582ZM21.9153 19.9284C21.9148 20.5487 21.7775 21.1612 21.5131 21.7222C20.8658 23.0933 19.8536 24.2598 18.5874 25.094L21.9153 19.9284ZM2.73563 3.97629L2.73563 3.97659L2.88563 1.37693H2.73563V1.37709C2.73563 1.37711 2.73563 1.37714 2.73563 1.37717L2.73563 3.97629ZM5.06558 8.89729C4.86123 8.89733 4.65725 8.91226 4.45524 8.94188L4.45524 4.50188H7.5363V8.94188C7.33476 8.91233 7.13126 8.8974 6.92739 8.89729H6.9273H5.0656H5.06558ZM15.6328 16.878C15.7935 15.8106 16.0387 14.7576 16.3664 13.729H20.8085C21.1356 14.7577 21.3805 15.8107 21.5407 16.878H15.6328ZM8.72889 0.850001H3.26266L9.07738 1.23255C9.05846 1.18678 9.0307 1.14527 8.99569 1.11026C8.96067 1.07524 8.91909 1.04746 8.87333 1.02855C8.82757 1.00964 8.77852 0.999919 8.72901 1V0.850001H8.72889ZM3.6389 1.75193H8.35401V3.59996H3.6389L3.6389 1.75193ZM1.75327 16.4136H4.86236V26.261H1.75327L1.75327 16.4136Z" fill="black" stroke="black" stroke-width="0.3"/>
</svg>
