<svg width="34" height="30" viewBox="0 0 34 30" fill="none" xmlns="http://www.w3.org/2000/svg">
<path fill-rule="evenodd" clip-rule="evenodd" d="M26.6338 0.0008652C26.4851 0.0156697 26.3411 0.0749263 26.2252 0.169099C24.6173 1.43774 22.796 2.73293 21.4666 4.423C20.2114 6.01856 19.4445 8.04165 19.8684 10.5275L17.0685 13.063L12.2017 8.72497C12.4832 7.77792 12.5778 6.72639 12.43 5.70878C12.2551 4.50431 11.7141 3.31625 10.6636 2.52437C8.7435 1.07561 6.917 0.30392 5.29215 0.121032C5.03821 0.0924611 4.79118 0.0717386 4.54708 0.0729652C3.2289 0.0795792 2.07034 0.516129 1.25455 1.33472C0.28772 2.30489 -0.140958 3.75587 0.0408498 5.38433C0.222657 7.0128 0.98934 8.85417 2.43215 10.7798C3.22275 11.8329 4.41453 12.37 5.61659 12.5463C6.63079 12.695 7.66519 12.5983 8.60876 12.318L12.7305 16.9804L5.43635 23.5896C4.59488 24.3511 4.21784 25.3309 4.25868 26.2453C4.2996 27.1596 4.71362 27.9835 5.32819 28.6005C5.94271 29.2175 6.76996 29.6411 7.68345 29.682C8.59668 29.7229 9.58066 29.3371 10.3392 28.4924L16.6719 21.4386L23.221 28.8529C23.9996 29.733 25.0668 30.0862 26.0329 29.9824C26.999 29.8787 27.8718 29.385 28.5444 28.7087C29.217 28.0323 29.7041 27.1522 29.8062 26.1852C29.9082 25.2182 29.5532 24.1649 28.6766 23.3853L21.046 16.5959L23.3532 14.0243C25.8307 14.4485 27.856 13.6731 29.4456 12.4141C31.1302 11.0798 32.4112 9.24492 33.6755 7.63145C33.8522 7.41138 33.8928 7.09046 33.7766 6.83328C33.6604 6.5761 33.3927 6.39454 33.1107 6.38172C32.8631 6.36934 32.6126 6.48534 32.4618 6.68213C31.1653 8.33675 29.9211 10.0744 28.4843 11.2124C27.0475 12.3504 25.5023 12.9338 23.245 12.4261C22.978 12.3659 22.6815 12.4615 22.5 12.6664L19.8924 15.5744L18.2341 14.0844L21.2262 11.3686C21.423 11.1867 21.5132 10.8971 21.4546 10.6356C20.9482 8.36858 21.5339 6.81432 22.6682 5.37232C23.8026 3.93031 25.5376 2.68385 27.1865 1.38278C27.4434 1.18816 27.5543 0.821494 27.4485 0.517089C27.3426 0.212685 27.0281 -0.00595258 26.7058 0.0008652C26.682 -0.0002884 26.6578 -0.0002884 26.6338 0.0008652ZM4.55912 1.6111C4.74023 1.61131 4.92569 1.62482 5.12388 1.64713C6.39234 1.7899 7.98439 2.42665 9.73829 3.75004C10.4026 4.25073 10.7843 5.01811 10.916 5.92506C11.0477 6.83201 10.9075 7.85145 10.5915 8.67688C10.4784 8.96679 10.5634 9.3228 10.7958 9.53006C16.646 14.7468 21.4777 19.0286 27.6552 24.5269C28.1972 25.0089 28.3248 25.4913 28.268 26.029C28.2112 26.5665 27.9097 27.1658 27.4509 27.6272C26.992 28.0886 26.3975 28.3991 25.8647 28.4563C25.3319 28.5135 24.8573 28.3768 24.3746 27.8315C19.4535 22.2618 13.9229 16.0058 9.42589 10.924C9.22151 10.6878 8.86493 10.5974 8.57269 10.7077C7.75071 11.0229 6.73608 11.1646 5.83289 11.0321C4.92996 10.8998 4.15924 10.5219 3.65789 9.85451C2.34009 8.0956 1.70919 6.49032 1.56695 5.21608C1.42467 3.94168 1.75422 3.02407 2.34805 2.42821C2.8491 1.92545 3.58106 1.60996 4.55912 1.6111ZM13.7519 18.134L15.6505 20.285L9.19755 27.471C8.70258 28.0224 8.22599 28.1649 7.75555 28.1439C7.28515 28.1227 6.79395 27.8927 6.42168 27.519C6.04949 27.1453 5.81808 26.6481 5.79682 26.1732C5.77567 25.6982 5.92125 25.2275 6.46975 24.7311L13.7519 18.134Z" fill="black"/>
<path fill-rule="evenodd" clip-rule="evenodd" d="M29.0633 2.40756C28.8635 2.4138 28.6741 2.49754 28.535 2.64104L23.3172 7.87695C23.2446 7.94821 23.1869 8.03314 23.1474 8.12684C23.1079 8.22054 23.0874 8.32114 23.087 8.42282C23.0867 8.5245 23.1065 8.62524 23.1453 8.71922C23.1841 8.8132 23.2412 8.89855 23.3132 8.97033C23.3852 9.04211 23.4708 9.09889 23.5649 9.13739C23.659 9.17589 23.7598 9.19537 23.8615 9.19466C23.9632 9.19394 24.0637 9.17306 24.1573 9.13323C24.2508 9.09341 24.3356 9.03544 24.4066 8.96266L29.6244 3.72674C29.7354 3.61853 29.811 3.47933 29.8415 3.32738C29.8719 3.17543 29.8557 3.01783 29.7951 2.87523C29.7344 2.73262 29.6321 2.61165 29.5015 2.5282C29.3709 2.44475 29.2182 2.4027 29.0633 2.40756Z" fill="black"/>
<path fill-rule="evenodd" clip-rule="evenodd" d="M30.6399 4.01648C30.4401 4.02275 30.2506 4.10653 30.1116 4.25008L24.8936 9.48599C24.8207 9.55717 24.7626 9.6421 24.7229 9.7359C24.6831 9.8297 24.6623 9.93046 24.6618 10.0324C24.6612 10.1342 24.681 10.2352 24.7198 10.3294C24.7586 10.4236 24.8158 10.5092 24.888 10.5811C24.9602 10.653 25.0459 10.7099 25.1402 10.7484C25.2346 10.7868 25.3356 10.8062 25.4375 10.8053C25.5394 10.8045 25.6401 10.7833 25.7337 10.7432C25.8274 10.7031 25.9121 10.6447 25.9831 10.5716L31.201 5.33566C31.3119 5.22744 31.3876 5.08825 31.418 4.9363C31.4485 4.78435 31.4323 4.62673 31.3717 4.48412C31.311 4.34152 31.2087 4.22057 31.0781 4.13712C30.9475 4.05367 30.7948 4.01162 30.6399 4.01648Z" fill="black"/>
</svg>
