<svg width="33" height="30" viewBox="0 0 33 30" fill="none" xmlns="http://www.w3.org/2000/svg">
<path d="M23.1258 4.83871V4.93871H23.2258H29.0323C31.1109 4.93871 32.8032 6.63103 32.8032 8.70968V13.3065C32.8032 13.6885 32.5559 14.0225 32.1959 14.1352L32.1956 14.1353L31.9053 14.2272L31.8355 14.2494V14.3226V26.129C31.8355 28.2077 30.1432 29.9 28.0645 29.9H4.83871C2.76007 29.9 1.06774 28.2077 1.06774 26.129V14.3226V14.2494L0.997931 14.2272L0.707608 14.1353L0.707312 14.1352C0.347371 14.0225 0.1 13.6885 0.1 13.3065V8.70968C0.1 6.63103 1.79233 4.93871 3.87097 4.93871H9.67742H9.77742V4.83871V3.87097C9.77742 1.79233 11.4697 0.1 13.5484 0.1H19.3548C21.4335 0.1 23.1258 1.79233 23.1258 3.87097V4.83871ZM21.2903 4.93871H21.3903V4.83871V3.87097C21.3903 2.74638 20.4794 1.83548 19.3548 1.83548H13.5484C12.4238 1.83548 11.5129 2.74638 11.5129 3.87097V4.83871V4.93871H11.6129H21.2903ZM2.93307 14.832L2.80323 14.7914V14.9274V26.129C2.80323 27.2536 3.71413 28.1645 4.83871 28.1645H28.0645C29.1891 28.1645 30.1 27.2536 30.1 26.129V14.9226V14.7865L29.9702 14.8271L19.325 18.1562L19.2548 18.1781V18.2516V19.3548C19.2548 20.098 18.6464 20.7065 17.9032 20.7065H15C14.2568 20.7065 13.6484 20.098 13.6484 19.3548V18.2565V18.1829L13.5782 18.161L2.93307 14.832ZM15.3839 18.871V18.971H15.4839H17.4194H17.5194V18.871V16.9355V16.8355H17.4194H15.4839H15.3839V16.9355V18.871ZM30.9975 12.6906L31.0677 12.6687V12.5952V8.70968C31.0677 7.58509 30.1568 6.67419 29.0323 6.67419H3.87097C2.74638 6.67419 1.83548 7.58509 1.83548 8.70968V12.5952V12.6687L1.90568 12.6906L13.5428 16.3245L13.6537 16.3591L13.6714 16.2442C13.7706 15.5996 14.3251 15.1 15 15.1H17.9032C18.5781 15.1 19.1326 15.5996 19.2318 16.2442L19.2495 16.3591L19.3605 16.3245L30.9975 12.6906Z" fill="black" stroke="white" stroke-width="0.2"/>
</svg>
