<svg width="33" height="26" viewBox="0 0 33 26" fill="none" xmlns="http://www.w3.org/2000/svg">
<path d="M29.8651 10.5545H12.0747V9.08362C12.0747 6.90992 10.3059 5.14112 8.13216 5.14112H3.9435C2.99304 5.14112 2.12045 5.47921 1.43925 6.04135V0.718873C1.43925 0.321508 1.11674 0 0.719376 0C0.323016 0 0 0.322011 0 0.718873V9.08312V11.2719V20.6921V25.2816C0 25.679 0.323016 26 0.719376 26C1.11674 26 1.43925 25.6785 1.43925 25.2816V21.4105H30.7669V25.2816C30.7669 25.679 31.0879 26 31.4852 26C31.8826 26 32.2036 25.6785 32.2036 25.2816V20.6921V15.982V12.8925C32.2036 11.6029 31.1547 10.5545 29.8651 10.5545ZM3.94401 6.57887H8.13266C9.51314 6.57887 10.6374 7.70214 10.6374 9.08312V10.553H1.43925V9.08312C1.43976 7.70214 2.56253 6.57887 3.94401 6.57887ZM1.43976 11.9913H5.34357V19.9737H1.43976V11.9913ZM6.78082 19.9737V11.9913H29.8646C30.3615 11.9913 30.7669 12.3957 30.7669 12.893V15.9825V19.9737H6.78082Z" fill="black"/>
</svg>
