<svg width="30" height="30" viewBox="0 0 30 30" fill="none" xmlns="http://www.w3.org/2000/svg">
<path d="M29.5313 9.14634H25.8786C25.7523 9.15248 25.6327 9.23538 25.5461 9.37684C25.4595 9.5183 25.4129 9.70677 25.4166 9.90092V11.6159H20V9.55034C20 9.14634 19.7868 8.78049 19.5238 8.78049H16.5476V5.21341H21.9245C22.1875 5.21341 22.3809 4.86293 22.3809 4.45884V0.739299C22.3832 0.644472 22.3731 0.549909 22.3513 0.461145C22.3294 0.37238 22.2963 0.291199 22.2538 0.222354C22.2113 0.153508 22.1603 0.0983824 22.1038 0.0602022C22.0472 0.022022 21.9863 0.00155505 21.9245 0H8.07545C8.01371 0.00155505 7.95278 0.022022 7.89625 0.0602022C7.83972 0.0983824 7.78871 0.153508 7.74621 0.222354C7.70371 0.291199 7.67058 0.37238 7.64875 0.461145C7.62692 0.549909 7.61684 0.644472 7.61908 0.739299V4.45884C7.61908 4.86293 7.81248 5.21341 8.07545 5.21341H13.4524V8.78049H10.4762C10.2132 8.78049 10 9.14634 10 9.55034V11.6159H4.58338V9.90092C4.58709 9.70677 4.54053 9.5183 4.45391 9.37684C4.3673 9.23538 4.2477 9.15248 4.12136 9.14634H0.468703C0.341685 9.15204 0.221249 9.23446 0.13352 9.37572C0.0457914 9.51698 -0.00215726 9.70569 7.45612e-05 9.90092V29.2607C-0.000861825 29.3566 0.0105292 29.4518 0.0335943 29.5409C0.0566595 29.63 0.0909448 29.7112 0.134484 29.7799C0.178022 29.8486 0.229958 29.9034 0.287311 29.9411C0.344665 29.9789 0.406307 29.9989 0.468703 30H4.12136C4.18341 29.9987 4.24468 29.9785 4.3016 29.9405C4.35853 29.9025 4.40997 29.8475 4.45296 29.7788C4.49594 29.71 4.5296 29.6288 4.55199 29.5398C4.57438 29.4509 4.58505 29.356 4.58338 29.2607V27.5305H25.4166V29.2607C25.4149 29.356 25.4256 29.4509 25.448 29.5398C25.4704 29.6288 25.5041 29.71 25.547 29.7788C25.59 29.8475 25.6415 29.9025 25.6984 29.9405C25.7553 29.9785 25.8166 29.9987 25.8786 30H29.5313C29.5937 29.9989 29.6553 29.9789 29.7127 29.9411C29.77 29.9034 29.822 29.8486 29.8655 29.7799C29.9091 29.7112 29.9433 29.63 29.9664 29.5409C29.9895 29.4518 30.0009 29.3566 29.9999 29.2607V9.90092C30.0022 9.70569 29.9542 9.51698 29.8665 9.37572C29.7788 9.23446 29.6583 9.15204 29.5313 9.14634ZM3.63101 28.5366H0.952451V10.6098H3.63101V28.5366ZM20.2381 1.46341H21.4285V3.75H20.2381V1.46341ZM17.8571 1.46341H19.2857V3.75H17.8571V1.46341ZM15.4762 1.46341H16.9048V3.75H15.4762V1.46341ZM15.5952 5.21341V8.78049H14.4048V5.21341H15.5952ZM9.76193 3.75H8.57146V1.46341H9.76193V3.75ZM12.1429 3.75H10.7143V1.46341H12.1429V3.75ZM13.0952 3.75V1.46341H14.5238V3.75H13.0952ZM10.9524 10.2439H19.0476V11.6159H10.9524V10.2439ZM25.4166 26.0671H4.58338V13.0793H25.4166V26.0671ZM29.0476 28.5366H26.369V10.6098H29.0476V28.5366Z" fill="black"/>
</svg>
