<svg width="36" height="26" viewBox="0 0 36 26" fill="none" xmlns="http://www.w3.org/2000/svg">
<path d="M33.913 0H1.50725C0.676 0 0 0.676 0 1.50725V20.3478C0 21.3867 0.845188 22.2319 1.88406 22.2319H15.0725V24.4928H12.058V26H23.3623V24.4928H20.3478V22.2319H33.5362C34.5751 22.2319 35.4203 21.3867 35.4203 20.3478V1.50725C35.4203 0.676 34.7443 0 33.913 0ZM33.913 1.50725V16.9565H1.50725V1.50725H33.913ZM18.8406 24.4928H16.5797V22.2319H18.8406V24.4928ZM33.5362 20.7246H1.88406C1.67643 20.7246 1.50725 20.5554 1.50725 20.3478V18.4638H33.913V20.3478C33.913 20.5554 33.7442 20.7246 33.5362 20.7246Z" fill="black"/>
<path d="M14.2578 3.16064L6.72142 14.4658L7.9756 15.3019L15.5119 3.99671L14.2578 3.16064Z" fill="black"/>
<path d="M27.4462 3.16L19.9098 14.4652L21.164 15.3012L28.7003 3.99607L27.4462 3.16Z" fill="black"/>
<path d="M19.9099 5.04455L16.1417 10.6971L17.3959 11.5332L21.1641 5.88062L19.9099 5.04455Z" fill="black"/>
</svg>
