<svg width="32" height="32" viewBox="0 0 32 32" fill="none" xmlns="http://www.w3.org/2000/svg">
<mask id="path-1-outside-1" maskUnits="userSpaceOnUse" x="0" y="0" width="32" height="32" fill="black">
<rect fill="white" width="32" height="32"/>
<path d="M1.03913 22.1511C1.44473 26.8867 5.11948 30.6829 9.58668 30.9809C9.77898 30.9936 9.97016 31 10.1617 31C12.4768 31 14.7185 30.0677 16.4159 28.394C16.7877 28.8674 17.1915 29.297 17.6285 29.661C19.0429 30.8388 20.5974 31.2572 22.0106 30.8384C22.1996 30.7826 22.3866 30.7099 22.5688 30.6218C22.7514 30.7095 22.9388 30.7822 23.1277 30.8384C23.4846 30.9445 23.8512 30.997 24.2223 30.997C25.3173 30.997 26.4527 30.5412 27.5095 29.6614C28.8807 28.5192 29.9633 26.7881 30.5574 24.7871C31.1467 22.8014 31.1328 20.9586 30.5173 19.4581C29.9273 18.0194 28.8076 16.9911 27.3651 16.563C25.8357 16.1083 24.2624 16.4236 22.944 17.4218V16.7535C22.959 16.6065 23.1806 14.6036 24.2722 12.9809C24.3876 12.8092 24.3423 12.576 24.1702 12.4606C23.9981 12.3444 23.7654 12.3905 23.6499 12.5622C23.3403 13.0229 23.0951 13.5072 22.9013 13.9754C22.8245 13.09 22.6007 12.1232 21.9188 11.4417C20.6053 10.1286 18.1856 10.5139 18.0836 10.5308C17.9254 10.557 17.8017 10.6807 17.7755 10.8389C17.7582 10.9413 17.374 13.3614 18.6868 14.6737C19.7292 15.7166 21.4716 15.6877 22.1947 15.624V17.4211C20.9933 16.5113 19.5808 16.1706 18.1811 16.4618C17.967 16.0577 17.7282 15.666 17.4643 15.2998C16.8147 14.3986 16.4785 13.337 16.5178 12.3099C16.5328 11.9159 16.5145 11.5174 16.4638 11.125C16.0912 8.24978 13.9542 5.90316 11.29 5.40572L11.651 2.53393C11.6529 2.51856 11.654 2.50281 11.654 2.48707C11.654 1.67325 10.9917 1.01087 10.1778 1.01087C9.36401 1.01087 8.70163 1.67287 8.70163 2.48707C8.70163 2.50019 8.70238 2.51293 8.70388 2.52605L8.72075 2.68574C8.41974 2.26478 8.05688 1.88092 7.59392 1.59453C5.71475 0.432464 3.12747 1.32538 3.01839 1.36362C2.8527 1.42209 2.74962 1.58853 2.77136 1.76322C2.7856 1.8783 3.14172 4.59228 5.02014 5.75434C5.58993 6.10671 6.23281 6.2589 6.85583 6.30089C4.9864 7.49182 3.83258 9.58353 3.83258 12.04C3.83258 12.1884 3.83783 12.3354 3.84645 12.4812C3.90568 13.4232 3.64141 14.324 3.10311 15.0171C1.54932 17.0162 0.816465 19.5492 1.03913 22.1511ZM19.2164 14.1448C18.4022 13.331 18.4311 11.8514 18.4836 11.2393C19.0939 11.1857 20.5719 11.1557 21.3888 11.9725C22.1032 12.6874 22.1775 13.939 22.1917 14.8713C21.6302 14.9268 20.0632 14.9913 19.2164 14.1448ZM22.3042 18.5082C22.3746 18.5787 22.4695 18.618 22.5692 18.618C22.6689 18.618 22.7641 18.5787 22.8342 18.5082C24.0626 17.279 25.6367 16.8318 27.1522 17.282C28.3728 17.6445 29.3215 18.5183 29.8238 19.743C30.3741 21.0838 30.379 22.7542 29.8388 24.5742C29.2867 26.435 28.2892 28.0371 27.03 29.0856C25.8143 30.0981 24.5035 30.4651 23.3418 30.1206C23.1408 30.061 22.9414 29.9774 22.7491 29.8724C22.6933 29.8417 22.6314 29.8263 22.5696 29.8263C22.5077 29.8263 22.4459 29.8417 22.39 29.8724C22.1981 29.9774 21.9986 30.061 21.7981 30.1206C20.6345 30.4655 19.3248 30.0981 18.1091 29.0856C16.85 28.0371 15.8521 26.435 15.3003 24.5742C14.7601 22.7546 14.7654 21.0838 15.3153 19.743C15.818 18.5183 16.7667 17.6445 17.9873 17.282C19.5025 16.8326 21.0757 17.279 22.3042 18.5082ZM9.45173 2.47057C9.46072 2.0781 9.7831 1.76172 10.1778 1.76172C10.5714 1.76172 10.8927 2.07622 10.9039 2.46683L10.5486 5.29589C10.3585 5.28314 10.1377 5.2794 9.89069 5.29327C9.82771 5.09047 9.75761 4.87267 9.67964 4.64551L9.45173 2.47057ZM3.56981 1.98176C4.2543 1.79995 5.95991 1.46633 7.19882 2.23291C8.2638 2.89154 8.77136 4.24328 9.10048 5.2794C8.37626 5.48969 6.63278 5.87092 5.41412 5.11746C4.17933 4.35387 3.71413 2.67637 3.56981 1.98176ZM4.5943 12.4362C4.58643 12.3058 4.58193 12.1742 4.58193 12.0411C4.58193 9.06585 6.47085 6.68774 9.28229 6.12321C10.2802 5.92378 11.0423 6.11796 11.0805 6.12658C13.4788 6.55542 15.3869 8.65051 15.7201 11.2217C15.7659 11.5729 15.782 11.9298 15.7689 12.2818C15.7231 13.4749 16.1092 14.7026 16.8563 15.7387C17.0711 16.0367 17.2649 16.3546 17.4441 16.6807C16.1625 17.1609 15.165 18.1318 14.621 19.4577C14.0055 20.9583 13.9913 22.8011 14.5809 24.7867C14.9071 25.885 15.3843 26.8968 15.9717 27.7796C14.2555 29.5189 12.0098 30.3864 9.63691 30.2327C5.53595 29.959 2.16109 26.4567 1.7866 22.0866C1.58005 19.6732 2.2578 17.3263 3.69464 15.4782C4.34539 14.6411 4.66477 13.5604 4.5943 12.4362Z"/>
<path d="M11.6034 8.88442C12.5102 9.45233 13.1366 10.4453 13.2783 11.5403C13.3027 11.7292 13.4642 11.8672 13.6498 11.8672C13.6659 11.8672 13.682 11.8664 13.6985 11.8642C13.9036 11.8376 14.0486 11.6498 14.022 11.4443C13.8515 10.129 13.0957 8.93465 12.0008 8.24903C11.8253 8.13957 11.594 8.19243 11.4842 8.36786C11.3744 8.5433 11.4276 8.77459 11.6034 8.88442Z"/>
<path d="M26.3871 19.548C26.8988 19.6972 27.304 20.0249 27.5593 20.4949C27.9173 21.1554 27.9522 22.057 27.6575 23.0331C27.5975 23.2314 27.71 23.4406 27.9079 23.5006C27.9443 23.5114 27.9803 23.5167 28.0163 23.5167C28.1775 23.5167 28.3263 23.4121 28.375 23.2502C28.7281 22.0806 28.6726 20.9755 28.2183 20.1377C27.8663 19.4877 27.3052 19.0352 26.5974 18.8283C26.3987 18.7702 26.1903 18.8845 26.1326 19.0832C26.0745 19.2819 26.1881 19.4903 26.3871 19.548Z"/>
</mask>
<path d="M1.03913 22.1511C1.44473 26.8867 5.11948 30.6829 9.58668 30.9809C9.77898 30.9936 9.97016 31 10.1617 31C12.4768 31 14.7185 30.0677 16.4159 28.394C16.7877 28.8674 17.1915 29.297 17.6285 29.661C19.0429 30.8388 20.5974 31.2572 22.0106 30.8384C22.1996 30.7826 22.3866 30.7099 22.5688 30.6218C22.7514 30.7095 22.9388 30.7822 23.1277 30.8384C23.4846 30.9445 23.8512 30.997 24.2223 30.997C25.3173 30.997 26.4527 30.5412 27.5095 29.6614C28.8807 28.5192 29.9633 26.7881 30.5574 24.7871C31.1467 22.8014 31.1328 20.9586 30.5173 19.4581C29.9273 18.0194 28.8076 16.9911 27.3651 16.563C25.8357 16.1083 24.2624 16.4236 22.944 17.4218V16.7535C22.959 16.6065 23.1806 14.6036 24.2722 12.9809C24.3876 12.8092 24.3423 12.576 24.1702 12.4606C23.9981 12.3444 23.7654 12.3905 23.6499 12.5622C23.3403 13.0229 23.0951 13.5072 22.9013 13.9754C22.8245 13.09 22.6007 12.1232 21.9188 11.4417C20.6053 10.1286 18.1856 10.5139 18.0836 10.5308C17.9254 10.557 17.8017 10.6807 17.7755 10.8389C17.7582 10.9413 17.374 13.3614 18.6868 14.6737C19.7292 15.7166 21.4716 15.6877 22.1947 15.624V17.4211C20.9933 16.5113 19.5808 16.1706 18.1811 16.4618C17.967 16.0577 17.7282 15.666 17.4643 15.2998C16.8147 14.3986 16.4785 13.337 16.5178 12.3099C16.5328 11.9159 16.5145 11.5174 16.4638 11.125C16.0912 8.24978 13.9542 5.90316 11.29 5.40572L11.651 2.53393C11.6529 2.51856 11.654 2.50281 11.654 2.48707C11.654 1.67325 10.9917 1.01087 10.1778 1.01087C9.36401 1.01087 8.70163 1.67287 8.70163 2.48707C8.70163 2.50019 8.70238 2.51293 8.70388 2.52605L8.72075 2.68574C8.41974 2.26478 8.05688 1.88092 7.59392 1.59453C5.71475 0.432464 3.12747 1.32538 3.01839 1.36362C2.8527 1.42209 2.74962 1.58853 2.77136 1.76322C2.7856 1.8783 3.14172 4.59228 5.02014 5.75434C5.58993 6.10671 6.23281 6.2589 6.85583 6.30089C4.9864 7.49182 3.83258 9.58353 3.83258 12.04C3.83258 12.1884 3.83783 12.3354 3.84645 12.4812C3.90568 13.4232 3.64141 14.324 3.10311 15.0171C1.54932 17.0162 0.816465 19.5492 1.03913 22.1511ZM19.2164 14.1448C18.4022 13.331 18.4311 11.8514 18.4836 11.2393C19.0939 11.1857 20.5719 11.1557 21.3888 11.9725C22.1032 12.6874 22.1775 13.939 22.1917 14.8713C21.6302 14.9268 20.0632 14.9913 19.2164 14.1448ZM22.3042 18.5082C22.3746 18.5787 22.4695 18.618 22.5692 18.618C22.6689 18.618 22.7641 18.5787 22.8342 18.5082C24.0626 17.279 25.6367 16.8318 27.1522 17.282C28.3728 17.6445 29.3215 18.5183 29.8238 19.743C30.3741 21.0838 30.379 22.7542 29.8388 24.5742C29.2867 26.435 28.2892 28.0371 27.03 29.0856C25.8143 30.0981 24.5035 30.4651 23.3418 30.1206C23.1408 30.061 22.9414 29.9774 22.7491 29.8724C22.6933 29.8417 22.6314 29.8263 22.5696 29.8263C22.5077 29.8263 22.4459 29.8417 22.39 29.8724C22.1981 29.9774 21.9986 30.061 21.7981 30.1206C20.6345 30.4655 19.3248 30.0981 18.1091 29.0856C16.85 28.0371 15.8521 26.435 15.3003 24.5742C14.7601 22.7546 14.7654 21.0838 15.3153 19.743C15.818 18.5183 16.7667 17.6445 17.9873 17.282C19.5025 16.8326 21.0757 17.279 22.3042 18.5082ZM9.45173 2.47057C9.46072 2.0781 9.7831 1.76172 10.1778 1.76172C10.5714 1.76172 10.8927 2.07622 10.9039 2.46683L10.5486 5.29589C10.3585 5.28314 10.1377 5.2794 9.89069 5.29327C9.82771 5.09047 9.75761 4.87267 9.67964 4.64551L9.45173 2.47057ZM3.56981 1.98176C4.2543 1.79995 5.95991 1.46633 7.19882 2.23291C8.2638 2.89154 8.77136 4.24328 9.10048 5.2794C8.37626 5.48969 6.63278 5.87092 5.41412 5.11746C4.17933 4.35387 3.71413 2.67637 3.56981 1.98176ZM4.5943 12.4362C4.58643 12.3058 4.58193 12.1742 4.58193 12.0411C4.58193 9.06585 6.47085 6.68774 9.28229 6.12321C10.2802 5.92378 11.0423 6.11796 11.0805 6.12658C13.4788 6.55542 15.3869 8.65051 15.7201 11.2217C15.7659 11.5729 15.782 11.9298 15.7689 12.2818C15.7231 13.4749 16.1092 14.7026 16.8563 15.7387C17.0711 16.0367 17.2649 16.3546 17.4441 16.6807C16.1625 17.1609 15.165 18.1318 14.621 19.4577C14.0055 20.9583 13.9913 22.8011 14.5809 24.7867C14.9071 25.885 15.3843 26.8968 15.9717 27.7796C14.2555 29.5189 12.0098 30.3864 9.63691 30.2327C5.53595 29.959 2.16109 26.4567 1.7866 22.0866C1.58005 19.6732 2.2578 17.3263 3.69464 15.4782C4.34539 14.6411 4.66477 13.5604 4.5943 12.4362Z" fill="black"/>
<path d="M11.6034 8.88442C12.5102 9.45233 13.1366 10.4453 13.2783 11.5403C13.3027 11.7292 13.4642 11.8672 13.6498 11.8672C13.6659 11.8672 13.682 11.8664 13.6985 11.8642C13.9036 11.8376 14.0486 11.6498 14.022 11.4443C13.8515 10.129 13.0957 8.93465 12.0008 8.24903C11.8253 8.13957 11.594 8.19243 11.4842 8.36786C11.3744 8.5433 11.4276 8.77459 11.6034 8.88442Z" fill="black"/>
<path d="M26.3871 19.548C26.8988 19.6972 27.304 20.0249 27.5593 20.4949C27.9173 21.1554 27.9522 22.057 27.6575 23.0331C27.5975 23.2314 27.71 23.4406 27.9079 23.5006C27.9443 23.5114 27.9803 23.5167 28.0163 23.5167C28.1775 23.5167 28.3263 23.4121 28.375 23.2502C28.7281 22.0806 28.6726 20.9755 28.2183 20.1377C27.8663 19.4877 27.3052 19.0352 26.5974 18.8283C26.3987 18.7702 26.1903 18.8845 26.1326 19.0832C26.0745 19.2819 26.1881 19.4903 26.3871 19.548Z" fill="black"/>
<path d="M1.03913 22.1511C1.44473 26.8867 5.11948 30.6829 9.58668 30.9809C9.77898 30.9936 9.97016 31 10.1617 31C12.4768 31 14.7185 30.0677 16.4159 28.394C16.7877 28.8674 17.1915 29.297 17.6285 29.661C19.0429 30.8388 20.5974 31.2572 22.0106 30.8384C22.1996 30.7826 22.3866 30.7099 22.5688 30.6218C22.7514 30.7095 22.9388 30.7822 23.1277 30.8384C23.4846 30.9445 23.8512 30.997 24.2223 30.997C25.3173 30.997 26.4527 30.5412 27.5095 29.6614C28.8807 28.5192 29.9633 26.7881 30.5574 24.7871C31.1467 22.8014 31.1328 20.9586 30.5173 19.4581C29.9273 18.0194 28.8076 16.9911 27.3651 16.563C25.8357 16.1083 24.2624 16.4236 22.944 17.4218V16.7535C22.959 16.6065 23.1806 14.6036 24.2722 12.9809C24.3876 12.8092 24.3423 12.576 24.1702 12.4606C23.9981 12.3444 23.7654 12.3905 23.6499 12.5622C23.3403 13.0229 23.0951 13.5072 22.9013 13.9754C22.8245 13.09 22.6007 12.1232 21.9188 11.4417C20.6053 10.1286 18.1856 10.5139 18.0836 10.5308C17.9254 10.557 17.8017 10.6807 17.7755 10.8389C17.7582 10.9413 17.374 13.3614 18.6868 14.6737C19.7292 15.7166 21.4716 15.6877 22.1947 15.624V17.4211C20.9933 16.5113 19.5808 16.1706 18.1811 16.4618C17.967 16.0577 17.7282 15.666 17.4643 15.2998C16.8147 14.3986 16.4785 13.337 16.5178 12.3099C16.5328 11.9159 16.5145 11.5174 16.4638 11.125C16.0912 8.24978 13.9542 5.90316 11.29 5.40572L11.651 2.53393C11.6529 2.51856 11.654 2.50281 11.654 2.48707C11.654 1.67325 10.9917 1.01087 10.1778 1.01087C9.36401 1.01087 8.70163 1.67287 8.70163 2.48707C8.70163 2.50019 8.70238 2.51293 8.70388 2.52605L8.72075 2.68574C8.41974 2.26478 8.05688 1.88092 7.59392 1.59453C5.71475 0.432464 3.12747 1.32538 3.01839 1.36362C2.8527 1.42209 2.74962 1.58853 2.77136 1.76322C2.7856 1.8783 3.14172 4.59228 5.02014 5.75434C5.58993 6.10671 6.23281 6.2589 6.85583 6.30089C4.9864 7.49182 3.83258 9.58353 3.83258 12.04C3.83258 12.1884 3.83783 12.3354 3.84645 12.4812C3.90568 13.4232 3.64141 14.324 3.10311 15.0171C1.54932 17.0162 0.816465 19.5492 1.03913 22.1511ZM19.2164 14.1448C18.4022 13.331 18.4311 11.8514 18.4836 11.2393C19.0939 11.1857 20.5719 11.1557 21.3888 11.9725C22.1032 12.6874 22.1775 13.939 22.1917 14.8713C21.6302 14.9268 20.0632 14.9913 19.2164 14.1448ZM22.3042 18.5082C22.3746 18.5787 22.4695 18.618 22.5692 18.618C22.6689 18.618 22.7641 18.5787 22.8342 18.5082C24.0626 17.279 25.6367 16.8318 27.1522 17.282C28.3728 17.6445 29.3215 18.5183 29.8238 19.743C30.3741 21.0838 30.379 22.7542 29.8388 24.5742C29.2867 26.435 28.2892 28.0371 27.03 29.0856C25.8143 30.0981 24.5035 30.4651 23.3418 30.1206C23.1408 30.061 22.9414 29.9774 22.7491 29.8724C22.6933 29.8417 22.6314 29.8263 22.5696 29.8263C22.5077 29.8263 22.4459 29.8417 22.39 29.8724C22.1981 29.9774 21.9986 30.061 21.7981 30.1206C20.6345 30.4655 19.3248 30.0981 18.1091 29.0856C16.85 28.0371 15.8521 26.435 15.3003 24.5742C14.7601 22.7546 14.7654 21.0838 15.3153 19.743C15.818 18.5183 16.7667 17.6445 17.9873 17.282C19.5025 16.8326 21.0757 17.279 22.3042 18.5082ZM9.45173 2.47057C9.46072 2.0781 9.7831 1.76172 10.1778 1.76172C10.5714 1.76172 10.8927 2.07622 10.9039 2.46683L10.5486 5.29589C10.3585 5.28314 10.1377 5.2794 9.89069 5.29327C9.82771 5.09047 9.75761 4.87267 9.67964 4.64551L9.45173 2.47057ZM3.56981 1.98176C4.2543 1.79995 5.95991 1.46633 7.19882 2.23291C8.2638 2.89154 8.77136 4.24328 9.10048 5.2794C8.37626 5.48969 6.63278 5.87092 5.41412 5.11746C4.17933 4.35387 3.71413 2.67637 3.56981 1.98176ZM4.5943 12.4362C4.58643 12.3058 4.58193 12.1742 4.58193 12.0411C4.58193 9.06585 6.47085 6.68774 9.28229 6.12321C10.2802 5.92378 11.0423 6.11796 11.0805 6.12658C13.4788 6.55542 15.3869 8.65051 15.7201 11.2217C15.7659 11.5729 15.782 11.9298 15.7689 12.2818C15.7231 13.4749 16.1092 14.7026 16.8563 15.7387C17.0711 16.0367 17.2649 16.3546 17.4441 16.6807C16.1625 17.1609 15.165 18.1318 14.621 19.4577C14.0055 20.9583 13.9913 22.8011 14.5809 24.7867C14.9071 25.885 15.3843 26.8968 15.9717 27.7796C14.2555 29.5189 12.0098 30.3864 9.63691 30.2327C5.53595 29.959 2.16109 26.4567 1.7866 22.0866C1.58005 19.6732 2.2578 17.3263 3.69464 15.4782C4.34539 14.6411 4.66477 13.5604 4.5943 12.4362Z" stroke="black" stroke-width="0.5" mask="url(#path-1-outside-1)"/>
<path d="M11.6034 8.88442C12.5102 9.45233 13.1366 10.4453 13.2783 11.5403C13.3027 11.7292 13.4642 11.8672 13.6498 11.8672C13.6659 11.8672 13.682 11.8664 13.6985 11.8642C13.9036 11.8376 14.0486 11.6498 14.022 11.4443C13.8515 10.129 13.0957 8.93465 12.0008 8.24903C11.8253 8.13957 11.594 8.19243 11.4842 8.36786C11.3744 8.5433 11.4276 8.77459 11.6034 8.88442Z" stroke="black" stroke-width="0.5" mask="url(#path-1-outside-1)"/>
<path d="M26.3871 19.548C26.8988 19.6972 27.304 20.0249 27.5593 20.4949C27.9173 21.1554 27.9522 22.057 27.6575 23.0331C27.5975 23.2314 27.71 23.4406 27.9079 23.5006C27.9443 23.5114 27.9803 23.5167 28.0163 23.5167C28.1775 23.5167 28.3263 23.4121 28.375 23.2502C28.7281 22.0806 28.6726 20.9755 28.2183 20.1377C27.8663 19.4877 27.3052 19.0352 26.5974 18.8283C26.3987 18.7702 26.1903 18.8845 26.1326 19.0832C26.0745 19.2819 26.1881 19.4903 26.3871 19.548Z" stroke="black" stroke-width="0.5" mask="url(#path-1-outside-1)"/>
</svg>
