<svg width="34" height="30" viewBox="0 0 34 30" fill="none" xmlns="http://www.w3.org/2000/svg">
<path d="M21.0202 7.227L7.227 0L6.90127 0.61631L0 13.7932L13.7955 21.0225L21.0202 7.227ZM1.88408 13.2073L7.81519 1.88408L19.1337 7.81519L13.2026 19.1337L1.88408 13.2073Z" fill="black"/>
<path d="M32.6972 3.78457L25.4984 6.03421C25.3226 6.08811 25.1726 6.21231 25.0859 6.37635L16.7013 22.3793C16.2279 22.1801 15.7171 22.0653 15.1875 22.0653C14.7961 22.0653 14.3977 22.1239 14.0041 22.2481C13.1581 22.5105 12.4645 23.0331 11.9794 23.6986L2.55663 18.7588C2.2145 18.5807 1.79269 18.7143 1.61459 19.0564C1.43649 19.3985 1.56772 19.818 1.90986 19.9984L11.3748 24.957C11.2787 25.3039 11.2178 25.6624 11.2178 26.0303C11.2178 26.424 11.274 26.8224 11.4006 27.2184C11.9349 28.9103 13.4955 30 15.1828 30C15.5765 30 15.9772 29.9414 16.3662 29.8172C18.0698 29.2853 19.1548 27.7246 19.1525 26.035C19.1525 25.6413 19.0962 25.2406 18.972 24.8516C18.7588 24.1673 18.3721 23.5885 17.8847 23.1339L26.1897 7.2809L33.1144 5.11561C33.4799 5.00078 33.6861 4.60709 33.5713 4.24153C33.4588 3.87361 33.0675 3.66974 32.6972 3.78457ZM15.9514 28.4838C15.6936 28.5659 15.4359 28.6057 15.1828 28.6057C14.0931 28.601 13.0761 27.9003 12.7316 26.8013C12.6496 26.5412 12.6144 26.2881 12.6144 26.0327C12.6144 24.9383 13.3198 23.9236 14.4188 23.5838L14.2103 22.916L14.4235 23.5791C14.6743 23.4971 14.9344 23.462 15.1875 23.462C16.2842 23.462 17.2965 24.1673 17.6387 25.2664C17.716 25.5195 17.7558 25.7819 17.7558 26.035C17.7558 27.127 17.0528 28.1394 15.9514 28.4838Z" fill="black"/>
</svg>
