<svg width="26" height="30" viewBox="0 0 26 30" fill="none" xmlns="http://www.w3.org/2000/svg">
<path d="M12.8903 0.000749386C12.7208 0.0167264 12.5634 0.0955511 12.449 0.221722C12.3347 0.347892 12.2717 0.512278 12.2724 0.68255V8.20367C7.69314 8.4666 3.81078 11.3643 2.09867 15.4158C2.05467 15.5196 2.03706 15.6326 2.04743 15.7448C2.05779 15.857 2.09581 15.9649 2.15807 16.0589C2.22034 16.1528 2.30491 16.2298 2.40423 16.2831C2.50355 16.3363 2.61451 16.3641 2.7272 16.364H4.43171V23.182H2.7272C2.70591 23.181 2.68458 23.181 2.66329 23.182C2.49376 23.198 2.33635 23.2768 2.22201 23.403C2.10767 23.5291 2.04467 23.6935 2.0454 23.8638V25.5683H0.681801C0.500982 25.5683 0.327574 25.6401 0.199715 25.768C0.0718563 25.8959 1.80792e-05 26.0693 0 26.2501V29.3182C1.80792e-05 29.499 0.0718563 29.6724 0.199715 29.8003C0.327574 29.9281 0.500982 30 0.681801 30H25.2266C25.4075 30 25.5809 29.9281 25.7087 29.8003C25.8366 29.6724 25.9084 29.499 25.9084 29.3182V26.2501C25.9084 26.0693 25.8366 25.8959 25.7087 25.768C25.5809 25.6401 25.4075 25.5683 25.2266 25.5683H23.863V23.8638C23.863 23.683 23.7912 23.5096 23.6633 23.3817C23.5355 23.2538 23.3621 23.182 23.1812 23.182H21.4767V16.364H23.1812C23.2939 16.3641 23.4049 16.3363 23.5042 16.2831C23.6035 16.2298 23.6881 16.1528 23.7504 16.0589C23.8126 15.9649 23.8507 15.857 23.861 15.7448C23.8714 15.6326 23.8538 15.5196 23.8098 15.4158C22.0977 11.3643 18.2153 8.4666 13.636 8.20367V5.49777C14.8512 5.59973 15.3533 5.94692 16.0223 6.39264C16.7836 6.8998 17.8081 7.50056 19.7722 7.50056C19.9531 7.50054 20.1265 7.42871 20.2543 7.30085C20.3822 7.17299 20.454 6.99958 20.454 6.81876V2.72795C20.454 2.54713 20.3822 2.37373 20.2543 2.24587C20.1265 2.11801 19.9531 2.04617 19.7722 2.04615C18.0212 2.04615 17.6199 1.6699 16.8852 1.15129C16.1505 0.632674 15.1133 0.000749386 12.9542 0.000749386C12.9329 -0.000249795 12.9116 -0.000249795 12.8903 0.000749386ZM13.636 1.40696C14.9741 1.49782 15.4839 1.82651 16.0969 2.25922C16.7189 2.69827 17.5711 3.22324 19.0904 3.35649V6.09435C17.927 5.99833 17.4083 5.67215 16.7787 5.25275C16.1026 4.80237 15.2008 4.27353 13.636 4.14482V1.40696ZM12.9542 9.54597C16.8917 9.54597 20.2858 11.7584 22.0627 15.0004H3.84578C5.62264 11.7584 9.01679 9.54597 12.9542 9.54597ZM5.79531 16.364H7.15891V23.182H5.79531V16.364ZM8.52251 16.364H10.9088V23.182H8.52251V16.364ZM12.2724 16.364H13.636V23.182H12.2724V16.364ZM14.9996 16.364H17.3859V23.182H14.9996V16.364ZM18.7495 16.364H20.1131V23.182H18.7495V16.364ZM3.40901 24.5456H22.4994V26.2501C22.4995 26.4309 22.5713 26.6043 22.6992 26.7322C22.827 26.86 23.0004 26.9319 23.1812 26.9319H24.5448V28.6364H1.3636V26.9319H2.7272C2.90802 26.9319 3.08143 26.86 3.20929 26.7322C3.33715 26.6043 3.40899 26.4309 3.40901 26.2501V24.5456Z" fill="black"/>
</svg>
