<svg width="67" height="39" viewBox="0 0 67 39" fill="none" xmlns="http://www.w3.org/2000/svg">
<path d="M66.8654 17.4741L65.9201 14.9208C65.8582 14.7576 65.7536 14.6133 65.617 14.5023L62.976 12.332C62.802 12.1883 62.6825 11.9911 62.6366 11.7723C62.5908 11.5535 62.6214 11.3259 62.7234 11.1263L63.6615 9.28939C63.7617 9.09198 63.7922 8.86739 63.7481 8.65107L62.2688 1.43808C62.2297 1.25662 62.1397 1.08955 62.009 0.95579L61.374 0.310379C61.2053 0.135229 60.9776 0.0264 60.7332 0.00421284C60.4889 -0.0179744 60.2447 0.0479967 60.0463 0.189808L57.1093 2.31754C56.9769 2.41377 56.8703 2.54038 56.7991 2.68634L54.1796 7.98439C54.076 8.1956 53.8996 8.36394 53.6817 8.45958L48.1038 10.8781C47.9236 10.9562 47.7706 11.0844 47.6636 11.2469L45.6215 14.3534C45.5329 14.4882 45.4125 14.5998 45.2705 14.6789C45.1285 14.7579 44.9692 14.802 44.806 14.8073L39.5167 14.935C39.3515 14.9402 39.1875 14.9055 39.0391 14.834C38.8908 14.7624 38.7625 14.6561 38.6656 14.5245C38.5687 14.3929 38.5062 14.2399 38.4835 14.079C38.4608 13.9181 38.4786 13.7542 38.5353 13.6016L38.6724 13.2328C38.7204 13.1041 38.7406 12.967 38.732 12.8302C38.7234 12.6934 38.6861 12.5598 38.6223 12.4379C38.5586 12.316 38.4699 12.2083 38.3618 12.1218C38.2537 12.0352 38.1285 11.9716 37.9941 11.9349L36.6303 11.5519C36.4849 11.5121 36.3324 11.5048 36.1838 11.5306C36.0352 11.5564 35.8943 11.6145 35.7716 11.7008L30.7204 15.247C30.5417 15.3724 30.3264 15.4371 30.107 15.4314L27.4948 15.3747C27.3161 15.3718 27.1397 15.4155 26.9838 15.5015C26.8278 15.5875 26.6979 15.7126 26.6073 15.8641L25.763 17.2826C25.67 17.4348 25.5371 17.5597 25.3783 17.6443C25.2194 17.7289 25.0404 17.7701 24.8599 17.7636C24.6793 17.7571 24.5038 17.7031 24.3517 17.6073C24.1996 17.5114 24.0765 17.3773 23.9951 17.2187L22.9848 15.2045C22.8752 14.9877 22.8499 14.7391 22.9137 14.5053C22.9775 14.2715 23.1259 14.0687 23.3312 13.9349L24.7744 12.9916C24.8506 12.9432 24.9331 12.905 25.0197 12.8782L27.9061 11.9703L28.2309 11.4171L25.6908 11.2753C25.4617 11.2633 25.2352 11.3283 25.0486 11.4597L21.8663 13.6867C21.6708 13.8252 21.532 14.0278 21.4751 14.258C21.4182 14.4882 21.4469 14.7308 21.5561 14.9421L22.1983 16.1052C22.276 16.2641 22.3093 16.4404 22.2948 16.6162C22.2802 16.7919 22.2184 16.9606 22.1155 17.105C22.0126 17.2495 21.8725 17.3644 21.7095 17.4379C21.5465 17.5115 21.3665 17.5411 21.188 17.5237L17.2048 17.0769C17.0479 17.0661 16.8958 17.0194 16.7605 16.9406C16.6252 16.8618 16.5105 16.753 16.4255 16.623L15.7039 15.2825C15.6493 15.19 15.6103 15.0894 15.5884 14.9846L15.1338 12.8569C15.0956 12.6784 15.0081 12.5138 14.881 12.3809C14.7539 12.2481 14.592 12.1523 14.4131 12.1039C14.2342 12.0556 14.0452 12.0566 13.8668 12.1068C13.6885 12.1571 13.5276 12.2546 13.402 12.3888L10.2197 15.7435C10.0571 15.9166 9.8371 16.0272 9.59912 16.0556L7.76625 16.2683C7.60729 16.2867 7.45504 16.342 7.32205 16.4295C7.18906 16.5171 7.07915 16.6344 7.00135 16.7719C6.91298 16.9281 6.78334 17.058 6.62612 17.1478L4.67058 18.2684C4.45476 18.3913 4.29283 18.5884 4.21597 18.8216L2.89544 22.8714C2.85015 23.0387 2.85015 23.2147 2.89544 23.382L3.69642 27.2616C3.7515 27.503 3.7129 27.7559 3.58818 27.9708L2.77999 29.3893C2.69147 29.54 2.56421 29.6652 2.41097 29.7523C2.25773 29.8395 2.08389 29.8855 1.90685 29.8858H1.00485C0.854254 29.8866 0.705745 29.9205 0.570187 29.9849C0.434629 30.0494 0.315452 30.1429 0.221376 30.2584C0.127299 30.374 0.0607034 30.5088 0.0264614 30.653C-0.00778062 30.7971 -0.00880264 30.9469 0.02347 31.0915L0.283247 32.2263C0.306657 32.3339 0.348112 32.437 0.405919 32.5313L2.49856 35.8789C2.60366 36.0452 2.75641 36.1772 2.93762 36.2584C3.11883 36.3396 3.32041 36.3663 3.51704 36.3352C3.71366 36.3042 3.89656 36.2167 4.04274 36.0837C4.18892 35.9508 4.29187 35.7784 4.33865 35.5881L4.41081 35.2902C4.45621 35.1197 4.54698 34.9641 4.67379 34.8395C4.80061 34.7148 4.9589 34.6256 5.13241 34.581L6.6622 34.1342C6.83571 34.0896 6.994 34.0003 7.12081 33.8757C7.24763 33.751 7.3384 33.5955 7.3838 33.4249L7.93944 31.3468C8.00189 31.141 8.1306 30.9605 8.30625 30.8326C8.4819 30.7048 8.69501 30.6363 8.9136 30.6376H10.9341C11.1527 30.6376 11.3654 30.7073 11.5402 30.8362L14.7658 33.2192C14.971 33.3698 15.2267 33.4382 15.4812 33.4106C15.7357 33.3829 15.9701 33.2613 16.1368 33.0703L17.1471 31.9072C17.2404 31.787 17.3605 31.6895 17.498 31.6219C17.6356 31.5542 17.787 31.5184 17.9408 31.5171L22.7611 31.9426C22.9655 31.961 23.1593 32.0402 23.3168 32.1696L31.4276 38.7726C31.5724 38.8902 31.7477 38.9658 31.9338 38.9908C32.1199 39.0159 32.3094 38.9894 32.4811 38.9145L38.456 36.2903C38.6436 36.2072 38.8525 36.1825 39.0549 36.2193L44.3947 37.191C44.584 37.2252 44.7793 37.2055 44.9576 37.1343L49.7346 35.2406C49.9363 35.156 50.1045 35.0093 50.2138 34.8225C50.3232 34.6357 50.3677 34.419 50.3407 34.2051L50.0665 32.3256C50.0383 32.1291 50.0707 31.9288 50.1595 31.7505C50.2482 31.5723 50.3893 31.4243 50.5644 31.3256L52.5055 30.2617C52.6547 30.181 52.8223 30.1387 52.9926 30.1387C53.1629 30.1387 53.3305 30.181 53.4797 30.2617L57.4557 32.3398C57.6133 32.4229 57.7906 32.4635 57.9693 32.4572C58.1481 32.451 58.322 32.3982 58.4732 32.3043L58.834 32.0774C58.9512 32.002 59.0831 31.9515 59.2212 31.9289C59.3594 31.9063 59.5008 31.9122 59.6365 31.9462C59.7722 31.9802 59.8993 32.0416 60.0096 32.1265C60.1198 32.2113 60.211 32.3178 60.2772 32.4391L60.7462 33.2902C60.8284 33.4625 60.8585 33.6543 60.8329 33.8429C60.8073 34.0315 60.7271 34.2089 60.6019 34.354L60.371 34.6377C60.2102 34.8295 60.1283 35.0736 60.1417 35.3218C60.1551 35.5699 60.2626 35.8042 60.4431 35.9782L60.4864 36.0208C60.666 36.1882 60.9019 36.2851 61.1493 36.2929C61.3967 36.3008 61.6385 36.2191 61.8286 36.0633L62.6585 35.3541C62.7863 35.2501 62.8861 35.1167 62.949 34.9658C63.0119 34.8149 63.036 34.6511 63.0193 34.4888L62.3843 28.446C62.3585 28.2722 62.2863 28.1083 62.175 27.9708L60.1256 25.5736C60.034 25.4676 59.9207 25.3816 59.793 25.3214C59.6654 25.2611 59.5263 25.2279 59.3848 25.2239C59.2433 25.2199 59.1025 25.2452 58.9715 25.2981C58.8406 25.351 58.7224 25.4304 58.6247 25.5311L58.2783 25.8431C58.1674 25.9575 58.0303 26.0441 57.8785 26.096C57.7266 26.1478 57.5644 26.1632 57.4052 26.141H57.1599C56.9074 26.1058 56.6778 25.978 56.5172 25.7833C56.3566 25.5886 56.2768 25.3414 56.2939 25.0913L56.6042 20.7224C56.623 20.4663 56.742 20.2274 56.9362 20.0557L60.1834 17.2187C60.3247 17.0941 60.4274 16.9328 60.4797 16.7534C60.532 16.5741 60.5319 16.3838 60.4792 16.2045L59.8226 13.9988C59.7629 13.7549 59.7993 13.498 59.9244 13.2794C60.0496 13.0609 60.2542 12.897 60.4973 12.8207C60.7403 12.7443 61.0037 12.7612 61.2346 12.8679C61.4655 12.9746 61.6468 13.1632 61.742 13.3959L63.2357 17.6514C63.2851 17.7916 63.3658 17.9192 63.472 18.0248C63.5781 18.1303 63.707 18.2112 63.8491 18.2613L65.5521 18.8642C65.7465 18.956 65.9658 18.9843 66.1777 18.9449C66.3897 18.9054 66.5833 18.8003 66.73 18.6449C66.8768 18.4895 66.9692 18.292 66.9935 18.0813C67.0179 17.8707 66.973 17.6578 66.8654 17.4741ZM61.439 10.488C61.3047 10.7265 61.212 10.9854 61.1647 11.254C61.0351 11.2438 60.9048 11.2438 60.7751 11.254C60.3444 11.2516 59.9208 11.3621 59.5479 11.574C59.1751 11.7859 58.8664 12.0916 58.6536 12.4597C58.4879 12.7427 58.382 13.0557 58.3423 13.3799C58.3027 13.704 58.33 14.0327 58.4227 14.3463L59.0072 16.2967L55.9692 18.9847C55.4945 19.4017 55.2044 19.9846 55.161 20.6089L54.8507 24.9778C54.8097 25.585 55.0031 26.1851 55.3923 26.6583C55.7816 27.1316 56.338 27.4432 56.9506 27.5311H57.1887C57.572 27.5847 57.9626 27.5483 58.3289 27.425C58.6951 27.3018 59.0264 27.0951 59.2958 26.8219L60.9411 28.751L61.2225 31.3894C60.8444 30.9276 60.3066 30.6188 59.7116 30.522C59.1166 30.4251 58.5062 30.5471 57.9969 30.8646L57.8526 30.9568L54.1003 28.9922C53.7387 28.7972 53.3329 28.695 52.9204 28.695C52.508 28.695 52.1022 28.7972 51.7406 28.9922L49.8789 30.0986C49.4488 30.3349 49.1019 30.694 48.8841 31.1285C48.6664 31.5629 48.588 32.0521 48.6594 32.5313L48.8975 34.0703L44.5679 35.7725L39.3435 34.8009C38.856 34.7126 38.3527 34.7719 37.9003 34.9711L32.178 37.4818L24.2404 31.049C23.8634 30.7484 23.4035 30.5656 22.9199 30.5241L18.0707 30.0986H17.8687C17.5135 30.0975 17.1623 30.1724 16.8396 30.3181C16.5168 30.4639 16.2302 30.677 15.9997 30.9426L15.2781 31.8008L12.3917 29.673C11.9747 29.3662 11.4694 29.1973 10.9485 29.1907H8.92803C8.38627 29.1902 7.85958 29.366 7.43012 29.6906C7.00066 30.0152 6.69259 30.4704 6.55396 30.9851L6.06327 32.8292L4.77161 33.2051C4.15631 33.3881 3.6383 33.8005 3.3284 34.354L1.67594 31.8291L1.54605 31.2546H1.89963C2.33154 31.2539 2.75563 31.1414 3.1293 30.9285C3.50297 30.7156 3.81304 30.4098 4.02836 30.0418L4.83655 28.6234C5.1346 28.1125 5.23213 27.5121 5.11076 26.9354L4.30257 23.1976L5.54372 19.4103L7.31886 18.3961C7.64344 18.2098 7.91999 17.9526 8.12705 17.6443L9.76509 17.4528C10.3461 17.3855 10.8835 17.1163 11.2804 16.6939L13.8638 13.9349L14.1452 15.2612C14.2003 15.5108 14.2953 15.7501 14.4266 15.9705L15.2132 17.3322C15.4062 17.6551 15.6729 17.9295 15.9922 18.1338C16.3115 18.3381 16.6747 18.4667 17.0533 18.5096L21.0365 18.9564H21.3179C21.944 18.9581 22.5465 18.7218 22.9993 18.2968C23.2457 18.601 23.5633 18.8421 23.9251 18.9995C24.2868 19.157 24.682 19.2261 25.0768 19.201C25.4716 19.176 25.8544 19.0574 26.1925 18.8555C26.5306 18.6536 26.814 18.3743 27.0186 18.0414L27.7402 16.8499L30.0998 16.8996C30.6329 16.8996 31.1517 16.7304 31.5791 16.4173L36.4499 12.9775L37.1715 13.169C37.046 13.5334 37.011 13.9222 37.0695 14.3027C37.1281 14.6831 37.2784 15.0443 37.508 15.356C37.7375 15.6678 38.0397 15.921 38.3891 16.0945C38.7386 16.268 39.1252 16.3568 39.5167 16.3535L44.8854 16.1832C45.2809 16.1708 45.6674 16.0643 46.0117 15.8728C46.3561 15.6814 46.6481 15.4106 46.8626 15.0839L48.8326 12.0838L54.2879 9.71494C54.8173 9.48453 55.2467 9.07755 55.5002 8.56596L58.0763 3.36722L60.6163 1.54446L60.905 1.84234L62.3482 8.78583L61.439 10.488ZM64.5563 16.8712L63.8347 14.8853L64.5563 15.5024L65.1408 17.0982L64.5563 16.8712Z" fill="#44403F"/>
</svg>
