<svg width="48" height="48" viewBox="0 0 48 48" fill="none" xmlns="http://www.w3.org/2000/svg">
<path d="M47.674 5.02912C47.6676 5.02267 47.6607 5.01577 47.6543 5.00886C47.5271 4.88227 47.3718 4.78758 47.2011 4.73252C47.0303 4.67747 46.8489 4.66363 46.6718 4.69212H43.3078V1.13155C43.3078 0.907748 43.2414 0.688975 43.1171 0.502893C42.9927 0.316812 42.816 0.17178 42.6092 0.0861358C42.4025 0.00049185 42.175 -0.0219177 41.9555 0.0217408C41.736 0.0653994 41.5343 0.173165 41.3761 0.331412L34.9938 6.71365C34.8888 6.81871 34.8054 6.94345 34.7485 7.08074C34.6916 7.21803 34.6624 7.36518 34.6624 7.51379V11.7373L33.278 13.1217C29.6292 9.84031 24.8959 8.02413 19.9887 8.0225C8.96679 8.0225 0 16.9893 0 28.0113C0 39.0332 8.96679 48 19.9887 48C31.0107 48 39.9774 39.0332 39.9774 28.0113C39.9758 23.104 38.1596 18.3707 34.8783 14.7219L36.2626 13.3376H40.4862C40.6616 13.3369 40.8344 13.2949 40.9907 13.215C41.1469 13.1351 41.2821 13.0195 41.3853 12.8777L47.5019 6.76152C47.6396 6.66849 47.7551 6.54626 47.8402 6.40354C47.9254 6.26082 47.978 6.10109 47.9944 5.93572C48.0109 5.77035 47.9907 5.60339 47.9353 5.4467C47.8799 5.29001 47.7907 5.14744 47.674 5.02912ZM37.7142 28.0113C37.7142 37.7851 29.7626 45.7368 19.9887 45.7368C10.2149 45.7368 2.26323 37.7851 2.26323 28.0113C2.26323 18.2374 10.2149 10.2857 19.9887 10.2857C24.2963 10.2867 28.4545 11.8645 31.6784 14.7213L28.7467 17.6529C26.3024 15.5737 23.1978 14.4326 19.9888 14.4337C12.5025 14.4337 6.41174 20.5245 6.41174 28.0112C6.41174 35.4979 12.5025 41.5887 19.9888 41.5887C27.4754 41.5887 33.5662 35.4979 33.5662 28.0112C33.5674 24.8022 32.4262 21.6975 30.347 19.2532L33.2787 16.3215C36.1355 19.5455 37.7132 23.7037 37.7142 28.0113ZM25.08 28.0113C25.0839 29.145 24.7105 30.2478 24.0187 31.146C23.3268 32.0443 22.3559 32.6868 21.2587 32.9725C20.1615 33.2582 19.0005 33.1708 17.9584 32.7241C16.9164 32.2774 16.0525 31.4967 15.503 30.5051C14.9534 29.5134 14.7493 28.3671 14.9228 27.2467C15.0963 26.1263 15.6376 25.0955 16.4614 24.3165C17.2852 23.5376 18.3448 23.0548 19.4731 22.9442C20.6015 22.8337 21.7346 23.1016 22.6939 23.7058L19.1886 27.2111C19.0832 27.3161 18.9996 27.4409 18.9426 27.5782C18.8855 27.7156 18.8561 27.8629 18.8559 28.0116C18.8558 28.1604 18.885 28.3077 18.9419 28.4451C18.9988 28.5826 19.0822 28.7074 19.1874 28.8126C19.2925 28.9178 19.4174 29.0012 19.5549 29.0581C19.6923 29.1149 19.8396 29.1442 19.9884 29.144C20.1371 29.1439 20.2844 29.1145 20.4217 29.0574C20.5591 29.0003 20.6838 28.9167 20.7889 28.8114L24.2942 25.3061C24.8072 26.1151 25.0797 27.0533 25.08 28.0113ZM24.3193 22.0804C22.8183 20.9826 20.9583 20.4916 19.1111 20.7058C17.2638 20.92 15.5655 21.8234 14.3555 23.2356C13.1455 24.6477 12.513 26.4645 12.5846 28.3227C12.6561 30.181 13.4263 31.9438 14.7413 33.2587C16.0562 34.5737 17.819 35.3439 19.6773 35.4155C21.5355 35.487 23.3523 34.8545 24.7645 33.6446C26.1766 32.4346 27.08 30.7362 27.2942 28.8889C27.5084 27.0417 27.0174 25.1817 25.9196 23.6807L28.7442 20.856C30.5843 23.1067 31.489 25.9786 31.2711 28.8776C31.0532 31.7767 29.7294 34.481 27.5735 36.4314C25.4176 38.3817 22.5946 39.4289 19.6883 39.3562C16.782 39.2835 14.0148 38.0965 11.9591 36.0408C9.90345 33.9851 8.7165 31.218 8.64381 28.3117C8.57112 25.4054 9.61824 22.5823 11.5686 20.4264C13.519 18.2705 16.2233 16.9467 19.1223 16.7288C22.0214 16.5109 24.8932 17.4156 27.1439 19.2558L24.3193 22.0804ZM39.9885 11.0744H36.9256V7.98245L41.0446 3.86297V5.82373C41.0447 6.12383 41.1639 6.41161 41.3761 6.62382C41.5883 6.83602 41.8761 6.95527 42.1762 6.95535H44.108L39.9885 11.0744Z" fill="#44403F"/>
</svg>
