<svg width="66" height="66" viewBox="0 0 66 66" fill="none" xmlns="http://www.w3.org/2000/svg">
<path d="M26.4 32.8V23.6C26.4 23 26 22.6 25.4 22.6C24.8 22.6 24.4 23 24.4 23.6V32.8C22.6 33.3 21.3 34.9 21.3 36.9C21.3 37.7 21.5 38.4 21.9 39L15.6 45C15.2 45.4 15.2 46 15.6 46.4C16 46.8 16.6 46.8 17 46.4L23.2 40.4C23.8 40.8 24.6 41.1 25.4 41.1C27.7 41.1 29.5 39.2 29.5 36.9C29.5 34.9 28.2 33.2 26.4 32.8ZM25.4 39.1C24.2 39.1 23.3 38.1 23.3 36.9C23.3 35.7 24.3 34.7 25.4 34.7C26.6 34.7 27.5 35.7 27.5 36.9C27.5 38.1 26.6 39.1 25.4 39.1Z" fill="#44403F"/>
<path d="M66 60.4C66 60.1 65.9 59.9 65.7 59.7L61.1 55.1C60.7 54.7 60.1 54.7 59.7 55.1C59.3 55.5 59.3 56.1 59.7 56.5L62.6 59.4H50.9C55.3 56.8 58.3 52.1 58.3 46.6C58.3 41 55.2 36.1 50.6 33.6C49 21.3 38.8 12 26.4 11.5V8.8H32.6C33.2 8.8 33.6 8.4 33.6 7.8V1C33.6 0.4 33.2 0 32.6 0H18.4C17.8 0 17.4 0.4 17.4 1V7.7C17.4 8.3 17.8 8.7 18.4 8.7H24.4V11.4C10.8 12 0 23.2 0 36.9C0 50.9 11.4 62.3 25.4 62.3C29.3 62.3 33.1 61.4 36.5 59.7C38.6 60.8 40.9 61.4 43.5 61.4H62.6L59.7 64.3C59.3 64.7 59.3 65.3 59.7 65.7C60.1 66.1 60.7 66.1 61.1 65.7L65.7 61.1C65.9 60.9 66 60.7 66 60.4ZM19.4 2H31.6V6.7H19.4V2ZM56.3 46.6C56.3 53.6 50.6 59.4 43.5 59.4C36.4 59.4 30.7 53.7 30.7 46.6C30.7 39.6 36.4 33.8 43.5 33.8C50.6 33.8 56.3 39.6 56.3 46.6ZM25.4 60.2C12.5 60.2 2 49.8 2 36.9C2 24 12.5 13.5 25.4 13.5C36.8 13.5 46.4 21.7 48.4 32.7C46.9 32.2 45.2 31.9 43.5 31.9C35.4 31.9 28.7 38.5 28.7 46.7C28.7 51.5 31 55.7 34.5 58.4C31.6 59.6 28.6 60.2 25.4 60.2Z" fill="#44403F"/>
<path d="M40.3 47.4C41.2 46.5 41.8 45.8 42.1 45.2C42.4 44.6 42.6 44 42.6 43.4C42.6 42.3 42.2 41.4 41.4 40.7C40.6 40 39.7 39.7 38.7 39.7C37.7 39.7 36.8 39.9 36.2 40.3C35.5 40.7 35 41.3 34.4 42.1L36.1 43.1C36.8 42.1 37.6 41.5 38.6 41.5C39.2 41.5 39.7 41.7 40 42C40.4 42.3 40.6 42.8 40.6 43.3C40.6 43.8 40.4 44.3 40.1 44.8C39.7 45.3 39.2 45.9 38.3 46.8L34.6 50.6V52.4H43V50.4H37.4L40.3 47.4Z" fill="#44403F"/>
<path d="M49.9 52.4H51.8V49.3H53.3V47.4H51.8V45.1H49.9V47.4H46.9L51.4 40.1H49.1L44.6 47.4V49.3H49.9V52.4Z" fill="#44403F"/>
</svg>
