<svg width="80" height="44" viewBox="0 0 80 44" fill="none" xmlns="http://www.w3.org/2000/svg">
<path fill-rule="evenodd" clip-rule="evenodd" d="M49.472 27.6579L49.5343 27.5456C49.6767 27.2856 49.6175 26.9611 49.3918 26.7699L46.8571 24.6228C46.7282 24.513 46.5616 24.4615 46.3939 24.4807C46.2268 24.4987 46.0738 24.585 45.9708 24.7196L45.5952 25.2111V22.5961C48.2934 20.691 50.0764 17.4734 50.0961 13.8277C50.8269 10.02 50.4125 7.14183 48.8645 5.27086C47.4793 3.59723 45.6113 3.2671 44.87 3.20256C41.9202 -0.470494 38.4973 -0.33149 36.1248 0.449786C32.3831 1.68096 28.7778 5.47875 28.7537 6.46295C28.75 6.62739 28.8111 6.78625 28.9233 6.90602C29.7547 7.78534 29.8718 10.9657 29.7485 13.1668C29.7485 13.1941 29.7411 13.222 29.7442 13.2487C29.7337 13.428 29.722 13.6024 29.7084 13.7662C29.7084 17.5702 31.6338 20.9051 34.5133 22.7891V25.2496L34.1075 24.719C34.0045 24.5843 33.8522 24.4987 33.6844 24.4801C33.5167 24.4615 33.3495 24.513 33.2213 24.6222L30.6865 26.7693C30.4608 26.9604 30.401 27.285 30.5441 27.545L30.6039 27.653C25.2828 27.8664 21.0101 32.7682 21.0101 38.7782V43.3794C21.0101 43.7226 21.0314 44 21.6268 44C22.2222 44 22.2429 43.3794 22.2429 43.3794V38.7795C22.2429 33.318 26.1536 28.8748 30.961 28.8748H31.2761L35.5235 36.5827C35.6135 36.7447 35.7696 36.8576 35.9503 36.8918C35.9879 36.8986 36.0255 36.9023 36.0631 36.9023C36.2068 36.9023 36.3474 36.852 36.4597 36.7577L40.0398 33.7387L43.6199 36.7577C43.7321 36.852 43.8721 36.9023 44.0164 36.9023C44.054 36.9023 44.0917 36.8986 44.1293 36.8918C44.31 36.8576 44.4666 36.7447 44.5561 36.5827L48.8034 28.8748H49.0396C53.847 28.8748 57.7577 33.318 57.7577 38.7795V43.3794L58.3732 44L58.9899 43.3794V38.7795C58.9893 32.798 54.7573 27.9155 49.472 27.6579ZM48.2095 27.3905L46.5555 25.9893L41.1517 33.0567L43.8382 35.3224L48.2095 27.3905ZM44.0707 4.18676C42.3408 1.92608 40.2433 0.959881 37.8467 1.30925C34.1834 1.84417 30.7852 5.3292 30.0852 6.39841C30.713 7.37764 30.94 9.06058 31.0041 10.5828C32.2191 8.85145 34.4288 6.93519 38.0792 7.60725C40.9994 8.14589 42.3698 7.71026 43.0038 7.24919C43.449 6.92774 43.5298 6.58581 43.5298 6.58209C43.5557 6.40089 43.66 6.24017 43.8141 6.14336C43.9683 6.04655 44.1577 6.02173 44.331 6.07944C44.4901 6.13095 47.5404 7.17224 49.2006 10.7206C49.2413 8.72362 48.8201 7.15672 47.9166 6.06579C46.5777 4.44739 44.6375 4.42877 44.5678 4.42877C44.5659 4.42815 44.5628 4.42877 44.5591 4.42877C44.3673 4.42877 44.1873 4.33941 44.0707 4.18676ZM30.9776 13.2555C30.9616 13.5261 30.9462 13.729 30.9388 13.8196C30.9412 18.9547 34.9611 23.1751 39.9016 23.1751C44.8274 23.1751 48.8355 18.9795 48.8596 13.8128C48.191 9.72829 45.5854 8.02922 44.4623 7.47755C44.3094 7.72391 44.0762 8.00006 43.7247 8.2551C42.5184 9.12884 40.5424 9.32307 37.8572 8.82663C32.9962 7.93428 31.2373 12.4898 30.9776 13.2555ZM39.9016 24.4162C38.4209 24.4162 37.0172 24.0773 35.7461 23.4816L35.7455 26.8624L40.0379 32.4759L44.3606 26.8233V23.3283C43.0118 24.0184 41.502 24.4162 39.9016 24.4162ZM38.9266 33.0567L33.5222 25.9893L31.8688 27.3905L36.2401 35.3224L38.9266 33.0567Z" fill="#44403F"/>
<path fill-rule="evenodd" clip-rule="evenodd" d="M72.9586 26.1079L72.9122 26.1911C76.8481 26.3818 79.9995 29.9985 80 34.4292V37.8366L79.5407 38.2963L79.0824 37.8366V34.4292C79.0824 30.3837 76.1702 27.0925 72.5902 27.0925H72.4143L69.2514 32.802C69.1848 32.922 69.0682 33.0057 68.9336 33.0309C68.9056 33.036 68.8776 33.0387 68.8495 33.0387C68.7421 33.0387 68.6378 33.0015 68.5542 32.9316L65.8882 30.6954L63.2222 32.9316C63.1386 33.0015 63.0339 33.0387 62.9269 33.0387C62.8989 33.0387 62.8709 33.036 62.8428 33.0309C62.7083 33.0057 62.5921 32.922 62.525 32.802L59.3621 27.0925H59.1274C57.0812 27.0925 55.2531 28.1677 54.0623 29.8445C53.8193 29.6604 53.3275 29.3005 53.3041 29.3333C54.6111 27.488 56.6103 26.2772 58.8615 26.1874L58.8169 26.1074C58.7104 25.9148 58.7549 25.6744 58.923 25.5328L60.8106 23.9424C60.9061 23.8615 61.0306 23.8233 61.1555 23.8371C61.2804 23.8509 61.3939 23.9143 61.4706 24.0141L61.7728 24.4071V22.5845C59.6285 21.1889 58.1946 18.7187 58.1946 15.9009C58.2047 15.7796 58.2135 15.6504 58.2213 15.5175C58.2199 15.506 58.2213 15.4941 58.2226 15.4822C58.2235 15.4737 58.2245 15.4653 58.2245 15.4569C58.3163 13.8264 58.2291 11.4706 57.61 10.8193C57.5264 10.7306 57.4809 10.6129 57.4837 10.4911C57.5016 9.76204 60.1865 6.94886 62.9728 6.03688C64.7396 5.45816 67.2885 5.35519 69.4852 8.07597C70.0372 8.12378 71.4283 8.36832 72.4598 9.60805C73.6126 10.9939 73.9212 13.1259 73.377 15.9464C73.3623 18.647 72.0345 21.0304 70.0253 22.4415V24.3786L70.305 24.0145C70.3817 23.9148 70.4956 23.8509 70.62 23.8376C70.7449 23.8233 70.8689 23.8615 70.9649 23.9428L72.8525 25.5333C73.0206 25.6749 73.0647 25.9153 72.9586 26.1079ZM70.7403 24.955L71.9721 25.9929L68.7168 31.8684L66.7163 30.1902L70.7403 24.955ZM64.2551 6.67352C66.0398 6.41473 67.6017 7.13043 68.89 8.805C68.9768 8.91808 69.1109 8.98428 69.2537 8.98428H69.2601C69.312 8.98428 70.7569 8.99807 71.7539 10.1969C72.4268 11.005 72.7404 12.1656 72.7101 13.6449C71.4738 11.0165 69.2023 10.2451 69.0838 10.207C68.9547 10.1642 68.8137 10.1826 68.6989 10.2543C68.5841 10.326 68.5065 10.4451 68.4872 10.5793C68.4872 10.5821 68.427 10.8354 68.0954 11.0735C67.6233 11.415 66.6028 11.7377 64.4282 11.3387C61.7098 10.8409 60.0643 12.2603 59.1595 13.5428C59.1118 12.4152 58.9428 11.1686 58.4752 10.4433C58.9965 9.65126 61.527 7.06975 64.2551 6.67352ZM59.1109 15.9404C59.1164 15.8733 59.1279 15.723 59.1398 15.5226C59.3331 14.9554 60.643 11.5809 64.2629 12.2419C66.2625 12.6097 67.734 12.4658 68.6323 11.8186C68.8941 11.6297 69.0677 11.4251 69.1816 11.2426C70.0179 11.6513 71.9583 12.9098 72.4561 15.9354C72.4382 19.7626 69.4535 22.8704 65.7853 22.8704C62.1062 22.8704 59.1127 19.7442 59.1109 15.9404ZM62.6908 23.0975C63.6374 23.5388 64.6826 23.7898 65.7853 23.7898C66.9771 23.7898 68.1014 23.4951 69.1058 22.984V25.5728L65.8868 29.7599L62.6904 25.6018L62.6908 23.0975ZM61.0347 24.955L65.0592 30.1902L63.0587 31.8684L59.8034 25.9929L61.0347 24.955Z" fill="#44403F"/>
<path fill-rule="evenodd" clip-rule="evenodd" d="M7.04143 26.1079L7.08781 26.1911C3.15193 26.3818 0.000459263 29.9985 0 34.4292V37.8366L0.459265 38.2963L0.917611 37.8366V34.4292C0.917611 30.3837 3.8298 27.0925 7.40976 27.0925H7.58565L10.7486 32.802C10.8152 32.922 10.9318 33.0057 11.0664 33.0309C11.0944 33.036 11.1224 33.0387 11.1505 33.0387C11.2579 33.0387 11.3622 33.0015 11.4458 32.9316L14.1118 30.6954L16.7778 32.9316C16.8614 33.0015 16.9661 33.0387 17.0731 33.0387C17.1011 33.0387 17.1291 33.036 17.1572 33.0309C17.2917 33.0057 17.4079 32.922 17.475 32.802L20.6379 27.0925H20.8726C22.9188 27.0925 24.7469 28.1677 25.9377 29.8445C26.1807 29.6604 26.6725 29.3005 26.6959 29.3333C25.3889 27.488 23.3897 26.2772 21.1385 26.1874L21.1831 26.1074C21.2896 25.9148 21.2451 25.6744 21.077 25.5328L19.1894 23.9424C19.0939 23.8615 18.9694 23.8233 18.8445 23.8371C18.7196 23.8509 18.6061 23.9143 18.5294 24.0141L18.2272 24.4071V22.5845C20.3715 21.1889 21.8054 18.7187 21.8054 15.9009C21.7953 15.7796 21.7865 15.6504 21.7787 15.5175C21.7801 15.506 21.7787 15.4941 21.7774 15.4822C21.7765 15.4737 21.7755 15.4653 21.7755 15.4569C21.6837 13.8264 21.7709 11.4706 22.39 10.8193C22.4736 10.7306 22.5191 10.6129 22.5163 10.4911C22.4984 9.76204 19.8135 6.94886 17.0272 6.03688C15.2604 5.45816 12.7115 5.35519 10.5148 8.07597C9.9628 8.12378 8.57169 8.36832 7.54019 9.60805C6.38743 10.9939 6.07881 13.1259 6.62304 15.9464C6.63773 18.647 7.96546 21.0304 9.97474 22.4415V24.3786L9.69505 24.0145C9.61835 23.9148 9.50445 23.8509 9.37999 23.8376C9.25507 23.8233 9.13107 23.8615 9.03509 23.9428L7.14752 25.5333C6.97943 25.6749 6.93534 25.9153 7.04143 26.1079ZM9.25967 24.955L8.02792 25.9929L11.2832 31.8684L13.2837 30.1902L9.25967 24.955ZM15.7449 6.67352C13.9602 6.41473 12.3983 7.13043 11.11 8.805C11.0232 8.91808 10.8891 8.98428 10.7463 8.98428H10.7399C10.688 8.98428 9.24313 8.99807 8.24607 10.1969C7.57325 11.005 7.25958 12.1656 7.28989 13.6449C8.52623 11.0165 10.7977 10.2451 10.9162 10.207C11.0453 10.1642 11.1863 10.1826 11.3011 10.2543C11.4159 10.326 11.4935 10.4451 11.5128 10.5793C11.5128 10.5821 11.573 10.8354 11.9046 11.0735C12.3767 11.415 13.3972 11.7377 15.5718 11.3387C18.2902 10.8409 19.9357 12.2603 20.8405 13.5428C20.8882 12.4152 21.0572 11.1686 21.5248 10.4433C21.0035 9.65126 18.473 7.06975 15.7449 6.67352ZM20.8891 15.9404C20.8836 15.8733 20.8721 15.723 20.8602 15.5226C20.6669 14.9554 19.357 11.5809 15.7371 12.2419C13.7375 12.6097 12.266 12.4658 11.3677 11.8186C11.1059 11.6297 10.9323 11.4251 10.8184 11.2426C9.98209 11.6513 8.04171 12.9098 7.54386 15.9354C7.56177 19.7626 10.5465 22.8704 14.2147 22.8704C17.8938 22.8704 20.8873 19.7442 20.8891 15.9404ZM17.3092 23.0975C16.3626 23.5388 15.3174 23.7898 14.2147 23.7898C13.0229 23.7898 11.8986 23.4951 10.8942 22.984V25.5728L14.1132 29.7599L17.3096 25.6018L17.3092 23.0975ZM18.9653 24.955L14.9408 30.1902L16.9413 31.8684L20.1966 25.9929L18.9653 24.955Z" fill="#44403F"/>
</svg>
