<svg width="42" height="48" viewBox="0 0 42 48" fill="none" xmlns="http://www.w3.org/2000/svg">
<path d="M21.7241 18.9091C21.3242 18.9091 21 18.5835 21 18.1818C21 17.7802 21.3242 17.4545 21.7241 17.4545H26.069C26.4689 17.4545 26.7931 17.7802 26.7931 18.1818C26.7931 18.5835 26.4689 18.9091 26.069 18.9091H21.7241ZM9.41379 32C9.01386 32 8.68966 31.6744 8.68966 31.2727C8.68966 30.8711 9.01386 30.5455 9.41379 30.5455H32.5862C32.9861 30.5455 33.3103 30.8711 33.3103 31.2727C33.3103 31.6744 32.9861 32 32.5862 32H9.41379ZM1.44828 1.45455V47.2727C1.44828 47.6744 1.12407 48 0.724138 48C0.324207 48 0 47.6744 0 47.2727V0.727273C0 0.325611 0.324207 0 0.724138 0H41.2759C41.6758 0 42 0.325611 42 0.727273V47.2727C42 47.6744 41.6758 48 41.2759 48C40.8759 48 40.5517 47.6744 40.5517 47.2727V1.45455H1.44828ZM9.41379 40C9.01386 40 8.68966 39.6744 8.68966 39.2727C8.68966 38.8711 9.01386 38.5455 9.41379 38.5455H32.5862C32.9861 38.5455 33.3103 38.8711 33.3103 39.2727C33.3103 39.6744 32.9861 40 32.5862 40H9.41379ZM9.41379 48C9.01386 48 8.68966 47.6744 8.68966 47.2727C8.68966 46.8711 9.01386 46.5455 9.41379 46.5455H21C21.3999 46.5455 21.7241 46.8711 21.7241 47.2727C21.7241 47.6744 21.3999 48 21 48H9.41379ZM14.6949 11.4233C14.4121 11.1393 14.4121 10.6789 14.6949 10.3948C14.9777 10.1108 15.4361 10.1108 15.7189 10.3948L19.3396 14.0312C19.6224 14.3152 19.6224 14.7757 19.3396 15.0597L15.7189 18.6961C15.4361 18.9801 14.9777 18.9801 14.6949 18.6961C14.4121 18.4121 14.4121 17.9516 14.6949 17.6676L17.8035 14.5455L14.6949 11.4233Z" fill="#44403F"/>
</svg>
