<svg width="19" height="11" viewBox="0 0 19 11" fill="none" xmlns="http://www.w3.org/2000/svg">
<path fill-rule="evenodd" clip-rule="evenodd" d="M15.4529 10.9484H15.3112C14.3443 10.7916 13.7463 10.1183 13.1846 9.4908C12.8627 9.13805 12.3444 8.2298 11.7669 8.32469C10.9458 8.45792 11.4038 9.90914 11.0581 10.5111C10.7839 10.9922 9.59911 10.8901 8.78975 10.8027C6.22371 10.5318 4.83181 9.21122 3.68602 7.74164C2.45546 6.17367 1.56954 4.45425 0.708851 2.63993C0.42531 2.04536 0 1.46654 0 0.745011C0.41723 0.40859 1.1567 0.453485 1.84301 0.453485C2.4203 0.453485 3.26071 0.384977 3.68602 0.599248C3.93795 0.728394 4.19087 1.47645 4.39487 1.91112C4.79296 2.77983 5.26751 3.60927 5.81258 4.38909C6.06039 4.73892 6.50569 5.35346 6.94674 5.26367C7.38013 5.17767 7.35348 4.19041 7.37205 3.51451C7.39459 2.7459 7.453 1.73766 7.23028 1.32806C7.02358 0.944124 6.62194 0.974734 6.23789 0.745011C6.55602 0.103654 7.44293 0.0161959 8.50621 0.0161959C9.39766 0.0161959 10.5641 -0.129567 10.9163 0.453485C11.266 1.05476 11.0846 2.27042 11.0581 3.07722C11.0316 3.98328 10.858 4.84343 11.4834 5.26367C11.9671 5.21207 12.1978 4.7535 12.4758 4.38909C13.0918 3.58885 13.5597 2.93875 14.0352 1.91112C14.2286 1.48214 14.3918 0.735245 14.7441 0.599248C15.282 0.399844 16.084 0.453485 16.8706 0.453485C17.5198 0.453485 18.6496 0.303058 18.8554 0.745011C19.0223 1.0979 18.5861 2.09332 18.4301 2.34841C17.8316 3.3189 17.2307 3.98256 16.5871 4.82638C16.3274 5.16746 15.8437 5.60067 15.8783 6.13825C15.9009 6.55309 16.2678 6.86794 16.5871 7.15859C17.2061 7.73884 17.7752 8.37282 18.2883 9.05351C18.4987 9.32142 19.0437 9.87211 18.9972 10.2196C18.8661 11.305 15.4546 10.9381 15.4529 10.9484Z" fill="#44403F"/>
</svg>
